%TF.GenerationSoftware,KiCad,Pcbnew,(5.1.12)-1*%
%TF.CreationDate,2022-02-09T09:57:39+03:00*%
%TF.ProjectId,Streamer_ADAU1701 front,53747265-616d-4657-925f-414441553137,rev?*%
%TF.SameCoordinates,Original*%
%TF.FileFunction,Copper,L2,Bot*%
%TF.FilePolarity,Positive*%
%FSLAX46Y46*%
G04 Gerber Fmt 4.6, Leading zero omitted, Abs format (unit mm)*
G04 Created by KiCad (PCBNEW (5.1.12)-1) date 2022-02-09 09:57:39*
%MOMM*%
%LPD*%
G01*
G04 APERTURE LIST*
%TA.AperFunction,ComponentPad*%
%ADD10C,1.600000*%
%TD*%
%TA.AperFunction,ComponentPad*%
%ADD11C,2.800000*%
%TD*%
%TA.AperFunction,ComponentPad*%
%ADD12C,4.500000*%
%TD*%
%TA.AperFunction,ComponentPad*%
%ADD13R,1.700000X1.700000*%
%TD*%
%TA.AperFunction,ComponentPad*%
%ADD14O,1.700000X1.700000*%
%TD*%
%TA.AperFunction,ComponentPad*%
%ADD15C,2.340000*%
%TD*%
%TA.AperFunction,ComponentPad*%
%ADD16C,11.000000*%
%TD*%
%TA.AperFunction,ViaPad*%
%ADD17C,0.800000*%
%TD*%
%TA.AperFunction,Conductor*%
%ADD18C,0.500000*%
%TD*%
%TA.AperFunction,Conductor*%
%ADD19C,0.250000*%
%TD*%
%TA.AperFunction,Conductor*%
%ADD20C,0.350000*%
%TD*%
%TA.AperFunction,Conductor*%
%ADD21C,0.254000*%
%TD*%
%TA.AperFunction,Conductor*%
%ADD22C,0.100000*%
%TD*%
G04 APERTURE END LIST*
D10*
%TO.P,J2,1*%
%TO.N,GPIO4_BASS*%
X133000000Y-81300000D03*
%TO.P,J2,2*%
%TO.N,VDD*%
X133000000Y-83840000D03*
%TO.P,J2,3*%
%TO.N,GPIO3_VOL*%
X135540000Y-81300000D03*
%TO.P,J2,4*%
%TO.N,GND*%
X135540000Y-83840000D03*
%TO.P,J2,5*%
%TO.N,GPIO2_BAL*%
X138080000Y-81300000D03*
%TO.P,J2,6*%
%TO.N,GPIO6_TREBLE*%
X138080000Y-83840000D03*
%TO.P,J2,7*%
%TO.N,GPIO10\u005CLED_MUTE*%
X140620000Y-81300000D03*
%TO.P,J2,8*%
%TO.N,GPIO8_SBASS*%
X140620000Y-83840000D03*
%TD*%
%TO.P,J1,1*%
%TO.N,GPIO7\u005CLED_COMP*%
X102500000Y-81300000D03*
%TO.P,J1,2*%
%TO.N,GPIO5_MUTE*%
X102500000Y-83840000D03*
%TO.P,J1,3*%
%TO.N,5V*%
X105040000Y-81300000D03*
%TO.P,J1,4*%
%TO.N,Net-(J1-Pad4)*%
X105040000Y-83840000D03*
%TO.P,J1,5*%
%TO.N,Net-(J1-Pad5)*%
X107580000Y-81300000D03*
%TO.P,J1,6*%
%TO.N,GND*%
X107580000Y-83840000D03*
%TO.P,J1,7*%
%TO.N,Net-(J1-Pad7)*%
X110120000Y-81300000D03*
%TO.P,J1,8*%
%TO.N,GPIO1_COMP*%
X110120000Y-83840000D03*
%TD*%
D11*
%TO.P,REF\u002A\u002A,1*%
%TO.N,GND*%
X106500000Y-76500000D03*
%TD*%
D12*
%TO.P,REF\u002A\u002A,1*%
%TO.N,GND*%
X66900000Y-97400000D03*
%TD*%
%TO.P,REF\u002A\u002A,1*%
%TO.N,GND*%
X66900000Y-68500000D03*
%TD*%
%TO.P,REF\u002A\u002A,1*%
%TO.N,GND*%
X206000000Y-68500000D03*
%TD*%
%TO.P,REF\u002A\u002A,1*%
%TO.N,GND*%
X206000000Y-97400000D03*
%TD*%
D13*
%TO.P,J3,1*%
%TO.N,SHD-*%
X170600000Y-81300000D03*
D14*
%TO.P,J3,2*%
%TO.N,SHD+*%
X170600000Y-83840000D03*
%TO.P,J3,3*%
%TO.N,CLIP-*%
X173140000Y-81300000D03*
%TO.P,J3,4*%
%TO.N,CLIP+*%
X173140000Y-83840000D03*
%TD*%
D15*
%TO.P,R1,1*%
%TO.N,VDD*%
X182700000Y-71600000D03*
%TO.P,R1,2*%
%TO.N,GPIO3_VOL*%
X187700000Y-71600000D03*
%TO.P,R1,3*%
%TO.N,GND*%
X192700000Y-71600000D03*
D16*
X187700000Y-83700000D03*
%TD*%
%TO.P,R2,3*%
%TO.N,GND*%
X155533332Y-86200000D03*
D15*
X160533332Y-74100000D03*
%TO.P,R2,2*%
%TO.N,GPIO2_BAL*%
X155533332Y-74100000D03*
%TO.P,R2,1*%
%TO.N,VDD*%
X150533332Y-74100000D03*
%TD*%
D16*
%TO.P,R3,3*%
%TO.N,GND*%
X91700000Y-83700000D03*
D15*
X96700000Y-71600000D03*
%TO.P,R3,2*%
%TO.N,GPIO4_BASS*%
X91700000Y-71600000D03*
%TO.P,R3,1*%
%TO.N,VDD*%
X86700000Y-71600000D03*
%TD*%
%TO.P,R4,1*%
%TO.N,VDD*%
X116366666Y-71600000D03*
%TO.P,R4,2*%
%TO.N,GPIO6_TREBLE*%
X121366666Y-71600000D03*
%TO.P,R4,3*%
%TO.N,GND*%
X126366666Y-71600000D03*
D16*
X121366666Y-83700000D03*
%TD*%
D17*
%TO.N,GND*%
X75200000Y-84200000D03*
X208300000Y-92900000D03*
X208400000Y-84100000D03*
X75200000Y-93000000D03*
X64600000Y-93000000D03*
X64600000Y-84200000D03*
X100000000Y-69000000D03*
X107000000Y-69000000D03*
X123100000Y-65500000D03*
X158000000Y-66000000D03*
X139000000Y-66000000D03*
X126000000Y-100000000D03*
X114000000Y-100000000D03*
X126000000Y-97000000D03*
X114000000Y-97000000D03*
X172000000Y-101000000D03*
X186000000Y-101000000D03*
X158000000Y-101000000D03*
%TO.N,GPIO5_MUTE*%
X203850000Y-92900000D03*
X203850000Y-84050000D03*
%TO.N,GPIO1_COMP*%
X72300000Y-95100000D03*
X70600000Y-81000000D03*
X70650000Y-93000000D03*
X70650000Y-84200000D03*
%TO.N,GPIO3_VOL*%
X174800010Y-96899990D03*
%TO.N,GPIO8_SBASS*%
X70900000Y-95100000D03*
X69050000Y-93000000D03*
X69050000Y-84200000D03*
%TO.N,GPIO7\u005CLED_COMP*%
X82100000Y-75700000D03*
%TD*%
D18*
%TO.N,VDD*%
X133000000Y-83840000D02*
X133060000Y-83840000D01*
X133000000Y-83840000D02*
X133160000Y-83840000D01*
X133160000Y-83840000D02*
X134275000Y-82725000D01*
X134275000Y-82725000D02*
X134275000Y-75125000D01*
X134275000Y-75125000D02*
X134275000Y-74100000D01*
X116366666Y-71600000D02*
X116366666Y-71941656D01*
X116366666Y-71941656D02*
X118300000Y-73874990D01*
X150308322Y-73874990D02*
X150533332Y-74100000D01*
X118300000Y-73874990D02*
X150308322Y-73874990D01*
X86700000Y-71600000D02*
X86700000Y-70800000D01*
X86700000Y-70800000D02*
X89600000Y-67900000D01*
X112666666Y-67900000D02*
X116366666Y-71600000D01*
X89600000Y-67900000D02*
X112666666Y-67900000D01*
X150533332Y-74100000D02*
X150600000Y-74100000D01*
X150600000Y-74100000D02*
X153800000Y-77300000D01*
X177000000Y-77300000D02*
X182700000Y-71600000D01*
X153800000Y-77300000D02*
X177000000Y-77300000D01*
D19*
%TO.N,GPIO1_COMP*%
X110120000Y-83840000D02*
X110120000Y-88380000D01*
X110120000Y-88380000D02*
X103400000Y-95100000D01*
X71000000Y-81000000D02*
X79000000Y-81000000D01*
X83100000Y-85100000D02*
X83100000Y-95100000D01*
X79000000Y-81000000D02*
X83100000Y-85100000D01*
X83100000Y-95100000D02*
X72300000Y-95100000D01*
X103400000Y-95100000D02*
X83100000Y-95100000D01*
X71000000Y-81000000D02*
X70600000Y-81000000D01*
D20*
%TO.N,GPIO4_BASS*%
X91700000Y-72800000D02*
X91700000Y-71600000D01*
X93400000Y-74500000D02*
X91700000Y-72800000D01*
X128300000Y-74500000D02*
X93400000Y-74500000D01*
X133000000Y-81300000D02*
X133000000Y-79200000D01*
X133000000Y-79200000D02*
X128300000Y-74500000D01*
%TO.N,GPIO3_VOL*%
X187700000Y-71600000D02*
X187700000Y-72400000D01*
X187700000Y-72400000D02*
X185500000Y-74600000D01*
X185500000Y-74600000D02*
X181400000Y-74600000D01*
X181400000Y-74600000D02*
X177700000Y-78300000D01*
X177700000Y-78300000D02*
X177700000Y-94000000D01*
X177700000Y-94000000D02*
X174800010Y-96899990D01*
%TO.N,GPIO8_SBASS*%
X140620000Y-83840000D02*
X140620000Y-86580000D01*
X140620000Y-86580000D02*
X131599990Y-95600010D01*
X131599990Y-95600010D02*
X73599990Y-95600010D01*
X73599990Y-95600010D02*
X73100000Y-96100000D01*
X73100000Y-96100000D02*
X71900000Y-96100000D01*
X70900000Y-95100000D02*
X71900000Y-96100000D01*
D19*
X71625001Y-94374999D02*
X70900000Y-95100000D01*
X82025001Y-94374999D02*
X71625001Y-94374999D01*
X82649990Y-93750010D02*
X82025001Y-94374999D01*
X82649990Y-85286400D02*
X82649990Y-93750010D01*
X79331795Y-81968205D02*
X82649990Y-85286400D01*
X69831795Y-81968205D02*
X79331795Y-81968205D01*
X69050000Y-82750000D02*
X69831795Y-81968205D01*
X69050000Y-82800000D02*
X69050000Y-82750000D01*
X69050000Y-82800000D02*
X69050000Y-84200000D01*
%TO.N,GPIO7\u005CLED_COMP*%
X82100000Y-75700000D02*
X93900000Y-75700000D01*
X99500000Y-81300000D02*
X102500000Y-81300000D01*
X93900000Y-75700000D02*
X99500000Y-81300000D01*
%TD*%
D21*
%TO.N,GND*%
X210259001Y-85069000D02*
X204881000Y-85069000D01*
X204881000Y-83100000D01*
X204873679Y-83025671D01*
X204851998Y-82954198D01*
X204816790Y-82888328D01*
X204769408Y-82830592D01*
X204711672Y-82783210D01*
X204645802Y-82748002D01*
X204574329Y-82726321D01*
X204500000Y-82719000D01*
X203200000Y-82719000D01*
X203125671Y-82726321D01*
X203054198Y-82748002D01*
X202988328Y-82783210D01*
X202930592Y-82830592D01*
X202883210Y-82888328D01*
X202848002Y-82954198D01*
X202826321Y-83025671D01*
X202819000Y-83100000D01*
X202819000Y-85069000D01*
X202521168Y-85069000D01*
X202500000Y-85066915D01*
X202478832Y-85069000D01*
X202415509Y-85075237D01*
X202334266Y-85099882D01*
X202259391Y-85139903D01*
X202193763Y-85193763D01*
X202139903Y-85259391D01*
X202099882Y-85334266D01*
X202075237Y-85415509D01*
X202066915Y-85500000D01*
X202069000Y-85521169D01*
X202069001Y-91678821D01*
X202066915Y-91700000D01*
X202075237Y-91784491D01*
X202099882Y-91865734D01*
X202139903Y-91940609D01*
X202193763Y-92006237D01*
X202259391Y-92060097D01*
X202334266Y-92100118D01*
X202415509Y-92124763D01*
X202478832Y-92131000D01*
X202500000Y-92133085D01*
X202521168Y-92131000D01*
X202819000Y-92131000D01*
X202819000Y-94100000D01*
X202826321Y-94174329D01*
X202848002Y-94245802D01*
X202883210Y-94311672D01*
X202930592Y-94369408D01*
X202988328Y-94416790D01*
X203054198Y-94451998D01*
X203125671Y-94473679D01*
X203200000Y-94481000D01*
X204500000Y-94481000D01*
X204574329Y-94473679D01*
X204645802Y-94451998D01*
X204711672Y-94416790D01*
X204769408Y-94369408D01*
X204816790Y-94311672D01*
X204851998Y-94245802D01*
X204873679Y-94174329D01*
X204881000Y-94100000D01*
X204881000Y-92131000D01*
X210269000Y-92131000D01*
X210269001Y-101769000D01*
X62631000Y-101769000D01*
X62631000Y-96823068D01*
X174019010Y-96823068D01*
X174019010Y-96976912D01*
X174049023Y-97127799D01*
X174107897Y-97269932D01*
X174193368Y-97397849D01*
X174302151Y-97506632D01*
X174430068Y-97592103D01*
X174572201Y-97650977D01*
X174723088Y-97680990D01*
X174876932Y-97680990D01*
X175027819Y-97650977D01*
X175169952Y-97592103D01*
X175297869Y-97506632D01*
X175406652Y-97397849D01*
X175492123Y-97269932D01*
X175550997Y-97127799D01*
X175581010Y-96976912D01*
X175581010Y-96905291D01*
X178073843Y-94412460D01*
X178095053Y-94395053D01*
X178112460Y-94373843D01*
X178112463Y-94373840D01*
X178157469Y-94319000D01*
X178164534Y-94310392D01*
X178216162Y-94213801D01*
X178247955Y-94108995D01*
X178256000Y-94027312D01*
X178256000Y-94027305D01*
X178258689Y-94000001D01*
X178256000Y-93972696D01*
X178256000Y-82200000D01*
X194066915Y-82200000D01*
X194069001Y-82221178D01*
X194069000Y-85178831D01*
X194066915Y-85200000D01*
X194075237Y-85284491D01*
X194099882Y-85365734D01*
X194139903Y-85440609D01*
X194155429Y-85459527D01*
X194193763Y-85506237D01*
X194259391Y-85560097D01*
X194334266Y-85600118D01*
X194415509Y-85624763D01*
X194500000Y-85633085D01*
X194521168Y-85631000D01*
X196478832Y-85631000D01*
X196500000Y-85633085D01*
X196521168Y-85631000D01*
X196584491Y-85624763D01*
X196665734Y-85600118D01*
X196740609Y-85560097D01*
X196806237Y-85506237D01*
X196860097Y-85440609D01*
X196900118Y-85365734D01*
X196924763Y-85284491D01*
X196933085Y-85200000D01*
X196931000Y-85178832D01*
X196931000Y-82221168D01*
X196933085Y-82200000D01*
X196924763Y-82115509D01*
X196900118Y-82034266D01*
X196860097Y-81959391D01*
X196806237Y-81893763D01*
X196740609Y-81839903D01*
X196665734Y-81799882D01*
X196584491Y-81775237D01*
X196521168Y-81769000D01*
X196500000Y-81766915D01*
X196478832Y-81769000D01*
X194521168Y-81769000D01*
X194500000Y-81766915D01*
X194478832Y-81769000D01*
X194415509Y-81775237D01*
X194334266Y-81799882D01*
X194259391Y-81839903D01*
X194193763Y-81893763D01*
X194139903Y-81959391D01*
X194099882Y-82034266D01*
X194075237Y-82115509D01*
X194066915Y-82200000D01*
X178256000Y-82200000D01*
X178256000Y-78530301D01*
X181630302Y-75156000D01*
X185472696Y-75156000D01*
X185500000Y-75158689D01*
X185527304Y-75156000D01*
X185527312Y-75156000D01*
X185608995Y-75147955D01*
X185713801Y-75116162D01*
X185810392Y-75064534D01*
X185895053Y-74995053D01*
X185912469Y-74973832D01*
X187735302Y-73151000D01*
X187852760Y-73151000D01*
X188152410Y-73091396D01*
X188434674Y-72974479D01*
X188611089Y-72856602D01*
X191623003Y-72856602D01*
X191739275Y-73138389D01*
X192057860Y-73296257D01*
X192401122Y-73388938D01*
X192755869Y-73412873D01*
X193108470Y-73367139D01*
X193445373Y-73253495D01*
X193660725Y-73138389D01*
X193776997Y-72856602D01*
X192700000Y-71779605D01*
X191623003Y-72856602D01*
X188611089Y-72856602D01*
X188688705Y-72804741D01*
X188904741Y-72588705D01*
X189074479Y-72334674D01*
X189191396Y-72052410D01*
X189251000Y-71752760D01*
X189251000Y-71655869D01*
X190887127Y-71655869D01*
X190932861Y-72008470D01*
X191046505Y-72345373D01*
X191161611Y-72560725D01*
X191443398Y-72676997D01*
X192520395Y-71600000D01*
X192879605Y-71600000D01*
X193956602Y-72676997D01*
X194238389Y-72560725D01*
X194396257Y-72242140D01*
X194488938Y-71898878D01*
X194512873Y-71544131D01*
X194467139Y-71191530D01*
X194353495Y-70854627D01*
X194238389Y-70639275D01*
X193956602Y-70523003D01*
X192879605Y-71600000D01*
X192520395Y-71600000D01*
X191443398Y-70523003D01*
X191161611Y-70639275D01*
X191003743Y-70957860D01*
X190911062Y-71301122D01*
X190887127Y-71655869D01*
X189251000Y-71655869D01*
X189251000Y-71447240D01*
X189191396Y-71147590D01*
X189074479Y-70865326D01*
X188904741Y-70611295D01*
X188688705Y-70395259D01*
X188611090Y-70343398D01*
X191623003Y-70343398D01*
X192700000Y-71420395D01*
X193776997Y-70343398D01*
X193660725Y-70061611D01*
X193342140Y-69903743D01*
X192998878Y-69811062D01*
X192644131Y-69787127D01*
X192291530Y-69832861D01*
X191954627Y-69946505D01*
X191739275Y-70061611D01*
X191623003Y-70343398D01*
X188611090Y-70343398D01*
X188434674Y-70225521D01*
X188152410Y-70108604D01*
X187852760Y-70049000D01*
X187547240Y-70049000D01*
X187247590Y-70108604D01*
X186965326Y-70225521D01*
X186711295Y-70395259D01*
X186495259Y-70611295D01*
X186325521Y-70865326D01*
X186208604Y-71147590D01*
X186149000Y-71447240D01*
X186149000Y-71752760D01*
X186208604Y-72052410D01*
X186325521Y-72334674D01*
X186495259Y-72588705D01*
X186610126Y-72703572D01*
X185269699Y-74044000D01*
X181427304Y-74044000D01*
X181399999Y-74041311D01*
X181372695Y-74044000D01*
X181372688Y-74044000D01*
X181291005Y-74052045D01*
X181186199Y-74083838D01*
X181089608Y-74135466D01*
X181004947Y-74204947D01*
X180987536Y-74226162D01*
X177326168Y-77887531D01*
X177304947Y-77904947D01*
X177235466Y-77989608D01*
X177183838Y-78086200D01*
X177152045Y-78191006D01*
X177144000Y-78272689D01*
X177144000Y-78272696D01*
X177141311Y-78300000D01*
X177144000Y-78327304D01*
X177144001Y-93769696D01*
X174794709Y-96118990D01*
X174723088Y-96118990D01*
X174572201Y-96149003D01*
X174430068Y-96207877D01*
X174302151Y-96293348D01*
X174193368Y-96402131D01*
X174107897Y-96530048D01*
X174049023Y-96672181D01*
X174019010Y-96823068D01*
X62631000Y-96823068D01*
X62631000Y-92131000D01*
X68019000Y-92131000D01*
X68019000Y-94000000D01*
X68026321Y-94074329D01*
X68048002Y-94145802D01*
X68083210Y-94211672D01*
X68130592Y-94269408D01*
X68188328Y-94316790D01*
X68254198Y-94351998D01*
X68325671Y-94373679D01*
X68400000Y-94381000D01*
X69700000Y-94381000D01*
X69774329Y-94373679D01*
X69845802Y-94351998D01*
X69850000Y-94349754D01*
X69854198Y-94351998D01*
X69925671Y-94373679D01*
X70000000Y-94381000D01*
X70594968Y-94381000D01*
X70530058Y-94407887D01*
X70402141Y-94493358D01*
X70293358Y-94602141D01*
X70207887Y-94730058D01*
X70149013Y-94872191D01*
X70119000Y-95023078D01*
X70119000Y-95176922D01*
X70149013Y-95327809D01*
X70207887Y-95469942D01*
X70293358Y-95597859D01*
X70402141Y-95706642D01*
X70530058Y-95792113D01*
X70672191Y-95850987D01*
X70823078Y-95881000D01*
X70894698Y-95881000D01*
X71487540Y-96473843D01*
X71504947Y-96495053D01*
X71526157Y-96512460D01*
X71526161Y-96512464D01*
X71589608Y-96564534D01*
X71686198Y-96616162D01*
X71791005Y-96647955D01*
X71872688Y-96656000D01*
X71872695Y-96656000D01*
X71900000Y-96658689D01*
X71927305Y-96656000D01*
X73072696Y-96656000D01*
X73100000Y-96658689D01*
X73127304Y-96656000D01*
X73127312Y-96656000D01*
X73208995Y-96647955D01*
X73313801Y-96616162D01*
X73410392Y-96564534D01*
X73495053Y-96495053D01*
X73512468Y-96473833D01*
X73830292Y-96156010D01*
X131572686Y-96156010D01*
X131599990Y-96158699D01*
X131627294Y-96156010D01*
X131627302Y-96156010D01*
X131708985Y-96147965D01*
X131813791Y-96116172D01*
X131910382Y-96064544D01*
X131995043Y-95995063D01*
X132012459Y-95973842D01*
X140993843Y-86992460D01*
X141015053Y-86975053D01*
X141032460Y-86953843D01*
X141032463Y-86953840D01*
X141051192Y-86931019D01*
X141084534Y-86890392D01*
X141136162Y-86793801D01*
X141167955Y-86688995D01*
X141176000Y-86607312D01*
X141176000Y-86607298D01*
X141178688Y-86580001D01*
X141176000Y-86552704D01*
X141176000Y-84888002D01*
X141179413Y-84886588D01*
X141372843Y-84757342D01*
X141430185Y-84700000D01*
X161906915Y-84700000D01*
X161909001Y-84721178D01*
X161909000Y-87678831D01*
X161906915Y-87700000D01*
X161915237Y-87784491D01*
X161939882Y-87865734D01*
X161979903Y-87940609D01*
X162032444Y-88004630D01*
X162033763Y-88006237D01*
X162099391Y-88060097D01*
X162174266Y-88100118D01*
X162255509Y-88124763D01*
X162340000Y-88133085D01*
X162361168Y-88131000D01*
X164318832Y-88131000D01*
X164340000Y-88133085D01*
X164361168Y-88131000D01*
X164424491Y-88124763D01*
X164505734Y-88100118D01*
X164580609Y-88060097D01*
X164646237Y-88006237D01*
X164700097Y-87940609D01*
X164740118Y-87865734D01*
X164764763Y-87784491D01*
X164773085Y-87700000D01*
X164771000Y-87678832D01*
X164771000Y-84721168D01*
X164773085Y-84700000D01*
X164764763Y-84615509D01*
X164740118Y-84534266D01*
X164700097Y-84459391D01*
X164646237Y-84393763D01*
X164580609Y-84339903D01*
X164505734Y-84299882D01*
X164424491Y-84275237D01*
X164361168Y-84269000D01*
X164340000Y-84266915D01*
X164318832Y-84269000D01*
X162361168Y-84269000D01*
X162340000Y-84266915D01*
X162318832Y-84269000D01*
X162255509Y-84275237D01*
X162174266Y-84299882D01*
X162099391Y-84339903D01*
X162033763Y-84393763D01*
X161979903Y-84459391D01*
X161939882Y-84534266D01*
X161915237Y-84615509D01*
X161906915Y-84700000D01*
X141430185Y-84700000D01*
X141537342Y-84592843D01*
X141666588Y-84399413D01*
X141755614Y-84184485D01*
X141801000Y-83956318D01*
X141801000Y-83723682D01*
X141800021Y-83718757D01*
X169369000Y-83718757D01*
X169369000Y-83961243D01*
X169416307Y-84199069D01*
X169509102Y-84423097D01*
X169643820Y-84624717D01*
X169815283Y-84796180D01*
X170016903Y-84930898D01*
X170240931Y-85023693D01*
X170478757Y-85071000D01*
X170721243Y-85071000D01*
X170959069Y-85023693D01*
X171183097Y-84930898D01*
X171384717Y-84796180D01*
X171556180Y-84624717D01*
X171690898Y-84423097D01*
X171783693Y-84199069D01*
X171831000Y-83961243D01*
X171831000Y-83718757D01*
X171909000Y-83718757D01*
X171909000Y-83961243D01*
X171956307Y-84199069D01*
X172049102Y-84423097D01*
X172183820Y-84624717D01*
X172355283Y-84796180D01*
X172556903Y-84930898D01*
X172780931Y-85023693D01*
X173018757Y-85071000D01*
X173261243Y-85071000D01*
X173499069Y-85023693D01*
X173723097Y-84930898D01*
X173924717Y-84796180D01*
X174096180Y-84624717D01*
X174230898Y-84423097D01*
X174323693Y-84199069D01*
X174371000Y-83961243D01*
X174371000Y-83718757D01*
X174323693Y-83480931D01*
X174230898Y-83256903D01*
X174096180Y-83055283D01*
X173924717Y-82883820D01*
X173723097Y-82749102D01*
X173499069Y-82656307D01*
X173261243Y-82609000D01*
X173018757Y-82609000D01*
X172780931Y-82656307D01*
X172556903Y-82749102D01*
X172355283Y-82883820D01*
X172183820Y-83055283D01*
X172049102Y-83256903D01*
X171956307Y-83480931D01*
X171909000Y-83718757D01*
X171831000Y-83718757D01*
X171783693Y-83480931D01*
X171690898Y-83256903D01*
X171556180Y-83055283D01*
X171384717Y-82883820D01*
X171183097Y-82749102D01*
X170959069Y-82656307D01*
X170721243Y-82609000D01*
X170478757Y-82609000D01*
X170240931Y-82656307D01*
X170016903Y-82749102D01*
X169815283Y-82883820D01*
X169643820Y-83055283D01*
X169509102Y-83256903D01*
X169416307Y-83480931D01*
X169369000Y-83718757D01*
X141800021Y-83718757D01*
X141755614Y-83495515D01*
X141666588Y-83280587D01*
X141537342Y-83087157D01*
X141372843Y-82922658D01*
X141179413Y-82793412D01*
X140964485Y-82704386D01*
X140736318Y-82659000D01*
X140503682Y-82659000D01*
X140275515Y-82704386D01*
X140060587Y-82793412D01*
X139867157Y-82922658D01*
X139702658Y-83087157D01*
X139573412Y-83280587D01*
X139484386Y-83495515D01*
X139439000Y-83723682D01*
X139439000Y-83956318D01*
X139484386Y-84184485D01*
X139573412Y-84399413D01*
X139702658Y-84592843D01*
X139867157Y-84757342D01*
X140060587Y-84886588D01*
X140064000Y-84888002D01*
X140064001Y-86349696D01*
X131369689Y-95044010D01*
X104171581Y-95044010D01*
X110460220Y-88755372D01*
X110479527Y-88739527D01*
X110542759Y-88662479D01*
X110589745Y-88574575D01*
X110618678Y-88479193D01*
X110626000Y-88404854D01*
X110626000Y-88404847D01*
X110628447Y-88380001D01*
X110626000Y-88355155D01*
X110626000Y-84908712D01*
X110679413Y-84886588D01*
X110872843Y-84757342D01*
X111037342Y-84592843D01*
X111166588Y-84399413D01*
X111255614Y-84184485D01*
X111301000Y-83956318D01*
X111301000Y-83723682D01*
X111255614Y-83495515D01*
X111166588Y-83280587D01*
X111037342Y-83087157D01*
X110872843Y-82922658D01*
X110679413Y-82793412D01*
X110464485Y-82704386D01*
X110236318Y-82659000D01*
X110003682Y-82659000D01*
X109775515Y-82704386D01*
X109560587Y-82793412D01*
X109367157Y-82922658D01*
X109202658Y-83087157D01*
X109073412Y-83280587D01*
X108984386Y-83495515D01*
X108981657Y-83509237D01*
X108978787Y-83489870D01*
X108883603Y-83223708D01*
X108816671Y-83098486D01*
X108572702Y-83026903D01*
X107759605Y-83840000D01*
X108572702Y-84653097D01*
X108816671Y-84581514D01*
X108937571Y-84326004D01*
X108979368Y-84159259D01*
X108984386Y-84184485D01*
X109073412Y-84399413D01*
X109202658Y-84592843D01*
X109367157Y-84757342D01*
X109560587Y-84886588D01*
X109614000Y-84908712D01*
X109614001Y-88170407D01*
X103190409Y-94594000D01*
X83606000Y-94594000D01*
X83606000Y-85124854D01*
X83608448Y-85100000D01*
X83598678Y-85000807D01*
X83569745Y-84905425D01*
X83563511Y-84893763D01*
X83522759Y-84817521D01*
X83459527Y-84740473D01*
X83440220Y-84724628D01*
X79375376Y-80659785D01*
X79359527Y-80640473D01*
X79282479Y-80577241D01*
X79194575Y-80530255D01*
X79099193Y-80501322D01*
X79024854Y-80494000D01*
X79024846Y-80494000D01*
X79000000Y-80491553D01*
X78975154Y-80494000D01*
X71198501Y-80494000D01*
X71097859Y-80393358D01*
X70969942Y-80307887D01*
X70827809Y-80249013D01*
X70676922Y-80219000D01*
X70523078Y-80219000D01*
X70372191Y-80249013D01*
X70230058Y-80307887D01*
X70102141Y-80393358D01*
X69993358Y-80502141D01*
X69907887Y-80630058D01*
X69849013Y-80772191D01*
X69819000Y-80923078D01*
X69819000Y-81076922D01*
X69849013Y-81227809D01*
X69907887Y-81369942D01*
X69969535Y-81462205D01*
X69856640Y-81462205D01*
X69831794Y-81459758D01*
X69806948Y-81462205D01*
X69806941Y-81462205D01*
X69742489Y-81468553D01*
X69732601Y-81469527D01*
X69650031Y-81494574D01*
X69637220Y-81498460D01*
X69549316Y-81545446D01*
X69472268Y-81608678D01*
X69456423Y-81627985D01*
X68709785Y-82374624D01*
X68690473Y-82390473D01*
X68667061Y-82419000D01*
X68400000Y-82419000D01*
X68325671Y-82426321D01*
X68254198Y-82448002D01*
X68188328Y-82483210D01*
X68130592Y-82530592D01*
X68083210Y-82588328D01*
X68048002Y-82654198D01*
X68026321Y-82725671D01*
X68019000Y-82800000D01*
X68019000Y-85069000D01*
X62640998Y-85069000D01*
X62857647Y-75623078D01*
X81319000Y-75623078D01*
X81319000Y-75776922D01*
X81349013Y-75927809D01*
X81407887Y-76069942D01*
X81493358Y-76197859D01*
X81602141Y-76306642D01*
X81730058Y-76392113D01*
X81872191Y-76450987D01*
X82023078Y-76481000D01*
X82176922Y-76481000D01*
X82327809Y-76450987D01*
X82469942Y-76392113D01*
X82597859Y-76306642D01*
X82698501Y-76206000D01*
X93690409Y-76206000D01*
X99124628Y-81640220D01*
X99140473Y-81659527D01*
X99217521Y-81722759D01*
X99304031Y-81769000D01*
X98521168Y-81769000D01*
X98500000Y-81766915D01*
X98478832Y-81769000D01*
X98415509Y-81775237D01*
X98334266Y-81799882D01*
X98259391Y-81839903D01*
X98193763Y-81893763D01*
X98139903Y-81959391D01*
X98099882Y-82034266D01*
X98075237Y-82115509D01*
X98066915Y-82200000D01*
X98069001Y-82221178D01*
X98069000Y-85178831D01*
X98066915Y-85200000D01*
X98075237Y-85284491D01*
X98099882Y-85365734D01*
X98139903Y-85440609D01*
X98155429Y-85459527D01*
X98193763Y-85506237D01*
X98259391Y-85560097D01*
X98334266Y-85600118D01*
X98415509Y-85624763D01*
X98500000Y-85633085D01*
X98521168Y-85631000D01*
X100478832Y-85631000D01*
X100500000Y-85633085D01*
X100521168Y-85631000D01*
X100584491Y-85624763D01*
X100665734Y-85600118D01*
X100740609Y-85560097D01*
X100806237Y-85506237D01*
X100860097Y-85440609D01*
X100900118Y-85365734D01*
X100924763Y-85284491D01*
X100933085Y-85200000D01*
X100931000Y-85178832D01*
X100931000Y-83723682D01*
X101319000Y-83723682D01*
X101319000Y-83956318D01*
X101364386Y-84184485D01*
X101453412Y-84399413D01*
X101582658Y-84592843D01*
X101747157Y-84757342D01*
X101940587Y-84886588D01*
X102155515Y-84975614D01*
X102383682Y-85021000D01*
X102616318Y-85021000D01*
X102844485Y-84975614D01*
X103059413Y-84886588D01*
X103252843Y-84757342D01*
X103417342Y-84592843D01*
X103546588Y-84399413D01*
X103635614Y-84184485D01*
X103681000Y-83956318D01*
X103681000Y-83723682D01*
X103859000Y-83723682D01*
X103859000Y-83956318D01*
X103904386Y-84184485D01*
X103993412Y-84399413D01*
X104122658Y-84592843D01*
X104287157Y-84757342D01*
X104480587Y-84886588D01*
X104695515Y-84975614D01*
X104923682Y-85021000D01*
X105156318Y-85021000D01*
X105384485Y-84975614D01*
X105599413Y-84886588D01*
X105680058Y-84832702D01*
X106766903Y-84832702D01*
X106838486Y-85076671D01*
X107093996Y-85197571D01*
X107368184Y-85266300D01*
X107650512Y-85280217D01*
X107930130Y-85238787D01*
X108196292Y-85143603D01*
X108321514Y-85076671D01*
X108393097Y-84832702D01*
X107580000Y-84019605D01*
X106766903Y-84832702D01*
X105680058Y-84832702D01*
X105792843Y-84757342D01*
X105957342Y-84592843D01*
X106086588Y-84399413D01*
X106175614Y-84184485D01*
X106178343Y-84170763D01*
X106181213Y-84190130D01*
X106276397Y-84456292D01*
X106343329Y-84581514D01*
X106587298Y-84653097D01*
X107400395Y-83840000D01*
X106587298Y-83026903D01*
X106343329Y-83098486D01*
X106222429Y-83353996D01*
X106180632Y-83520741D01*
X106175614Y-83495515D01*
X106086588Y-83280587D01*
X105957342Y-83087157D01*
X105792843Y-82922658D01*
X105599413Y-82793412D01*
X105384485Y-82704386D01*
X105156318Y-82659000D01*
X104923682Y-82659000D01*
X104695515Y-82704386D01*
X104480587Y-82793412D01*
X104287157Y-82922658D01*
X104122658Y-83087157D01*
X103993412Y-83280587D01*
X103904386Y-83495515D01*
X103859000Y-83723682D01*
X103681000Y-83723682D01*
X103635614Y-83495515D01*
X103546588Y-83280587D01*
X103417342Y-83087157D01*
X103252843Y-82922658D01*
X103059413Y-82793412D01*
X102844485Y-82704386D01*
X102616318Y-82659000D01*
X102383682Y-82659000D01*
X102155515Y-82704386D01*
X101940587Y-82793412D01*
X101747157Y-82922658D01*
X101582658Y-83087157D01*
X101453412Y-83280587D01*
X101364386Y-83495515D01*
X101319000Y-83723682D01*
X100931000Y-83723682D01*
X100931000Y-82221168D01*
X100933085Y-82200000D01*
X100924763Y-82115509D01*
X100900118Y-82034266D01*
X100860097Y-81959391D01*
X100806237Y-81893763D01*
X100740609Y-81839903D01*
X100677180Y-81806000D01*
X101431288Y-81806000D01*
X101453412Y-81859413D01*
X101582658Y-82052843D01*
X101747157Y-82217342D01*
X101940587Y-82346588D01*
X102155515Y-82435614D01*
X102383682Y-82481000D01*
X102616318Y-82481000D01*
X102844485Y-82435614D01*
X103059413Y-82346588D01*
X103252843Y-82217342D01*
X103417342Y-82052843D01*
X103546588Y-81859413D01*
X103635614Y-81644485D01*
X103681000Y-81416318D01*
X103681000Y-81183682D01*
X103859000Y-81183682D01*
X103859000Y-81416318D01*
X103904386Y-81644485D01*
X103993412Y-81859413D01*
X104122658Y-82052843D01*
X104287157Y-82217342D01*
X104480587Y-82346588D01*
X104695515Y-82435614D01*
X104923682Y-82481000D01*
X105156318Y-82481000D01*
X105384485Y-82435614D01*
X105599413Y-82346588D01*
X105792843Y-82217342D01*
X105957342Y-82052843D01*
X106086588Y-81859413D01*
X106175614Y-81644485D01*
X106221000Y-81416318D01*
X106221000Y-81183682D01*
X106399000Y-81183682D01*
X106399000Y-81416318D01*
X106444386Y-81644485D01*
X106533412Y-81859413D01*
X106662658Y-82052843D01*
X106827157Y-82217342D01*
X107020587Y-82346588D01*
X107235515Y-82435614D01*
X107249237Y-82438343D01*
X107229870Y-82441213D01*
X106963708Y-82536397D01*
X106838486Y-82603329D01*
X106766903Y-82847298D01*
X107580000Y-83660395D01*
X108393097Y-82847298D01*
X108321514Y-82603329D01*
X108066004Y-82482429D01*
X107899259Y-82440632D01*
X107924485Y-82435614D01*
X108139413Y-82346588D01*
X108332843Y-82217342D01*
X108497342Y-82052843D01*
X108626588Y-81859413D01*
X108715614Y-81644485D01*
X108761000Y-81416318D01*
X108761000Y-81183682D01*
X108939000Y-81183682D01*
X108939000Y-81416318D01*
X108984386Y-81644485D01*
X109073412Y-81859413D01*
X109202658Y-82052843D01*
X109367157Y-82217342D01*
X109560587Y-82346588D01*
X109775515Y-82435614D01*
X110003682Y-82481000D01*
X110236318Y-82481000D01*
X110464485Y-82435614D01*
X110679413Y-82346588D01*
X110872843Y-82217342D01*
X110890185Y-82200000D01*
X127666915Y-82200000D01*
X127669000Y-82221169D01*
X127669001Y-85178822D01*
X127666915Y-85200000D01*
X127675237Y-85284491D01*
X127699882Y-85365734D01*
X127739903Y-85440609D01*
X127793763Y-85506237D01*
X127859391Y-85560097D01*
X127934266Y-85600118D01*
X128015509Y-85624763D01*
X128078832Y-85631000D01*
X128100000Y-85633085D01*
X128121168Y-85631000D01*
X130078832Y-85631000D01*
X130100000Y-85633085D01*
X130121168Y-85631000D01*
X130184491Y-85624763D01*
X130265734Y-85600118D01*
X130340609Y-85560097D01*
X130406237Y-85506237D01*
X130460097Y-85440609D01*
X130500118Y-85365734D01*
X130524763Y-85284491D01*
X130533085Y-85200000D01*
X130531000Y-85178832D01*
X130531000Y-82221168D01*
X130533085Y-82200000D01*
X130524763Y-82115509D01*
X130500118Y-82034266D01*
X130460097Y-81959391D01*
X130406237Y-81893763D01*
X130340609Y-81839903D01*
X130265734Y-81799882D01*
X130184491Y-81775237D01*
X130121168Y-81769000D01*
X130100000Y-81766915D01*
X130078832Y-81769000D01*
X128121168Y-81769000D01*
X128100000Y-81766915D01*
X128031814Y-81773631D01*
X128015509Y-81775237D01*
X127934266Y-81799882D01*
X127859391Y-81839903D01*
X127793763Y-81893763D01*
X127739903Y-81959391D01*
X127699882Y-82034266D01*
X127675237Y-82115509D01*
X127666915Y-82200000D01*
X110890185Y-82200000D01*
X111037342Y-82052843D01*
X111166588Y-81859413D01*
X111255614Y-81644485D01*
X111301000Y-81416318D01*
X111301000Y-81183682D01*
X111255614Y-80955515D01*
X111166588Y-80740587D01*
X111037342Y-80547157D01*
X110872843Y-80382658D01*
X110679413Y-80253412D01*
X110464485Y-80164386D01*
X110236318Y-80119000D01*
X110003682Y-80119000D01*
X109775515Y-80164386D01*
X109560587Y-80253412D01*
X109367157Y-80382658D01*
X109202658Y-80547157D01*
X109073412Y-80740587D01*
X108984386Y-80955515D01*
X108939000Y-81183682D01*
X108761000Y-81183682D01*
X108715614Y-80955515D01*
X108626588Y-80740587D01*
X108497342Y-80547157D01*
X108332843Y-80382658D01*
X108139413Y-80253412D01*
X107924485Y-80164386D01*
X107696318Y-80119000D01*
X107463682Y-80119000D01*
X107235515Y-80164386D01*
X107020587Y-80253412D01*
X106827157Y-80382658D01*
X106662658Y-80547157D01*
X106533412Y-80740587D01*
X106444386Y-80955515D01*
X106399000Y-81183682D01*
X106221000Y-81183682D01*
X106175614Y-80955515D01*
X106086588Y-80740587D01*
X105957342Y-80547157D01*
X105792843Y-80382658D01*
X105599413Y-80253412D01*
X105384485Y-80164386D01*
X105156318Y-80119000D01*
X104923682Y-80119000D01*
X104695515Y-80164386D01*
X104480587Y-80253412D01*
X104287157Y-80382658D01*
X104122658Y-80547157D01*
X103993412Y-80740587D01*
X103904386Y-80955515D01*
X103859000Y-81183682D01*
X103681000Y-81183682D01*
X103635614Y-80955515D01*
X103546588Y-80740587D01*
X103417342Y-80547157D01*
X103252843Y-80382658D01*
X103059413Y-80253412D01*
X102844485Y-80164386D01*
X102616318Y-80119000D01*
X102383682Y-80119000D01*
X102155515Y-80164386D01*
X101940587Y-80253412D01*
X101747157Y-80382658D01*
X101582658Y-80547157D01*
X101453412Y-80740587D01*
X101431288Y-80794000D01*
X99709592Y-80794000D01*
X96836039Y-77920447D01*
X105259158Y-77920447D01*
X105403135Y-78225770D01*
X105760892Y-78406597D01*
X106147053Y-78514155D01*
X106546777Y-78544310D01*
X106944704Y-78495904D01*
X107325540Y-78370795D01*
X107596865Y-78225770D01*
X107740842Y-77920447D01*
X106500000Y-76679605D01*
X105259158Y-77920447D01*
X96836039Y-77920447D01*
X94275376Y-75359785D01*
X94259527Y-75340473D01*
X94182479Y-75277241D01*
X94094575Y-75230255D01*
X93999193Y-75201322D01*
X93924854Y-75194000D01*
X93924846Y-75194000D01*
X93900000Y-75191553D01*
X93875154Y-75194000D01*
X82698501Y-75194000D01*
X82597859Y-75093358D01*
X82469942Y-75007887D01*
X82327809Y-74949013D01*
X82176922Y-74919000D01*
X82023078Y-74919000D01*
X81872191Y-74949013D01*
X81730058Y-75007887D01*
X81602141Y-75093358D01*
X81493358Y-75202141D01*
X81407887Y-75330058D01*
X81349013Y-75472191D01*
X81319000Y-75623078D01*
X62857647Y-75623078D01*
X62953423Y-71447240D01*
X85149000Y-71447240D01*
X85149000Y-71752760D01*
X85208604Y-72052410D01*
X85325521Y-72334674D01*
X85495259Y-72588705D01*
X85711295Y-72804741D01*
X85965326Y-72974479D01*
X86247590Y-73091396D01*
X86547240Y-73151000D01*
X86852760Y-73151000D01*
X87152410Y-73091396D01*
X87434674Y-72974479D01*
X87688705Y-72804741D01*
X87904741Y-72588705D01*
X88074479Y-72334674D01*
X88191396Y-72052410D01*
X88251000Y-71752760D01*
X88251000Y-71447240D01*
X88191396Y-71147590D01*
X88074479Y-70865326D01*
X87904741Y-70611295D01*
X87842907Y-70549461D01*
X89861369Y-68531000D01*
X112405298Y-68531000D01*
X114918213Y-71043916D01*
X114875270Y-71147590D01*
X114815666Y-71447240D01*
X114815666Y-71752760D01*
X114875270Y-72052410D01*
X114992187Y-72334674D01*
X115161925Y-72588705D01*
X115377961Y-72804741D01*
X115631992Y-72974479D01*
X115914256Y-73091396D01*
X116213906Y-73151000D01*
X116519426Y-73151000D01*
X116656397Y-73123755D01*
X117476641Y-73944000D01*
X93630302Y-73944000D01*
X92570215Y-72883914D01*
X92611090Y-72856602D01*
X95623003Y-72856602D01*
X95739275Y-73138389D01*
X96057860Y-73296257D01*
X96401122Y-73388938D01*
X96755869Y-73412873D01*
X97108470Y-73367139D01*
X97445373Y-73253495D01*
X97660725Y-73138389D01*
X97776997Y-72856602D01*
X96700000Y-71779605D01*
X95623003Y-72856602D01*
X92611090Y-72856602D01*
X92688705Y-72804741D01*
X92904741Y-72588705D01*
X93074479Y-72334674D01*
X93191396Y-72052410D01*
X93251000Y-71752760D01*
X93251000Y-71655869D01*
X94887127Y-71655869D01*
X94932861Y-72008470D01*
X95046505Y-72345373D01*
X95161611Y-72560725D01*
X95443398Y-72676997D01*
X96520395Y-71600000D01*
X96879605Y-71600000D01*
X97956602Y-72676997D01*
X98238389Y-72560725D01*
X98396257Y-72242140D01*
X98488938Y-71898878D01*
X98512873Y-71544131D01*
X98467139Y-71191530D01*
X98353495Y-70854627D01*
X98238389Y-70639275D01*
X97956602Y-70523003D01*
X96879605Y-71600000D01*
X96520395Y-71600000D01*
X95443398Y-70523003D01*
X95161611Y-70639275D01*
X95003743Y-70957860D01*
X94911062Y-71301122D01*
X94887127Y-71655869D01*
X93251000Y-71655869D01*
X93251000Y-71447240D01*
X93191396Y-71147590D01*
X93074479Y-70865326D01*
X92904741Y-70611295D01*
X92688705Y-70395259D01*
X92611090Y-70343398D01*
X95623003Y-70343398D01*
X96700000Y-71420395D01*
X97776997Y-70343398D01*
X97660725Y-70061611D01*
X97342140Y-69903743D01*
X96998878Y-69811062D01*
X96644131Y-69787127D01*
X96291530Y-69832861D01*
X95954627Y-69946505D01*
X95739275Y-70061611D01*
X95623003Y-70343398D01*
X92611090Y-70343398D01*
X92434674Y-70225521D01*
X92152410Y-70108604D01*
X91852760Y-70049000D01*
X91547240Y-70049000D01*
X91247590Y-70108604D01*
X90965326Y-70225521D01*
X90711295Y-70395259D01*
X90495259Y-70611295D01*
X90325521Y-70865326D01*
X90208604Y-71147590D01*
X90149000Y-71447240D01*
X90149000Y-71752760D01*
X90208604Y-72052410D01*
X90325521Y-72334674D01*
X90495259Y-72588705D01*
X90711295Y-72804741D01*
X90965326Y-72974479D01*
X91218978Y-73079545D01*
X91235466Y-73110392D01*
X91304947Y-73195053D01*
X91326168Y-73212469D01*
X92987535Y-74873837D01*
X93004947Y-74895053D01*
X93089608Y-74964534D01*
X93186199Y-75016162D01*
X93291005Y-75047955D01*
X93372688Y-75056000D01*
X93372695Y-75056000D01*
X93399999Y-75058689D01*
X93427304Y-75056000D01*
X105053020Y-75056000D01*
X104964706Y-75144314D01*
X105079551Y-75259159D01*
X104774230Y-75403135D01*
X104593403Y-75760892D01*
X104485845Y-76147053D01*
X104455690Y-76546777D01*
X104504096Y-76944704D01*
X104629205Y-77325540D01*
X104774230Y-77596865D01*
X105079553Y-77740842D01*
X106320395Y-76500000D01*
X106306253Y-76485858D01*
X106485858Y-76306253D01*
X106500000Y-76320395D01*
X106514143Y-76306253D01*
X106693748Y-76485858D01*
X106679605Y-76500000D01*
X107920447Y-77740842D01*
X108225770Y-77596865D01*
X108406597Y-77239108D01*
X108514155Y-76852947D01*
X108544310Y-76453223D01*
X108495904Y-76055296D01*
X108370795Y-75674460D01*
X108225770Y-75403135D01*
X107920449Y-75259159D01*
X108035294Y-75144314D01*
X107946980Y-75056000D01*
X128069699Y-75056000D01*
X132444001Y-79430304D01*
X132444000Y-80251998D01*
X132440587Y-80253412D01*
X132247157Y-80382658D01*
X132082658Y-80547157D01*
X131953412Y-80740587D01*
X131864386Y-80955515D01*
X131819000Y-81183682D01*
X131819000Y-81416318D01*
X131864386Y-81644485D01*
X131953412Y-81859413D01*
X132082658Y-82052843D01*
X132247157Y-82217342D01*
X132440587Y-82346588D01*
X132655515Y-82435614D01*
X132883682Y-82481000D01*
X133116318Y-82481000D01*
X133344485Y-82435614D01*
X133559413Y-82346588D01*
X133644000Y-82290069D01*
X133644000Y-82463631D01*
X133386035Y-82721597D01*
X133344485Y-82704386D01*
X133116318Y-82659000D01*
X132883682Y-82659000D01*
X132655515Y-82704386D01*
X132440587Y-82793412D01*
X132247157Y-82922658D01*
X132082658Y-83087157D01*
X131953412Y-83280587D01*
X131864386Y-83495515D01*
X131819000Y-83723682D01*
X131819000Y-83956318D01*
X131864386Y-84184485D01*
X131953412Y-84399413D01*
X132082658Y-84592843D01*
X132247157Y-84757342D01*
X132440587Y-84886588D01*
X132655515Y-84975614D01*
X132883682Y-85021000D01*
X133116318Y-85021000D01*
X133344485Y-84975614D01*
X133559413Y-84886588D01*
X133640058Y-84832702D01*
X134726903Y-84832702D01*
X134798486Y-85076671D01*
X135053996Y-85197571D01*
X135328184Y-85266300D01*
X135610512Y-85280217D01*
X135890130Y-85238787D01*
X136156292Y-85143603D01*
X136281514Y-85076671D01*
X136353097Y-84832702D01*
X135540000Y-84019605D01*
X134726903Y-84832702D01*
X133640058Y-84832702D01*
X133752843Y-84757342D01*
X133917342Y-84592843D01*
X134046588Y-84399413D01*
X134135614Y-84184485D01*
X134138343Y-84170763D01*
X134141213Y-84190130D01*
X134236397Y-84456292D01*
X134303329Y-84581514D01*
X134547298Y-84653097D01*
X135360395Y-83840000D01*
X135719605Y-83840000D01*
X136532702Y-84653097D01*
X136776671Y-84581514D01*
X136897571Y-84326004D01*
X136939368Y-84159259D01*
X136944386Y-84184485D01*
X137033412Y-84399413D01*
X137162658Y-84592843D01*
X137327157Y-84757342D01*
X137520587Y-84886588D01*
X137735515Y-84975614D01*
X137963682Y-85021000D01*
X138196318Y-85021000D01*
X138424485Y-84975614D01*
X138639413Y-84886588D01*
X138832843Y-84757342D01*
X138997342Y-84592843D01*
X139126588Y-84399413D01*
X139215614Y-84184485D01*
X139261000Y-83956318D01*
X139261000Y-83723682D01*
X139215614Y-83495515D01*
X139126588Y-83280587D01*
X138997342Y-83087157D01*
X138832843Y-82922658D01*
X138639413Y-82793412D01*
X138424485Y-82704386D01*
X138196318Y-82659000D01*
X137963682Y-82659000D01*
X137735515Y-82704386D01*
X137520587Y-82793412D01*
X137327157Y-82922658D01*
X137162658Y-83087157D01*
X137033412Y-83280587D01*
X136944386Y-83495515D01*
X136941657Y-83509237D01*
X136938787Y-83489870D01*
X136843603Y-83223708D01*
X136776671Y-83098486D01*
X136532702Y-83026903D01*
X135719605Y-83840000D01*
X135360395Y-83840000D01*
X135346253Y-83825858D01*
X135525858Y-83646253D01*
X135540000Y-83660395D01*
X136353097Y-82847298D01*
X136281514Y-82603329D01*
X136026004Y-82482429D01*
X135859259Y-82440632D01*
X135884485Y-82435614D01*
X136099413Y-82346588D01*
X136292843Y-82217342D01*
X136457342Y-82052843D01*
X136586588Y-81859413D01*
X136675614Y-81644485D01*
X136721000Y-81416318D01*
X136721000Y-81183682D01*
X136899000Y-81183682D01*
X136899000Y-81416318D01*
X136944386Y-81644485D01*
X137033412Y-81859413D01*
X137162658Y-82052843D01*
X137327157Y-82217342D01*
X137520587Y-82346588D01*
X137735515Y-82435614D01*
X137963682Y-82481000D01*
X138196318Y-82481000D01*
X138424485Y-82435614D01*
X138639413Y-82346588D01*
X138832843Y-82217342D01*
X138997342Y-82052843D01*
X139126588Y-81859413D01*
X139215614Y-81644485D01*
X139261000Y-81416318D01*
X139261000Y-81183682D01*
X139439000Y-81183682D01*
X139439000Y-81416318D01*
X139484386Y-81644485D01*
X139573412Y-81859413D01*
X139702658Y-82052843D01*
X139867157Y-82217342D01*
X140060587Y-82346588D01*
X140275515Y-82435614D01*
X140503682Y-82481000D01*
X140736318Y-82481000D01*
X140964485Y-82435614D01*
X141179413Y-82346588D01*
X141372843Y-82217342D01*
X141537342Y-82052843D01*
X141666588Y-81859413D01*
X141755614Y-81644485D01*
X141801000Y-81416318D01*
X141801000Y-81183682D01*
X141755614Y-80955515D01*
X141666588Y-80740587D01*
X141537342Y-80547157D01*
X141440185Y-80450000D01*
X169367157Y-80450000D01*
X169367157Y-82150000D01*
X169374513Y-82224689D01*
X169396299Y-82296508D01*
X169431678Y-82362696D01*
X169479289Y-82420711D01*
X169537304Y-82468322D01*
X169603492Y-82503701D01*
X169675311Y-82525487D01*
X169750000Y-82532843D01*
X171450000Y-82532843D01*
X171524689Y-82525487D01*
X171596508Y-82503701D01*
X171662696Y-82468322D01*
X171720711Y-82420711D01*
X171768322Y-82362696D01*
X171803701Y-82296508D01*
X171825487Y-82224689D01*
X171832843Y-82150000D01*
X171832843Y-81178757D01*
X171909000Y-81178757D01*
X171909000Y-81421243D01*
X171956307Y-81659069D01*
X172049102Y-81883097D01*
X172183820Y-82084717D01*
X172355283Y-82256180D01*
X172556903Y-82390898D01*
X172780931Y-82483693D01*
X173018757Y-82531000D01*
X173261243Y-82531000D01*
X173499069Y-82483693D01*
X173723097Y-82390898D01*
X173924717Y-82256180D01*
X174096180Y-82084717D01*
X174230898Y-81883097D01*
X174323693Y-81659069D01*
X174371000Y-81421243D01*
X174371000Y-81178757D01*
X174323693Y-80940931D01*
X174230898Y-80716903D01*
X174096180Y-80515283D01*
X173924717Y-80343820D01*
X173723097Y-80209102D01*
X173499069Y-80116307D01*
X173261243Y-80069000D01*
X173018757Y-80069000D01*
X172780931Y-80116307D01*
X172556903Y-80209102D01*
X172355283Y-80343820D01*
X172183820Y-80515283D01*
X172049102Y-80716903D01*
X171956307Y-80940931D01*
X171909000Y-81178757D01*
X171832843Y-81178757D01*
X171832843Y-80450000D01*
X171825487Y-80375311D01*
X171803701Y-80303492D01*
X171768322Y-80237304D01*
X171720711Y-80179289D01*
X171662696Y-80131678D01*
X171596508Y-80096299D01*
X171524689Y-80074513D01*
X171450000Y-80067157D01*
X169750000Y-80067157D01*
X169675311Y-80074513D01*
X169603492Y-80096299D01*
X169537304Y-80131678D01*
X169479289Y-80179289D01*
X169431678Y-80237304D01*
X169396299Y-80303492D01*
X169374513Y-80375311D01*
X169367157Y-80450000D01*
X141440185Y-80450000D01*
X141372843Y-80382658D01*
X141179413Y-80253412D01*
X140964485Y-80164386D01*
X140736318Y-80119000D01*
X140503682Y-80119000D01*
X140275515Y-80164386D01*
X140060587Y-80253412D01*
X139867157Y-80382658D01*
X139702658Y-80547157D01*
X139573412Y-80740587D01*
X139484386Y-80955515D01*
X139439000Y-81183682D01*
X139261000Y-81183682D01*
X139215614Y-80955515D01*
X139126588Y-80740587D01*
X138997342Y-80547157D01*
X138832843Y-80382658D01*
X138639413Y-80253412D01*
X138424485Y-80164386D01*
X138196318Y-80119000D01*
X137963682Y-80119000D01*
X137735515Y-80164386D01*
X137520587Y-80253412D01*
X137327157Y-80382658D01*
X137162658Y-80547157D01*
X137033412Y-80740587D01*
X136944386Y-80955515D01*
X136899000Y-81183682D01*
X136721000Y-81183682D01*
X136675614Y-80955515D01*
X136586588Y-80740587D01*
X136457342Y-80547157D01*
X136292843Y-80382658D01*
X136099413Y-80253412D01*
X135884485Y-80164386D01*
X135656318Y-80119000D01*
X135423682Y-80119000D01*
X135195515Y-80164386D01*
X134980587Y-80253412D01*
X134906000Y-80303250D01*
X134906000Y-74505990D01*
X149032703Y-74505990D01*
X149041936Y-74552410D01*
X149158853Y-74834674D01*
X149328591Y-75088705D01*
X149544627Y-75304741D01*
X149798658Y-75474479D01*
X150080922Y-75591396D01*
X150380572Y-75651000D01*
X150686092Y-75651000D01*
X150985742Y-75591396D01*
X151136558Y-75528926D01*
X153331895Y-77724263D01*
X153351657Y-77748343D01*
X153447739Y-77827196D01*
X153557358Y-77885789D01*
X153676302Y-77921870D01*
X153769002Y-77931000D01*
X153769011Y-77931000D01*
X153799999Y-77934052D01*
X153830987Y-77931000D01*
X176969010Y-77931000D01*
X177000000Y-77934052D01*
X177030990Y-77931000D01*
X177030998Y-77931000D01*
X177123698Y-77921870D01*
X177242642Y-77885789D01*
X177352261Y-77827196D01*
X177448343Y-77748343D01*
X177468105Y-77724263D01*
X182143916Y-73048453D01*
X182247590Y-73091396D01*
X182547240Y-73151000D01*
X182852760Y-73151000D01*
X183152410Y-73091396D01*
X183434674Y-72974479D01*
X183688705Y-72804741D01*
X183904741Y-72588705D01*
X184074479Y-72334674D01*
X184191396Y-72052410D01*
X184251000Y-71752760D01*
X184251000Y-71447240D01*
X184191396Y-71147590D01*
X184074479Y-70865326D01*
X183904741Y-70611295D01*
X183688705Y-70395259D01*
X183434674Y-70225521D01*
X183152410Y-70108604D01*
X182852760Y-70049000D01*
X182547240Y-70049000D01*
X182247590Y-70108604D01*
X181965326Y-70225521D01*
X181711295Y-70395259D01*
X181495259Y-70611295D01*
X181325521Y-70865326D01*
X181208604Y-71147590D01*
X181149000Y-71447240D01*
X181149000Y-71752760D01*
X181208604Y-72052410D01*
X181251547Y-72156084D01*
X176738632Y-76669000D01*
X154061368Y-76669000D01*
X152001311Y-74608943D01*
X152024728Y-74552410D01*
X152084332Y-74252760D01*
X152084332Y-73947240D01*
X153982332Y-73947240D01*
X153982332Y-74252760D01*
X154041936Y-74552410D01*
X154158853Y-74834674D01*
X154328591Y-75088705D01*
X154544627Y-75304741D01*
X154798658Y-75474479D01*
X155080922Y-75591396D01*
X155380572Y-75651000D01*
X155686092Y-75651000D01*
X155985742Y-75591396D01*
X156268006Y-75474479D01*
X156444421Y-75356602D01*
X159456335Y-75356602D01*
X159572607Y-75638389D01*
X159891192Y-75796257D01*
X160234454Y-75888938D01*
X160589201Y-75912873D01*
X160941802Y-75867139D01*
X161278705Y-75753495D01*
X161494057Y-75638389D01*
X161610329Y-75356602D01*
X160533332Y-74279605D01*
X159456335Y-75356602D01*
X156444421Y-75356602D01*
X156522037Y-75304741D01*
X156738073Y-75088705D01*
X156907811Y-74834674D01*
X157024728Y-74552410D01*
X157084332Y-74252760D01*
X157084332Y-74155869D01*
X158720459Y-74155869D01*
X158766193Y-74508470D01*
X158879837Y-74845373D01*
X158994943Y-75060725D01*
X159276730Y-75176997D01*
X160353727Y-74100000D01*
X160712937Y-74100000D01*
X161789934Y-75176997D01*
X162071721Y-75060725D01*
X162229589Y-74742140D01*
X162322270Y-74398878D01*
X162346205Y-74044131D01*
X162300471Y-73691530D01*
X162186827Y-73354627D01*
X162071721Y-73139275D01*
X161789934Y-73023003D01*
X160712937Y-74100000D01*
X160353727Y-74100000D01*
X159276730Y-73023003D01*
X158994943Y-73139275D01*
X158837075Y-73457860D01*
X158744394Y-73801122D01*
X158720459Y-74155869D01*
X157084332Y-74155869D01*
X157084332Y-73947240D01*
X157024728Y-73647590D01*
X156907811Y-73365326D01*
X156738073Y-73111295D01*
X156522037Y-72895259D01*
X156444422Y-72843398D01*
X159456335Y-72843398D01*
X160533332Y-73920395D01*
X161610329Y-72843398D01*
X161494057Y-72561611D01*
X161175472Y-72403743D01*
X160832210Y-72311062D01*
X160477463Y-72287127D01*
X160124862Y-72332861D01*
X159787959Y-72446505D01*
X159572607Y-72561611D01*
X159456335Y-72843398D01*
X156444422Y-72843398D01*
X156268006Y-72725521D01*
X155985742Y-72608604D01*
X155686092Y-72549000D01*
X155380572Y-72549000D01*
X155080922Y-72608604D01*
X154798658Y-72725521D01*
X154544627Y-72895259D01*
X154328591Y-73111295D01*
X154158853Y-73365326D01*
X154041936Y-73647590D01*
X153982332Y-73947240D01*
X152084332Y-73947240D01*
X152024728Y-73647590D01*
X151907811Y-73365326D01*
X151738073Y-73111295D01*
X151522037Y-72895259D01*
X151268006Y-72725521D01*
X150985742Y-72608604D01*
X150686092Y-72549000D01*
X150380572Y-72549000D01*
X150080922Y-72608604D01*
X149798658Y-72725521D01*
X149544627Y-72895259D01*
X149328591Y-73111295D01*
X149239927Y-73243990D01*
X127129822Y-73243990D01*
X127327391Y-73138389D01*
X127443663Y-72856602D01*
X126366666Y-71779605D01*
X125289669Y-72856602D01*
X125405941Y-73138389D01*
X125619049Y-73243990D01*
X118561369Y-73243990D01*
X117705460Y-72388081D01*
X117741145Y-72334674D01*
X117858062Y-72052410D01*
X117917666Y-71752760D01*
X117917666Y-71447240D01*
X119815666Y-71447240D01*
X119815666Y-71752760D01*
X119875270Y-72052410D01*
X119992187Y-72334674D01*
X120161925Y-72588705D01*
X120377961Y-72804741D01*
X120631992Y-72974479D01*
X120914256Y-73091396D01*
X121213906Y-73151000D01*
X121519426Y-73151000D01*
X121819076Y-73091396D01*
X122101340Y-72974479D01*
X122355371Y-72804741D01*
X122571407Y-72588705D01*
X122741145Y-72334674D01*
X122858062Y-72052410D01*
X122917666Y-71752760D01*
X122917666Y-71655869D01*
X124553793Y-71655869D01*
X124599527Y-72008470D01*
X124713171Y-72345373D01*
X124828277Y-72560725D01*
X125110064Y-72676997D01*
X126187061Y-71600000D01*
X126546271Y-71600000D01*
X127623268Y-72676997D01*
X127905055Y-72560725D01*
X128062923Y-72242140D01*
X128155604Y-71898878D01*
X128179539Y-71544131D01*
X128133805Y-71191530D01*
X128020161Y-70854627D01*
X127905055Y-70639275D01*
X127623268Y-70523003D01*
X126546271Y-71600000D01*
X126187061Y-71600000D01*
X125110064Y-70523003D01*
X124828277Y-70639275D01*
X124670409Y-70957860D01*
X124577728Y-71301122D01*
X124553793Y-71655869D01*
X122917666Y-71655869D01*
X122917666Y-71447240D01*
X122858062Y-71147590D01*
X122741145Y-70865326D01*
X122571407Y-70611295D01*
X122355371Y-70395259D01*
X122277756Y-70343398D01*
X125289669Y-70343398D01*
X126366666Y-71420395D01*
X127443663Y-70343398D01*
X127327391Y-70061611D01*
X127008806Y-69903743D01*
X126665544Y-69811062D01*
X126310797Y-69787127D01*
X125958196Y-69832861D01*
X125621293Y-69946505D01*
X125405941Y-70061611D01*
X125289669Y-70343398D01*
X122277756Y-70343398D01*
X122101340Y-70225521D01*
X121819076Y-70108604D01*
X121519426Y-70049000D01*
X121213906Y-70049000D01*
X120914256Y-70108604D01*
X120631992Y-70225521D01*
X120377961Y-70395259D01*
X120161925Y-70611295D01*
X119992187Y-70865326D01*
X119875270Y-71147590D01*
X119815666Y-71447240D01*
X117917666Y-71447240D01*
X117858062Y-71147590D01*
X117741145Y-70865326D01*
X117571407Y-70611295D01*
X117355371Y-70395259D01*
X117101340Y-70225521D01*
X116819076Y-70108604D01*
X116519426Y-70049000D01*
X116213906Y-70049000D01*
X115914256Y-70108604D01*
X115810582Y-70151547D01*
X113134771Y-67475737D01*
X113115009Y-67451657D01*
X113018927Y-67372804D01*
X112909308Y-67314211D01*
X112790364Y-67278130D01*
X112697664Y-67269000D01*
X112697656Y-67269000D01*
X112666666Y-67265948D01*
X112635676Y-67269000D01*
X89630987Y-67269000D01*
X89599999Y-67265948D01*
X89569011Y-67269000D01*
X89569002Y-67269000D01*
X89476302Y-67278130D01*
X89357358Y-67314211D01*
X89247739Y-67372804D01*
X89151657Y-67451657D01*
X89131899Y-67475732D01*
X86558632Y-70049000D01*
X86547240Y-70049000D01*
X86247590Y-70108604D01*
X85965326Y-70225521D01*
X85711295Y-70395259D01*
X85495259Y-70611295D01*
X85325521Y-70865326D01*
X85208604Y-71147590D01*
X85149000Y-71447240D01*
X62953423Y-71447240D01*
X63121228Y-64131000D01*
X209778772Y-64131000D01*
X210259001Y-85069000D01*
%TA.AperFunction,Conductor*%
D22*
G36*
X210259001Y-85069000D02*
G01*
X204881000Y-85069000D01*
X204881000Y-83100000D01*
X204873679Y-83025671D01*
X204851998Y-82954198D01*
X204816790Y-82888328D01*
X204769408Y-82830592D01*
X204711672Y-82783210D01*
X204645802Y-82748002D01*
X204574329Y-82726321D01*
X204500000Y-82719000D01*
X203200000Y-82719000D01*
X203125671Y-82726321D01*
X203054198Y-82748002D01*
X202988328Y-82783210D01*
X202930592Y-82830592D01*
X202883210Y-82888328D01*
X202848002Y-82954198D01*
X202826321Y-83025671D01*
X202819000Y-83100000D01*
X202819000Y-85069000D01*
X202521168Y-85069000D01*
X202500000Y-85066915D01*
X202478832Y-85069000D01*
X202415509Y-85075237D01*
X202334266Y-85099882D01*
X202259391Y-85139903D01*
X202193763Y-85193763D01*
X202139903Y-85259391D01*
X202099882Y-85334266D01*
X202075237Y-85415509D01*
X202066915Y-85500000D01*
X202069000Y-85521169D01*
X202069001Y-91678821D01*
X202066915Y-91700000D01*
X202075237Y-91784491D01*
X202099882Y-91865734D01*
X202139903Y-91940609D01*
X202193763Y-92006237D01*
X202259391Y-92060097D01*
X202334266Y-92100118D01*
X202415509Y-92124763D01*
X202478832Y-92131000D01*
X202500000Y-92133085D01*
X202521168Y-92131000D01*
X202819000Y-92131000D01*
X202819000Y-94100000D01*
X202826321Y-94174329D01*
X202848002Y-94245802D01*
X202883210Y-94311672D01*
X202930592Y-94369408D01*
X202988328Y-94416790D01*
X203054198Y-94451998D01*
X203125671Y-94473679D01*
X203200000Y-94481000D01*
X204500000Y-94481000D01*
X204574329Y-94473679D01*
X204645802Y-94451998D01*
X204711672Y-94416790D01*
X204769408Y-94369408D01*
X204816790Y-94311672D01*
X204851998Y-94245802D01*
X204873679Y-94174329D01*
X204881000Y-94100000D01*
X204881000Y-92131000D01*
X210269000Y-92131000D01*
X210269001Y-101769000D01*
X62631000Y-101769000D01*
X62631000Y-96823068D01*
X174019010Y-96823068D01*
X174019010Y-96976912D01*
X174049023Y-97127799D01*
X174107897Y-97269932D01*
X174193368Y-97397849D01*
X174302151Y-97506632D01*
X174430068Y-97592103D01*
X174572201Y-97650977D01*
X174723088Y-97680990D01*
X174876932Y-97680990D01*
X175027819Y-97650977D01*
X175169952Y-97592103D01*
X175297869Y-97506632D01*
X175406652Y-97397849D01*
X175492123Y-97269932D01*
X175550997Y-97127799D01*
X175581010Y-96976912D01*
X175581010Y-96905291D01*
X178073843Y-94412460D01*
X178095053Y-94395053D01*
X178112460Y-94373843D01*
X178112463Y-94373840D01*
X178157469Y-94319000D01*
X178164534Y-94310392D01*
X178216162Y-94213801D01*
X178247955Y-94108995D01*
X178256000Y-94027312D01*
X178256000Y-94027305D01*
X178258689Y-94000001D01*
X178256000Y-93972696D01*
X178256000Y-82200000D01*
X194066915Y-82200000D01*
X194069001Y-82221178D01*
X194069000Y-85178831D01*
X194066915Y-85200000D01*
X194075237Y-85284491D01*
X194099882Y-85365734D01*
X194139903Y-85440609D01*
X194155429Y-85459527D01*
X194193763Y-85506237D01*
X194259391Y-85560097D01*
X194334266Y-85600118D01*
X194415509Y-85624763D01*
X194500000Y-85633085D01*
X194521168Y-85631000D01*
X196478832Y-85631000D01*
X196500000Y-85633085D01*
X196521168Y-85631000D01*
X196584491Y-85624763D01*
X196665734Y-85600118D01*
X196740609Y-85560097D01*
X196806237Y-85506237D01*
X196860097Y-85440609D01*
X196900118Y-85365734D01*
X196924763Y-85284491D01*
X196933085Y-85200000D01*
X196931000Y-85178832D01*
X196931000Y-82221168D01*
X196933085Y-82200000D01*
X196924763Y-82115509D01*
X196900118Y-82034266D01*
X196860097Y-81959391D01*
X196806237Y-81893763D01*
X196740609Y-81839903D01*
X196665734Y-81799882D01*
X196584491Y-81775237D01*
X196521168Y-81769000D01*
X196500000Y-81766915D01*
X196478832Y-81769000D01*
X194521168Y-81769000D01*
X194500000Y-81766915D01*
X194478832Y-81769000D01*
X194415509Y-81775237D01*
X194334266Y-81799882D01*
X194259391Y-81839903D01*
X194193763Y-81893763D01*
X194139903Y-81959391D01*
X194099882Y-82034266D01*
X194075237Y-82115509D01*
X194066915Y-82200000D01*
X178256000Y-82200000D01*
X178256000Y-78530301D01*
X181630302Y-75156000D01*
X185472696Y-75156000D01*
X185500000Y-75158689D01*
X185527304Y-75156000D01*
X185527312Y-75156000D01*
X185608995Y-75147955D01*
X185713801Y-75116162D01*
X185810392Y-75064534D01*
X185895053Y-74995053D01*
X185912469Y-74973832D01*
X187735302Y-73151000D01*
X187852760Y-73151000D01*
X188152410Y-73091396D01*
X188434674Y-72974479D01*
X188611089Y-72856602D01*
X191623003Y-72856602D01*
X191739275Y-73138389D01*
X192057860Y-73296257D01*
X192401122Y-73388938D01*
X192755869Y-73412873D01*
X193108470Y-73367139D01*
X193445373Y-73253495D01*
X193660725Y-73138389D01*
X193776997Y-72856602D01*
X192700000Y-71779605D01*
X191623003Y-72856602D01*
X188611089Y-72856602D01*
X188688705Y-72804741D01*
X188904741Y-72588705D01*
X189074479Y-72334674D01*
X189191396Y-72052410D01*
X189251000Y-71752760D01*
X189251000Y-71655869D01*
X190887127Y-71655869D01*
X190932861Y-72008470D01*
X191046505Y-72345373D01*
X191161611Y-72560725D01*
X191443398Y-72676997D01*
X192520395Y-71600000D01*
X192879605Y-71600000D01*
X193956602Y-72676997D01*
X194238389Y-72560725D01*
X194396257Y-72242140D01*
X194488938Y-71898878D01*
X194512873Y-71544131D01*
X194467139Y-71191530D01*
X194353495Y-70854627D01*
X194238389Y-70639275D01*
X193956602Y-70523003D01*
X192879605Y-71600000D01*
X192520395Y-71600000D01*
X191443398Y-70523003D01*
X191161611Y-70639275D01*
X191003743Y-70957860D01*
X190911062Y-71301122D01*
X190887127Y-71655869D01*
X189251000Y-71655869D01*
X189251000Y-71447240D01*
X189191396Y-71147590D01*
X189074479Y-70865326D01*
X188904741Y-70611295D01*
X188688705Y-70395259D01*
X188611090Y-70343398D01*
X191623003Y-70343398D01*
X192700000Y-71420395D01*
X193776997Y-70343398D01*
X193660725Y-70061611D01*
X193342140Y-69903743D01*
X192998878Y-69811062D01*
X192644131Y-69787127D01*
X192291530Y-69832861D01*
X191954627Y-69946505D01*
X191739275Y-70061611D01*
X191623003Y-70343398D01*
X188611090Y-70343398D01*
X188434674Y-70225521D01*
X188152410Y-70108604D01*
X187852760Y-70049000D01*
X187547240Y-70049000D01*
X187247590Y-70108604D01*
X186965326Y-70225521D01*
X186711295Y-70395259D01*
X186495259Y-70611295D01*
X186325521Y-70865326D01*
X186208604Y-71147590D01*
X186149000Y-71447240D01*
X186149000Y-71752760D01*
X186208604Y-72052410D01*
X186325521Y-72334674D01*
X186495259Y-72588705D01*
X186610126Y-72703572D01*
X185269699Y-74044000D01*
X181427304Y-74044000D01*
X181399999Y-74041311D01*
X181372695Y-74044000D01*
X181372688Y-74044000D01*
X181291005Y-74052045D01*
X181186199Y-74083838D01*
X181089608Y-74135466D01*
X181004947Y-74204947D01*
X180987536Y-74226162D01*
X177326168Y-77887531D01*
X177304947Y-77904947D01*
X177235466Y-77989608D01*
X177183838Y-78086200D01*
X177152045Y-78191006D01*
X177144000Y-78272689D01*
X177144000Y-78272696D01*
X177141311Y-78300000D01*
X177144000Y-78327304D01*
X177144001Y-93769696D01*
X174794709Y-96118990D01*
X174723088Y-96118990D01*
X174572201Y-96149003D01*
X174430068Y-96207877D01*
X174302151Y-96293348D01*
X174193368Y-96402131D01*
X174107897Y-96530048D01*
X174049023Y-96672181D01*
X174019010Y-96823068D01*
X62631000Y-96823068D01*
X62631000Y-92131000D01*
X68019000Y-92131000D01*
X68019000Y-94000000D01*
X68026321Y-94074329D01*
X68048002Y-94145802D01*
X68083210Y-94211672D01*
X68130592Y-94269408D01*
X68188328Y-94316790D01*
X68254198Y-94351998D01*
X68325671Y-94373679D01*
X68400000Y-94381000D01*
X69700000Y-94381000D01*
X69774329Y-94373679D01*
X69845802Y-94351998D01*
X69850000Y-94349754D01*
X69854198Y-94351998D01*
X69925671Y-94373679D01*
X70000000Y-94381000D01*
X70594968Y-94381000D01*
X70530058Y-94407887D01*
X70402141Y-94493358D01*
X70293358Y-94602141D01*
X70207887Y-94730058D01*
X70149013Y-94872191D01*
X70119000Y-95023078D01*
X70119000Y-95176922D01*
X70149013Y-95327809D01*
X70207887Y-95469942D01*
X70293358Y-95597859D01*
X70402141Y-95706642D01*
X70530058Y-95792113D01*
X70672191Y-95850987D01*
X70823078Y-95881000D01*
X70894698Y-95881000D01*
X71487540Y-96473843D01*
X71504947Y-96495053D01*
X71526157Y-96512460D01*
X71526161Y-96512464D01*
X71589608Y-96564534D01*
X71686198Y-96616162D01*
X71791005Y-96647955D01*
X71872688Y-96656000D01*
X71872695Y-96656000D01*
X71900000Y-96658689D01*
X71927305Y-96656000D01*
X73072696Y-96656000D01*
X73100000Y-96658689D01*
X73127304Y-96656000D01*
X73127312Y-96656000D01*
X73208995Y-96647955D01*
X73313801Y-96616162D01*
X73410392Y-96564534D01*
X73495053Y-96495053D01*
X73512468Y-96473833D01*
X73830292Y-96156010D01*
X131572686Y-96156010D01*
X131599990Y-96158699D01*
X131627294Y-96156010D01*
X131627302Y-96156010D01*
X131708985Y-96147965D01*
X131813791Y-96116172D01*
X131910382Y-96064544D01*
X131995043Y-95995063D01*
X132012459Y-95973842D01*
X140993843Y-86992460D01*
X141015053Y-86975053D01*
X141032460Y-86953843D01*
X141032463Y-86953840D01*
X141051192Y-86931019D01*
X141084534Y-86890392D01*
X141136162Y-86793801D01*
X141167955Y-86688995D01*
X141176000Y-86607312D01*
X141176000Y-86607298D01*
X141178688Y-86580001D01*
X141176000Y-86552704D01*
X141176000Y-84888002D01*
X141179413Y-84886588D01*
X141372843Y-84757342D01*
X141430185Y-84700000D01*
X161906915Y-84700000D01*
X161909001Y-84721178D01*
X161909000Y-87678831D01*
X161906915Y-87700000D01*
X161915237Y-87784491D01*
X161939882Y-87865734D01*
X161979903Y-87940609D01*
X162032444Y-88004630D01*
X162033763Y-88006237D01*
X162099391Y-88060097D01*
X162174266Y-88100118D01*
X162255509Y-88124763D01*
X162340000Y-88133085D01*
X162361168Y-88131000D01*
X164318832Y-88131000D01*
X164340000Y-88133085D01*
X164361168Y-88131000D01*
X164424491Y-88124763D01*
X164505734Y-88100118D01*
X164580609Y-88060097D01*
X164646237Y-88006237D01*
X164700097Y-87940609D01*
X164740118Y-87865734D01*
X164764763Y-87784491D01*
X164773085Y-87700000D01*
X164771000Y-87678832D01*
X164771000Y-84721168D01*
X164773085Y-84700000D01*
X164764763Y-84615509D01*
X164740118Y-84534266D01*
X164700097Y-84459391D01*
X164646237Y-84393763D01*
X164580609Y-84339903D01*
X164505734Y-84299882D01*
X164424491Y-84275237D01*
X164361168Y-84269000D01*
X164340000Y-84266915D01*
X164318832Y-84269000D01*
X162361168Y-84269000D01*
X162340000Y-84266915D01*
X162318832Y-84269000D01*
X162255509Y-84275237D01*
X162174266Y-84299882D01*
X162099391Y-84339903D01*
X162033763Y-84393763D01*
X161979903Y-84459391D01*
X161939882Y-84534266D01*
X161915237Y-84615509D01*
X161906915Y-84700000D01*
X141430185Y-84700000D01*
X141537342Y-84592843D01*
X141666588Y-84399413D01*
X141755614Y-84184485D01*
X141801000Y-83956318D01*
X141801000Y-83723682D01*
X141800021Y-83718757D01*
X169369000Y-83718757D01*
X169369000Y-83961243D01*
X169416307Y-84199069D01*
X169509102Y-84423097D01*
X169643820Y-84624717D01*
X169815283Y-84796180D01*
X170016903Y-84930898D01*
X170240931Y-85023693D01*
X170478757Y-85071000D01*
X170721243Y-85071000D01*
X170959069Y-85023693D01*
X171183097Y-84930898D01*
X171384717Y-84796180D01*
X171556180Y-84624717D01*
X171690898Y-84423097D01*
X171783693Y-84199069D01*
X171831000Y-83961243D01*
X171831000Y-83718757D01*
X171909000Y-83718757D01*
X171909000Y-83961243D01*
X171956307Y-84199069D01*
X172049102Y-84423097D01*
X172183820Y-84624717D01*
X172355283Y-84796180D01*
X172556903Y-84930898D01*
X172780931Y-85023693D01*
X173018757Y-85071000D01*
X173261243Y-85071000D01*
X173499069Y-85023693D01*
X173723097Y-84930898D01*
X173924717Y-84796180D01*
X174096180Y-84624717D01*
X174230898Y-84423097D01*
X174323693Y-84199069D01*
X174371000Y-83961243D01*
X174371000Y-83718757D01*
X174323693Y-83480931D01*
X174230898Y-83256903D01*
X174096180Y-83055283D01*
X173924717Y-82883820D01*
X173723097Y-82749102D01*
X173499069Y-82656307D01*
X173261243Y-82609000D01*
X173018757Y-82609000D01*
X172780931Y-82656307D01*
X172556903Y-82749102D01*
X172355283Y-82883820D01*
X172183820Y-83055283D01*
X172049102Y-83256903D01*
X171956307Y-83480931D01*
X171909000Y-83718757D01*
X171831000Y-83718757D01*
X171783693Y-83480931D01*
X171690898Y-83256903D01*
X171556180Y-83055283D01*
X171384717Y-82883820D01*
X171183097Y-82749102D01*
X170959069Y-82656307D01*
X170721243Y-82609000D01*
X170478757Y-82609000D01*
X170240931Y-82656307D01*
X170016903Y-82749102D01*
X169815283Y-82883820D01*
X169643820Y-83055283D01*
X169509102Y-83256903D01*
X169416307Y-83480931D01*
X169369000Y-83718757D01*
X141800021Y-83718757D01*
X141755614Y-83495515D01*
X141666588Y-83280587D01*
X141537342Y-83087157D01*
X141372843Y-82922658D01*
X141179413Y-82793412D01*
X140964485Y-82704386D01*
X140736318Y-82659000D01*
X140503682Y-82659000D01*
X140275515Y-82704386D01*
X140060587Y-82793412D01*
X139867157Y-82922658D01*
X139702658Y-83087157D01*
X139573412Y-83280587D01*
X139484386Y-83495515D01*
X139439000Y-83723682D01*
X139439000Y-83956318D01*
X139484386Y-84184485D01*
X139573412Y-84399413D01*
X139702658Y-84592843D01*
X139867157Y-84757342D01*
X140060587Y-84886588D01*
X140064000Y-84888002D01*
X140064001Y-86349696D01*
X131369689Y-95044010D01*
X104171581Y-95044010D01*
X110460220Y-88755372D01*
X110479527Y-88739527D01*
X110542759Y-88662479D01*
X110589745Y-88574575D01*
X110618678Y-88479193D01*
X110626000Y-88404854D01*
X110626000Y-88404847D01*
X110628447Y-88380001D01*
X110626000Y-88355155D01*
X110626000Y-84908712D01*
X110679413Y-84886588D01*
X110872843Y-84757342D01*
X111037342Y-84592843D01*
X111166588Y-84399413D01*
X111255614Y-84184485D01*
X111301000Y-83956318D01*
X111301000Y-83723682D01*
X111255614Y-83495515D01*
X111166588Y-83280587D01*
X111037342Y-83087157D01*
X110872843Y-82922658D01*
X110679413Y-82793412D01*
X110464485Y-82704386D01*
X110236318Y-82659000D01*
X110003682Y-82659000D01*
X109775515Y-82704386D01*
X109560587Y-82793412D01*
X109367157Y-82922658D01*
X109202658Y-83087157D01*
X109073412Y-83280587D01*
X108984386Y-83495515D01*
X108981657Y-83509237D01*
X108978787Y-83489870D01*
X108883603Y-83223708D01*
X108816671Y-83098486D01*
X108572702Y-83026903D01*
X107759605Y-83840000D01*
X108572702Y-84653097D01*
X108816671Y-84581514D01*
X108937571Y-84326004D01*
X108979368Y-84159259D01*
X108984386Y-84184485D01*
X109073412Y-84399413D01*
X109202658Y-84592843D01*
X109367157Y-84757342D01*
X109560587Y-84886588D01*
X109614000Y-84908712D01*
X109614001Y-88170407D01*
X103190409Y-94594000D01*
X83606000Y-94594000D01*
X83606000Y-85124854D01*
X83608448Y-85100000D01*
X83598678Y-85000807D01*
X83569745Y-84905425D01*
X83563511Y-84893763D01*
X83522759Y-84817521D01*
X83459527Y-84740473D01*
X83440220Y-84724628D01*
X79375376Y-80659785D01*
X79359527Y-80640473D01*
X79282479Y-80577241D01*
X79194575Y-80530255D01*
X79099193Y-80501322D01*
X79024854Y-80494000D01*
X79024846Y-80494000D01*
X79000000Y-80491553D01*
X78975154Y-80494000D01*
X71198501Y-80494000D01*
X71097859Y-80393358D01*
X70969942Y-80307887D01*
X70827809Y-80249013D01*
X70676922Y-80219000D01*
X70523078Y-80219000D01*
X70372191Y-80249013D01*
X70230058Y-80307887D01*
X70102141Y-80393358D01*
X69993358Y-80502141D01*
X69907887Y-80630058D01*
X69849013Y-80772191D01*
X69819000Y-80923078D01*
X69819000Y-81076922D01*
X69849013Y-81227809D01*
X69907887Y-81369942D01*
X69969535Y-81462205D01*
X69856640Y-81462205D01*
X69831794Y-81459758D01*
X69806948Y-81462205D01*
X69806941Y-81462205D01*
X69742489Y-81468553D01*
X69732601Y-81469527D01*
X69650031Y-81494574D01*
X69637220Y-81498460D01*
X69549316Y-81545446D01*
X69472268Y-81608678D01*
X69456423Y-81627985D01*
X68709785Y-82374624D01*
X68690473Y-82390473D01*
X68667061Y-82419000D01*
X68400000Y-82419000D01*
X68325671Y-82426321D01*
X68254198Y-82448002D01*
X68188328Y-82483210D01*
X68130592Y-82530592D01*
X68083210Y-82588328D01*
X68048002Y-82654198D01*
X68026321Y-82725671D01*
X68019000Y-82800000D01*
X68019000Y-85069000D01*
X62640998Y-85069000D01*
X62857647Y-75623078D01*
X81319000Y-75623078D01*
X81319000Y-75776922D01*
X81349013Y-75927809D01*
X81407887Y-76069942D01*
X81493358Y-76197859D01*
X81602141Y-76306642D01*
X81730058Y-76392113D01*
X81872191Y-76450987D01*
X82023078Y-76481000D01*
X82176922Y-76481000D01*
X82327809Y-76450987D01*
X82469942Y-76392113D01*
X82597859Y-76306642D01*
X82698501Y-76206000D01*
X93690409Y-76206000D01*
X99124628Y-81640220D01*
X99140473Y-81659527D01*
X99217521Y-81722759D01*
X99304031Y-81769000D01*
X98521168Y-81769000D01*
X98500000Y-81766915D01*
X98478832Y-81769000D01*
X98415509Y-81775237D01*
X98334266Y-81799882D01*
X98259391Y-81839903D01*
X98193763Y-81893763D01*
X98139903Y-81959391D01*
X98099882Y-82034266D01*
X98075237Y-82115509D01*
X98066915Y-82200000D01*
X98069001Y-82221178D01*
X98069000Y-85178831D01*
X98066915Y-85200000D01*
X98075237Y-85284491D01*
X98099882Y-85365734D01*
X98139903Y-85440609D01*
X98155429Y-85459527D01*
X98193763Y-85506237D01*
X98259391Y-85560097D01*
X98334266Y-85600118D01*
X98415509Y-85624763D01*
X98500000Y-85633085D01*
X98521168Y-85631000D01*
X100478832Y-85631000D01*
X100500000Y-85633085D01*
X100521168Y-85631000D01*
X100584491Y-85624763D01*
X100665734Y-85600118D01*
X100740609Y-85560097D01*
X100806237Y-85506237D01*
X100860097Y-85440609D01*
X100900118Y-85365734D01*
X100924763Y-85284491D01*
X100933085Y-85200000D01*
X100931000Y-85178832D01*
X100931000Y-83723682D01*
X101319000Y-83723682D01*
X101319000Y-83956318D01*
X101364386Y-84184485D01*
X101453412Y-84399413D01*
X101582658Y-84592843D01*
X101747157Y-84757342D01*
X101940587Y-84886588D01*
X102155515Y-84975614D01*
X102383682Y-85021000D01*
X102616318Y-85021000D01*
X102844485Y-84975614D01*
X103059413Y-84886588D01*
X103252843Y-84757342D01*
X103417342Y-84592843D01*
X103546588Y-84399413D01*
X103635614Y-84184485D01*
X103681000Y-83956318D01*
X103681000Y-83723682D01*
X103859000Y-83723682D01*
X103859000Y-83956318D01*
X103904386Y-84184485D01*
X103993412Y-84399413D01*
X104122658Y-84592843D01*
X104287157Y-84757342D01*
X104480587Y-84886588D01*
X104695515Y-84975614D01*
X104923682Y-85021000D01*
X105156318Y-85021000D01*
X105384485Y-84975614D01*
X105599413Y-84886588D01*
X105680058Y-84832702D01*
X106766903Y-84832702D01*
X106838486Y-85076671D01*
X107093996Y-85197571D01*
X107368184Y-85266300D01*
X107650512Y-85280217D01*
X107930130Y-85238787D01*
X108196292Y-85143603D01*
X108321514Y-85076671D01*
X108393097Y-84832702D01*
X107580000Y-84019605D01*
X106766903Y-84832702D01*
X105680058Y-84832702D01*
X105792843Y-84757342D01*
X105957342Y-84592843D01*
X106086588Y-84399413D01*
X106175614Y-84184485D01*
X106178343Y-84170763D01*
X106181213Y-84190130D01*
X106276397Y-84456292D01*
X106343329Y-84581514D01*
X106587298Y-84653097D01*
X107400395Y-83840000D01*
X106587298Y-83026903D01*
X106343329Y-83098486D01*
X106222429Y-83353996D01*
X106180632Y-83520741D01*
X106175614Y-83495515D01*
X106086588Y-83280587D01*
X105957342Y-83087157D01*
X105792843Y-82922658D01*
X105599413Y-82793412D01*
X105384485Y-82704386D01*
X105156318Y-82659000D01*
X104923682Y-82659000D01*
X104695515Y-82704386D01*
X104480587Y-82793412D01*
X104287157Y-82922658D01*
X104122658Y-83087157D01*
X103993412Y-83280587D01*
X103904386Y-83495515D01*
X103859000Y-83723682D01*
X103681000Y-83723682D01*
X103635614Y-83495515D01*
X103546588Y-83280587D01*
X103417342Y-83087157D01*
X103252843Y-82922658D01*
X103059413Y-82793412D01*
X102844485Y-82704386D01*
X102616318Y-82659000D01*
X102383682Y-82659000D01*
X102155515Y-82704386D01*
X101940587Y-82793412D01*
X101747157Y-82922658D01*
X101582658Y-83087157D01*
X101453412Y-83280587D01*
X101364386Y-83495515D01*
X101319000Y-83723682D01*
X100931000Y-83723682D01*
X100931000Y-82221168D01*
X100933085Y-82200000D01*
X100924763Y-82115509D01*
X100900118Y-82034266D01*
X100860097Y-81959391D01*
X100806237Y-81893763D01*
X100740609Y-81839903D01*
X100677180Y-81806000D01*
X101431288Y-81806000D01*
X101453412Y-81859413D01*
X101582658Y-82052843D01*
X101747157Y-82217342D01*
X101940587Y-82346588D01*
X102155515Y-82435614D01*
X102383682Y-82481000D01*
X102616318Y-82481000D01*
X102844485Y-82435614D01*
X103059413Y-82346588D01*
X103252843Y-82217342D01*
X103417342Y-82052843D01*
X103546588Y-81859413D01*
X103635614Y-81644485D01*
X103681000Y-81416318D01*
X103681000Y-81183682D01*
X103859000Y-81183682D01*
X103859000Y-81416318D01*
X103904386Y-81644485D01*
X103993412Y-81859413D01*
X104122658Y-82052843D01*
X104287157Y-82217342D01*
X104480587Y-82346588D01*
X104695515Y-82435614D01*
X104923682Y-82481000D01*
X105156318Y-82481000D01*
X105384485Y-82435614D01*
X105599413Y-82346588D01*
X105792843Y-82217342D01*
X105957342Y-82052843D01*
X106086588Y-81859413D01*
X106175614Y-81644485D01*
X106221000Y-81416318D01*
X106221000Y-81183682D01*
X106399000Y-81183682D01*
X106399000Y-81416318D01*
X106444386Y-81644485D01*
X106533412Y-81859413D01*
X106662658Y-82052843D01*
X106827157Y-82217342D01*
X107020587Y-82346588D01*
X107235515Y-82435614D01*
X107249237Y-82438343D01*
X107229870Y-82441213D01*
X106963708Y-82536397D01*
X106838486Y-82603329D01*
X106766903Y-82847298D01*
X107580000Y-83660395D01*
X108393097Y-82847298D01*
X108321514Y-82603329D01*
X108066004Y-82482429D01*
X107899259Y-82440632D01*
X107924485Y-82435614D01*
X108139413Y-82346588D01*
X108332843Y-82217342D01*
X108497342Y-82052843D01*
X108626588Y-81859413D01*
X108715614Y-81644485D01*
X108761000Y-81416318D01*
X108761000Y-81183682D01*
X108939000Y-81183682D01*
X108939000Y-81416318D01*
X108984386Y-81644485D01*
X109073412Y-81859413D01*
X109202658Y-82052843D01*
X109367157Y-82217342D01*
X109560587Y-82346588D01*
X109775515Y-82435614D01*
X110003682Y-82481000D01*
X110236318Y-82481000D01*
X110464485Y-82435614D01*
X110679413Y-82346588D01*
X110872843Y-82217342D01*
X110890185Y-82200000D01*
X127666915Y-82200000D01*
X127669000Y-82221169D01*
X127669001Y-85178822D01*
X127666915Y-85200000D01*
X127675237Y-85284491D01*
X127699882Y-85365734D01*
X127739903Y-85440609D01*
X127793763Y-85506237D01*
X127859391Y-85560097D01*
X127934266Y-85600118D01*
X128015509Y-85624763D01*
X128078832Y-85631000D01*
X128100000Y-85633085D01*
X128121168Y-85631000D01*
X130078832Y-85631000D01*
X130100000Y-85633085D01*
X130121168Y-85631000D01*
X130184491Y-85624763D01*
X130265734Y-85600118D01*
X130340609Y-85560097D01*
X130406237Y-85506237D01*
X130460097Y-85440609D01*
X130500118Y-85365734D01*
X130524763Y-85284491D01*
X130533085Y-85200000D01*
X130531000Y-85178832D01*
X130531000Y-82221168D01*
X130533085Y-82200000D01*
X130524763Y-82115509D01*
X130500118Y-82034266D01*
X130460097Y-81959391D01*
X130406237Y-81893763D01*
X130340609Y-81839903D01*
X130265734Y-81799882D01*
X130184491Y-81775237D01*
X130121168Y-81769000D01*
X130100000Y-81766915D01*
X130078832Y-81769000D01*
X128121168Y-81769000D01*
X128100000Y-81766915D01*
X128031814Y-81773631D01*
X128015509Y-81775237D01*
X127934266Y-81799882D01*
X127859391Y-81839903D01*
X127793763Y-81893763D01*
X127739903Y-81959391D01*
X127699882Y-82034266D01*
X127675237Y-82115509D01*
X127666915Y-82200000D01*
X110890185Y-82200000D01*
X111037342Y-82052843D01*
X111166588Y-81859413D01*
X111255614Y-81644485D01*
X111301000Y-81416318D01*
X111301000Y-81183682D01*
X111255614Y-80955515D01*
X111166588Y-80740587D01*
X111037342Y-80547157D01*
X110872843Y-80382658D01*
X110679413Y-80253412D01*
X110464485Y-80164386D01*
X110236318Y-80119000D01*
X110003682Y-80119000D01*
X109775515Y-80164386D01*
X109560587Y-80253412D01*
X109367157Y-80382658D01*
X109202658Y-80547157D01*
X109073412Y-80740587D01*
X108984386Y-80955515D01*
X108939000Y-81183682D01*
X108761000Y-81183682D01*
X108715614Y-80955515D01*
X108626588Y-80740587D01*
X108497342Y-80547157D01*
X108332843Y-80382658D01*
X108139413Y-80253412D01*
X107924485Y-80164386D01*
X107696318Y-80119000D01*
X107463682Y-80119000D01*
X107235515Y-80164386D01*
X107020587Y-80253412D01*
X106827157Y-80382658D01*
X106662658Y-80547157D01*
X106533412Y-80740587D01*
X106444386Y-80955515D01*
X106399000Y-81183682D01*
X106221000Y-81183682D01*
X106175614Y-80955515D01*
X106086588Y-80740587D01*
X105957342Y-80547157D01*
X105792843Y-80382658D01*
X105599413Y-80253412D01*
X105384485Y-80164386D01*
X105156318Y-80119000D01*
X104923682Y-80119000D01*
X104695515Y-80164386D01*
X104480587Y-80253412D01*
X104287157Y-80382658D01*
X104122658Y-80547157D01*
X103993412Y-80740587D01*
X103904386Y-80955515D01*
X103859000Y-81183682D01*
X103681000Y-81183682D01*
X103635614Y-80955515D01*
X103546588Y-80740587D01*
X103417342Y-80547157D01*
X103252843Y-80382658D01*
X103059413Y-80253412D01*
X102844485Y-80164386D01*
X102616318Y-80119000D01*
X102383682Y-80119000D01*
X102155515Y-80164386D01*
X101940587Y-80253412D01*
X101747157Y-80382658D01*
X101582658Y-80547157D01*
X101453412Y-80740587D01*
X101431288Y-80794000D01*
X99709592Y-80794000D01*
X96836039Y-77920447D01*
X105259158Y-77920447D01*
X105403135Y-78225770D01*
X105760892Y-78406597D01*
X106147053Y-78514155D01*
X106546777Y-78544310D01*
X106944704Y-78495904D01*
X107325540Y-78370795D01*
X107596865Y-78225770D01*
X107740842Y-77920447D01*
X106500000Y-76679605D01*
X105259158Y-77920447D01*
X96836039Y-77920447D01*
X94275376Y-75359785D01*
X94259527Y-75340473D01*
X94182479Y-75277241D01*
X94094575Y-75230255D01*
X93999193Y-75201322D01*
X93924854Y-75194000D01*
X93924846Y-75194000D01*
X93900000Y-75191553D01*
X93875154Y-75194000D01*
X82698501Y-75194000D01*
X82597859Y-75093358D01*
X82469942Y-75007887D01*
X82327809Y-74949013D01*
X82176922Y-74919000D01*
X82023078Y-74919000D01*
X81872191Y-74949013D01*
X81730058Y-75007887D01*
X81602141Y-75093358D01*
X81493358Y-75202141D01*
X81407887Y-75330058D01*
X81349013Y-75472191D01*
X81319000Y-75623078D01*
X62857647Y-75623078D01*
X62953423Y-71447240D01*
X85149000Y-71447240D01*
X85149000Y-71752760D01*
X85208604Y-72052410D01*
X85325521Y-72334674D01*
X85495259Y-72588705D01*
X85711295Y-72804741D01*
X85965326Y-72974479D01*
X86247590Y-73091396D01*
X86547240Y-73151000D01*
X86852760Y-73151000D01*
X87152410Y-73091396D01*
X87434674Y-72974479D01*
X87688705Y-72804741D01*
X87904741Y-72588705D01*
X88074479Y-72334674D01*
X88191396Y-72052410D01*
X88251000Y-71752760D01*
X88251000Y-71447240D01*
X88191396Y-71147590D01*
X88074479Y-70865326D01*
X87904741Y-70611295D01*
X87842907Y-70549461D01*
X89861369Y-68531000D01*
X112405298Y-68531000D01*
X114918213Y-71043916D01*
X114875270Y-71147590D01*
X114815666Y-71447240D01*
X114815666Y-71752760D01*
X114875270Y-72052410D01*
X114992187Y-72334674D01*
X115161925Y-72588705D01*
X115377961Y-72804741D01*
X115631992Y-72974479D01*
X115914256Y-73091396D01*
X116213906Y-73151000D01*
X116519426Y-73151000D01*
X116656397Y-73123755D01*
X117476641Y-73944000D01*
X93630302Y-73944000D01*
X92570215Y-72883914D01*
X92611090Y-72856602D01*
X95623003Y-72856602D01*
X95739275Y-73138389D01*
X96057860Y-73296257D01*
X96401122Y-73388938D01*
X96755869Y-73412873D01*
X97108470Y-73367139D01*
X97445373Y-73253495D01*
X97660725Y-73138389D01*
X97776997Y-72856602D01*
X96700000Y-71779605D01*
X95623003Y-72856602D01*
X92611090Y-72856602D01*
X92688705Y-72804741D01*
X92904741Y-72588705D01*
X93074479Y-72334674D01*
X93191396Y-72052410D01*
X93251000Y-71752760D01*
X93251000Y-71655869D01*
X94887127Y-71655869D01*
X94932861Y-72008470D01*
X95046505Y-72345373D01*
X95161611Y-72560725D01*
X95443398Y-72676997D01*
X96520395Y-71600000D01*
X96879605Y-71600000D01*
X97956602Y-72676997D01*
X98238389Y-72560725D01*
X98396257Y-72242140D01*
X98488938Y-71898878D01*
X98512873Y-71544131D01*
X98467139Y-71191530D01*
X98353495Y-70854627D01*
X98238389Y-70639275D01*
X97956602Y-70523003D01*
X96879605Y-71600000D01*
X96520395Y-71600000D01*
X95443398Y-70523003D01*
X95161611Y-70639275D01*
X95003743Y-70957860D01*
X94911062Y-71301122D01*
X94887127Y-71655869D01*
X93251000Y-71655869D01*
X93251000Y-71447240D01*
X93191396Y-71147590D01*
X93074479Y-70865326D01*
X92904741Y-70611295D01*
X92688705Y-70395259D01*
X92611090Y-70343398D01*
X95623003Y-70343398D01*
X96700000Y-71420395D01*
X97776997Y-70343398D01*
X97660725Y-70061611D01*
X97342140Y-69903743D01*
X96998878Y-69811062D01*
X96644131Y-69787127D01*
X96291530Y-69832861D01*
X95954627Y-69946505D01*
X95739275Y-70061611D01*
X95623003Y-70343398D01*
X92611090Y-70343398D01*
X92434674Y-70225521D01*
X92152410Y-70108604D01*
X91852760Y-70049000D01*
X91547240Y-70049000D01*
X91247590Y-70108604D01*
X90965326Y-70225521D01*
X90711295Y-70395259D01*
X90495259Y-70611295D01*
X90325521Y-70865326D01*
X90208604Y-71147590D01*
X90149000Y-71447240D01*
X90149000Y-71752760D01*
X90208604Y-72052410D01*
X90325521Y-72334674D01*
X90495259Y-72588705D01*
X90711295Y-72804741D01*
X90965326Y-72974479D01*
X91218978Y-73079545D01*
X91235466Y-73110392D01*
X91304947Y-73195053D01*
X91326168Y-73212469D01*
X92987535Y-74873837D01*
X93004947Y-74895053D01*
X93089608Y-74964534D01*
X93186199Y-75016162D01*
X93291005Y-75047955D01*
X93372688Y-75056000D01*
X93372695Y-75056000D01*
X93399999Y-75058689D01*
X93427304Y-75056000D01*
X105053020Y-75056000D01*
X104964706Y-75144314D01*
X105079551Y-75259159D01*
X104774230Y-75403135D01*
X104593403Y-75760892D01*
X104485845Y-76147053D01*
X104455690Y-76546777D01*
X104504096Y-76944704D01*
X104629205Y-77325540D01*
X104774230Y-77596865D01*
X105079553Y-77740842D01*
X106320395Y-76500000D01*
X106306253Y-76485858D01*
X106485858Y-76306253D01*
X106500000Y-76320395D01*
X106514143Y-76306253D01*
X106693748Y-76485858D01*
X106679605Y-76500000D01*
X107920447Y-77740842D01*
X108225770Y-77596865D01*
X108406597Y-77239108D01*
X108514155Y-76852947D01*
X108544310Y-76453223D01*
X108495904Y-76055296D01*
X108370795Y-75674460D01*
X108225770Y-75403135D01*
X107920449Y-75259159D01*
X108035294Y-75144314D01*
X107946980Y-75056000D01*
X128069699Y-75056000D01*
X132444001Y-79430304D01*
X132444000Y-80251998D01*
X132440587Y-80253412D01*
X132247157Y-80382658D01*
X132082658Y-80547157D01*
X131953412Y-80740587D01*
X131864386Y-80955515D01*
X131819000Y-81183682D01*
X131819000Y-81416318D01*
X131864386Y-81644485D01*
X131953412Y-81859413D01*
X132082658Y-82052843D01*
X132247157Y-82217342D01*
X132440587Y-82346588D01*
X132655515Y-82435614D01*
X132883682Y-82481000D01*
X133116318Y-82481000D01*
X133344485Y-82435614D01*
X133559413Y-82346588D01*
X133644000Y-82290069D01*
X133644000Y-82463631D01*
X133386035Y-82721597D01*
X133344485Y-82704386D01*
X133116318Y-82659000D01*
X132883682Y-82659000D01*
X132655515Y-82704386D01*
X132440587Y-82793412D01*
X132247157Y-82922658D01*
X132082658Y-83087157D01*
X131953412Y-83280587D01*
X131864386Y-83495515D01*
X131819000Y-83723682D01*
X131819000Y-83956318D01*
X131864386Y-84184485D01*
X131953412Y-84399413D01*
X132082658Y-84592843D01*
X132247157Y-84757342D01*
X132440587Y-84886588D01*
X132655515Y-84975614D01*
X132883682Y-85021000D01*
X133116318Y-85021000D01*
X133344485Y-84975614D01*
X133559413Y-84886588D01*
X133640058Y-84832702D01*
X134726903Y-84832702D01*
X134798486Y-85076671D01*
X135053996Y-85197571D01*
X135328184Y-85266300D01*
X135610512Y-85280217D01*
X135890130Y-85238787D01*
X136156292Y-85143603D01*
X136281514Y-85076671D01*
X136353097Y-84832702D01*
X135540000Y-84019605D01*
X134726903Y-84832702D01*
X133640058Y-84832702D01*
X133752843Y-84757342D01*
X133917342Y-84592843D01*
X134046588Y-84399413D01*
X134135614Y-84184485D01*
X134138343Y-84170763D01*
X134141213Y-84190130D01*
X134236397Y-84456292D01*
X134303329Y-84581514D01*
X134547298Y-84653097D01*
X135360395Y-83840000D01*
X135719605Y-83840000D01*
X136532702Y-84653097D01*
X136776671Y-84581514D01*
X136897571Y-84326004D01*
X136939368Y-84159259D01*
X136944386Y-84184485D01*
X137033412Y-84399413D01*
X137162658Y-84592843D01*
X137327157Y-84757342D01*
X137520587Y-84886588D01*
X137735515Y-84975614D01*
X137963682Y-85021000D01*
X138196318Y-85021000D01*
X138424485Y-84975614D01*
X138639413Y-84886588D01*
X138832843Y-84757342D01*
X138997342Y-84592843D01*
X139126588Y-84399413D01*
X139215614Y-84184485D01*
X139261000Y-83956318D01*
X139261000Y-83723682D01*
X139215614Y-83495515D01*
X139126588Y-83280587D01*
X138997342Y-83087157D01*
X138832843Y-82922658D01*
X138639413Y-82793412D01*
X138424485Y-82704386D01*
X138196318Y-82659000D01*
X137963682Y-82659000D01*
X137735515Y-82704386D01*
X137520587Y-82793412D01*
X137327157Y-82922658D01*
X137162658Y-83087157D01*
X137033412Y-83280587D01*
X136944386Y-83495515D01*
X136941657Y-83509237D01*
X136938787Y-83489870D01*
X136843603Y-83223708D01*
X136776671Y-83098486D01*
X136532702Y-83026903D01*
X135719605Y-83840000D01*
X135360395Y-83840000D01*
X135346253Y-83825858D01*
X135525858Y-83646253D01*
X135540000Y-83660395D01*
X136353097Y-82847298D01*
X136281514Y-82603329D01*
X136026004Y-82482429D01*
X135859259Y-82440632D01*
X135884485Y-82435614D01*
X136099413Y-82346588D01*
X136292843Y-82217342D01*
X136457342Y-82052843D01*
X136586588Y-81859413D01*
X136675614Y-81644485D01*
X136721000Y-81416318D01*
X136721000Y-81183682D01*
X136899000Y-81183682D01*
X136899000Y-81416318D01*
X136944386Y-81644485D01*
X137033412Y-81859413D01*
X137162658Y-82052843D01*
X137327157Y-82217342D01*
X137520587Y-82346588D01*
X137735515Y-82435614D01*
X137963682Y-82481000D01*
X138196318Y-82481000D01*
X138424485Y-82435614D01*
X138639413Y-82346588D01*
X138832843Y-82217342D01*
X138997342Y-82052843D01*
X139126588Y-81859413D01*
X139215614Y-81644485D01*
X139261000Y-81416318D01*
X139261000Y-81183682D01*
X139439000Y-81183682D01*
X139439000Y-81416318D01*
X139484386Y-81644485D01*
X139573412Y-81859413D01*
X139702658Y-82052843D01*
X139867157Y-82217342D01*
X140060587Y-82346588D01*
X140275515Y-82435614D01*
X140503682Y-82481000D01*
X140736318Y-82481000D01*
X140964485Y-82435614D01*
X141179413Y-82346588D01*
X141372843Y-82217342D01*
X141537342Y-82052843D01*
X141666588Y-81859413D01*
X141755614Y-81644485D01*
X141801000Y-81416318D01*
X141801000Y-81183682D01*
X141755614Y-80955515D01*
X141666588Y-80740587D01*
X141537342Y-80547157D01*
X141440185Y-80450000D01*
X169367157Y-80450000D01*
X169367157Y-82150000D01*
X169374513Y-82224689D01*
X169396299Y-82296508D01*
X169431678Y-82362696D01*
X169479289Y-82420711D01*
X169537304Y-82468322D01*
X169603492Y-82503701D01*
X169675311Y-82525487D01*
X169750000Y-82532843D01*
X171450000Y-82532843D01*
X171524689Y-82525487D01*
X171596508Y-82503701D01*
X171662696Y-82468322D01*
X171720711Y-82420711D01*
X171768322Y-82362696D01*
X171803701Y-82296508D01*
X171825487Y-82224689D01*
X171832843Y-82150000D01*
X171832843Y-81178757D01*
X171909000Y-81178757D01*
X171909000Y-81421243D01*
X171956307Y-81659069D01*
X172049102Y-81883097D01*
X172183820Y-82084717D01*
X172355283Y-82256180D01*
X172556903Y-82390898D01*
X172780931Y-82483693D01*
X173018757Y-82531000D01*
X173261243Y-82531000D01*
X173499069Y-82483693D01*
X173723097Y-82390898D01*
X173924717Y-82256180D01*
X174096180Y-82084717D01*
X174230898Y-81883097D01*
X174323693Y-81659069D01*
X174371000Y-81421243D01*
X174371000Y-81178757D01*
X174323693Y-80940931D01*
X174230898Y-80716903D01*
X174096180Y-80515283D01*
X173924717Y-80343820D01*
X173723097Y-80209102D01*
X173499069Y-80116307D01*
X173261243Y-80069000D01*
X173018757Y-80069000D01*
X172780931Y-80116307D01*
X172556903Y-80209102D01*
X172355283Y-80343820D01*
X172183820Y-80515283D01*
X172049102Y-80716903D01*
X171956307Y-80940931D01*
X171909000Y-81178757D01*
X171832843Y-81178757D01*
X171832843Y-80450000D01*
X171825487Y-80375311D01*
X171803701Y-80303492D01*
X171768322Y-80237304D01*
X171720711Y-80179289D01*
X171662696Y-80131678D01*
X171596508Y-80096299D01*
X171524689Y-80074513D01*
X171450000Y-80067157D01*
X169750000Y-80067157D01*
X169675311Y-80074513D01*
X169603492Y-80096299D01*
X169537304Y-80131678D01*
X169479289Y-80179289D01*
X169431678Y-80237304D01*
X169396299Y-80303492D01*
X169374513Y-80375311D01*
X169367157Y-80450000D01*
X141440185Y-80450000D01*
X141372843Y-80382658D01*
X141179413Y-80253412D01*
X140964485Y-80164386D01*
X140736318Y-80119000D01*
X140503682Y-80119000D01*
X140275515Y-80164386D01*
X140060587Y-80253412D01*
X139867157Y-80382658D01*
X139702658Y-80547157D01*
X139573412Y-80740587D01*
X139484386Y-80955515D01*
X139439000Y-81183682D01*
X139261000Y-81183682D01*
X139215614Y-80955515D01*
X139126588Y-80740587D01*
X138997342Y-80547157D01*
X138832843Y-80382658D01*
X138639413Y-80253412D01*
X138424485Y-80164386D01*
X138196318Y-80119000D01*
X137963682Y-80119000D01*
X137735515Y-80164386D01*
X137520587Y-80253412D01*
X137327157Y-80382658D01*
X137162658Y-80547157D01*
X137033412Y-80740587D01*
X136944386Y-80955515D01*
X136899000Y-81183682D01*
X136721000Y-81183682D01*
X136675614Y-80955515D01*
X136586588Y-80740587D01*
X136457342Y-80547157D01*
X136292843Y-80382658D01*
X136099413Y-80253412D01*
X135884485Y-80164386D01*
X135656318Y-80119000D01*
X135423682Y-80119000D01*
X135195515Y-80164386D01*
X134980587Y-80253412D01*
X134906000Y-80303250D01*
X134906000Y-74505990D01*
X149032703Y-74505990D01*
X149041936Y-74552410D01*
X149158853Y-74834674D01*
X149328591Y-75088705D01*
X149544627Y-75304741D01*
X149798658Y-75474479D01*
X150080922Y-75591396D01*
X150380572Y-75651000D01*
X150686092Y-75651000D01*
X150985742Y-75591396D01*
X151136558Y-75528926D01*
X153331895Y-77724263D01*
X153351657Y-77748343D01*
X153447739Y-77827196D01*
X153557358Y-77885789D01*
X153676302Y-77921870D01*
X153769002Y-77931000D01*
X153769011Y-77931000D01*
X153799999Y-77934052D01*
X153830987Y-77931000D01*
X176969010Y-77931000D01*
X177000000Y-77934052D01*
X177030990Y-77931000D01*
X177030998Y-77931000D01*
X177123698Y-77921870D01*
X177242642Y-77885789D01*
X177352261Y-77827196D01*
X177448343Y-77748343D01*
X177468105Y-77724263D01*
X182143916Y-73048453D01*
X182247590Y-73091396D01*
X182547240Y-73151000D01*
X182852760Y-73151000D01*
X183152410Y-73091396D01*
X183434674Y-72974479D01*
X183688705Y-72804741D01*
X183904741Y-72588705D01*
X184074479Y-72334674D01*
X184191396Y-72052410D01*
X184251000Y-71752760D01*
X184251000Y-71447240D01*
X184191396Y-71147590D01*
X184074479Y-70865326D01*
X183904741Y-70611295D01*
X183688705Y-70395259D01*
X183434674Y-70225521D01*
X183152410Y-70108604D01*
X182852760Y-70049000D01*
X182547240Y-70049000D01*
X182247590Y-70108604D01*
X181965326Y-70225521D01*
X181711295Y-70395259D01*
X181495259Y-70611295D01*
X181325521Y-70865326D01*
X181208604Y-71147590D01*
X181149000Y-71447240D01*
X181149000Y-71752760D01*
X181208604Y-72052410D01*
X181251547Y-72156084D01*
X176738632Y-76669000D01*
X154061368Y-76669000D01*
X152001311Y-74608943D01*
X152024728Y-74552410D01*
X152084332Y-74252760D01*
X152084332Y-73947240D01*
X153982332Y-73947240D01*
X153982332Y-74252760D01*
X154041936Y-74552410D01*
X154158853Y-74834674D01*
X154328591Y-75088705D01*
X154544627Y-75304741D01*
X154798658Y-75474479D01*
X155080922Y-75591396D01*
X155380572Y-75651000D01*
X155686092Y-75651000D01*
X155985742Y-75591396D01*
X156268006Y-75474479D01*
X156444421Y-75356602D01*
X159456335Y-75356602D01*
X159572607Y-75638389D01*
X159891192Y-75796257D01*
X160234454Y-75888938D01*
X160589201Y-75912873D01*
X160941802Y-75867139D01*
X161278705Y-75753495D01*
X161494057Y-75638389D01*
X161610329Y-75356602D01*
X160533332Y-74279605D01*
X159456335Y-75356602D01*
X156444421Y-75356602D01*
X156522037Y-75304741D01*
X156738073Y-75088705D01*
X156907811Y-74834674D01*
X157024728Y-74552410D01*
X157084332Y-74252760D01*
X157084332Y-74155869D01*
X158720459Y-74155869D01*
X158766193Y-74508470D01*
X158879837Y-74845373D01*
X158994943Y-75060725D01*
X159276730Y-75176997D01*
X160353727Y-74100000D01*
X160712937Y-74100000D01*
X161789934Y-75176997D01*
X162071721Y-75060725D01*
X162229589Y-74742140D01*
X162322270Y-74398878D01*
X162346205Y-74044131D01*
X162300471Y-73691530D01*
X162186827Y-73354627D01*
X162071721Y-73139275D01*
X161789934Y-73023003D01*
X160712937Y-74100000D01*
X160353727Y-74100000D01*
X159276730Y-73023003D01*
X158994943Y-73139275D01*
X158837075Y-73457860D01*
X158744394Y-73801122D01*
X158720459Y-74155869D01*
X157084332Y-74155869D01*
X157084332Y-73947240D01*
X157024728Y-73647590D01*
X156907811Y-73365326D01*
X156738073Y-73111295D01*
X156522037Y-72895259D01*
X156444422Y-72843398D01*
X159456335Y-72843398D01*
X160533332Y-73920395D01*
X161610329Y-72843398D01*
X161494057Y-72561611D01*
X161175472Y-72403743D01*
X160832210Y-72311062D01*
X160477463Y-72287127D01*
X160124862Y-72332861D01*
X159787959Y-72446505D01*
X159572607Y-72561611D01*
X159456335Y-72843398D01*
X156444422Y-72843398D01*
X156268006Y-72725521D01*
X155985742Y-72608604D01*
X155686092Y-72549000D01*
X155380572Y-72549000D01*
X155080922Y-72608604D01*
X154798658Y-72725521D01*
X154544627Y-72895259D01*
X154328591Y-73111295D01*
X154158853Y-73365326D01*
X154041936Y-73647590D01*
X153982332Y-73947240D01*
X152084332Y-73947240D01*
X152024728Y-73647590D01*
X151907811Y-73365326D01*
X151738073Y-73111295D01*
X151522037Y-72895259D01*
X151268006Y-72725521D01*
X150985742Y-72608604D01*
X150686092Y-72549000D01*
X150380572Y-72549000D01*
X150080922Y-72608604D01*
X149798658Y-72725521D01*
X149544627Y-72895259D01*
X149328591Y-73111295D01*
X149239927Y-73243990D01*
X127129822Y-73243990D01*
X127327391Y-73138389D01*
X127443663Y-72856602D01*
X126366666Y-71779605D01*
X125289669Y-72856602D01*
X125405941Y-73138389D01*
X125619049Y-73243990D01*
X118561369Y-73243990D01*
X117705460Y-72388081D01*
X117741145Y-72334674D01*
X117858062Y-72052410D01*
X117917666Y-71752760D01*
X117917666Y-71447240D01*
X119815666Y-71447240D01*
X119815666Y-71752760D01*
X119875270Y-72052410D01*
X119992187Y-72334674D01*
X120161925Y-72588705D01*
X120377961Y-72804741D01*
X120631992Y-72974479D01*
X120914256Y-73091396D01*
X121213906Y-73151000D01*
X121519426Y-73151000D01*
X121819076Y-73091396D01*
X122101340Y-72974479D01*
X122355371Y-72804741D01*
X122571407Y-72588705D01*
X122741145Y-72334674D01*
X122858062Y-72052410D01*
X122917666Y-71752760D01*
X122917666Y-71655869D01*
X124553793Y-71655869D01*
X124599527Y-72008470D01*
X124713171Y-72345373D01*
X124828277Y-72560725D01*
X125110064Y-72676997D01*
X126187061Y-71600000D01*
X126546271Y-71600000D01*
X127623268Y-72676997D01*
X127905055Y-72560725D01*
X128062923Y-72242140D01*
X128155604Y-71898878D01*
X128179539Y-71544131D01*
X128133805Y-71191530D01*
X128020161Y-70854627D01*
X127905055Y-70639275D01*
X127623268Y-70523003D01*
X126546271Y-71600000D01*
X126187061Y-71600000D01*
X125110064Y-70523003D01*
X124828277Y-70639275D01*
X124670409Y-70957860D01*
X124577728Y-71301122D01*
X124553793Y-71655869D01*
X122917666Y-71655869D01*
X122917666Y-71447240D01*
X122858062Y-71147590D01*
X122741145Y-70865326D01*
X122571407Y-70611295D01*
X122355371Y-70395259D01*
X122277756Y-70343398D01*
X125289669Y-70343398D01*
X126366666Y-71420395D01*
X127443663Y-70343398D01*
X127327391Y-70061611D01*
X127008806Y-69903743D01*
X126665544Y-69811062D01*
X126310797Y-69787127D01*
X125958196Y-69832861D01*
X125621293Y-69946505D01*
X125405941Y-70061611D01*
X125289669Y-70343398D01*
X122277756Y-70343398D01*
X122101340Y-70225521D01*
X121819076Y-70108604D01*
X121519426Y-70049000D01*
X121213906Y-70049000D01*
X120914256Y-70108604D01*
X120631992Y-70225521D01*
X120377961Y-70395259D01*
X120161925Y-70611295D01*
X119992187Y-70865326D01*
X119875270Y-71147590D01*
X119815666Y-71447240D01*
X117917666Y-71447240D01*
X117858062Y-71147590D01*
X117741145Y-70865326D01*
X117571407Y-70611295D01*
X117355371Y-70395259D01*
X117101340Y-70225521D01*
X116819076Y-70108604D01*
X116519426Y-70049000D01*
X116213906Y-70049000D01*
X115914256Y-70108604D01*
X115810582Y-70151547D01*
X113134771Y-67475737D01*
X113115009Y-67451657D01*
X113018927Y-67372804D01*
X112909308Y-67314211D01*
X112790364Y-67278130D01*
X112697664Y-67269000D01*
X112697656Y-67269000D01*
X112666666Y-67265948D01*
X112635676Y-67269000D01*
X89630987Y-67269000D01*
X89599999Y-67265948D01*
X89569011Y-67269000D01*
X89569002Y-67269000D01*
X89476302Y-67278130D01*
X89357358Y-67314211D01*
X89247739Y-67372804D01*
X89151657Y-67451657D01*
X89131899Y-67475732D01*
X86558632Y-70049000D01*
X86547240Y-70049000D01*
X86247590Y-70108604D01*
X85965326Y-70225521D01*
X85711295Y-70395259D01*
X85495259Y-70611295D01*
X85325521Y-70865326D01*
X85208604Y-71147590D01*
X85149000Y-71447240D01*
X62953423Y-71447240D01*
X63121228Y-64131000D01*
X209778772Y-64131000D01*
X210259001Y-85069000D01*
G37*
%TD.AperFunction*%
D21*
X82143990Y-85495992D02*
X82143991Y-93540417D01*
X81815410Y-93868999D01*
X71681000Y-93868999D01*
X71681000Y-92131000D01*
X76478832Y-92131000D01*
X76500000Y-92133085D01*
X76521168Y-92131000D01*
X76584491Y-92124763D01*
X76665734Y-92100118D01*
X76740609Y-92060097D01*
X76806237Y-92006237D01*
X76860097Y-91940609D01*
X76900118Y-91865734D01*
X76924763Y-91784491D01*
X76933085Y-91700000D01*
X76931000Y-91678832D01*
X76931000Y-85521168D01*
X76933085Y-85500000D01*
X76924763Y-85415509D01*
X76900118Y-85334266D01*
X76860097Y-85259391D01*
X76806237Y-85193763D01*
X76740609Y-85139903D01*
X76665734Y-85099882D01*
X76584491Y-85075237D01*
X76521168Y-85069000D01*
X76500000Y-85066915D01*
X76478832Y-85069000D01*
X71681000Y-85069000D01*
X71681000Y-82800000D01*
X71673679Y-82725671D01*
X71651998Y-82654198D01*
X71616790Y-82588328D01*
X71569408Y-82530592D01*
X71511672Y-82483210D01*
X71494825Y-82474205D01*
X79122204Y-82474205D01*
X82143990Y-85495992D01*
%TA.AperFunction,Conductor*%
D22*
G36*
X82143990Y-85495992D02*
G01*
X82143991Y-93540417D01*
X81815410Y-93868999D01*
X71681000Y-93868999D01*
X71681000Y-92131000D01*
X76478832Y-92131000D01*
X76500000Y-92133085D01*
X76521168Y-92131000D01*
X76584491Y-92124763D01*
X76665734Y-92100118D01*
X76740609Y-92060097D01*
X76806237Y-92006237D01*
X76860097Y-91940609D01*
X76900118Y-91865734D01*
X76924763Y-91784491D01*
X76933085Y-91700000D01*
X76931000Y-91678832D01*
X76931000Y-85521168D01*
X76933085Y-85500000D01*
X76924763Y-85415509D01*
X76900118Y-85334266D01*
X76860097Y-85259391D01*
X76806237Y-85193763D01*
X76740609Y-85139903D01*
X76665734Y-85099882D01*
X76584491Y-85075237D01*
X76521168Y-85069000D01*
X76500000Y-85066915D01*
X76478832Y-85069000D01*
X71681000Y-85069000D01*
X71681000Y-82800000D01*
X71673679Y-82725671D01*
X71651998Y-82654198D01*
X71616790Y-82588328D01*
X71569408Y-82530592D01*
X71511672Y-82483210D01*
X71494825Y-82474205D01*
X79122204Y-82474205D01*
X82143990Y-85495992D01*
G37*
%TD.AperFunction*%
%TD*%
D21*
%TO.N,GPIO8_SBASS*%
X69573000Y-85069000D02*
X68527000Y-85069000D01*
X68527000Y-82927000D01*
X69573000Y-82927000D01*
X69573000Y-85069000D01*
%TA.AperFunction,Conductor*%
D22*
G36*
X69573000Y-85069000D02*
G01*
X68527000Y-85069000D01*
X68527000Y-82927000D01*
X69573000Y-82927000D01*
X69573000Y-85069000D01*
G37*
%TD.AperFunction*%
%TD*%
D21*
%TO.N,GPIO1_COMP*%
X71173000Y-85069000D02*
X70127000Y-85069000D01*
X70127000Y-82927000D01*
X71173000Y-82927000D01*
X71173000Y-85069000D01*
%TA.AperFunction,Conductor*%
D22*
G36*
X71173000Y-85069000D02*
G01*
X70127000Y-85069000D01*
X70127000Y-82927000D01*
X71173000Y-82927000D01*
X71173000Y-85069000D01*
G37*
%TD.AperFunction*%
%TD*%
D21*
%TO.N,GPIO1_COMP*%
X71173000Y-93873000D02*
X70127000Y-93873000D01*
X70127000Y-92131000D01*
X71173000Y-92131000D01*
X71173000Y-93873000D01*
%TA.AperFunction,Conductor*%
D22*
G36*
X71173000Y-93873000D02*
G01*
X70127000Y-93873000D01*
X70127000Y-92131000D01*
X71173000Y-92131000D01*
X71173000Y-93873000D01*
G37*
%TD.AperFunction*%
%TD*%
D21*
%TO.N,GPIO8_SBASS*%
X69573000Y-93873000D02*
X68527000Y-93873000D01*
X68527000Y-92131000D01*
X69573000Y-92131000D01*
X69573000Y-93873000D01*
%TA.AperFunction,Conductor*%
D22*
G36*
X69573000Y-93873000D02*
G01*
X68527000Y-93873000D01*
X68527000Y-92131000D01*
X69573000Y-92131000D01*
X69573000Y-93873000D01*
G37*
%TD.AperFunction*%
%TD*%
D21*
%TO.N,GPIO5_MUTE*%
X204373000Y-85069000D02*
X203327000Y-85069000D01*
X203327000Y-83227000D01*
X204373000Y-83227000D01*
X204373000Y-85069000D01*
%TA.AperFunction,Conductor*%
D22*
G36*
X204373000Y-85069000D02*
G01*
X203327000Y-85069000D01*
X203327000Y-83227000D01*
X204373000Y-83227000D01*
X204373000Y-85069000D01*
G37*
%TD.AperFunction*%
%TD*%
D21*
%TO.N,GPIO5_MUTE*%
X204373000Y-93973000D02*
X203327000Y-93973000D01*
X203327000Y-92131000D01*
X204373000Y-92131000D01*
X204373000Y-93973000D01*
%TA.AperFunction,Conductor*%
D22*
G36*
X204373000Y-93973000D02*
G01*
X203327000Y-93973000D01*
X203327000Y-92131000D01*
X204373000Y-92131000D01*
X204373000Y-93973000D01*
G37*
%TD.AperFunction*%
%TD*%
M02*
