%TF.GenerationSoftware,KiCad,Pcbnew,(5.1.12)-1*%
%TF.CreationDate,2022-02-09T09:57:39+03:00*%
%TF.ProjectId,Streamer_ADAU1701 front,53747265-616d-4657-925f-414441553137,rev?*%
%TF.SameCoordinates,Original*%
%TF.FileFunction,Profile,NP*%
%FSLAX46Y46*%
G04 Gerber Fmt 4.6, Leading zero omitted, Abs format (unit mm)*
G04 Created by KiCad (PCBNEW (5.1.12)-1) date 2022-02-09 09:57:39*
%MOMM*%
%LPD*%
G01*
G04 APERTURE LIST*
%TA.AperFunction,Profile*%
%ADD10C,0.100000*%
%TD*%
G04 APERTURE END LIST*
D10*
X210200000Y-63700000D02*
X62700000Y-63700000D01*
X210700000Y-85500000D02*
X210200000Y-63700000D01*
X62200000Y-85500000D02*
X62700000Y-63700000D01*
X210700000Y-85500000D02*
X209500000Y-85500000D01*
X210700000Y-91700000D02*
X210700000Y-102200000D01*
X202500000Y-91700000D02*
X210700000Y-91700000D01*
X202500000Y-85500000D02*
X202500000Y-91700000D01*
X209500000Y-85500000D02*
X202500000Y-85500000D01*
X62200000Y-91700000D02*
X62200000Y-102200000D01*
X76400000Y-91700000D02*
X76500000Y-91700000D01*
X76400000Y-85500000D02*
X76500000Y-85500000D01*
X76500000Y-85500000D02*
X76500000Y-91700000D01*
X76400000Y-91700000D02*
X62200000Y-91700000D01*
X62200000Y-85500000D02*
X76400000Y-85500000D01*
X162340000Y-87700000D02*
X162340000Y-84700000D01*
X164340000Y-87700000D02*
X162340000Y-87700000D01*
X164340000Y-84700000D02*
X164340000Y-87700000D01*
X162340000Y-84700000D02*
X164340000Y-84700000D01*
X196500000Y-82200000D02*
X196500000Y-85200000D01*
X194500000Y-82200000D02*
X196500000Y-82200000D01*
X194500000Y-85200000D02*
X194500000Y-82200000D01*
X196500000Y-85200000D02*
X194500000Y-85200000D01*
X128100000Y-82200000D02*
X128100000Y-85200000D01*
X130100000Y-85200000D02*
X128100000Y-85200000D01*
X130100000Y-82200000D02*
X130100000Y-85200000D01*
X128100000Y-82200000D02*
X130100000Y-82200000D01*
X98500000Y-85200000D02*
X98500000Y-82200000D01*
X100500000Y-85200000D02*
X98500000Y-85200000D01*
X100500000Y-82200000D02*
X100500000Y-85200000D01*
X98500000Y-82200000D02*
X100500000Y-82200000D01*
X62200000Y-102200000D02*
X210700000Y-102200000D01*
M02*
