M48
; DRILL file {KiCad (5.1.12)-1} date 02/09/22 09:57:42
; FORMAT={-:-/ absolute / metric / decimal}
; #@! TF.CreationDate,2022-02-09T09:57:42+03:00
; #@! TF.GenerationSoftware,Kicad,Pcbnew,(5.1.12)-1
; #@! TF.FileFunction,Plated,1,2,PTH
FMAT,2
METRIC
T1C0.400
T2C0.900
T3C1.000
T4C1.300
T5C1.600
T6C3.200
T7C7.200
%
G90
G05
T1
X64.6Y-84.2
X64.6Y-93.0
X69.05Y-84.2
X69.05Y-93.0
X70.6Y-81.0
X70.65Y-84.2
X70.65Y-93.0
X70.9Y-95.1
X72.3Y-95.1
X75.2Y-84.2
X75.2Y-93.0
X82.1Y-75.7
X100.0Y-69.0
X107.0Y-69.0
X114.0Y-97.0
X114.0Y-100.0
X123.1Y-65.5
X126.0Y-97.0
X126.0Y-100.0
X139.0Y-66.0
X158.0Y-66.0
X158.0Y-101.0
X172.0Y-101.0
X174.8Y-96.9
X186.0Y-101.0
X203.85Y-84.05
X203.85Y-92.9
X208.3Y-92.9
X208.4Y-84.1
T2
X102.5Y-81.3
X102.5Y-83.84
X105.04Y-81.3
X105.04Y-83.84
X107.58Y-81.3
X107.58Y-83.84
X110.12Y-81.3
X110.12Y-83.84
X133.0Y-81.3
X133.0Y-83.84
X135.54Y-81.3
X135.54Y-83.84
X138.08Y-81.3
X138.08Y-83.84
X140.62Y-81.3
X140.62Y-83.84
T3
X170.6Y-81.3
X170.6Y-83.84
X173.14Y-81.3
X173.14Y-83.84
T4
X86.7Y-71.6
X91.7Y-71.6
X96.7Y-71.6
X116.367Y-71.6
X121.367Y-71.6
X126.367Y-71.6
X150.533Y-74.1
X155.533Y-74.1
X160.533Y-74.1
X182.7Y-71.6
X187.7Y-71.6
X192.7Y-71.6
T5
X106.5Y-76.5
T6
X66.9Y-68.5
X66.9Y-97.4
X206.0Y-68.5
X206.0Y-97.4
T7
X91.7Y-83.7
X121.367Y-83.7
X155.533Y-86.2
X187.7Y-83.7
T0
M30
