%TF.GenerationSoftware,KiCad,Pcbnew,(5.1.12)-1*%
%TF.CreationDate,2022-02-09T09:57:39+03:00*%
%TF.ProjectId,Streamer_ADAU1701 front,53747265-616d-4657-925f-414441553137,rev?*%
%TF.SameCoordinates,Original*%
%TF.FileFunction,Legend,Top*%
%TF.FilePolarity,Positive*%
%FSLAX46Y46*%
G04 Gerber Fmt 4.6, Leading zero omitted, Abs format (unit mm)*
G04 Created by KiCad (PCBNEW (5.1.12)-1) date 2022-02-09 09:57:39*
%MOMM*%
%LPD*%
G01*
G04 APERTURE LIST*
%ADD10C,0.150000*%
%ADD11C,0.120000*%
G04 APERTURE END LIST*
D10*
X105790476Y-73500000D02*
X105714285Y-73461904D01*
X105600000Y-73461904D01*
X105485714Y-73500000D01*
X105409523Y-73576190D01*
X105371428Y-73652380D01*
X105333333Y-73804761D01*
X105333333Y-73919047D01*
X105371428Y-74071428D01*
X105409523Y-74147619D01*
X105485714Y-74223809D01*
X105600000Y-74261904D01*
X105676190Y-74261904D01*
X105790476Y-74223809D01*
X105828571Y-74185714D01*
X105828571Y-73919047D01*
X105676190Y-73919047D01*
X106171428Y-74261904D02*
X106171428Y-73461904D01*
X106628571Y-74261904D01*
X106628571Y-73461904D01*
X107009523Y-74261904D02*
X107009523Y-73461904D01*
X107200000Y-73461904D01*
X107314285Y-73500000D01*
X107390476Y-73576190D01*
X107428571Y-73652380D01*
X107466666Y-73804761D01*
X107466666Y-73919047D01*
X107428571Y-74071428D01*
X107390476Y-74147619D01*
X107314285Y-74223809D01*
X107200000Y-74261904D01*
X107009523Y-74261904D01*
X133438095Y-85609523D02*
X133438095Y-86104761D01*
X133133333Y-85838095D01*
X133133333Y-85952380D01*
X133095238Y-86028571D01*
X133057142Y-86066666D01*
X132980952Y-86104761D01*
X132790476Y-86104761D01*
X132714285Y-86066666D01*
X132676190Y-86028571D01*
X132638095Y-85952380D01*
X132638095Y-85723809D01*
X132676190Y-85647619D01*
X132714285Y-85609523D01*
X133438095Y-86333333D02*
X132638095Y-86600000D01*
X133438095Y-86866666D01*
X133438095Y-87057142D02*
X133438095Y-87552380D01*
X133133333Y-87285714D01*
X133133333Y-87400000D01*
X133095238Y-87476190D01*
X133057142Y-87514285D01*
X132980952Y-87552380D01*
X132790476Y-87552380D01*
X132714285Y-87514285D01*
X132676190Y-87476190D01*
X132638095Y-87400000D01*
X132638095Y-87171428D01*
X132676190Y-87095238D01*
X132714285Y-87057142D01*
X136000000Y-86090476D02*
X136038095Y-86014285D01*
X136038095Y-85900000D01*
X136000000Y-85785714D01*
X135923809Y-85709523D01*
X135847619Y-85671428D01*
X135695238Y-85633333D01*
X135580952Y-85633333D01*
X135428571Y-85671428D01*
X135352380Y-85709523D01*
X135276190Y-85785714D01*
X135238095Y-85900000D01*
X135238095Y-85976190D01*
X135276190Y-86090476D01*
X135314285Y-86128571D01*
X135580952Y-86128571D01*
X135580952Y-85976190D01*
X135238095Y-86471428D02*
X136038095Y-86471428D01*
X135238095Y-86928571D01*
X136038095Y-86928571D01*
X135238095Y-87309523D02*
X136038095Y-87309523D01*
X136038095Y-87500000D01*
X136000000Y-87614285D01*
X135923809Y-87690476D01*
X135847619Y-87728571D01*
X135695238Y-87766666D01*
X135580952Y-87766666D01*
X135428571Y-87728571D01*
X135352380Y-87690476D01*
X135276190Y-87614285D01*
X135238095Y-87500000D01*
X135238095Y-87309523D01*
X108000000Y-86090476D02*
X108038095Y-86014285D01*
X108038095Y-85900000D01*
X108000000Y-85785714D01*
X107923809Y-85709523D01*
X107847619Y-85671428D01*
X107695238Y-85633333D01*
X107580952Y-85633333D01*
X107428571Y-85671428D01*
X107352380Y-85709523D01*
X107276190Y-85785714D01*
X107238095Y-85900000D01*
X107238095Y-85976190D01*
X107276190Y-86090476D01*
X107314285Y-86128571D01*
X107580952Y-86128571D01*
X107580952Y-85976190D01*
X107238095Y-86471428D02*
X108038095Y-86471428D01*
X107238095Y-86928571D01*
X108038095Y-86928571D01*
X107238095Y-87309523D02*
X108038095Y-87309523D01*
X108038095Y-87500000D01*
X108000000Y-87614285D01*
X107923809Y-87690476D01*
X107847619Y-87728571D01*
X107695238Y-87766666D01*
X107580952Y-87766666D01*
X107428571Y-87728571D01*
X107352380Y-87690476D01*
X107276190Y-87614285D01*
X107238095Y-87500000D01*
X107238095Y-87309523D01*
X102328571Y-79200000D02*
X102252380Y-79161904D01*
X102138095Y-79161904D01*
X102023809Y-79200000D01*
X101947619Y-79276190D01*
X101909523Y-79352380D01*
X101871428Y-79504761D01*
X101871428Y-79619047D01*
X101909523Y-79771428D01*
X101947619Y-79847619D01*
X102023809Y-79923809D01*
X102138095Y-79961904D01*
X102214285Y-79961904D01*
X102328571Y-79923809D01*
X102366666Y-79885714D01*
X102366666Y-79619047D01*
X102214285Y-79619047D01*
X102633333Y-79161904D02*
X103166666Y-79161904D01*
X102823809Y-79961904D01*
X102328571Y-85619453D02*
X102252380Y-85581357D01*
X102138095Y-85581357D01*
X102023809Y-85619453D01*
X101947619Y-85695643D01*
X101909523Y-85771833D01*
X101871428Y-85924214D01*
X101871428Y-86038500D01*
X101909523Y-86190881D01*
X101947619Y-86267072D01*
X102023809Y-86343262D01*
X102138095Y-86381357D01*
X102214285Y-86381357D01*
X102328571Y-86343262D01*
X102366666Y-86305167D01*
X102366666Y-86038500D01*
X102214285Y-86038500D01*
X103090476Y-85581357D02*
X102709523Y-85581357D01*
X102671428Y-85962310D01*
X102709523Y-85924214D01*
X102785714Y-85886119D01*
X102976190Y-85886119D01*
X103052380Y-85924214D01*
X103090476Y-85962310D01*
X103128571Y-86038500D01*
X103128571Y-86228976D01*
X103090476Y-86305167D01*
X103052380Y-86343262D01*
X102976190Y-86381357D01*
X102785714Y-86381357D01*
X102709523Y-86343262D01*
X102671428Y-86305167D01*
X110028571Y-85619453D02*
X109952380Y-85581357D01*
X109838095Y-85581357D01*
X109723809Y-85619453D01*
X109647619Y-85695643D01*
X109609523Y-85771833D01*
X109571428Y-85924214D01*
X109571428Y-86038500D01*
X109609523Y-86190881D01*
X109647619Y-86267072D01*
X109723809Y-86343262D01*
X109838095Y-86381357D01*
X109914285Y-86381357D01*
X110028571Y-86343262D01*
X110066666Y-86305167D01*
X110066666Y-86038500D01*
X109914285Y-86038500D01*
X110828571Y-86381357D02*
X110371428Y-86381357D01*
X110600000Y-86381357D02*
X110600000Y-85581357D01*
X110523809Y-85695643D01*
X110447619Y-85771833D01*
X110371428Y-85809929D01*
X137928571Y-85619453D02*
X137852380Y-85581357D01*
X137738095Y-85581357D01*
X137623809Y-85619453D01*
X137547619Y-85695643D01*
X137509523Y-85771833D01*
X137471428Y-85924214D01*
X137471428Y-86038500D01*
X137509523Y-86190881D01*
X137547619Y-86267072D01*
X137623809Y-86343262D01*
X137738095Y-86381357D01*
X137814285Y-86381357D01*
X137928571Y-86343262D01*
X137966666Y-86305167D01*
X137966666Y-86038500D01*
X137814285Y-86038500D01*
X138652380Y-85581357D02*
X138500000Y-85581357D01*
X138423809Y-85619453D01*
X138385714Y-85657548D01*
X138309523Y-85771833D01*
X138271428Y-85924214D01*
X138271428Y-86228976D01*
X138309523Y-86305167D01*
X138347619Y-86343262D01*
X138423809Y-86381357D01*
X138576190Y-86381357D01*
X138652380Y-86343262D01*
X138690476Y-86305167D01*
X138728571Y-86228976D01*
X138728571Y-86038500D01*
X138690476Y-85962310D01*
X138652380Y-85924214D01*
X138576190Y-85886119D01*
X138423809Y-85886119D01*
X138347619Y-85924214D01*
X138309523Y-85962310D01*
X138271428Y-86038500D01*
X140428571Y-85619453D02*
X140352380Y-85581357D01*
X140238095Y-85581357D01*
X140123809Y-85619453D01*
X140047619Y-85695643D01*
X140009523Y-85771833D01*
X139971428Y-85924214D01*
X139971428Y-86038500D01*
X140009523Y-86190881D01*
X140047619Y-86267072D01*
X140123809Y-86343262D01*
X140238095Y-86381357D01*
X140314285Y-86381357D01*
X140428571Y-86343262D01*
X140466666Y-86305167D01*
X140466666Y-86038500D01*
X140314285Y-86038500D01*
X140923809Y-85924214D02*
X140847619Y-85886119D01*
X140809523Y-85848024D01*
X140771428Y-85771833D01*
X140771428Y-85733738D01*
X140809523Y-85657548D01*
X140847619Y-85619453D01*
X140923809Y-85581357D01*
X141076190Y-85581357D01*
X141152380Y-85619453D01*
X141190476Y-85657548D01*
X141228571Y-85733738D01*
X141228571Y-85771833D01*
X141190476Y-85848024D01*
X141152380Y-85886119D01*
X141076190Y-85924214D01*
X140923809Y-85924214D01*
X140847619Y-85962310D01*
X140809523Y-86000405D01*
X140771428Y-86076595D01*
X140771428Y-86228976D01*
X140809523Y-86305167D01*
X140847619Y-86343262D01*
X140923809Y-86381357D01*
X141076190Y-86381357D01*
X141152380Y-86343262D01*
X141190476Y-86305167D01*
X141228571Y-86228976D01*
X141228571Y-86076595D01*
X141190476Y-86000405D01*
X141152380Y-85962310D01*
X141076190Y-85924214D01*
X140047619Y-79000000D02*
X139971428Y-78961904D01*
X139857142Y-78961904D01*
X139742857Y-79000000D01*
X139666666Y-79076190D01*
X139628571Y-79152380D01*
X139590476Y-79304761D01*
X139590476Y-79419047D01*
X139628571Y-79571428D01*
X139666666Y-79647619D01*
X139742857Y-79723809D01*
X139857142Y-79761904D01*
X139933333Y-79761904D01*
X140047619Y-79723809D01*
X140085714Y-79685714D01*
X140085714Y-79419047D01*
X139933333Y-79419047D01*
X140847619Y-79761904D02*
X140390476Y-79761904D01*
X140619047Y-79761904D02*
X140619047Y-78961904D01*
X140542857Y-79076190D01*
X140466666Y-79152380D01*
X140390476Y-79190476D01*
X141342857Y-78961904D02*
X141419047Y-78961904D01*
X141495238Y-79000000D01*
X141533333Y-79038095D01*
X141571428Y-79114285D01*
X141609523Y-79266666D01*
X141609523Y-79457142D01*
X141571428Y-79609523D01*
X141533333Y-79685714D01*
X141495238Y-79723809D01*
X141419047Y-79761904D01*
X141342857Y-79761904D01*
X141266666Y-79723809D01*
X141228571Y-79685714D01*
X141190476Y-79609523D01*
X141152380Y-79457142D01*
X141152380Y-79266666D01*
X141190476Y-79114285D01*
X141228571Y-79038095D01*
X141266666Y-79000000D01*
X141342857Y-78961904D01*
X137828571Y-79000000D02*
X137752380Y-78961904D01*
X137638095Y-78961904D01*
X137523809Y-79000000D01*
X137447619Y-79076190D01*
X137409523Y-79152380D01*
X137371428Y-79304761D01*
X137371428Y-79419047D01*
X137409523Y-79571428D01*
X137447619Y-79647619D01*
X137523809Y-79723809D01*
X137638095Y-79761904D01*
X137714285Y-79761904D01*
X137828571Y-79723809D01*
X137866666Y-79685714D01*
X137866666Y-79419047D01*
X137714285Y-79419047D01*
X138171428Y-79038095D02*
X138209523Y-79000000D01*
X138285714Y-78961904D01*
X138476190Y-78961904D01*
X138552380Y-79000000D01*
X138590476Y-79038095D01*
X138628571Y-79114285D01*
X138628571Y-79190476D01*
X138590476Y-79304761D01*
X138133333Y-79761904D01*
X138628571Y-79761904D01*
X135428571Y-79000000D02*
X135352380Y-78961904D01*
X135238095Y-78961904D01*
X135123809Y-79000000D01*
X135047619Y-79076190D01*
X135009523Y-79152380D01*
X134971428Y-79304761D01*
X134971428Y-79419047D01*
X135009523Y-79571428D01*
X135047619Y-79647619D01*
X135123809Y-79723809D01*
X135238095Y-79761904D01*
X135314285Y-79761904D01*
X135428571Y-79723809D01*
X135466666Y-79685714D01*
X135466666Y-79419047D01*
X135314285Y-79419047D01*
X135733333Y-78961904D02*
X136228571Y-78961904D01*
X135961904Y-79266666D01*
X136076190Y-79266666D01*
X136152380Y-79304761D01*
X136190476Y-79342857D01*
X136228571Y-79419047D01*
X136228571Y-79609523D01*
X136190476Y-79685714D01*
X136152380Y-79723809D01*
X136076190Y-79761904D01*
X135847619Y-79761904D01*
X135771428Y-79723809D01*
X135733333Y-79685714D01*
X132828571Y-79000000D02*
X132752380Y-78961904D01*
X132638095Y-78961904D01*
X132523809Y-79000000D01*
X132447619Y-79076190D01*
X132409523Y-79152380D01*
X132371428Y-79304761D01*
X132371428Y-79419047D01*
X132409523Y-79571428D01*
X132447619Y-79647619D01*
X132523809Y-79723809D01*
X132638095Y-79761904D01*
X132714285Y-79761904D01*
X132828571Y-79723809D01*
X132866666Y-79685714D01*
X132866666Y-79419047D01*
X132714285Y-79419047D01*
X133552380Y-79228571D02*
X133552380Y-79761904D01*
X133361904Y-78923809D02*
X133171428Y-79495238D01*
X133666666Y-79495238D01*
X70600000Y-97923809D02*
X70714285Y-97961904D01*
X70904761Y-97961904D01*
X70980952Y-97923809D01*
X71019047Y-97885714D01*
X71057142Y-97809523D01*
X71057142Y-97733333D01*
X71019047Y-97657142D01*
X70980952Y-97619047D01*
X70904761Y-97580952D01*
X70752380Y-97542857D01*
X70676190Y-97504761D01*
X70638095Y-97466666D01*
X70600000Y-97390476D01*
X70600000Y-97314285D01*
X70638095Y-97238095D01*
X70676190Y-97200000D01*
X70752380Y-97161904D01*
X70942857Y-97161904D01*
X71057142Y-97200000D01*
X71285714Y-97428571D02*
X71590476Y-97428571D01*
X71400000Y-97161904D02*
X71400000Y-97847619D01*
X71438095Y-97923809D01*
X71514285Y-97961904D01*
X71590476Y-97961904D01*
X71857142Y-97961904D02*
X71857142Y-97428571D01*
X71857142Y-97580952D02*
X71895238Y-97504761D01*
X71933333Y-97466666D01*
X72009523Y-97428571D01*
X72085714Y-97428571D01*
X72657142Y-97923809D02*
X72580952Y-97961904D01*
X72428571Y-97961904D01*
X72352380Y-97923809D01*
X72314285Y-97847619D01*
X72314285Y-97542857D01*
X72352380Y-97466666D01*
X72428571Y-97428571D01*
X72580952Y-97428571D01*
X72657142Y-97466666D01*
X72695238Y-97542857D01*
X72695238Y-97619047D01*
X72314285Y-97695238D01*
X73380952Y-97961904D02*
X73380952Y-97542857D01*
X73342857Y-97466666D01*
X73266666Y-97428571D01*
X73114285Y-97428571D01*
X73038095Y-97466666D01*
X73380952Y-97923809D02*
X73304761Y-97961904D01*
X73114285Y-97961904D01*
X73038095Y-97923809D01*
X73000000Y-97847619D01*
X73000000Y-97771428D01*
X73038095Y-97695238D01*
X73114285Y-97657142D01*
X73304761Y-97657142D01*
X73380952Y-97619047D01*
X73761904Y-97961904D02*
X73761904Y-97428571D01*
X73761904Y-97504761D02*
X73800000Y-97466666D01*
X73876190Y-97428571D01*
X73990476Y-97428571D01*
X74066666Y-97466666D01*
X74104761Y-97542857D01*
X74104761Y-97961904D01*
X74104761Y-97542857D02*
X74142857Y-97466666D01*
X74219047Y-97428571D01*
X74333333Y-97428571D01*
X74409523Y-97466666D01*
X74447619Y-97542857D01*
X74447619Y-97961904D01*
X75133333Y-97923809D02*
X75057142Y-97961904D01*
X74904761Y-97961904D01*
X74828571Y-97923809D01*
X74790476Y-97847619D01*
X74790476Y-97542857D01*
X74828571Y-97466666D01*
X74904761Y-97428571D01*
X75057142Y-97428571D01*
X75133333Y-97466666D01*
X75171428Y-97542857D01*
X75171428Y-97619047D01*
X74790476Y-97695238D01*
X75514285Y-97961904D02*
X75514285Y-97428571D01*
X75514285Y-97580952D02*
X75552380Y-97504761D01*
X75590476Y-97466666D01*
X75666666Y-97428571D01*
X75742857Y-97428571D01*
X76580952Y-97733333D02*
X76961904Y-97733333D01*
X76504761Y-97961904D02*
X76771428Y-97161904D01*
X77038095Y-97961904D01*
X77304761Y-97961904D02*
X77304761Y-97161904D01*
X77495238Y-97161904D01*
X77609523Y-97200000D01*
X77685714Y-97276190D01*
X77723809Y-97352380D01*
X77761904Y-97504761D01*
X77761904Y-97619047D01*
X77723809Y-97771428D01*
X77685714Y-97847619D01*
X77609523Y-97923809D01*
X77495238Y-97961904D01*
X77304761Y-97961904D01*
X78066666Y-97733333D02*
X78447619Y-97733333D01*
X77990476Y-97961904D02*
X78257142Y-97161904D01*
X78523809Y-97961904D01*
X78790476Y-97161904D02*
X78790476Y-97809523D01*
X78828571Y-97885714D01*
X78866666Y-97923809D01*
X78942857Y-97961904D01*
X79095238Y-97961904D01*
X79171428Y-97923809D01*
X79209523Y-97885714D01*
X79247619Y-97809523D01*
X79247619Y-97161904D01*
X80047619Y-97961904D02*
X79590476Y-97961904D01*
X79819047Y-97961904D02*
X79819047Y-97161904D01*
X79742857Y-97276190D01*
X79666666Y-97352380D01*
X79590476Y-97390476D01*
X80314285Y-97161904D02*
X80847619Y-97161904D01*
X80504761Y-97961904D01*
X81304761Y-97161904D02*
X81380952Y-97161904D01*
X81457142Y-97200000D01*
X81495238Y-97238095D01*
X81533333Y-97314285D01*
X81571428Y-97466666D01*
X81571428Y-97657142D01*
X81533333Y-97809523D01*
X81495238Y-97885714D01*
X81457142Y-97923809D01*
X81380952Y-97961904D01*
X81304761Y-97961904D01*
X81228571Y-97923809D01*
X81190476Y-97885714D01*
X81152380Y-97809523D01*
X81114285Y-97657142D01*
X81114285Y-97466666D01*
X81152380Y-97314285D01*
X81190476Y-97238095D01*
X81228571Y-97200000D01*
X81304761Y-97161904D01*
X82333333Y-97961904D02*
X81876190Y-97961904D01*
X82104761Y-97961904D02*
X82104761Y-97161904D01*
X82028571Y-97276190D01*
X81952380Y-97352380D01*
X81876190Y-97390476D01*
X83171428Y-97428571D02*
X83476190Y-97428571D01*
X83285714Y-97961904D02*
X83285714Y-97276190D01*
X83323809Y-97200000D01*
X83400000Y-97161904D01*
X83476190Y-97161904D01*
X83742857Y-97961904D02*
X83742857Y-97428571D01*
X83742857Y-97580952D02*
X83780952Y-97504761D01*
X83819047Y-97466666D01*
X83895238Y-97428571D01*
X83971428Y-97428571D01*
X84352380Y-97961904D02*
X84276190Y-97923809D01*
X84238095Y-97885714D01*
X84200000Y-97809523D01*
X84200000Y-97580952D01*
X84238095Y-97504761D01*
X84276190Y-97466666D01*
X84352380Y-97428571D01*
X84466666Y-97428571D01*
X84542857Y-97466666D01*
X84580952Y-97504761D01*
X84619047Y-97580952D01*
X84619047Y-97809523D01*
X84580952Y-97885714D01*
X84542857Y-97923809D01*
X84466666Y-97961904D01*
X84352380Y-97961904D01*
X84961904Y-97428571D02*
X84961904Y-97961904D01*
X84961904Y-97504761D02*
X85000000Y-97466666D01*
X85076190Y-97428571D01*
X85190476Y-97428571D01*
X85266666Y-97466666D01*
X85304761Y-97542857D01*
X85304761Y-97961904D01*
X85571428Y-97428571D02*
X85876190Y-97428571D01*
X85685714Y-97161904D02*
X85685714Y-97847619D01*
X85723809Y-97923809D01*
X85800000Y-97961904D01*
X85876190Y-97961904D01*
X205528571Y-78300000D02*
X205452380Y-78261904D01*
X205338095Y-78261904D01*
X205223809Y-78300000D01*
X205147619Y-78376190D01*
X205109523Y-78452380D01*
X205071428Y-78604761D01*
X205071428Y-78719047D01*
X205109523Y-78871428D01*
X205147619Y-78947619D01*
X205223809Y-79023809D01*
X205338095Y-79061904D01*
X205414285Y-79061904D01*
X205528571Y-79023809D01*
X205566666Y-78985714D01*
X205566666Y-78719047D01*
X205414285Y-78719047D01*
X206290476Y-78261904D02*
X205909523Y-78261904D01*
X205871428Y-78642857D01*
X205909523Y-78604761D01*
X205985714Y-78566666D01*
X206176190Y-78566666D01*
X206252380Y-78604761D01*
X206290476Y-78642857D01*
X206328571Y-78719047D01*
X206328571Y-78909523D01*
X206290476Y-78985714D01*
X206252380Y-79023809D01*
X206176190Y-79061904D01*
X205985714Y-79061904D01*
X205909523Y-79023809D01*
X205871428Y-78985714D01*
X187628571Y-68900000D02*
X187552380Y-68861904D01*
X187438095Y-68861904D01*
X187323809Y-68900000D01*
X187247619Y-68976190D01*
X187209523Y-69052380D01*
X187171428Y-69204761D01*
X187171428Y-69319047D01*
X187209523Y-69471428D01*
X187247619Y-69547619D01*
X187323809Y-69623809D01*
X187438095Y-69661904D01*
X187514285Y-69661904D01*
X187628571Y-69623809D01*
X187666666Y-69585714D01*
X187666666Y-69319047D01*
X187514285Y-69319047D01*
X187933333Y-68861904D02*
X188428571Y-68861904D01*
X188161904Y-69166666D01*
X188276190Y-69166666D01*
X188352380Y-69204761D01*
X188390476Y-69242857D01*
X188428571Y-69319047D01*
X188428571Y-69509523D01*
X188390476Y-69585714D01*
X188352380Y-69623809D01*
X188276190Y-69661904D01*
X188047619Y-69661904D01*
X187971428Y-69623809D01*
X187933333Y-69585714D01*
X155328571Y-71100000D02*
X155252380Y-71061904D01*
X155138095Y-71061904D01*
X155023809Y-71100000D01*
X154947619Y-71176190D01*
X154909523Y-71252380D01*
X154871428Y-71404761D01*
X154871428Y-71519047D01*
X154909523Y-71671428D01*
X154947619Y-71747619D01*
X155023809Y-71823809D01*
X155138095Y-71861904D01*
X155214285Y-71861904D01*
X155328571Y-71823809D01*
X155366666Y-71785714D01*
X155366666Y-71519047D01*
X155214285Y-71519047D01*
X155671428Y-71138095D02*
X155709523Y-71100000D01*
X155785714Y-71061904D01*
X155976190Y-71061904D01*
X156052380Y-71100000D01*
X156090476Y-71138095D01*
X156128571Y-71214285D01*
X156128571Y-71290476D01*
X156090476Y-71404761D01*
X155633333Y-71861904D01*
X156128571Y-71861904D01*
X121128571Y-68200000D02*
X121052380Y-68161904D01*
X120938095Y-68161904D01*
X120823809Y-68200000D01*
X120747619Y-68276190D01*
X120709523Y-68352380D01*
X120671428Y-68504761D01*
X120671428Y-68619047D01*
X120709523Y-68771428D01*
X120747619Y-68847619D01*
X120823809Y-68923809D01*
X120938095Y-68961904D01*
X121014285Y-68961904D01*
X121128571Y-68923809D01*
X121166666Y-68885714D01*
X121166666Y-68619047D01*
X121014285Y-68619047D01*
X121852380Y-68161904D02*
X121700000Y-68161904D01*
X121623809Y-68200000D01*
X121585714Y-68238095D01*
X121509523Y-68352380D01*
X121471428Y-68504761D01*
X121471428Y-68809523D01*
X121509523Y-68885714D01*
X121547619Y-68923809D01*
X121623809Y-68961904D01*
X121776190Y-68961904D01*
X121852380Y-68923809D01*
X121890476Y-68885714D01*
X121928571Y-68809523D01*
X121928571Y-68619047D01*
X121890476Y-68542857D01*
X121852380Y-68504761D01*
X121776190Y-68466666D01*
X121623809Y-68466666D01*
X121547619Y-68504761D01*
X121509523Y-68542857D01*
X121471428Y-68619047D01*
X91628571Y-68200000D02*
X91552380Y-68161904D01*
X91438095Y-68161904D01*
X91323809Y-68200000D01*
X91247619Y-68276190D01*
X91209523Y-68352380D01*
X91171428Y-68504761D01*
X91171428Y-68619047D01*
X91209523Y-68771428D01*
X91247619Y-68847619D01*
X91323809Y-68923809D01*
X91438095Y-68961904D01*
X91514285Y-68961904D01*
X91628571Y-68923809D01*
X91666666Y-68885714D01*
X91666666Y-68619047D01*
X91514285Y-68619047D01*
X92352380Y-68428571D02*
X92352380Y-68961904D01*
X92161904Y-68123809D02*
X91971428Y-68695238D01*
X92466666Y-68695238D01*
X72004761Y-73166666D02*
X71966666Y-73128571D01*
X71890476Y-73014285D01*
X71852380Y-72938095D01*
X71814285Y-72823809D01*
X71776190Y-72633333D01*
X71776190Y-72480952D01*
X71814285Y-72290476D01*
X71852380Y-72176190D01*
X71890476Y-72100000D01*
X71966666Y-71985714D01*
X72004761Y-71947619D01*
X72728571Y-72100000D02*
X72652380Y-72061904D01*
X72538095Y-72061904D01*
X72423809Y-72100000D01*
X72347619Y-72176190D01*
X72309523Y-72252380D01*
X72271428Y-72404761D01*
X72271428Y-72519047D01*
X72309523Y-72671428D01*
X72347619Y-72747619D01*
X72423809Y-72823809D01*
X72538095Y-72861904D01*
X72614285Y-72861904D01*
X72728571Y-72823809D01*
X72766666Y-72785714D01*
X72766666Y-72519047D01*
X72614285Y-72519047D01*
X73033333Y-72061904D02*
X73566666Y-72061904D01*
X73223809Y-72861904D01*
X73795238Y-73166666D02*
X73833333Y-73128571D01*
X73909523Y-73014285D01*
X73947619Y-72938095D01*
X73985714Y-72823809D01*
X74023809Y-72633333D01*
X74023809Y-72480952D01*
X73985714Y-72290476D01*
X73947619Y-72176190D01*
X73909523Y-72100000D01*
X73833333Y-71985714D01*
X73795238Y-71947619D01*
X66628571Y-79300000D02*
X66552380Y-79261904D01*
X66438095Y-79261904D01*
X66323809Y-79300000D01*
X66247619Y-79376190D01*
X66209523Y-79452380D01*
X66171428Y-79604761D01*
X66171428Y-79719047D01*
X66209523Y-79871428D01*
X66247619Y-79947619D01*
X66323809Y-80023809D01*
X66438095Y-80061904D01*
X66514285Y-80061904D01*
X66628571Y-80023809D01*
X66666666Y-79985714D01*
X66666666Y-79719047D01*
X66514285Y-79719047D01*
X67123809Y-79604761D02*
X67047619Y-79566666D01*
X67009523Y-79528571D01*
X66971428Y-79452380D01*
X66971428Y-79414285D01*
X67009523Y-79338095D01*
X67047619Y-79300000D01*
X67123809Y-79261904D01*
X67276190Y-79261904D01*
X67352380Y-79300000D01*
X67390476Y-79338095D01*
X67428571Y-79414285D01*
X67428571Y-79452380D01*
X67390476Y-79528571D01*
X67352380Y-79566666D01*
X67276190Y-79604761D01*
X67123809Y-79604761D01*
X67047619Y-79642857D01*
X67009523Y-79680952D01*
X66971428Y-79757142D01*
X66971428Y-79909523D01*
X67009523Y-79985714D01*
X67047619Y-80023809D01*
X67123809Y-80061904D01*
X67276190Y-80061904D01*
X67352380Y-80023809D01*
X67390476Y-79985714D01*
X67428571Y-79909523D01*
X67428571Y-79757142D01*
X67390476Y-79680952D01*
X67352380Y-79642857D01*
X67276190Y-79604761D01*
X72728571Y-79300000D02*
X72652380Y-79261904D01*
X72538095Y-79261904D01*
X72423809Y-79300000D01*
X72347619Y-79376190D01*
X72309523Y-79452380D01*
X72271428Y-79604761D01*
X72271428Y-79719047D01*
X72309523Y-79871428D01*
X72347619Y-79947619D01*
X72423809Y-80023809D01*
X72538095Y-80061904D01*
X72614285Y-80061904D01*
X72728571Y-80023809D01*
X72766666Y-79985714D01*
X72766666Y-79719047D01*
X72614285Y-79719047D01*
X73528571Y-80061904D02*
X73071428Y-80061904D01*
X73300000Y-80061904D02*
X73300000Y-79261904D01*
X73223809Y-79376190D01*
X73147619Y-79452380D01*
X73071428Y-79490476D01*
X104947619Y-79161904D02*
X104566666Y-79161904D01*
X104528571Y-79542857D01*
X104566666Y-79504761D01*
X104642857Y-79466666D01*
X104833333Y-79466666D01*
X104909523Y-79504761D01*
X104947619Y-79542857D01*
X104985714Y-79619047D01*
X104985714Y-79809523D01*
X104947619Y-79885714D01*
X104909523Y-79923809D01*
X104833333Y-79961904D01*
X104642857Y-79961904D01*
X104566666Y-79923809D01*
X104528571Y-79885714D01*
X105214285Y-79161904D02*
X105480952Y-79961904D01*
X105747619Y-79161904D01*
X71547619Y-77861904D02*
X71547619Y-77061904D01*
X71814285Y-77633333D01*
X72080952Y-77061904D01*
X72080952Y-77861904D01*
X72461904Y-77061904D02*
X72461904Y-77709523D01*
X72500000Y-77785714D01*
X72538095Y-77823809D01*
X72614285Y-77861904D01*
X72766666Y-77861904D01*
X72842857Y-77823809D01*
X72880952Y-77785714D01*
X72919047Y-77709523D01*
X72919047Y-77061904D01*
X73185714Y-77061904D02*
X73642857Y-77061904D01*
X73414285Y-77861904D02*
X73414285Y-77061904D01*
X73909523Y-77442857D02*
X74176190Y-77442857D01*
X74290476Y-77861904D02*
X73909523Y-77861904D01*
X73909523Y-77061904D01*
X74290476Y-77061904D01*
D11*
%TO.C,D1*%
X65162500Y-77335000D02*
X67622500Y-77335000D01*
X65162500Y-75865000D02*
X65162500Y-77335000D01*
X67622500Y-75865000D02*
X65162500Y-75865000D01*
%TO.C,D4*%
X68482500Y-73865000D02*
X66022500Y-73865000D01*
X68482500Y-75335000D02*
X68482500Y-73865000D01*
X66022500Y-75335000D02*
X68482500Y-75335000D01*
%TO.C,D2*%
X173340000Y-74200000D02*
X173340000Y-77060000D01*
X173340000Y-77060000D02*
X175260000Y-77060000D01*
X175260000Y-77060000D02*
X175260000Y-74200000D01*
D10*
%TO.C,REF\u002A\u002A*%
X108250000Y-76500000D02*
G75*
G03*
X108250000Y-76500000I-1750000J0D01*
G01*
D11*
%TO.C,C4*%
X87453733Y-67790000D02*
X87746267Y-67790000D01*
X87453733Y-68810000D02*
X87746267Y-68810000D01*
%TO.C,C1*%
X174810000Y-70646267D02*
X174810000Y-70353733D01*
X173790000Y-70646267D02*
X173790000Y-70353733D01*
%TO.C,C2*%
X151253733Y-69090000D02*
X151546267Y-69090000D01*
X151253733Y-70110000D02*
X151546267Y-70110000D01*
%TO.C,C3*%
X117153733Y-68110000D02*
X117446267Y-68110000D01*
X117153733Y-67090000D02*
X117446267Y-67090000D01*
%TO.C,R7*%
X205545276Y-80977500D02*
X206054724Y-80977500D01*
X205545276Y-82022500D02*
X206054724Y-82022500D01*
%TO.C,R8*%
X73154724Y-80977500D02*
X72645276Y-80977500D01*
X73154724Y-82022500D02*
X72645276Y-82022500D01*
%TO.C,R9*%
X66545276Y-80977500D02*
X67054724Y-80977500D01*
X66545276Y-82022500D02*
X67054724Y-82022500D01*
%TO.C,D3*%
X71062500Y-76660000D02*
X73922500Y-76660000D01*
X71062500Y-74740000D02*
X71062500Y-76660000D01*
X73922500Y-74740000D02*
X71062500Y-74740000D01*
%TO.C,R5*%
X171610000Y-75051233D02*
X171610000Y-75393767D01*
X170590000Y-75051233D02*
X170590000Y-75393767D01*
%TO.C,R6*%
X79428733Y-76210000D02*
X79771267Y-76210000D01*
X79428733Y-75190000D02*
X79771267Y-75190000D01*
D10*
%TO.C,R1*%
X195700000Y-83700000D02*
G75*
G03*
X195700000Y-83700000I-8000000J0D01*
G01*
%TO.C,R2*%
X163533332Y-86200000D02*
G75*
G03*
X163533332Y-86200000I-8000000J0D01*
G01*
%TO.C,R3*%
X99700000Y-83700000D02*
G75*
G03*
X99700000Y-83700000I-8000000J0D01*
G01*
%TO.C,R4*%
X129366666Y-83700000D02*
G75*
G03*
X129366666Y-83700000I-8000000J0D01*
G01*
D11*
%TO.C,R10*%
X79428733Y-72290000D02*
X79771267Y-72290000D01*
X79428733Y-73310000D02*
X79771267Y-73310000D01*
%TO.C,SW1*%
X209330000Y-91830000D02*
X209300000Y-91830000D01*
X202870000Y-91830000D02*
X202900000Y-91830000D01*
X202870000Y-85370000D02*
X202900000Y-85370000D01*
X209300000Y-85370000D02*
X209330000Y-85370000D01*
X207400000Y-91830000D02*
X204800000Y-91830000D01*
X209330000Y-85370000D02*
X209330000Y-91830000D01*
X207400000Y-85370000D02*
X204800000Y-85370000D01*
X202870000Y-85370000D02*
X202870000Y-91830000D01*
%TO.C,SW2*%
X69670000Y-85370000D02*
X69670000Y-91830000D01*
X74200000Y-85370000D02*
X71600000Y-85370000D01*
X76130000Y-85370000D02*
X76130000Y-91830000D01*
X74200000Y-91830000D02*
X71600000Y-91830000D01*
X76100000Y-85370000D02*
X76130000Y-85370000D01*
X69670000Y-85370000D02*
X69700000Y-85370000D01*
X69670000Y-91830000D02*
X69700000Y-91830000D01*
X76130000Y-91830000D02*
X76100000Y-91830000D01*
%TO.C,SW3*%
X63570000Y-85370000D02*
X63600000Y-85370000D01*
X70030000Y-85370000D02*
X70000000Y-85370000D01*
X70030000Y-91830000D02*
X70000000Y-91830000D01*
X63600000Y-91830000D02*
X63570000Y-91830000D01*
X65500000Y-85370000D02*
X68100000Y-85370000D01*
X63570000Y-91830000D02*
X63570000Y-85370000D01*
X65500000Y-91830000D02*
X68100000Y-91830000D01*
X70030000Y-91830000D02*
X70030000Y-85370000D01*
%TO.C,D5*%
X202160000Y-76200000D02*
X202160000Y-73340000D01*
X202160000Y-73340000D02*
X200240000Y-73340000D01*
X200240000Y-73340000D02*
X200240000Y-76200000D01*
%TO.C,D1*%
D10*
X68932023Y-76961904D02*
X68932023Y-76161904D01*
X69122500Y-76161904D01*
X69236785Y-76200000D01*
X69312976Y-76276190D01*
X69351071Y-76352380D01*
X69389166Y-76504761D01*
X69389166Y-76619047D01*
X69351071Y-76771428D01*
X69312976Y-76847619D01*
X69236785Y-76923809D01*
X69122500Y-76961904D01*
X68932023Y-76961904D01*
X70151071Y-76961904D02*
X69693928Y-76961904D01*
X69922500Y-76961904D02*
X69922500Y-76161904D01*
X69846309Y-76276190D01*
X69770119Y-76352380D01*
X69693928Y-76390476D01*
%TO.C,D4*%
X68809523Y-74961904D02*
X68809523Y-74161904D01*
X69000000Y-74161904D01*
X69114285Y-74200000D01*
X69190476Y-74276190D01*
X69228571Y-74352380D01*
X69266666Y-74504761D01*
X69266666Y-74619047D01*
X69228571Y-74771428D01*
X69190476Y-74847619D01*
X69114285Y-74923809D01*
X69000000Y-74961904D01*
X68809523Y-74961904D01*
X69952380Y-74428571D02*
X69952380Y-74961904D01*
X69761904Y-74123809D02*
X69571428Y-74695238D01*
X70066666Y-74695238D01*
%TO.C,D2*%
X176461904Y-75790476D02*
X175661904Y-75790476D01*
X175661904Y-75600000D01*
X175700000Y-75485714D01*
X175776190Y-75409523D01*
X175852380Y-75371428D01*
X176004761Y-75333333D01*
X176119047Y-75333333D01*
X176271428Y-75371428D01*
X176347619Y-75409523D01*
X176423809Y-75485714D01*
X176461904Y-75600000D01*
X176461904Y-75790476D01*
X175738095Y-75028571D02*
X175700000Y-74990476D01*
X175661904Y-74914285D01*
X175661904Y-74723809D01*
X175700000Y-74647619D01*
X175738095Y-74609523D01*
X175814285Y-74571428D01*
X175890476Y-74571428D01*
X176004761Y-74609523D01*
X176461904Y-75066666D01*
X176461904Y-74571428D01*
%TO.C,C4*%
X84566666Y-68585714D02*
X84528571Y-68623809D01*
X84414285Y-68661904D01*
X84338095Y-68661904D01*
X84223809Y-68623809D01*
X84147619Y-68547619D01*
X84109523Y-68471428D01*
X84071428Y-68319047D01*
X84071428Y-68204761D01*
X84109523Y-68052380D01*
X84147619Y-67976190D01*
X84223809Y-67900000D01*
X84338095Y-67861904D01*
X84414285Y-67861904D01*
X84528571Y-67900000D01*
X84566666Y-67938095D01*
X85252380Y-68128571D02*
X85252380Y-68661904D01*
X85061904Y-67823809D02*
X84871428Y-68395238D01*
X85366666Y-68395238D01*
%TO.C,C1*%
X173155714Y-70633333D02*
X173193809Y-70671428D01*
X173231904Y-70785714D01*
X173231904Y-70861904D01*
X173193809Y-70976190D01*
X173117619Y-71052380D01*
X173041428Y-71090476D01*
X172889047Y-71128571D01*
X172774761Y-71128571D01*
X172622380Y-71090476D01*
X172546190Y-71052380D01*
X172470000Y-70976190D01*
X172431904Y-70861904D01*
X172431904Y-70785714D01*
X172470000Y-70671428D01*
X172508095Y-70633333D01*
X173231904Y-69871428D02*
X173231904Y-70328571D01*
X173231904Y-70100000D02*
X172431904Y-70100000D01*
X172546190Y-70176190D01*
X172622380Y-70252380D01*
X172660476Y-70328571D01*
%TO.C,C2*%
X151266666Y-68455714D02*
X151228571Y-68493809D01*
X151114285Y-68531904D01*
X151038095Y-68531904D01*
X150923809Y-68493809D01*
X150847619Y-68417619D01*
X150809523Y-68341428D01*
X150771428Y-68189047D01*
X150771428Y-68074761D01*
X150809523Y-67922380D01*
X150847619Y-67846190D01*
X150923809Y-67770000D01*
X151038095Y-67731904D01*
X151114285Y-67731904D01*
X151228571Y-67770000D01*
X151266666Y-67808095D01*
X151571428Y-67808095D02*
X151609523Y-67770000D01*
X151685714Y-67731904D01*
X151876190Y-67731904D01*
X151952380Y-67770000D01*
X151990476Y-67808095D01*
X152028571Y-67884285D01*
X152028571Y-67960476D01*
X151990476Y-68074761D01*
X151533333Y-68531904D01*
X152028571Y-68531904D01*
%TO.C,C3*%
X117366666Y-66285714D02*
X117328571Y-66323809D01*
X117214285Y-66361904D01*
X117138095Y-66361904D01*
X117023809Y-66323809D01*
X116947619Y-66247619D01*
X116909523Y-66171428D01*
X116871428Y-66019047D01*
X116871428Y-65904761D01*
X116909523Y-65752380D01*
X116947619Y-65676190D01*
X117023809Y-65600000D01*
X117138095Y-65561904D01*
X117214285Y-65561904D01*
X117328571Y-65600000D01*
X117366666Y-65638095D01*
X117633333Y-65561904D02*
X118128571Y-65561904D01*
X117861904Y-65866666D01*
X117976190Y-65866666D01*
X118052380Y-65904761D01*
X118090476Y-65942857D01*
X118128571Y-66019047D01*
X118128571Y-66209523D01*
X118090476Y-66285714D01*
X118052380Y-66323809D01*
X117976190Y-66361904D01*
X117747619Y-66361904D01*
X117671428Y-66323809D01*
X117633333Y-66285714D01*
%TO.C,R7*%
X205666666Y-80431904D02*
X205400000Y-80050952D01*
X205209523Y-80431904D02*
X205209523Y-79631904D01*
X205514285Y-79631904D01*
X205590476Y-79670000D01*
X205628571Y-79708095D01*
X205666666Y-79784285D01*
X205666666Y-79898571D01*
X205628571Y-79974761D01*
X205590476Y-80012857D01*
X205514285Y-80050952D01*
X205209523Y-80050952D01*
X205933333Y-79631904D02*
X206466666Y-79631904D01*
X206123809Y-80431904D01*
%TO.C,R8*%
X72766666Y-83291904D02*
X72500000Y-82910952D01*
X72309523Y-83291904D02*
X72309523Y-82491904D01*
X72614285Y-82491904D01*
X72690476Y-82530000D01*
X72728571Y-82568095D01*
X72766666Y-82644285D01*
X72766666Y-82758571D01*
X72728571Y-82834761D01*
X72690476Y-82872857D01*
X72614285Y-82910952D01*
X72309523Y-82910952D01*
X73223809Y-82834761D02*
X73147619Y-82796666D01*
X73109523Y-82758571D01*
X73071428Y-82682380D01*
X73071428Y-82644285D01*
X73109523Y-82568095D01*
X73147619Y-82530000D01*
X73223809Y-82491904D01*
X73376190Y-82491904D01*
X73452380Y-82530000D01*
X73490476Y-82568095D01*
X73528571Y-82644285D01*
X73528571Y-82682380D01*
X73490476Y-82758571D01*
X73452380Y-82796666D01*
X73376190Y-82834761D01*
X73223809Y-82834761D01*
X73147619Y-82872857D01*
X73109523Y-82910952D01*
X73071428Y-82987142D01*
X73071428Y-83139523D01*
X73109523Y-83215714D01*
X73147619Y-83253809D01*
X73223809Y-83291904D01*
X73376190Y-83291904D01*
X73452380Y-83253809D01*
X73490476Y-83215714D01*
X73528571Y-83139523D01*
X73528571Y-82987142D01*
X73490476Y-82910952D01*
X73452380Y-82872857D01*
X73376190Y-82834761D01*
%TO.C,R9*%
X66566666Y-83261904D02*
X66300000Y-82880952D01*
X66109523Y-83261904D02*
X66109523Y-82461904D01*
X66414285Y-82461904D01*
X66490476Y-82500000D01*
X66528571Y-82538095D01*
X66566666Y-82614285D01*
X66566666Y-82728571D01*
X66528571Y-82804761D01*
X66490476Y-82842857D01*
X66414285Y-82880952D01*
X66109523Y-82880952D01*
X66947619Y-83261904D02*
X67100000Y-83261904D01*
X67176190Y-83223809D01*
X67214285Y-83185714D01*
X67290476Y-83071428D01*
X67328571Y-82919047D01*
X67328571Y-82614285D01*
X67290476Y-82538095D01*
X67252380Y-82500000D01*
X67176190Y-82461904D01*
X67023809Y-82461904D01*
X66947619Y-82500000D01*
X66909523Y-82538095D01*
X66871428Y-82614285D01*
X66871428Y-82804761D01*
X66909523Y-82880952D01*
X66947619Y-82919047D01*
X67023809Y-82957142D01*
X67176190Y-82957142D01*
X67252380Y-82919047D01*
X67290476Y-82880952D01*
X67328571Y-82804761D01*
%TO.C,D3*%
X72332023Y-74411904D02*
X72332023Y-73611904D01*
X72522500Y-73611904D01*
X72636785Y-73650000D01*
X72712976Y-73726190D01*
X72751071Y-73802380D01*
X72789166Y-73954761D01*
X72789166Y-74069047D01*
X72751071Y-74221428D01*
X72712976Y-74297619D01*
X72636785Y-74373809D01*
X72522500Y-74411904D01*
X72332023Y-74411904D01*
X73055833Y-73611904D02*
X73551071Y-73611904D01*
X73284404Y-73916666D01*
X73398690Y-73916666D01*
X73474880Y-73954761D01*
X73512976Y-73992857D01*
X73551071Y-74069047D01*
X73551071Y-74259523D01*
X73512976Y-74335714D01*
X73474880Y-74373809D01*
X73398690Y-74411904D01*
X73170119Y-74411904D01*
X73093928Y-74373809D01*
X73055833Y-74335714D01*
%TO.C,R5*%
X172891904Y-75355833D02*
X172510952Y-75622500D01*
X172891904Y-75812976D02*
X172091904Y-75812976D01*
X172091904Y-75508214D01*
X172130000Y-75432023D01*
X172168095Y-75393928D01*
X172244285Y-75355833D01*
X172358571Y-75355833D01*
X172434761Y-75393928D01*
X172472857Y-75432023D01*
X172510952Y-75508214D01*
X172510952Y-75812976D01*
X172091904Y-74632023D02*
X172091904Y-75012976D01*
X172472857Y-75051071D01*
X172434761Y-75012976D01*
X172396666Y-74936785D01*
X172396666Y-74746309D01*
X172434761Y-74670119D01*
X172472857Y-74632023D01*
X172549047Y-74593928D01*
X172739523Y-74593928D01*
X172815714Y-74632023D01*
X172853809Y-74670119D01*
X172891904Y-74746309D01*
X172891904Y-74936785D01*
X172853809Y-75012976D01*
X172815714Y-75051071D01*
%TO.C,R6*%
X79466666Y-74631904D02*
X79200000Y-74250952D01*
X79009523Y-74631904D02*
X79009523Y-73831904D01*
X79314285Y-73831904D01*
X79390476Y-73870000D01*
X79428571Y-73908095D01*
X79466666Y-73984285D01*
X79466666Y-74098571D01*
X79428571Y-74174761D01*
X79390476Y-74212857D01*
X79314285Y-74250952D01*
X79009523Y-74250952D01*
X80152380Y-73831904D02*
X80000000Y-73831904D01*
X79923809Y-73870000D01*
X79885714Y-73908095D01*
X79809523Y-74022380D01*
X79771428Y-74174761D01*
X79771428Y-74479523D01*
X79809523Y-74555714D01*
X79847619Y-74593809D01*
X79923809Y-74631904D01*
X80076190Y-74631904D01*
X80152380Y-74593809D01*
X80190476Y-74555714D01*
X80228571Y-74479523D01*
X80228571Y-74289047D01*
X80190476Y-74212857D01*
X80152380Y-74174761D01*
X80076190Y-74136666D01*
X79923809Y-74136666D01*
X79847619Y-74174761D01*
X79809523Y-74212857D01*
X79771428Y-74289047D01*
%TO.C,R1*%
X187687666Y-90785904D02*
X187421000Y-90404952D01*
X187230523Y-90785904D02*
X187230523Y-89985904D01*
X187535285Y-89985904D01*
X187611476Y-90024000D01*
X187649571Y-90062095D01*
X187687666Y-90138285D01*
X187687666Y-90252571D01*
X187649571Y-90328761D01*
X187611476Y-90366857D01*
X187535285Y-90404952D01*
X187230523Y-90404952D01*
X188449571Y-90785904D02*
X187992428Y-90785904D01*
X188221000Y-90785904D02*
X188221000Y-89985904D01*
X188144809Y-90100190D01*
X188068619Y-90176380D01*
X187992428Y-90214476D01*
%TO.C,R2*%
X155520998Y-93285904D02*
X155254332Y-92904952D01*
X155063855Y-93285904D02*
X155063855Y-92485904D01*
X155368617Y-92485904D01*
X155444808Y-92524000D01*
X155482903Y-92562095D01*
X155520998Y-92638285D01*
X155520998Y-92752571D01*
X155482903Y-92828761D01*
X155444808Y-92866857D01*
X155368617Y-92904952D01*
X155063855Y-92904952D01*
X155825760Y-92562095D02*
X155863855Y-92524000D01*
X155940046Y-92485904D01*
X156130522Y-92485904D01*
X156206712Y-92524000D01*
X156244808Y-92562095D01*
X156282903Y-92638285D01*
X156282903Y-92714476D01*
X156244808Y-92828761D01*
X155787665Y-93285904D01*
X156282903Y-93285904D01*
%TO.C,R3*%
X91687666Y-90785904D02*
X91421000Y-90404952D01*
X91230523Y-90785904D02*
X91230523Y-89985904D01*
X91535285Y-89985904D01*
X91611476Y-90024000D01*
X91649571Y-90062095D01*
X91687666Y-90138285D01*
X91687666Y-90252571D01*
X91649571Y-90328761D01*
X91611476Y-90366857D01*
X91535285Y-90404952D01*
X91230523Y-90404952D01*
X91954333Y-89985904D02*
X92449571Y-89985904D01*
X92182904Y-90290666D01*
X92297190Y-90290666D01*
X92373380Y-90328761D01*
X92411476Y-90366857D01*
X92449571Y-90443047D01*
X92449571Y-90633523D01*
X92411476Y-90709714D01*
X92373380Y-90747809D01*
X92297190Y-90785904D01*
X92068619Y-90785904D01*
X91992428Y-90747809D01*
X91954333Y-90709714D01*
%TO.C,R4*%
X121354332Y-90785904D02*
X121087666Y-90404952D01*
X120897189Y-90785904D02*
X120897189Y-89985904D01*
X121201951Y-89985904D01*
X121278142Y-90024000D01*
X121316237Y-90062095D01*
X121354332Y-90138285D01*
X121354332Y-90252571D01*
X121316237Y-90328761D01*
X121278142Y-90366857D01*
X121201951Y-90404952D01*
X120897189Y-90404952D01*
X122040046Y-90252571D02*
X122040046Y-90785904D01*
X121849570Y-89947809D02*
X121659094Y-90519238D01*
X122154332Y-90519238D01*
%TO.C,R10*%
X79085714Y-71731904D02*
X78819047Y-71350952D01*
X78628571Y-71731904D02*
X78628571Y-70931904D01*
X78933333Y-70931904D01*
X79009523Y-70970000D01*
X79047619Y-71008095D01*
X79085714Y-71084285D01*
X79085714Y-71198571D01*
X79047619Y-71274761D01*
X79009523Y-71312857D01*
X78933333Y-71350952D01*
X78628571Y-71350952D01*
X79847619Y-71731904D02*
X79390476Y-71731904D01*
X79619047Y-71731904D02*
X79619047Y-70931904D01*
X79542857Y-71046190D01*
X79466666Y-71122380D01*
X79390476Y-71160476D01*
X80342857Y-70931904D02*
X80419047Y-70931904D01*
X80495238Y-70970000D01*
X80533333Y-71008095D01*
X80571428Y-71084285D01*
X80609523Y-71236666D01*
X80609523Y-71427142D01*
X80571428Y-71579523D01*
X80533333Y-71655714D01*
X80495238Y-71693809D01*
X80419047Y-71731904D01*
X80342857Y-71731904D01*
X80266666Y-71693809D01*
X80228571Y-71655714D01*
X80190476Y-71579523D01*
X80152380Y-71427142D01*
X80152380Y-71236666D01*
X80190476Y-71084285D01*
X80228571Y-71008095D01*
X80266666Y-70970000D01*
X80342857Y-70931904D01*
%TO.C,SW1*%
X210473809Y-89666666D02*
X210511904Y-89552380D01*
X210511904Y-89361904D01*
X210473809Y-89285714D01*
X210435714Y-89247619D01*
X210359523Y-89209523D01*
X210283333Y-89209523D01*
X210207142Y-89247619D01*
X210169047Y-89285714D01*
X210130952Y-89361904D01*
X210092857Y-89514285D01*
X210054761Y-89590476D01*
X210016666Y-89628571D01*
X209940476Y-89666666D01*
X209864285Y-89666666D01*
X209788095Y-89628571D01*
X209750000Y-89590476D01*
X209711904Y-89514285D01*
X209711904Y-89323809D01*
X209750000Y-89209523D01*
X209711904Y-88942857D02*
X210511904Y-88752380D01*
X209940476Y-88600000D01*
X210511904Y-88447619D01*
X209711904Y-88257142D01*
X210511904Y-87533333D02*
X210511904Y-87990476D01*
X210511904Y-87761904D02*
X209711904Y-87761904D01*
X209826190Y-87838095D01*
X209902380Y-87914285D01*
X209940476Y-87990476D01*
%TO.C,SW2*%
X77273809Y-89666666D02*
X77311904Y-89552380D01*
X77311904Y-89361904D01*
X77273809Y-89285714D01*
X77235714Y-89247619D01*
X77159523Y-89209523D01*
X77083333Y-89209523D01*
X77007142Y-89247619D01*
X76969047Y-89285714D01*
X76930952Y-89361904D01*
X76892857Y-89514285D01*
X76854761Y-89590476D01*
X76816666Y-89628571D01*
X76740476Y-89666666D01*
X76664285Y-89666666D01*
X76588095Y-89628571D01*
X76550000Y-89590476D01*
X76511904Y-89514285D01*
X76511904Y-89323809D01*
X76550000Y-89209523D01*
X76511904Y-88942857D02*
X77311904Y-88752380D01*
X76740476Y-88600000D01*
X77311904Y-88447619D01*
X76511904Y-88257142D01*
X76588095Y-87990476D02*
X76550000Y-87952380D01*
X76511904Y-87876190D01*
X76511904Y-87685714D01*
X76550000Y-87609523D01*
X76588095Y-87571428D01*
X76664285Y-87533333D01*
X76740476Y-87533333D01*
X76854761Y-87571428D01*
X77311904Y-88028571D01*
X77311904Y-87533333D01*
%TO.C,D5*%
X203211904Y-75790476D02*
X202411904Y-75790476D01*
X202411904Y-75600000D01*
X202450000Y-75485714D01*
X202526190Y-75409523D01*
X202602380Y-75371428D01*
X202754761Y-75333333D01*
X202869047Y-75333333D01*
X203021428Y-75371428D01*
X203097619Y-75409523D01*
X203173809Y-75485714D01*
X203211904Y-75600000D01*
X203211904Y-75790476D01*
X202411904Y-74609523D02*
X202411904Y-74990476D01*
X202792857Y-75028571D01*
X202754761Y-74990476D01*
X202716666Y-74914285D01*
X202716666Y-74723809D01*
X202754761Y-74647619D01*
X202792857Y-74609523D01*
X202869047Y-74571428D01*
X203059523Y-74571428D01*
X203135714Y-74609523D01*
X203173809Y-74647619D01*
X203211904Y-74723809D01*
X203211904Y-74914285D01*
X203173809Y-74990476D01*
X203135714Y-75028571D01*
%TD*%
M02*
