%TF.GenerationSoftware,KiCad,Pcbnew,(5.1.12)-1*%
%TF.CreationDate,2022-02-09T09:57:39+03:00*%
%TF.ProjectId,Streamer_ADAU1701 front,53747265-616d-4657-925f-414441553137,rev?*%
%TF.SameCoordinates,Original*%
%TF.FileFunction,Soldermask,Bot*%
%TF.FilePolarity,Negative*%
%FSLAX46Y46*%
G04 Gerber Fmt 4.6, Leading zero omitted, Abs format (unit mm)*
G04 Created by KiCad (PCBNEW (5.1.12)-1) date 2022-02-09 09:57:39*
%MOMM*%
%LPD*%
G01*
G04 APERTURE LIST*
%ADD10C,1.600000*%
%ADD11C,2.800000*%
%ADD12C,4.500000*%
%ADD13R,1.700000X1.700000*%
%ADD14O,1.700000X1.700000*%
%ADD15C,2.340000*%
%ADD16C,11.000000*%
%ADD17C,0.254000*%
%ADD18C,0.100000*%
G04 APERTURE END LIST*
D10*
%TO.C,J2*%
X133000000Y-81300000D03*
X133000000Y-83840000D03*
X135540000Y-81300000D03*
X135540000Y-83840000D03*
X138080000Y-81300000D03*
X138080000Y-83840000D03*
X140620000Y-81300000D03*
X140620000Y-83840000D03*
%TD*%
%TO.C,J1*%
X102500000Y-81300000D03*
X102500000Y-83840000D03*
X105040000Y-81300000D03*
X105040000Y-83840000D03*
X107580000Y-81300000D03*
X107580000Y-83840000D03*
X110120000Y-81300000D03*
X110120000Y-83840000D03*
%TD*%
D11*
%TO.C,REF\u002A\u002A*%
X106500000Y-76500000D03*
%TD*%
D12*
%TO.C,REF\u002A\u002A*%
X66900000Y-97400000D03*
%TD*%
%TO.C,REF\u002A\u002A*%
X66900000Y-68500000D03*
%TD*%
%TO.C,REF\u002A\u002A*%
X206000000Y-68500000D03*
%TD*%
%TO.C,REF\u002A\u002A*%
X206000000Y-97400000D03*
%TD*%
D13*
%TO.C,J3*%
X170600000Y-81300000D03*
D14*
X170600000Y-83840000D03*
X173140000Y-81300000D03*
X173140000Y-83840000D03*
%TD*%
D15*
%TO.C,R1*%
X182700000Y-71600000D03*
X187700000Y-71600000D03*
X192700000Y-71600000D03*
D16*
X187700000Y-83700000D03*
%TD*%
%TO.C,R2*%
X155533332Y-86200000D03*
D15*
X160533332Y-74100000D03*
X155533332Y-74100000D03*
X150533332Y-74100000D03*
%TD*%
D16*
%TO.C,R3*%
X91700000Y-83700000D03*
D15*
X96700000Y-71600000D03*
X91700000Y-71600000D03*
X86700000Y-71600000D03*
%TD*%
%TO.C,R4*%
X116366666Y-71600000D03*
X121366666Y-71600000D03*
X126366666Y-71600000D03*
D16*
X121366666Y-83700000D03*
%TD*%
D17*
X71173000Y-85073000D02*
X70127000Y-85073000D01*
X70127000Y-82927000D01*
X71173000Y-82927000D01*
X71173000Y-85073000D01*
D18*
G36*
X71173000Y-85073000D02*
G01*
X70127000Y-85073000D01*
X70127000Y-82927000D01*
X71173000Y-82927000D01*
X71173000Y-85073000D01*
G37*
D17*
X69573000Y-85073000D02*
X68527000Y-85073000D01*
X68527000Y-82927000D01*
X69573000Y-82927000D01*
X69573000Y-85073000D01*
D18*
G36*
X69573000Y-85073000D02*
G01*
X68527000Y-85073000D01*
X68527000Y-82927000D01*
X69573000Y-82927000D01*
X69573000Y-85073000D01*
G37*
D17*
X65073000Y-85073000D02*
X64027000Y-85073000D01*
X64027000Y-82927000D01*
X65073000Y-82927000D01*
X65073000Y-85073000D01*
D18*
G36*
X65073000Y-85073000D02*
G01*
X64027000Y-85073000D01*
X64027000Y-82927000D01*
X65073000Y-82927000D01*
X65073000Y-85073000D01*
G37*
D17*
X75773000Y-85073000D02*
X74627000Y-85073000D01*
X74627000Y-83027000D01*
X75773000Y-83027000D01*
X75773000Y-85073000D01*
D18*
G36*
X75773000Y-85073000D02*
G01*
X74627000Y-85073000D01*
X74627000Y-83027000D01*
X75773000Y-83027000D01*
X75773000Y-85073000D01*
G37*
D17*
X71173000Y-93873000D02*
X70127000Y-93873000D01*
X70127000Y-92127000D01*
X71173000Y-92127000D01*
X71173000Y-93873000D01*
D18*
G36*
X71173000Y-93873000D02*
G01*
X70127000Y-93873000D01*
X70127000Y-92127000D01*
X71173000Y-92127000D01*
X71173000Y-93873000D01*
G37*
D17*
X69573000Y-93873000D02*
X68527000Y-93873000D01*
X68527000Y-92127000D01*
X69573000Y-92127000D01*
X69573000Y-93873000D01*
D18*
G36*
X69573000Y-93873000D02*
G01*
X68527000Y-93873000D01*
X68527000Y-92127000D01*
X69573000Y-92127000D01*
X69573000Y-93873000D01*
G37*
D17*
X65073000Y-93873000D02*
X64027000Y-93873000D01*
X64027000Y-92127000D01*
X65073000Y-92127000D01*
X65073000Y-93873000D01*
D18*
G36*
X65073000Y-93873000D02*
G01*
X64027000Y-93873000D01*
X64027000Y-92127000D01*
X65073000Y-92127000D01*
X65073000Y-93873000D01*
G37*
D17*
X75673000Y-93873000D02*
X74627000Y-93873000D01*
X74627000Y-92127000D01*
X75673000Y-92127000D01*
X75673000Y-93873000D01*
D18*
G36*
X75673000Y-93873000D02*
G01*
X74627000Y-93873000D01*
X74627000Y-92127000D01*
X75673000Y-92127000D01*
X75673000Y-93873000D01*
G37*
D17*
X204373000Y-85373000D02*
X203327000Y-85373000D01*
X203327000Y-83227000D01*
X204373000Y-83227000D01*
X204373000Y-85373000D01*
D18*
G36*
X204373000Y-85373000D02*
G01*
X203327000Y-85373000D01*
X203327000Y-83227000D01*
X204373000Y-83227000D01*
X204373000Y-85373000D01*
G37*
D17*
X208873000Y-85373000D02*
X207827000Y-85373000D01*
X207827000Y-83227000D01*
X208873000Y-83227000D01*
X208873000Y-85373000D01*
D18*
G36*
X208873000Y-85373000D02*
G01*
X207827000Y-85373000D01*
X207827000Y-83227000D01*
X208873000Y-83227000D01*
X208873000Y-85373000D01*
G37*
D17*
X204373000Y-93873000D02*
X203327000Y-93873000D01*
X203327000Y-91827000D01*
X204373000Y-91827000D01*
X204373000Y-93873000D01*
D18*
G36*
X204373000Y-93873000D02*
G01*
X203327000Y-93873000D01*
X203327000Y-91827000D01*
X204373000Y-91827000D01*
X204373000Y-93873000D01*
G37*
D17*
X208873000Y-93873000D02*
X207827000Y-93873000D01*
X207827000Y-91827000D01*
X208873000Y-91827000D01*
X208873000Y-93873000D01*
D18*
G36*
X208873000Y-93873000D02*
G01*
X207827000Y-93873000D01*
X207827000Y-91827000D01*
X208873000Y-91827000D01*
X208873000Y-93873000D01*
G37*
M02*
