%TF.GenerationSoftware,KiCad,Pcbnew,(5.1.12)-1*%
%TF.CreationDate,2022-02-09T09:57:39+03:00*%
%TF.ProjectId,Streamer_ADAU1701 front,53747265-616d-4657-925f-414441553137,rev?*%
%TF.SameCoordinates,Original*%
%TF.FileFunction,Soldermask,Top*%
%TF.FilePolarity,Negative*%
%FSLAX46Y46*%
G04 Gerber Fmt 4.6, Leading zero omitted, Abs format (unit mm)*
G04 Created by KiCad (PCBNEW (5.1.12)-1) date 2022-02-09 09:57:39*
%MOMM*%
%LPD*%
G01*
G04 APERTURE LIST*
%ADD10C,1.600000*%
%ADD11C,2.800000*%
%ADD12C,4.500000*%
%ADD13R,1.700000X1.700000*%
%ADD14O,1.700000X1.700000*%
%ADD15C,2.340000*%
%ADD16C,11.000000*%
%ADD17R,1.300000X1.550000*%
G04 APERTURE END LIST*
D10*
%TO.C,J2*%
X133000000Y-81300000D03*
X133000000Y-83840000D03*
X135540000Y-81300000D03*
X135540000Y-83840000D03*
X138080000Y-81300000D03*
X138080000Y-83840000D03*
X140620000Y-81300000D03*
X140620000Y-83840000D03*
%TD*%
%TO.C,J1*%
X102500000Y-81300000D03*
X102500000Y-83840000D03*
X105040000Y-81300000D03*
X105040000Y-83840000D03*
X107580000Y-81300000D03*
X107580000Y-83840000D03*
X110120000Y-81300000D03*
X110120000Y-83840000D03*
%TD*%
%TO.C,D1*%
G36*
G01*
X67172500Y-76837500D02*
X67172500Y-76362500D01*
G75*
G02*
X67410000Y-76125000I237500J0D01*
G01*
X67985000Y-76125000D01*
G75*
G02*
X68222500Y-76362500I0J-237500D01*
G01*
X68222500Y-76837500D01*
G75*
G02*
X67985000Y-77075000I-237500J0D01*
G01*
X67410000Y-77075000D01*
G75*
G02*
X67172500Y-76837500I0J237500D01*
G01*
G37*
G36*
G01*
X65422500Y-76837500D02*
X65422500Y-76362500D01*
G75*
G02*
X65660000Y-76125000I237500J0D01*
G01*
X66235000Y-76125000D01*
G75*
G02*
X66472500Y-76362500I0J-237500D01*
G01*
X66472500Y-76837500D01*
G75*
G02*
X66235000Y-77075000I-237500J0D01*
G01*
X65660000Y-77075000D01*
G75*
G02*
X65422500Y-76837500I0J237500D01*
G01*
G37*
%TD*%
%TO.C,D4*%
G36*
G01*
X66472500Y-74362500D02*
X66472500Y-74837500D01*
G75*
G02*
X66235000Y-75075000I-237500J0D01*
G01*
X65660000Y-75075000D01*
G75*
G02*
X65422500Y-74837500I0J237500D01*
G01*
X65422500Y-74362500D01*
G75*
G02*
X65660000Y-74125000I237500J0D01*
G01*
X66235000Y-74125000D01*
G75*
G02*
X66472500Y-74362500I0J-237500D01*
G01*
G37*
G36*
G01*
X68222500Y-74362500D02*
X68222500Y-74837500D01*
G75*
G02*
X67985000Y-75075000I-237500J0D01*
G01*
X67410000Y-75075000D01*
G75*
G02*
X67172500Y-74837500I0J237500D01*
G01*
X67172500Y-74362500D01*
G75*
G02*
X67410000Y-74125000I237500J0D01*
G01*
X67985000Y-74125000D01*
G75*
G02*
X68222500Y-74362500I0J-237500D01*
G01*
G37*
%TD*%
%TO.C,D2*%
G36*
G01*
X174750001Y-76800000D02*
X173849999Y-76800000D01*
G75*
G02*
X173600000Y-76550001I0J249999D01*
G01*
X173600000Y-75899999D01*
G75*
G02*
X173849999Y-75650000I249999J0D01*
G01*
X174750001Y-75650000D01*
G75*
G02*
X175000000Y-75899999I0J-249999D01*
G01*
X175000000Y-76550001D01*
G75*
G02*
X174750001Y-76800000I-249999J0D01*
G01*
G37*
G36*
G01*
X174750001Y-74750000D02*
X173849999Y-74750000D01*
G75*
G02*
X173600000Y-74500001I0J249999D01*
G01*
X173600000Y-73849999D01*
G75*
G02*
X173849999Y-73600000I249999J0D01*
G01*
X174750001Y-73600000D01*
G75*
G02*
X175000000Y-73849999I0J-249999D01*
G01*
X175000000Y-74500001D01*
G75*
G02*
X174750001Y-74750000I-249999J0D01*
G01*
G37*
%TD*%
D11*
%TO.C,REF\u002A\u002A*%
X106500000Y-76500000D03*
%TD*%
%TO.C,C4*%
G36*
G01*
X86200000Y-68537500D02*
X86200000Y-68062500D01*
G75*
G02*
X86437500Y-67825000I237500J0D01*
G01*
X87037500Y-67825000D01*
G75*
G02*
X87275000Y-68062500I0J-237500D01*
G01*
X87275000Y-68537500D01*
G75*
G02*
X87037500Y-68775000I-237500J0D01*
G01*
X86437500Y-68775000D01*
G75*
G02*
X86200000Y-68537500I0J237500D01*
G01*
G37*
G36*
G01*
X87925000Y-68537500D02*
X87925000Y-68062500D01*
G75*
G02*
X88162500Y-67825000I237500J0D01*
G01*
X88762500Y-67825000D01*
G75*
G02*
X89000000Y-68062500I0J-237500D01*
G01*
X89000000Y-68537500D01*
G75*
G02*
X88762500Y-68775000I-237500J0D01*
G01*
X88162500Y-68775000D01*
G75*
G02*
X87925000Y-68537500I0J237500D01*
G01*
G37*
%TD*%
D12*
%TO.C,REF\u002A\u002A*%
X66900000Y-97400000D03*
%TD*%
%TO.C,REF\u002A\u002A*%
X66900000Y-68500000D03*
%TD*%
%TO.C,REF\u002A\u002A*%
X206000000Y-68500000D03*
%TD*%
%TO.C,REF\u002A\u002A*%
X206000000Y-97400000D03*
%TD*%
%TO.C,C1*%
G36*
G01*
X174537500Y-70175000D02*
X174062500Y-70175000D01*
G75*
G02*
X173825000Y-69937500I0J237500D01*
G01*
X173825000Y-69337500D01*
G75*
G02*
X174062500Y-69100000I237500J0D01*
G01*
X174537500Y-69100000D01*
G75*
G02*
X174775000Y-69337500I0J-237500D01*
G01*
X174775000Y-69937500D01*
G75*
G02*
X174537500Y-70175000I-237500J0D01*
G01*
G37*
G36*
G01*
X174537500Y-71900000D02*
X174062500Y-71900000D01*
G75*
G02*
X173825000Y-71662500I0J237500D01*
G01*
X173825000Y-71062500D01*
G75*
G02*
X174062500Y-70825000I237500J0D01*
G01*
X174537500Y-70825000D01*
G75*
G02*
X174775000Y-71062500I0J-237500D01*
G01*
X174775000Y-71662500D01*
G75*
G02*
X174537500Y-71900000I-237500J0D01*
G01*
G37*
%TD*%
%TO.C,C2*%
G36*
G01*
X150000000Y-69837500D02*
X150000000Y-69362500D01*
G75*
G02*
X150237500Y-69125000I237500J0D01*
G01*
X150837500Y-69125000D01*
G75*
G02*
X151075000Y-69362500I0J-237500D01*
G01*
X151075000Y-69837500D01*
G75*
G02*
X150837500Y-70075000I-237500J0D01*
G01*
X150237500Y-70075000D01*
G75*
G02*
X150000000Y-69837500I0J237500D01*
G01*
G37*
G36*
G01*
X151725000Y-69837500D02*
X151725000Y-69362500D01*
G75*
G02*
X151962500Y-69125000I237500J0D01*
G01*
X152562500Y-69125000D01*
G75*
G02*
X152800000Y-69362500I0J-237500D01*
G01*
X152800000Y-69837500D01*
G75*
G02*
X152562500Y-70075000I-237500J0D01*
G01*
X151962500Y-70075000D01*
G75*
G02*
X151725000Y-69837500I0J237500D01*
G01*
G37*
%TD*%
%TO.C,C3*%
G36*
G01*
X117625000Y-67837500D02*
X117625000Y-67362500D01*
G75*
G02*
X117862500Y-67125000I237500J0D01*
G01*
X118462500Y-67125000D01*
G75*
G02*
X118700000Y-67362500I0J-237500D01*
G01*
X118700000Y-67837500D01*
G75*
G02*
X118462500Y-68075000I-237500J0D01*
G01*
X117862500Y-68075000D01*
G75*
G02*
X117625000Y-67837500I0J237500D01*
G01*
G37*
G36*
G01*
X115900000Y-67837500D02*
X115900000Y-67362500D01*
G75*
G02*
X116137500Y-67125000I237500J0D01*
G01*
X116737500Y-67125000D01*
G75*
G02*
X116975000Y-67362500I0J-237500D01*
G01*
X116975000Y-67837500D01*
G75*
G02*
X116737500Y-68075000I-237500J0D01*
G01*
X116137500Y-68075000D01*
G75*
G02*
X115900000Y-67837500I0J237500D01*
G01*
G37*
%TD*%
%TO.C,R7*%
G36*
G01*
X204400000Y-81737500D02*
X204400000Y-81262500D01*
G75*
G02*
X204637500Y-81025000I237500J0D01*
G01*
X205137500Y-81025000D01*
G75*
G02*
X205375000Y-81262500I0J-237500D01*
G01*
X205375000Y-81737500D01*
G75*
G02*
X205137500Y-81975000I-237500J0D01*
G01*
X204637500Y-81975000D01*
G75*
G02*
X204400000Y-81737500I0J237500D01*
G01*
G37*
G36*
G01*
X206225000Y-81737500D02*
X206225000Y-81262500D01*
G75*
G02*
X206462500Y-81025000I237500J0D01*
G01*
X206962500Y-81025000D01*
G75*
G02*
X207200000Y-81262500I0J-237500D01*
G01*
X207200000Y-81737500D01*
G75*
G02*
X206962500Y-81975000I-237500J0D01*
G01*
X206462500Y-81975000D01*
G75*
G02*
X206225000Y-81737500I0J237500D01*
G01*
G37*
%TD*%
%TO.C,R8*%
G36*
G01*
X72475000Y-81262500D02*
X72475000Y-81737500D01*
G75*
G02*
X72237500Y-81975000I-237500J0D01*
G01*
X71737500Y-81975000D01*
G75*
G02*
X71500000Y-81737500I0J237500D01*
G01*
X71500000Y-81262500D01*
G75*
G02*
X71737500Y-81025000I237500J0D01*
G01*
X72237500Y-81025000D01*
G75*
G02*
X72475000Y-81262500I0J-237500D01*
G01*
G37*
G36*
G01*
X74300000Y-81262500D02*
X74300000Y-81737500D01*
G75*
G02*
X74062500Y-81975000I-237500J0D01*
G01*
X73562500Y-81975000D01*
G75*
G02*
X73325000Y-81737500I0J237500D01*
G01*
X73325000Y-81262500D01*
G75*
G02*
X73562500Y-81025000I237500J0D01*
G01*
X74062500Y-81025000D01*
G75*
G02*
X74300000Y-81262500I0J-237500D01*
G01*
G37*
%TD*%
%TO.C,R9*%
G36*
G01*
X65400000Y-81737500D02*
X65400000Y-81262500D01*
G75*
G02*
X65637500Y-81025000I237500J0D01*
G01*
X66137500Y-81025000D01*
G75*
G02*
X66375000Y-81262500I0J-237500D01*
G01*
X66375000Y-81737500D01*
G75*
G02*
X66137500Y-81975000I-237500J0D01*
G01*
X65637500Y-81975000D01*
G75*
G02*
X65400000Y-81737500I0J237500D01*
G01*
G37*
G36*
G01*
X67225000Y-81737500D02*
X67225000Y-81262500D01*
G75*
G02*
X67462500Y-81025000I237500J0D01*
G01*
X67962500Y-81025000D01*
G75*
G02*
X68200000Y-81262500I0J-237500D01*
G01*
X68200000Y-81737500D01*
G75*
G02*
X67962500Y-81975000I-237500J0D01*
G01*
X67462500Y-81975000D01*
G75*
G02*
X67225000Y-81737500I0J237500D01*
G01*
G37*
%TD*%
%TO.C,D3*%
G36*
G01*
X73372500Y-76150001D02*
X73372500Y-75249999D01*
G75*
G02*
X73622499Y-75000000I249999J0D01*
G01*
X74272501Y-75000000D01*
G75*
G02*
X74522500Y-75249999I0J-249999D01*
G01*
X74522500Y-76150001D01*
G75*
G02*
X74272501Y-76400000I-249999J0D01*
G01*
X73622499Y-76400000D01*
G75*
G02*
X73372500Y-76150001I0J249999D01*
G01*
G37*
G36*
G01*
X71322500Y-76150001D02*
X71322500Y-75249999D01*
G75*
G02*
X71572499Y-75000000I249999J0D01*
G01*
X72222501Y-75000000D01*
G75*
G02*
X72472500Y-75249999I0J-249999D01*
G01*
X72472500Y-76150001D01*
G75*
G02*
X72222501Y-76400000I-249999J0D01*
G01*
X71572499Y-76400000D01*
G75*
G02*
X71322500Y-76150001I0J249999D01*
G01*
G37*
%TD*%
%TO.C,R5*%
G36*
G01*
X170862500Y-73822500D02*
X171337500Y-73822500D01*
G75*
G02*
X171575000Y-74060000I0J-237500D01*
G01*
X171575000Y-74635000D01*
G75*
G02*
X171337500Y-74872500I-237500J0D01*
G01*
X170862500Y-74872500D01*
G75*
G02*
X170625000Y-74635000I0J237500D01*
G01*
X170625000Y-74060000D01*
G75*
G02*
X170862500Y-73822500I237500J0D01*
G01*
G37*
G36*
G01*
X170862500Y-75572500D02*
X171337500Y-75572500D01*
G75*
G02*
X171575000Y-75810000I0J-237500D01*
G01*
X171575000Y-76385000D01*
G75*
G02*
X171337500Y-76622500I-237500J0D01*
G01*
X170862500Y-76622500D01*
G75*
G02*
X170625000Y-76385000I0J237500D01*
G01*
X170625000Y-75810000D01*
G75*
G02*
X170862500Y-75572500I237500J0D01*
G01*
G37*
%TD*%
%TO.C,R6*%
G36*
G01*
X79950000Y-75937500D02*
X79950000Y-75462500D01*
G75*
G02*
X80187500Y-75225000I237500J0D01*
G01*
X80762500Y-75225000D01*
G75*
G02*
X81000000Y-75462500I0J-237500D01*
G01*
X81000000Y-75937500D01*
G75*
G02*
X80762500Y-76175000I-237500J0D01*
G01*
X80187500Y-76175000D01*
G75*
G02*
X79950000Y-75937500I0J237500D01*
G01*
G37*
G36*
G01*
X78200000Y-75937500D02*
X78200000Y-75462500D01*
G75*
G02*
X78437500Y-75225000I237500J0D01*
G01*
X79012500Y-75225000D01*
G75*
G02*
X79250000Y-75462500I0J-237500D01*
G01*
X79250000Y-75937500D01*
G75*
G02*
X79012500Y-76175000I-237500J0D01*
G01*
X78437500Y-76175000D01*
G75*
G02*
X78200000Y-75937500I0J237500D01*
G01*
G37*
%TD*%
D13*
%TO.C,J3*%
X170600000Y-81300000D03*
D14*
X170600000Y-83840000D03*
X173140000Y-81300000D03*
X173140000Y-83840000D03*
%TD*%
D15*
%TO.C,R1*%
X182700000Y-71600000D03*
X187700000Y-71600000D03*
X192700000Y-71600000D03*
D16*
X187700000Y-83700000D03*
%TD*%
%TO.C,R2*%
X155533332Y-86200000D03*
D15*
X160533332Y-74100000D03*
X155533332Y-74100000D03*
X150533332Y-74100000D03*
%TD*%
D16*
%TO.C,R3*%
X91700000Y-83700000D03*
D15*
X96700000Y-71600000D03*
X91700000Y-71600000D03*
X86700000Y-71600000D03*
%TD*%
%TO.C,R4*%
X116366666Y-71600000D03*
X121366666Y-71600000D03*
X126366666Y-71600000D03*
D16*
X121366666Y-83700000D03*
%TD*%
%TO.C,R10*%
G36*
G01*
X78200000Y-73037500D02*
X78200000Y-72562500D01*
G75*
G02*
X78437500Y-72325000I237500J0D01*
G01*
X79012500Y-72325000D01*
G75*
G02*
X79250000Y-72562500I0J-237500D01*
G01*
X79250000Y-73037500D01*
G75*
G02*
X79012500Y-73275000I-237500J0D01*
G01*
X78437500Y-73275000D01*
G75*
G02*
X78200000Y-73037500I0J237500D01*
G01*
G37*
G36*
G01*
X79950000Y-73037500D02*
X79950000Y-72562500D01*
G75*
G02*
X80187500Y-72325000I237500J0D01*
G01*
X80762500Y-72325000D01*
G75*
G02*
X81000000Y-72562500I0J-237500D01*
G01*
X81000000Y-73037500D01*
G75*
G02*
X80762500Y-73275000I-237500J0D01*
G01*
X80187500Y-73275000D01*
G75*
G02*
X79950000Y-73037500I0J237500D01*
G01*
G37*
%TD*%
D17*
%TO.C,SW1*%
X203850000Y-84620000D03*
X208350000Y-84620000D03*
X208350000Y-92580000D03*
X203850000Y-92580000D03*
%TD*%
%TO.C,SW2*%
X70650000Y-92580000D03*
X75150000Y-92580000D03*
X75150000Y-84620000D03*
X70650000Y-84620000D03*
%TD*%
%TO.C,SW3*%
X69050000Y-92580000D03*
X64550000Y-92580000D03*
X64550000Y-84620000D03*
X69050000Y-84620000D03*
%TD*%
%TO.C,D5*%
G36*
G01*
X200749999Y-73600000D02*
X201650001Y-73600000D01*
G75*
G02*
X201900000Y-73849999I0J-249999D01*
G01*
X201900000Y-74500001D01*
G75*
G02*
X201650001Y-74750000I-249999J0D01*
G01*
X200749999Y-74750000D01*
G75*
G02*
X200500000Y-74500001I0J249999D01*
G01*
X200500000Y-73849999D01*
G75*
G02*
X200749999Y-73600000I249999J0D01*
G01*
G37*
G36*
G01*
X200749999Y-75650000D02*
X201650001Y-75650000D01*
G75*
G02*
X201900000Y-75899999I0J-249999D01*
G01*
X201900000Y-76550001D01*
G75*
G02*
X201650001Y-76800000I-249999J0D01*
G01*
X200749999Y-76800000D01*
G75*
G02*
X200500000Y-76550001I0J249999D01*
G01*
X200500000Y-75899999D01*
G75*
G02*
X200749999Y-75650000I249999J0D01*
G01*
G37*
%TD*%
M02*
