%TF.GenerationSoftware,KiCad,Pcbnew,(5.1.12)-1*%
%TF.CreationDate,2022-01-10T16:23:42+03:00*%
%TF.ProjectId,ADAU1701_backpanel,41444155-3137-4303-915f-6261636b7061,rev?*%
%TF.SameCoordinates,Original*%
%TF.FileFunction,Legend,Top*%
%TF.FilePolarity,Positive*%
%FSLAX46Y46*%
G04 Gerber Fmt 4.6, Leading zero omitted, Abs format (unit mm)*
G04 Created by KiCad (PCBNEW (5.1.12)-1) date 2022-01-10 16:23:42*
%MOMM*%
%LPD*%
G01*
G04 APERTURE LIST*
%ADD10C,0.200000*%
%ADD11C,0.150000*%
%ADD12C,0.180000*%
G04 APERTURE END LIST*
D10*
X161857142Y-136042857D02*
X161285714Y-136042857D01*
X161285714Y-134842857D01*
X162257142Y-135414285D02*
X162657142Y-135414285D01*
X162828571Y-136042857D02*
X162257142Y-136042857D01*
X162257142Y-134842857D01*
X162828571Y-134842857D01*
X163742857Y-135414285D02*
X163342857Y-135414285D01*
X163342857Y-136042857D02*
X163342857Y-134842857D01*
X163914285Y-134842857D01*
X164200000Y-134842857D02*
X164885714Y-134842857D01*
X164542857Y-136042857D02*
X164542857Y-134842857D01*
X141400000Y-136042857D02*
X141000000Y-135471428D01*
X140714285Y-136042857D02*
X140714285Y-134842857D01*
X141171428Y-134842857D01*
X141285714Y-134900000D01*
X141342857Y-134957142D01*
X141400000Y-135071428D01*
X141400000Y-135242857D01*
X141342857Y-135357142D01*
X141285714Y-135414285D01*
X141171428Y-135471428D01*
X140714285Y-135471428D01*
X141914285Y-136042857D02*
X141914285Y-134842857D01*
X143114285Y-134900000D02*
X143000000Y-134842857D01*
X142828571Y-134842857D01*
X142657142Y-134900000D01*
X142542857Y-135014285D01*
X142485714Y-135128571D01*
X142428571Y-135357142D01*
X142428571Y-135528571D01*
X142485714Y-135757142D01*
X142542857Y-135871428D01*
X142657142Y-135985714D01*
X142828571Y-136042857D01*
X142942857Y-136042857D01*
X143114285Y-135985714D01*
X143171428Y-135928571D01*
X143171428Y-135528571D01*
X142942857Y-135528571D01*
X143685714Y-136042857D02*
X143685714Y-134842857D01*
X143685714Y-135414285D02*
X144371428Y-135414285D01*
X144371428Y-136042857D02*
X144371428Y-134842857D01*
X144771428Y-134842857D02*
X145457142Y-134842857D01*
X145114285Y-136042857D02*
X145114285Y-134842857D01*
D11*
X170600000Y-134000000D02*
X171100000Y-134000000D01*
X170600000Y-134000000D02*
X154600000Y-134000000D01*
X171100000Y-102000000D02*
X171100000Y-134000000D01*
X154600000Y-102000000D02*
X154600000Y-134000000D01*
X154600000Y-102000000D02*
X171100000Y-102000000D01*
X151000000Y-134000000D02*
X151050000Y-102000000D01*
X134550000Y-102000000D02*
X134500000Y-134000000D01*
X134500000Y-134000000D02*
X151000000Y-134000000D01*
X134550000Y-102000000D02*
X151050000Y-102000000D01*
X70450000Y-119500000D02*
X70450000Y-136400000D01*
X86450000Y-119500000D02*
X70450000Y-119500000D01*
X86450000Y-102500000D02*
X86450000Y-119500000D01*
X126450000Y-102500000D02*
X86450000Y-102500000D01*
X126450000Y-135500000D02*
X126450000Y-102500000D01*
X60652380Y-114314285D02*
X60652380Y-113742857D01*
X61652380Y-114028571D02*
X60652380Y-114028571D01*
X60652380Y-113552380D02*
X60652380Y-112980952D01*
X61652380Y-113266666D02*
X60652380Y-113266666D01*
X61652380Y-112171428D02*
X61652380Y-112647619D01*
X60652380Y-112647619D01*
X60652380Y-110885714D02*
X60652380Y-110695238D01*
X60700000Y-110600000D01*
X60795238Y-110504761D01*
X60985714Y-110457142D01*
X61319047Y-110457142D01*
X61509523Y-110504761D01*
X61604761Y-110600000D01*
X61652380Y-110695238D01*
X61652380Y-110885714D01*
X61604761Y-110980952D01*
X61509523Y-111076190D01*
X61319047Y-111123809D01*
X60985714Y-111123809D01*
X60795238Y-111076190D01*
X60700000Y-110980952D01*
X60652380Y-110885714D01*
X60985714Y-109600000D02*
X61652380Y-109600000D01*
X60985714Y-110028571D02*
X61509523Y-110028571D01*
X61604761Y-109980952D01*
X61652380Y-109885714D01*
X61652380Y-109742857D01*
X61604761Y-109647619D01*
X61557142Y-109600000D01*
X60985714Y-109266666D02*
X60985714Y-108885714D01*
X60652380Y-109123809D02*
X61509523Y-109123809D01*
X61604761Y-109076190D01*
X61652380Y-108980952D01*
X61652380Y-108885714D01*
X63661904Y-116150000D02*
X63566666Y-116092857D01*
X63423809Y-116092857D01*
X63280952Y-116150000D01*
X63185714Y-116264285D01*
X63138095Y-116378571D01*
X63090476Y-116607142D01*
X63090476Y-116778571D01*
X63138095Y-117007142D01*
X63185714Y-117121428D01*
X63280952Y-117235714D01*
X63423809Y-117292857D01*
X63519047Y-117292857D01*
X63661904Y-117235714D01*
X63709523Y-117178571D01*
X63709523Y-116778571D01*
X63519047Y-116778571D01*
X63709523Y-119242857D02*
X63376190Y-118671428D01*
X63138095Y-119242857D02*
X63138095Y-118042857D01*
X63519047Y-118042857D01*
X63614285Y-118100000D01*
X63661904Y-118157142D01*
X63709523Y-118271428D01*
X63709523Y-118442857D01*
X63661904Y-118557142D01*
X63614285Y-118614285D01*
X63519047Y-118671428D01*
X63138095Y-118671428D01*
X63066666Y-119992857D02*
X63400000Y-121192857D01*
X63733333Y-119992857D01*
X55514285Y-134952380D02*
X55514285Y-133952380D01*
X55914285Y-134666666D01*
X56314285Y-133952380D01*
X56314285Y-134952380D01*
X57400000Y-134952380D02*
X57400000Y-134428571D01*
X57342857Y-134333333D01*
X57228571Y-134285714D01*
X57000000Y-134285714D01*
X56885714Y-134333333D01*
X57400000Y-134904761D02*
X57285714Y-134952380D01*
X57000000Y-134952380D01*
X56885714Y-134904761D01*
X56828571Y-134809523D01*
X56828571Y-134714285D01*
X56885714Y-134619047D01*
X57000000Y-134571428D01*
X57285714Y-134571428D01*
X57400000Y-134523809D01*
X58485714Y-134952380D02*
X58485714Y-133952380D01*
X58485714Y-134904761D02*
X58371428Y-134952380D01*
X58142857Y-134952380D01*
X58028571Y-134904761D01*
X57971428Y-134857142D01*
X57914285Y-134761904D01*
X57914285Y-134476190D01*
X57971428Y-134380952D01*
X58028571Y-134333333D01*
X58142857Y-134285714D01*
X58371428Y-134285714D01*
X58485714Y-134333333D01*
X59514285Y-134904761D02*
X59400000Y-134952380D01*
X59171428Y-134952380D01*
X59057142Y-134904761D01*
X59000000Y-134809523D01*
X59000000Y-134428571D01*
X59057142Y-134333333D01*
X59171428Y-134285714D01*
X59400000Y-134285714D01*
X59514285Y-134333333D01*
X59571428Y-134428571D01*
X59571428Y-134523809D01*
X59000000Y-134619047D01*
X61000000Y-134952380D02*
X61000000Y-134285714D01*
X61000000Y-133952380D02*
X60942857Y-134000000D01*
X61000000Y-134047619D01*
X61057142Y-134000000D01*
X61000000Y-133952380D01*
X61000000Y-134047619D01*
X61571428Y-134285714D02*
X61571428Y-134952380D01*
X61571428Y-134380952D02*
X61628571Y-134333333D01*
X61742857Y-134285714D01*
X61914285Y-134285714D01*
X62028571Y-134333333D01*
X62085714Y-134428571D01*
X62085714Y-134952380D01*
X64257142Y-134952380D02*
X63857142Y-134476190D01*
X63571428Y-134952380D02*
X63571428Y-133952380D01*
X64028571Y-133952380D01*
X64142857Y-134000000D01*
X64200000Y-134047619D01*
X64257142Y-134142857D01*
X64257142Y-134285714D01*
X64200000Y-134380952D01*
X64142857Y-134428571D01*
X64028571Y-134476190D01*
X63571428Y-134476190D01*
X65285714Y-134285714D02*
X65285714Y-134952380D01*
X64771428Y-134285714D02*
X64771428Y-134809523D01*
X64828571Y-134904761D01*
X64942857Y-134952380D01*
X65114285Y-134952380D01*
X65228571Y-134904761D01*
X65285714Y-134857142D01*
X65800000Y-134904761D02*
X65914285Y-134952380D01*
X66142857Y-134952380D01*
X66257142Y-134904761D01*
X66314285Y-134809523D01*
X66314285Y-134761904D01*
X66257142Y-134666666D01*
X66142857Y-134619047D01*
X65971428Y-134619047D01*
X65857142Y-134571428D01*
X65800000Y-134476190D01*
X65800000Y-134428571D01*
X65857142Y-134333333D01*
X65971428Y-134285714D01*
X66142857Y-134285714D01*
X66257142Y-134333333D01*
X66771428Y-134904761D02*
X66885714Y-134952380D01*
X67114285Y-134952380D01*
X67228571Y-134904761D01*
X67285714Y-134809523D01*
X67285714Y-134761904D01*
X67228571Y-134666666D01*
X67114285Y-134619047D01*
X66942857Y-134619047D01*
X66828571Y-134571428D01*
X66771428Y-134476190D01*
X66771428Y-134428571D01*
X66828571Y-134333333D01*
X66942857Y-134285714D01*
X67114285Y-134285714D01*
X67228571Y-134333333D01*
X67800000Y-134952380D02*
X67800000Y-134285714D01*
X67800000Y-133952380D02*
X67742857Y-134000000D01*
X67800000Y-134047619D01*
X67857142Y-134000000D01*
X67800000Y-133952380D01*
X67800000Y-134047619D01*
X68885714Y-134952380D02*
X68885714Y-134428571D01*
X68828571Y-134333333D01*
X68714285Y-134285714D01*
X68485714Y-134285714D01*
X68371428Y-134333333D01*
X68885714Y-134904761D02*
X68771428Y-134952380D01*
X68485714Y-134952380D01*
X68371428Y-134904761D01*
X68314285Y-134809523D01*
X68314285Y-134714285D01*
X68371428Y-134619047D01*
X68485714Y-134571428D01*
X68771428Y-134571428D01*
X68885714Y-134523809D01*
X194833333Y-107777657D02*
X195100000Y-107777657D01*
X195233333Y-107834800D01*
X195366666Y-107949085D01*
X195433333Y-108177657D01*
X195433333Y-108577657D01*
X195366666Y-108806228D01*
X195233333Y-108920514D01*
X195100000Y-108977657D01*
X194833333Y-108977657D01*
X194700000Y-108920514D01*
X194566666Y-108806228D01*
X194500000Y-108577657D01*
X194500000Y-108177657D01*
X194566666Y-107949085D01*
X194700000Y-107834800D01*
X194833333Y-107777657D01*
X196033333Y-108977657D02*
X196033333Y-107777657D01*
X196833333Y-108977657D01*
X196833333Y-107777657D01*
X194366666Y-109727657D02*
X194633333Y-109727657D01*
X194766666Y-109784800D01*
X194900000Y-109899085D01*
X194966666Y-110127657D01*
X194966666Y-110527657D01*
X194900000Y-110756228D01*
X194766666Y-110870514D01*
X194633333Y-110927657D01*
X194366666Y-110927657D01*
X194233333Y-110870514D01*
X194100000Y-110756228D01*
X194033333Y-110527657D01*
X194033333Y-110127657D01*
X194100000Y-109899085D01*
X194233333Y-109784800D01*
X194366666Y-109727657D01*
X196033333Y-110299085D02*
X195566666Y-110299085D01*
X195566666Y-110927657D02*
X195566666Y-109727657D01*
X196233333Y-109727657D01*
X197233333Y-110299085D02*
X196766666Y-110299085D01*
X196766666Y-110927657D02*
X196766666Y-109727657D01*
X197433333Y-109727657D01*
X93383333Y-118392857D02*
X92916666Y-117821428D01*
X92583333Y-118392857D02*
X92583333Y-117192857D01*
X93116666Y-117192857D01*
X93250000Y-117250000D01*
X93316666Y-117307142D01*
X93383333Y-117421428D01*
X93383333Y-117592857D01*
X93316666Y-117707142D01*
X93250000Y-117764285D01*
X93116666Y-117821428D01*
X92583333Y-117821428D01*
X94583333Y-118392857D02*
X94583333Y-117764285D01*
X94516666Y-117650000D01*
X94383333Y-117592857D01*
X94116666Y-117592857D01*
X93983333Y-117650000D01*
X94583333Y-118335714D02*
X94450000Y-118392857D01*
X94116666Y-118392857D01*
X93983333Y-118335714D01*
X93916666Y-118221428D01*
X93916666Y-118107142D01*
X93983333Y-117992857D01*
X94116666Y-117935714D01*
X94450000Y-117935714D01*
X94583333Y-117878571D01*
X95183333Y-118335714D02*
X95316666Y-118392857D01*
X95583333Y-118392857D01*
X95716666Y-118335714D01*
X95783333Y-118221428D01*
X95783333Y-118164285D01*
X95716666Y-118050000D01*
X95583333Y-117992857D01*
X95383333Y-117992857D01*
X95250000Y-117935714D01*
X95183333Y-117821428D01*
X95183333Y-117764285D01*
X95250000Y-117650000D01*
X95383333Y-117592857D01*
X95583333Y-117592857D01*
X95716666Y-117650000D01*
X96383333Y-117592857D02*
X96383333Y-118792857D01*
X96383333Y-117650000D02*
X96516666Y-117592857D01*
X96783333Y-117592857D01*
X96916666Y-117650000D01*
X96983333Y-117707142D01*
X97050000Y-117821428D01*
X97050000Y-118164285D01*
X96983333Y-118278571D01*
X96916666Y-118335714D01*
X96783333Y-118392857D01*
X96516666Y-118392857D01*
X96383333Y-118335714D01*
X97650000Y-118392857D02*
X97650000Y-117192857D01*
X97650000Y-117650000D02*
X97783333Y-117592857D01*
X98050000Y-117592857D01*
X98183333Y-117650000D01*
X98250000Y-117707142D01*
X98316666Y-117821428D01*
X98316666Y-118164285D01*
X98250000Y-118278571D01*
X98183333Y-118335714D01*
X98050000Y-118392857D01*
X97783333Y-118392857D01*
X97650000Y-118335714D01*
X99450000Y-118335714D02*
X99316666Y-118392857D01*
X99050000Y-118392857D01*
X98916666Y-118335714D01*
X98850000Y-118221428D01*
X98850000Y-117764285D01*
X98916666Y-117650000D01*
X99050000Y-117592857D01*
X99316666Y-117592857D01*
X99450000Y-117650000D01*
X99516666Y-117764285D01*
X99516666Y-117878571D01*
X98850000Y-117992857D01*
X100116666Y-118392857D02*
X100116666Y-117592857D01*
X100116666Y-117821428D02*
X100183333Y-117707142D01*
X100250000Y-117650000D01*
X100383333Y-117592857D01*
X100516666Y-117592857D01*
X100983333Y-118392857D02*
X100983333Y-117592857D01*
X100983333Y-117821428D02*
X101050000Y-117707142D01*
X101116666Y-117650000D01*
X101250000Y-117592857D01*
X101383333Y-117592857D01*
X101716666Y-117592857D02*
X102050000Y-118392857D01*
X102383333Y-117592857D02*
X102050000Y-118392857D01*
X101916666Y-118678571D01*
X101850000Y-118735714D01*
X101716666Y-118792857D01*
X103983333Y-118392857D02*
X103983333Y-117192857D01*
X104516666Y-117192857D01*
X104650000Y-117250000D01*
X104716666Y-117307142D01*
X104783333Y-117421428D01*
X104783333Y-117592857D01*
X104716666Y-117707142D01*
X104650000Y-117764285D01*
X104516666Y-117821428D01*
X103983333Y-117821428D01*
X105383333Y-118392857D02*
X105383333Y-117592857D01*
X105383333Y-117192857D02*
X105316666Y-117250000D01*
X105383333Y-117307142D01*
X105450000Y-117250000D01*
X105383333Y-117192857D01*
X105383333Y-117307142D01*
X107716666Y-118335714D02*
X107583333Y-118392857D01*
X107316666Y-118392857D01*
X107183333Y-118335714D01*
X107116666Y-118278571D01*
X107050000Y-118164285D01*
X107050000Y-117821428D01*
X107116666Y-117707142D01*
X107183333Y-117650000D01*
X107316666Y-117592857D01*
X107583333Y-117592857D01*
X107716666Y-117650000D01*
X108516666Y-118392857D02*
X108383333Y-118335714D01*
X108316666Y-118278571D01*
X108250000Y-118164285D01*
X108250000Y-117821428D01*
X108316666Y-117707142D01*
X108383333Y-117650000D01*
X108516666Y-117592857D01*
X108716666Y-117592857D01*
X108850000Y-117650000D01*
X108916666Y-117707142D01*
X108983333Y-117821428D01*
X108983333Y-118164285D01*
X108916666Y-118278571D01*
X108850000Y-118335714D01*
X108716666Y-118392857D01*
X108516666Y-118392857D01*
X109583333Y-117592857D02*
X109583333Y-118392857D01*
X109583333Y-117707142D02*
X109650000Y-117650000D01*
X109783333Y-117592857D01*
X109983333Y-117592857D01*
X110116666Y-117650000D01*
X110183333Y-117764285D01*
X110183333Y-118392857D01*
X110850000Y-117592857D02*
X110850000Y-118392857D01*
X110850000Y-117707142D02*
X110916666Y-117650000D01*
X111050000Y-117592857D01*
X111250000Y-117592857D01*
X111383333Y-117650000D01*
X111450000Y-117764285D01*
X111450000Y-118392857D01*
X112650000Y-118335714D02*
X112516666Y-118392857D01*
X112250000Y-118392857D01*
X112116666Y-118335714D01*
X112050000Y-118221428D01*
X112050000Y-117764285D01*
X112116666Y-117650000D01*
X112250000Y-117592857D01*
X112516666Y-117592857D01*
X112650000Y-117650000D01*
X112716666Y-117764285D01*
X112716666Y-117878571D01*
X112050000Y-117992857D01*
X113916666Y-118335714D02*
X113783333Y-118392857D01*
X113516666Y-118392857D01*
X113383333Y-118335714D01*
X113316666Y-118278571D01*
X113250000Y-118164285D01*
X113250000Y-117821428D01*
X113316666Y-117707142D01*
X113383333Y-117650000D01*
X113516666Y-117592857D01*
X113783333Y-117592857D01*
X113916666Y-117650000D01*
X114316666Y-117592857D02*
X114850000Y-117592857D01*
X114516666Y-117192857D02*
X114516666Y-118221428D01*
X114583333Y-118335714D01*
X114716666Y-118392857D01*
X114850000Y-118392857D01*
X115516666Y-118392857D02*
X115383333Y-118335714D01*
X115316666Y-118278571D01*
X115250000Y-118164285D01*
X115250000Y-117821428D01*
X115316666Y-117707142D01*
X115383333Y-117650000D01*
X115516666Y-117592857D01*
X115716666Y-117592857D01*
X115850000Y-117650000D01*
X115916666Y-117707142D01*
X115983333Y-117821428D01*
X115983333Y-118164285D01*
X115916666Y-118278571D01*
X115850000Y-118335714D01*
X115716666Y-118392857D01*
X115516666Y-118392857D01*
X116583333Y-118392857D02*
X116583333Y-117592857D01*
X116583333Y-117821428D02*
X116650000Y-117707142D01*
X116716666Y-117650000D01*
X116850000Y-117592857D01*
X116983333Y-117592857D01*
X117383333Y-118335714D02*
X117516666Y-118392857D01*
X117783333Y-118392857D01*
X117916666Y-118335714D01*
X117983333Y-118221428D01*
X117983333Y-118164285D01*
X117916666Y-118050000D01*
X117783333Y-117992857D01*
X117583333Y-117992857D01*
X117450000Y-117935714D01*
X117383333Y-117821428D01*
X117383333Y-117764285D01*
X117450000Y-117650000D01*
X117583333Y-117592857D01*
X117783333Y-117592857D01*
X117916666Y-117650000D01*
D12*
X73959183Y-105628571D02*
X73892516Y-105685714D01*
X73692516Y-105742857D01*
X73559183Y-105742857D01*
X73359183Y-105685714D01*
X73225850Y-105571428D01*
X73159183Y-105457142D01*
X73092516Y-105228571D01*
X73092516Y-105057142D01*
X73159183Y-104828571D01*
X73225850Y-104714285D01*
X73359183Y-104600000D01*
X73559183Y-104542857D01*
X73692516Y-104542857D01*
X73892516Y-104600000D01*
X73959183Y-104657142D01*
X74559183Y-105742857D02*
X74559183Y-104542857D01*
X75159183Y-105742857D02*
X75159183Y-105114285D01*
X75092516Y-105000000D01*
X74959183Y-104942857D01*
X74759183Y-104942857D01*
X74625850Y-105000000D01*
X74559183Y-105057142D01*
X75825850Y-105742857D02*
X75825850Y-104942857D01*
X75825850Y-104542857D02*
X75759183Y-104600000D01*
X75825850Y-104657142D01*
X75892516Y-104600000D01*
X75825850Y-104542857D01*
X75825850Y-104657142D01*
X76492516Y-104942857D02*
X76492516Y-106142857D01*
X76492516Y-105000000D02*
X76625850Y-104942857D01*
X76892516Y-104942857D01*
X77025850Y-105000000D01*
X77092516Y-105057142D01*
X77159183Y-105171428D01*
X77159183Y-105514285D01*
X77092516Y-105628571D01*
X77025850Y-105685714D01*
X76892516Y-105742857D01*
X76625850Y-105742857D01*
X76492516Y-105685714D01*
X77692516Y-105685714D02*
X77892516Y-105742857D01*
X78225850Y-105742857D01*
X78359183Y-105685714D01*
X78425850Y-105628571D01*
X78492516Y-105514285D01*
X78492516Y-105400000D01*
X78425850Y-105285714D01*
X78359183Y-105228571D01*
X78225850Y-105171428D01*
X77959183Y-105114285D01*
X77825850Y-105057142D01*
X77759183Y-105000000D01*
X77692516Y-104885714D01*
X77692516Y-104771428D01*
X77759183Y-104657142D01*
X77825850Y-104600000D01*
X77959183Y-104542857D01*
X78292516Y-104542857D01*
X78492516Y-104600000D01*
X78892516Y-104942857D02*
X79425850Y-104942857D01*
X79092516Y-104542857D02*
X79092516Y-105571428D01*
X79159183Y-105685714D01*
X79292516Y-105742857D01*
X79425850Y-105742857D01*
X80492516Y-104942857D02*
X80492516Y-105742857D01*
X79892516Y-104942857D02*
X79892516Y-105571428D01*
X79959183Y-105685714D01*
X80092516Y-105742857D01*
X80292516Y-105742857D01*
X80425850Y-105685714D01*
X80492516Y-105628571D01*
X81759183Y-105742857D02*
X81759183Y-104542857D01*
X81759183Y-105685714D02*
X81625850Y-105742857D01*
X81359183Y-105742857D01*
X81225850Y-105685714D01*
X81159183Y-105628571D01*
X81092516Y-105514285D01*
X81092516Y-105171428D01*
X81159183Y-105057142D01*
X81225850Y-105000000D01*
X81359183Y-104942857D01*
X81625850Y-104942857D01*
X81759183Y-105000000D01*
X82425850Y-105742857D02*
X82425850Y-104942857D01*
X82425850Y-104542857D02*
X82359183Y-104600000D01*
X82425850Y-104657142D01*
X82492516Y-104600000D01*
X82425850Y-104542857D01*
X82425850Y-104657142D01*
X83292516Y-105742857D02*
X83159183Y-105685714D01*
X83092516Y-105628571D01*
X83025850Y-105514285D01*
X83025850Y-105171428D01*
X83092516Y-105057142D01*
X83159183Y-105000000D01*
X83292516Y-104942857D01*
X83492516Y-104942857D01*
X83625850Y-105000000D01*
X83692516Y-105057142D01*
X83759183Y-105171428D01*
X83759183Y-105514285D01*
X83692516Y-105628571D01*
X83625850Y-105685714D01*
X83492516Y-105742857D01*
X83292516Y-105742857D01*
D11*
X113366666Y-105992857D02*
X113366666Y-104792857D01*
X113366666Y-105364285D02*
X114166666Y-105364285D01*
X114166666Y-105992857D02*
X114166666Y-104792857D01*
X114833333Y-105992857D02*
X114833333Y-104792857D01*
X115166666Y-104792857D01*
X115366666Y-104850000D01*
X115500000Y-104964285D01*
X115566666Y-105078571D01*
X115633333Y-105307142D01*
X115633333Y-105478571D01*
X115566666Y-105707142D01*
X115500000Y-105821428D01*
X115366666Y-105935714D01*
X115166666Y-105992857D01*
X114833333Y-105992857D01*
X116233333Y-105992857D02*
X116233333Y-104792857D01*
X116700000Y-105650000D01*
X117166666Y-104792857D01*
X117166666Y-105992857D01*
X117833333Y-105992857D02*
X117833333Y-104792857D01*
X119500000Y-104907142D02*
X119566666Y-104850000D01*
X119700000Y-104792857D01*
X120033333Y-104792857D01*
X120166666Y-104850000D01*
X120233333Y-104907142D01*
X120300000Y-105021428D01*
X120300000Y-105135714D01*
X120233333Y-105307142D01*
X119433333Y-105992857D01*
X120300000Y-105992857D01*
X93316666Y-105992857D02*
X93316666Y-104792857D01*
X93316666Y-105364285D02*
X94116666Y-105364285D01*
X94116666Y-105992857D02*
X94116666Y-104792857D01*
X94783333Y-105992857D02*
X94783333Y-104792857D01*
X95116666Y-104792857D01*
X95316666Y-104850000D01*
X95450000Y-104964285D01*
X95516666Y-105078571D01*
X95583333Y-105307142D01*
X95583333Y-105478571D01*
X95516666Y-105707142D01*
X95450000Y-105821428D01*
X95316666Y-105935714D01*
X95116666Y-105992857D01*
X94783333Y-105992857D01*
X96183333Y-105992857D02*
X96183333Y-104792857D01*
X96650000Y-105650000D01*
X97116666Y-104792857D01*
X97116666Y-105992857D01*
X97783333Y-105992857D02*
X97783333Y-104792857D01*
X100250000Y-105992857D02*
X99450000Y-105992857D01*
X99850000Y-105992857D02*
X99850000Y-104792857D01*
X99716666Y-104964285D01*
X99583333Y-105078571D01*
X99450000Y-105135714D01*
X193785714Y-124519357D02*
X193785714Y-123319357D01*
X194071428Y-123319357D01*
X194242857Y-123376500D01*
X194357142Y-123490785D01*
X194414285Y-123605071D01*
X194471428Y-123833642D01*
X194471428Y-124005071D01*
X194414285Y-124233642D01*
X194357142Y-124347928D01*
X194242857Y-124462214D01*
X194071428Y-124519357D01*
X193785714Y-124519357D01*
X195671428Y-124405071D02*
X195614285Y-124462214D01*
X195442857Y-124519357D01*
X195328571Y-124519357D01*
X195157142Y-124462214D01*
X195042857Y-124347928D01*
X194985714Y-124233642D01*
X194928571Y-124005071D01*
X194928571Y-123833642D01*
X194985714Y-123605071D01*
X195042857Y-123490785D01*
X195157142Y-123376500D01*
X195328571Y-123319357D01*
X195442857Y-123319357D01*
X195614285Y-123376500D01*
X195671428Y-123433642D01*
X191271428Y-125383642D02*
X191328571Y-125326500D01*
X191442857Y-125269357D01*
X191728571Y-125269357D01*
X191842857Y-125326500D01*
X191900000Y-125383642D01*
X191957142Y-125497928D01*
X191957142Y-125612214D01*
X191900000Y-125783642D01*
X191214285Y-126469357D01*
X191957142Y-126469357D01*
X192985714Y-125669357D02*
X192985714Y-126469357D01*
X192700000Y-125212214D02*
X192414285Y-126069357D01*
X193157142Y-126069357D01*
X193614285Y-126355071D02*
X193671428Y-126412214D01*
X193614285Y-126469357D01*
X193557142Y-126412214D01*
X193614285Y-126355071D01*
X193614285Y-126469357D01*
X194185714Y-126355071D02*
X194242857Y-126412214D01*
X194185714Y-126469357D01*
X194128571Y-126412214D01*
X194185714Y-126355071D01*
X194185714Y-126469357D01*
X194757142Y-126355071D02*
X194814285Y-126412214D01*
X194757142Y-126469357D01*
X194700000Y-126412214D01*
X194757142Y-126355071D01*
X194757142Y-126469357D01*
X195842857Y-125669357D02*
X195842857Y-126469357D01*
X195557142Y-125212214D02*
X195271428Y-126069357D01*
X196014285Y-126069357D01*
X196642857Y-125783642D02*
X196528571Y-125726500D01*
X196471428Y-125669357D01*
X196414285Y-125555071D01*
X196414285Y-125497928D01*
X196471428Y-125383642D01*
X196528571Y-125326500D01*
X196642857Y-125269357D01*
X196871428Y-125269357D01*
X196985714Y-125326500D01*
X197042857Y-125383642D01*
X197100000Y-125497928D01*
X197100000Y-125555071D01*
X197042857Y-125669357D01*
X196985714Y-125726500D01*
X196871428Y-125783642D01*
X196642857Y-125783642D01*
X196528571Y-125840785D01*
X196471428Y-125897928D01*
X196414285Y-126012214D01*
X196414285Y-126240785D01*
X196471428Y-126355071D01*
X196528571Y-126412214D01*
X196642857Y-126469357D01*
X196871428Y-126469357D01*
X196985714Y-126412214D01*
X197042857Y-126355071D01*
X197100000Y-126240785D01*
X197100000Y-126012214D01*
X197042857Y-125897928D01*
X196985714Y-125840785D01*
X196871428Y-125783642D01*
X197442857Y-125269357D02*
X197842857Y-126469357D01*
X198242857Y-125269357D01*
X193785714Y-127219357D02*
X194585714Y-127219357D01*
X194071428Y-128419357D01*
X194985714Y-128076500D02*
X195557142Y-128076500D01*
X194871428Y-128419357D02*
X195271428Y-127219357D01*
X195671428Y-128419357D01*
M02*
