%TF.GenerationSoftware,KiCad,Pcbnew,(5.1.12)-1*%
%TF.CreationDate,2022-01-10T16:23:42+03:00*%
%TF.ProjectId,ADAU1701_backpanel,41444155-3137-4303-915f-6261636b7061,rev?*%
%TF.SameCoordinates,Original*%
%TF.FileFunction,Copper,L2,Bot*%
%TF.FilePolarity,Positive*%
%FSLAX46Y46*%
G04 Gerber Fmt 4.6, Leading zero omitted, Abs format (unit mm)*
G04 Created by KiCad (PCBNEW (5.1.12)-1) date 2022-01-10 16:23:42*
%MOMM*%
%LPD*%
G01*
G04 APERTURE LIST*
%TA.AperFunction,ComponentPad*%
%ADD10C,5.000000*%
%TD*%
%TA.AperFunction,ConnectorPad*%
%ADD11C,12.000000*%
%TD*%
%TA.AperFunction,ComponentPad*%
%ADD12C,1.200000*%
%TD*%
%TA.AperFunction,ComponentPad*%
%ADD13R,1.200000X1.200000*%
%TD*%
%TA.AperFunction,SMDPad,CuDef*%
%ADD14R,2.500000X2.500000*%
%TD*%
%TA.AperFunction,ViaPad*%
%ADD15C,0.800000*%
%TD*%
%TA.AperFunction,Conductor*%
%ADD16C,0.254000*%
%TD*%
%TA.AperFunction,Conductor*%
%ADD17C,0.100000*%
%TD*%
G04 APERTURE END LIST*
D10*
%TO.P,REF\u002A\u002A,1*%
%TO.N,N/C*%
X142800000Y-109500000D03*
D11*
X142800000Y-109500000D03*
%TD*%
%TO.P,REF\u002A\u002A,1*%
%TO.N,N/C*%
X142800000Y-126500000D03*
D10*
X142800000Y-126500000D03*
%TD*%
%TO.P,REF\u002A\u002A,1*%
%TO.N,N/C*%
X162850000Y-126500000D03*
D11*
X162850000Y-126500000D03*
%TD*%
%TO.P,REF\u002A\u002A,1*%
%TO.N,N/C*%
X162850000Y-109500000D03*
D10*
X162850000Y-109500000D03*
%TD*%
D12*
%TO.P,REF\u002A\u002A,3*%
%TO.N,N/C*%
X61200000Y-120600000D03*
%TO.P,REF\u002A\u002A,2*%
X61200000Y-118600000D03*
D13*
%TO.P,REF\u002A\u002A,1*%
X61200000Y-116600000D03*
%TD*%
D14*
%TO.P,TP1,1*%
%TO.N,GND*%
X196600000Y-105800000D03*
%TD*%
D15*
%TO.N,GND*%
X126450000Y-137500000D03*
X199500000Y-137500000D03*
X53000000Y-137500000D03*
X70550000Y-137500000D03*
%TD*%
D16*
%TO.N,GND*%
X199615001Y-137865000D02*
X125835600Y-137865000D01*
X125835600Y-121334947D01*
X125838914Y-121301300D01*
X125825688Y-121167017D01*
X125786519Y-121037894D01*
X125722912Y-120918893D01*
X125637311Y-120814589D01*
X125533007Y-120728988D01*
X125414006Y-120665381D01*
X125284883Y-120626212D01*
X125184247Y-120616300D01*
X125150600Y-120612986D01*
X125116953Y-120616300D01*
X71483647Y-120616300D01*
X71450000Y-120612986D01*
X71416353Y-120616300D01*
X71315717Y-120626212D01*
X71186594Y-120665381D01*
X71067593Y-120728988D01*
X70963289Y-120814589D01*
X70877688Y-120918893D01*
X70814081Y-121037894D01*
X70774912Y-121167017D01*
X70761686Y-121301300D01*
X70765000Y-121334947D01*
X70765001Y-137865000D01*
X52685000Y-137865000D01*
X52685000Y-116000000D01*
X59961928Y-116000000D01*
X59961928Y-117200000D01*
X59974188Y-117324482D01*
X60010498Y-117444180D01*
X60069463Y-117554494D01*
X60148815Y-117651185D01*
X60245506Y-117730537D01*
X60295947Y-117757499D01*
X60240713Y-117812733D01*
X60105557Y-118015008D01*
X60012460Y-118239764D01*
X59965000Y-118478363D01*
X59965000Y-118721637D01*
X60012460Y-118960236D01*
X60105557Y-119184992D01*
X60240713Y-119387267D01*
X60412733Y-119559287D01*
X60473664Y-119600000D01*
X60412733Y-119640713D01*
X60240713Y-119812733D01*
X60105557Y-120015008D01*
X60012460Y-120239764D01*
X59965000Y-120478363D01*
X59965000Y-120721637D01*
X60012460Y-120960236D01*
X60105557Y-121184992D01*
X60240713Y-121387267D01*
X60412733Y-121559287D01*
X60615008Y-121694443D01*
X60839764Y-121787540D01*
X61078363Y-121835000D01*
X61321637Y-121835000D01*
X61560236Y-121787540D01*
X61784992Y-121694443D01*
X61987267Y-121559287D01*
X62159287Y-121387267D01*
X62294443Y-121184992D01*
X62387540Y-120960236D01*
X62435000Y-120721637D01*
X62435000Y-120478363D01*
X62387540Y-120239764D01*
X62294443Y-120015008D01*
X62159287Y-119812733D01*
X61987267Y-119640713D01*
X61926336Y-119600000D01*
X61987267Y-119559287D01*
X62159287Y-119387267D01*
X62294443Y-119184992D01*
X62387540Y-118960236D01*
X62435000Y-118721637D01*
X62435000Y-118478363D01*
X62387540Y-118239764D01*
X62294443Y-118015008D01*
X62159287Y-117812733D01*
X62104053Y-117757499D01*
X62154494Y-117730537D01*
X62251185Y-117651185D01*
X62330537Y-117554494D01*
X62389502Y-117444180D01*
X62425812Y-117324482D01*
X62438072Y-117200000D01*
X62438072Y-116000000D01*
X62425812Y-115875518D01*
X62389502Y-115755820D01*
X62330537Y-115645506D01*
X62251185Y-115548815D01*
X62154494Y-115469463D01*
X62044180Y-115410498D01*
X61924482Y-115374188D01*
X61800000Y-115361928D01*
X60600000Y-115361928D01*
X60475518Y-115374188D01*
X60355820Y-115410498D01*
X60245506Y-115469463D01*
X60148815Y-115548815D01*
X60069463Y-115645506D01*
X60010498Y-115755820D01*
X59974188Y-115875518D01*
X59961928Y-116000000D01*
X52685000Y-116000000D01*
X52685000Y-107400000D01*
X71561686Y-107400000D01*
X71565000Y-107433647D01*
X71565000Y-107466354D01*
X71565001Y-118466344D01*
X71565000Y-118466354D01*
X71565000Y-118566353D01*
X71561686Y-118600000D01*
X71574912Y-118734283D01*
X71614081Y-118863406D01*
X71677688Y-118982407D01*
X71763289Y-119086711D01*
X71867593Y-119172312D01*
X71986594Y-119235919D01*
X72115717Y-119275088D01*
X72216353Y-119285000D01*
X72250000Y-119288314D01*
X72283647Y-119285000D01*
X84516353Y-119285000D01*
X84550000Y-119288314D01*
X84684283Y-119275088D01*
X84813406Y-119235919D01*
X84932407Y-119172312D01*
X85036711Y-119086711D01*
X85048528Y-119072312D01*
X85122312Y-118982407D01*
X85185919Y-118863406D01*
X85225088Y-118734283D01*
X85238314Y-118600000D01*
X85235000Y-118566353D01*
X85235000Y-114200000D01*
X87661686Y-114200000D01*
X87674912Y-114334283D01*
X87714081Y-114463406D01*
X87777688Y-114582407D01*
X87863289Y-114686711D01*
X87967593Y-114772312D01*
X88086594Y-114835919D01*
X88215717Y-114875088D01*
X88316353Y-114885000D01*
X88350000Y-114888314D01*
X88383647Y-114885000D01*
X105116353Y-114885000D01*
X105150000Y-114888314D01*
X105284283Y-114875088D01*
X105413406Y-114835919D01*
X105532407Y-114772312D01*
X105636711Y-114686711D01*
X105722312Y-114582407D01*
X105785919Y-114463406D01*
X105825088Y-114334283D01*
X105835000Y-114233647D01*
X105838314Y-114200000D01*
X107712286Y-114200000D01*
X107725512Y-114334283D01*
X107764681Y-114463406D01*
X107828288Y-114582407D01*
X107913889Y-114686711D01*
X108018193Y-114772312D01*
X108137194Y-114835919D01*
X108266317Y-114875088D01*
X108366953Y-114885000D01*
X108400600Y-114888314D01*
X108434247Y-114885000D01*
X125166953Y-114885000D01*
X125200600Y-114888314D01*
X125334883Y-114875088D01*
X125464006Y-114835919D01*
X125583007Y-114772312D01*
X125687311Y-114686711D01*
X125772912Y-114582407D01*
X125836519Y-114463406D01*
X125875688Y-114334283D01*
X125885600Y-114233647D01*
X125888914Y-114200000D01*
X125885600Y-114166353D01*
X125885600Y-109033638D01*
X125888913Y-108999999D01*
X125885600Y-108966360D01*
X125885600Y-108966353D01*
X125875688Y-108865717D01*
X125836519Y-108736594D01*
X125772912Y-108617593D01*
X125746618Y-108585554D01*
X125708759Y-108539423D01*
X125708754Y-108539418D01*
X125687310Y-108513289D01*
X125661182Y-108491846D01*
X124208758Y-107039422D01*
X124187311Y-107013289D01*
X124083007Y-106927688D01*
X123964006Y-106864081D01*
X123834883Y-106824912D01*
X123734247Y-106815000D01*
X123734239Y-106815000D01*
X123700600Y-106811687D01*
X123666961Y-106815000D01*
X109934238Y-106815000D01*
X109900599Y-106811687D01*
X109866960Y-106815000D01*
X109866953Y-106815000D01*
X109779366Y-106823627D01*
X109766316Y-106824912D01*
X109727147Y-106836794D01*
X109637194Y-106864081D01*
X109518193Y-106927688D01*
X109413889Y-107013289D01*
X109392442Y-107039422D01*
X107940018Y-108491846D01*
X107913889Y-108513290D01*
X107892446Y-108539418D01*
X107892440Y-108539424D01*
X107858125Y-108581238D01*
X107828288Y-108617594D01*
X107764681Y-108736595D01*
X107737394Y-108826548D01*
X107725513Y-108865716D01*
X107725512Y-108865718D01*
X107715600Y-108966354D01*
X107715600Y-108966361D01*
X107712287Y-109000000D01*
X107715600Y-109033639D01*
X107715601Y-114166343D01*
X107712286Y-114200000D01*
X105838314Y-114200000D01*
X105835000Y-114166353D01*
X105835000Y-109033638D01*
X105838313Y-108999999D01*
X105835000Y-108966360D01*
X105835000Y-108966353D01*
X105825088Y-108865717D01*
X105785919Y-108736594D01*
X105722312Y-108617593D01*
X105696018Y-108585554D01*
X105658159Y-108539423D01*
X105658154Y-108539418D01*
X105636710Y-108513289D01*
X105610582Y-108491846D01*
X104158158Y-107039422D01*
X104136711Y-107013289D01*
X104032407Y-106927688D01*
X103913406Y-106864081D01*
X103784283Y-106824912D01*
X103683647Y-106815000D01*
X103683639Y-106815000D01*
X103650000Y-106811687D01*
X103616361Y-106815000D01*
X89883638Y-106815000D01*
X89849999Y-106811687D01*
X89816360Y-106815000D01*
X89816353Y-106815000D01*
X89728766Y-106823627D01*
X89715716Y-106824912D01*
X89676547Y-106836794D01*
X89586594Y-106864081D01*
X89467593Y-106927688D01*
X89363289Y-107013289D01*
X89341842Y-107039422D01*
X87889418Y-108491846D01*
X87863289Y-108513290D01*
X87841846Y-108539418D01*
X87841840Y-108539424D01*
X87807525Y-108581238D01*
X87777688Y-108617594D01*
X87714081Y-108736595D01*
X87686794Y-108826548D01*
X87674913Y-108865716D01*
X87674912Y-108865718D01*
X87665000Y-108966354D01*
X87665000Y-108966361D01*
X87661687Y-109000000D01*
X87665000Y-109033639D01*
X87665001Y-114166343D01*
X87661686Y-114200000D01*
X85235000Y-114200000D01*
X85235000Y-107433647D01*
X85238314Y-107400000D01*
X85225088Y-107265717D01*
X85185919Y-107136594D01*
X85122312Y-107017593D01*
X85036711Y-106913289D01*
X84932407Y-106827688D01*
X84813406Y-106764081D01*
X84684283Y-106724912D01*
X84583647Y-106715000D01*
X84550000Y-106711686D01*
X84516353Y-106715000D01*
X72283647Y-106715000D01*
X72250000Y-106711686D01*
X72216353Y-106715000D01*
X72115717Y-106724912D01*
X71986594Y-106764081D01*
X71867593Y-106827688D01*
X71763289Y-106913289D01*
X71677688Y-107017593D01*
X71614081Y-107136594D01*
X71574912Y-107265717D01*
X71561686Y-107400000D01*
X52685000Y-107400000D01*
X52685000Y-102000000D01*
X134873000Y-102000000D01*
X134873000Y-135000000D01*
X134875440Y-135024776D01*
X134882667Y-135048601D01*
X134894403Y-135070557D01*
X134910197Y-135089803D01*
X134929443Y-135105597D01*
X134951399Y-135117333D01*
X134975224Y-135124560D01*
X135000000Y-135127000D01*
X173000000Y-135127000D01*
X173024776Y-135124560D01*
X173048601Y-135117333D01*
X173070557Y-135105597D01*
X173089803Y-135089803D01*
X173105597Y-135070557D01*
X173117333Y-135048601D01*
X173124560Y-135024776D01*
X173127000Y-135000000D01*
X173127000Y-125434702D01*
X175517211Y-125434702D01*
X175517211Y-126565298D01*
X175694075Y-127681974D01*
X176043448Y-128757234D01*
X176556728Y-129764602D01*
X177221275Y-130679273D01*
X178020727Y-131478725D01*
X178935398Y-132143272D01*
X179942766Y-132656552D01*
X181018026Y-133005925D01*
X182134702Y-133182789D01*
X183265298Y-133182789D01*
X184381974Y-133005925D01*
X185457234Y-132656552D01*
X186464602Y-132143272D01*
X187379273Y-131478725D01*
X188178725Y-130679273D01*
X188843272Y-129764602D01*
X189356552Y-128757234D01*
X189705925Y-127681974D01*
X189882789Y-126565298D01*
X189882789Y-125434702D01*
X189705925Y-124318026D01*
X189356552Y-123242766D01*
X188843272Y-122235398D01*
X188178725Y-121320727D01*
X187379273Y-120521275D01*
X186464602Y-119856728D01*
X185457234Y-119343448D01*
X184381974Y-118994075D01*
X183265298Y-118817211D01*
X182134702Y-118817211D01*
X181018026Y-118994075D01*
X179942766Y-119343448D01*
X178935398Y-119856728D01*
X178020727Y-120521275D01*
X177221275Y-121320727D01*
X176556728Y-122235398D01*
X176043448Y-123242766D01*
X175694075Y-124318026D01*
X175517211Y-125434702D01*
X173127000Y-125434702D01*
X173127000Y-102982800D01*
X179894386Y-102982800D01*
X179897701Y-103016457D01*
X179897700Y-115950153D01*
X179894386Y-115983800D01*
X179907612Y-116118083D01*
X179946781Y-116247206D01*
X180010388Y-116366207D01*
X180095989Y-116470511D01*
X180200293Y-116556112D01*
X180319294Y-116619719D01*
X180448417Y-116658888D01*
X180582700Y-116672114D01*
X180616347Y-116668800D01*
X191616353Y-116668800D01*
X191650000Y-116672114D01*
X191683647Y-116668800D01*
X191784283Y-116658888D01*
X191913406Y-116619719D01*
X192032407Y-116556112D01*
X192136711Y-116470511D01*
X192222312Y-116366207D01*
X192285919Y-116247206D01*
X192325088Y-116118083D01*
X192338314Y-115983800D01*
X192335000Y-115950153D01*
X192335000Y-107050000D01*
X194711928Y-107050000D01*
X194724188Y-107174482D01*
X194760498Y-107294180D01*
X194819463Y-107404494D01*
X194898815Y-107501185D01*
X194995506Y-107580537D01*
X195105820Y-107639502D01*
X195225518Y-107675812D01*
X195350000Y-107688072D01*
X196314250Y-107685000D01*
X196473000Y-107526250D01*
X196473000Y-105927000D01*
X196727000Y-105927000D01*
X196727000Y-107526250D01*
X196885750Y-107685000D01*
X197850000Y-107688072D01*
X197974482Y-107675812D01*
X198094180Y-107639502D01*
X198204494Y-107580537D01*
X198301185Y-107501185D01*
X198380537Y-107404494D01*
X198439502Y-107294180D01*
X198475812Y-107174482D01*
X198488072Y-107050000D01*
X198485000Y-106085750D01*
X198326250Y-105927000D01*
X196727000Y-105927000D01*
X196473000Y-105927000D01*
X194873750Y-105927000D01*
X194715000Y-106085750D01*
X194711928Y-107050000D01*
X192335000Y-107050000D01*
X192335000Y-104550000D01*
X194711928Y-104550000D01*
X194715000Y-105514250D01*
X194873750Y-105673000D01*
X196473000Y-105673000D01*
X196473000Y-104073750D01*
X196727000Y-104073750D01*
X196727000Y-105673000D01*
X198326250Y-105673000D01*
X198485000Y-105514250D01*
X198488072Y-104550000D01*
X198475812Y-104425518D01*
X198439502Y-104305820D01*
X198380537Y-104195506D01*
X198301185Y-104098815D01*
X198204494Y-104019463D01*
X198094180Y-103960498D01*
X197974482Y-103924188D01*
X197850000Y-103911928D01*
X196885750Y-103915000D01*
X196727000Y-104073750D01*
X196473000Y-104073750D01*
X196314250Y-103915000D01*
X195350000Y-103911928D01*
X195225518Y-103924188D01*
X195105820Y-103960498D01*
X194995506Y-104019463D01*
X194898815Y-104098815D01*
X194819463Y-104195506D01*
X194760498Y-104305820D01*
X194724188Y-104425518D01*
X194711928Y-104550000D01*
X192335000Y-104550000D01*
X192335000Y-103016447D01*
X192338314Y-102982800D01*
X192325088Y-102848517D01*
X192285919Y-102719394D01*
X192222312Y-102600393D01*
X192136711Y-102496089D01*
X192032407Y-102410488D01*
X191913406Y-102346881D01*
X191784283Y-102307712D01*
X191683647Y-102297800D01*
X191650000Y-102294486D01*
X191616353Y-102297800D01*
X180616347Y-102297800D01*
X180582700Y-102294486D01*
X180549053Y-102297800D01*
X180448417Y-102307712D01*
X180319294Y-102346881D01*
X180200293Y-102410488D01*
X180095989Y-102496089D01*
X180010388Y-102600393D01*
X179946781Y-102719394D01*
X179907612Y-102848517D01*
X179894386Y-102982800D01*
X173127000Y-102982800D01*
X173127000Y-102000000D01*
X173124560Y-101975224D01*
X173117333Y-101951399D01*
X173105597Y-101929443D01*
X173089803Y-101910197D01*
X173070557Y-101894403D01*
X173048601Y-101882667D01*
X173024776Y-101875440D01*
X173000000Y-101873000D01*
X135000000Y-101873000D01*
X134975224Y-101875440D01*
X134951399Y-101882667D01*
X134929443Y-101894403D01*
X134910197Y-101910197D01*
X134894403Y-101929443D01*
X134882667Y-101951399D01*
X134875440Y-101975224D01*
X134873000Y-102000000D01*
X52685000Y-102000000D01*
X52685000Y-100885000D01*
X199615000Y-100885000D01*
X199615001Y-137865000D01*
%TA.AperFunction,Conductor*%
D17*
G36*
X199615001Y-137865000D02*
G01*
X125835600Y-137865000D01*
X125835600Y-121334947D01*
X125838914Y-121301300D01*
X125825688Y-121167017D01*
X125786519Y-121037894D01*
X125722912Y-120918893D01*
X125637311Y-120814589D01*
X125533007Y-120728988D01*
X125414006Y-120665381D01*
X125284883Y-120626212D01*
X125184247Y-120616300D01*
X125150600Y-120612986D01*
X125116953Y-120616300D01*
X71483647Y-120616300D01*
X71450000Y-120612986D01*
X71416353Y-120616300D01*
X71315717Y-120626212D01*
X71186594Y-120665381D01*
X71067593Y-120728988D01*
X70963289Y-120814589D01*
X70877688Y-120918893D01*
X70814081Y-121037894D01*
X70774912Y-121167017D01*
X70761686Y-121301300D01*
X70765000Y-121334947D01*
X70765001Y-137865000D01*
X52685000Y-137865000D01*
X52685000Y-116000000D01*
X59961928Y-116000000D01*
X59961928Y-117200000D01*
X59974188Y-117324482D01*
X60010498Y-117444180D01*
X60069463Y-117554494D01*
X60148815Y-117651185D01*
X60245506Y-117730537D01*
X60295947Y-117757499D01*
X60240713Y-117812733D01*
X60105557Y-118015008D01*
X60012460Y-118239764D01*
X59965000Y-118478363D01*
X59965000Y-118721637D01*
X60012460Y-118960236D01*
X60105557Y-119184992D01*
X60240713Y-119387267D01*
X60412733Y-119559287D01*
X60473664Y-119600000D01*
X60412733Y-119640713D01*
X60240713Y-119812733D01*
X60105557Y-120015008D01*
X60012460Y-120239764D01*
X59965000Y-120478363D01*
X59965000Y-120721637D01*
X60012460Y-120960236D01*
X60105557Y-121184992D01*
X60240713Y-121387267D01*
X60412733Y-121559287D01*
X60615008Y-121694443D01*
X60839764Y-121787540D01*
X61078363Y-121835000D01*
X61321637Y-121835000D01*
X61560236Y-121787540D01*
X61784992Y-121694443D01*
X61987267Y-121559287D01*
X62159287Y-121387267D01*
X62294443Y-121184992D01*
X62387540Y-120960236D01*
X62435000Y-120721637D01*
X62435000Y-120478363D01*
X62387540Y-120239764D01*
X62294443Y-120015008D01*
X62159287Y-119812733D01*
X61987267Y-119640713D01*
X61926336Y-119600000D01*
X61987267Y-119559287D01*
X62159287Y-119387267D01*
X62294443Y-119184992D01*
X62387540Y-118960236D01*
X62435000Y-118721637D01*
X62435000Y-118478363D01*
X62387540Y-118239764D01*
X62294443Y-118015008D01*
X62159287Y-117812733D01*
X62104053Y-117757499D01*
X62154494Y-117730537D01*
X62251185Y-117651185D01*
X62330537Y-117554494D01*
X62389502Y-117444180D01*
X62425812Y-117324482D01*
X62438072Y-117200000D01*
X62438072Y-116000000D01*
X62425812Y-115875518D01*
X62389502Y-115755820D01*
X62330537Y-115645506D01*
X62251185Y-115548815D01*
X62154494Y-115469463D01*
X62044180Y-115410498D01*
X61924482Y-115374188D01*
X61800000Y-115361928D01*
X60600000Y-115361928D01*
X60475518Y-115374188D01*
X60355820Y-115410498D01*
X60245506Y-115469463D01*
X60148815Y-115548815D01*
X60069463Y-115645506D01*
X60010498Y-115755820D01*
X59974188Y-115875518D01*
X59961928Y-116000000D01*
X52685000Y-116000000D01*
X52685000Y-107400000D01*
X71561686Y-107400000D01*
X71565000Y-107433647D01*
X71565000Y-107466354D01*
X71565001Y-118466344D01*
X71565000Y-118466354D01*
X71565000Y-118566353D01*
X71561686Y-118600000D01*
X71574912Y-118734283D01*
X71614081Y-118863406D01*
X71677688Y-118982407D01*
X71763289Y-119086711D01*
X71867593Y-119172312D01*
X71986594Y-119235919D01*
X72115717Y-119275088D01*
X72216353Y-119285000D01*
X72250000Y-119288314D01*
X72283647Y-119285000D01*
X84516353Y-119285000D01*
X84550000Y-119288314D01*
X84684283Y-119275088D01*
X84813406Y-119235919D01*
X84932407Y-119172312D01*
X85036711Y-119086711D01*
X85048528Y-119072312D01*
X85122312Y-118982407D01*
X85185919Y-118863406D01*
X85225088Y-118734283D01*
X85238314Y-118600000D01*
X85235000Y-118566353D01*
X85235000Y-114200000D01*
X87661686Y-114200000D01*
X87674912Y-114334283D01*
X87714081Y-114463406D01*
X87777688Y-114582407D01*
X87863289Y-114686711D01*
X87967593Y-114772312D01*
X88086594Y-114835919D01*
X88215717Y-114875088D01*
X88316353Y-114885000D01*
X88350000Y-114888314D01*
X88383647Y-114885000D01*
X105116353Y-114885000D01*
X105150000Y-114888314D01*
X105284283Y-114875088D01*
X105413406Y-114835919D01*
X105532407Y-114772312D01*
X105636711Y-114686711D01*
X105722312Y-114582407D01*
X105785919Y-114463406D01*
X105825088Y-114334283D01*
X105835000Y-114233647D01*
X105838314Y-114200000D01*
X107712286Y-114200000D01*
X107725512Y-114334283D01*
X107764681Y-114463406D01*
X107828288Y-114582407D01*
X107913889Y-114686711D01*
X108018193Y-114772312D01*
X108137194Y-114835919D01*
X108266317Y-114875088D01*
X108366953Y-114885000D01*
X108400600Y-114888314D01*
X108434247Y-114885000D01*
X125166953Y-114885000D01*
X125200600Y-114888314D01*
X125334883Y-114875088D01*
X125464006Y-114835919D01*
X125583007Y-114772312D01*
X125687311Y-114686711D01*
X125772912Y-114582407D01*
X125836519Y-114463406D01*
X125875688Y-114334283D01*
X125885600Y-114233647D01*
X125888914Y-114200000D01*
X125885600Y-114166353D01*
X125885600Y-109033638D01*
X125888913Y-108999999D01*
X125885600Y-108966360D01*
X125885600Y-108966353D01*
X125875688Y-108865717D01*
X125836519Y-108736594D01*
X125772912Y-108617593D01*
X125746618Y-108585554D01*
X125708759Y-108539423D01*
X125708754Y-108539418D01*
X125687310Y-108513289D01*
X125661182Y-108491846D01*
X124208758Y-107039422D01*
X124187311Y-107013289D01*
X124083007Y-106927688D01*
X123964006Y-106864081D01*
X123834883Y-106824912D01*
X123734247Y-106815000D01*
X123734239Y-106815000D01*
X123700600Y-106811687D01*
X123666961Y-106815000D01*
X109934238Y-106815000D01*
X109900599Y-106811687D01*
X109866960Y-106815000D01*
X109866953Y-106815000D01*
X109779366Y-106823627D01*
X109766316Y-106824912D01*
X109727147Y-106836794D01*
X109637194Y-106864081D01*
X109518193Y-106927688D01*
X109413889Y-107013289D01*
X109392442Y-107039422D01*
X107940018Y-108491846D01*
X107913889Y-108513290D01*
X107892446Y-108539418D01*
X107892440Y-108539424D01*
X107858125Y-108581238D01*
X107828288Y-108617594D01*
X107764681Y-108736595D01*
X107737394Y-108826548D01*
X107725513Y-108865716D01*
X107725512Y-108865718D01*
X107715600Y-108966354D01*
X107715600Y-108966361D01*
X107712287Y-109000000D01*
X107715600Y-109033639D01*
X107715601Y-114166343D01*
X107712286Y-114200000D01*
X105838314Y-114200000D01*
X105835000Y-114166353D01*
X105835000Y-109033638D01*
X105838313Y-108999999D01*
X105835000Y-108966360D01*
X105835000Y-108966353D01*
X105825088Y-108865717D01*
X105785919Y-108736594D01*
X105722312Y-108617593D01*
X105696018Y-108585554D01*
X105658159Y-108539423D01*
X105658154Y-108539418D01*
X105636710Y-108513289D01*
X105610582Y-108491846D01*
X104158158Y-107039422D01*
X104136711Y-107013289D01*
X104032407Y-106927688D01*
X103913406Y-106864081D01*
X103784283Y-106824912D01*
X103683647Y-106815000D01*
X103683639Y-106815000D01*
X103650000Y-106811687D01*
X103616361Y-106815000D01*
X89883638Y-106815000D01*
X89849999Y-106811687D01*
X89816360Y-106815000D01*
X89816353Y-106815000D01*
X89728766Y-106823627D01*
X89715716Y-106824912D01*
X89676547Y-106836794D01*
X89586594Y-106864081D01*
X89467593Y-106927688D01*
X89363289Y-107013289D01*
X89341842Y-107039422D01*
X87889418Y-108491846D01*
X87863289Y-108513290D01*
X87841846Y-108539418D01*
X87841840Y-108539424D01*
X87807525Y-108581238D01*
X87777688Y-108617594D01*
X87714081Y-108736595D01*
X87686794Y-108826548D01*
X87674913Y-108865716D01*
X87674912Y-108865718D01*
X87665000Y-108966354D01*
X87665000Y-108966361D01*
X87661687Y-109000000D01*
X87665000Y-109033639D01*
X87665001Y-114166343D01*
X87661686Y-114200000D01*
X85235000Y-114200000D01*
X85235000Y-107433647D01*
X85238314Y-107400000D01*
X85225088Y-107265717D01*
X85185919Y-107136594D01*
X85122312Y-107017593D01*
X85036711Y-106913289D01*
X84932407Y-106827688D01*
X84813406Y-106764081D01*
X84684283Y-106724912D01*
X84583647Y-106715000D01*
X84550000Y-106711686D01*
X84516353Y-106715000D01*
X72283647Y-106715000D01*
X72250000Y-106711686D01*
X72216353Y-106715000D01*
X72115717Y-106724912D01*
X71986594Y-106764081D01*
X71867593Y-106827688D01*
X71763289Y-106913289D01*
X71677688Y-107017593D01*
X71614081Y-107136594D01*
X71574912Y-107265717D01*
X71561686Y-107400000D01*
X52685000Y-107400000D01*
X52685000Y-102000000D01*
X134873000Y-102000000D01*
X134873000Y-135000000D01*
X134875440Y-135024776D01*
X134882667Y-135048601D01*
X134894403Y-135070557D01*
X134910197Y-135089803D01*
X134929443Y-135105597D01*
X134951399Y-135117333D01*
X134975224Y-135124560D01*
X135000000Y-135127000D01*
X173000000Y-135127000D01*
X173024776Y-135124560D01*
X173048601Y-135117333D01*
X173070557Y-135105597D01*
X173089803Y-135089803D01*
X173105597Y-135070557D01*
X173117333Y-135048601D01*
X173124560Y-135024776D01*
X173127000Y-135000000D01*
X173127000Y-125434702D01*
X175517211Y-125434702D01*
X175517211Y-126565298D01*
X175694075Y-127681974D01*
X176043448Y-128757234D01*
X176556728Y-129764602D01*
X177221275Y-130679273D01*
X178020727Y-131478725D01*
X178935398Y-132143272D01*
X179942766Y-132656552D01*
X181018026Y-133005925D01*
X182134702Y-133182789D01*
X183265298Y-133182789D01*
X184381974Y-133005925D01*
X185457234Y-132656552D01*
X186464602Y-132143272D01*
X187379273Y-131478725D01*
X188178725Y-130679273D01*
X188843272Y-129764602D01*
X189356552Y-128757234D01*
X189705925Y-127681974D01*
X189882789Y-126565298D01*
X189882789Y-125434702D01*
X189705925Y-124318026D01*
X189356552Y-123242766D01*
X188843272Y-122235398D01*
X188178725Y-121320727D01*
X187379273Y-120521275D01*
X186464602Y-119856728D01*
X185457234Y-119343448D01*
X184381974Y-118994075D01*
X183265298Y-118817211D01*
X182134702Y-118817211D01*
X181018026Y-118994075D01*
X179942766Y-119343448D01*
X178935398Y-119856728D01*
X178020727Y-120521275D01*
X177221275Y-121320727D01*
X176556728Y-122235398D01*
X176043448Y-123242766D01*
X175694075Y-124318026D01*
X175517211Y-125434702D01*
X173127000Y-125434702D01*
X173127000Y-102982800D01*
X179894386Y-102982800D01*
X179897701Y-103016457D01*
X179897700Y-115950153D01*
X179894386Y-115983800D01*
X179907612Y-116118083D01*
X179946781Y-116247206D01*
X180010388Y-116366207D01*
X180095989Y-116470511D01*
X180200293Y-116556112D01*
X180319294Y-116619719D01*
X180448417Y-116658888D01*
X180582700Y-116672114D01*
X180616347Y-116668800D01*
X191616353Y-116668800D01*
X191650000Y-116672114D01*
X191683647Y-116668800D01*
X191784283Y-116658888D01*
X191913406Y-116619719D01*
X192032407Y-116556112D01*
X192136711Y-116470511D01*
X192222312Y-116366207D01*
X192285919Y-116247206D01*
X192325088Y-116118083D01*
X192338314Y-115983800D01*
X192335000Y-115950153D01*
X192335000Y-107050000D01*
X194711928Y-107050000D01*
X194724188Y-107174482D01*
X194760498Y-107294180D01*
X194819463Y-107404494D01*
X194898815Y-107501185D01*
X194995506Y-107580537D01*
X195105820Y-107639502D01*
X195225518Y-107675812D01*
X195350000Y-107688072D01*
X196314250Y-107685000D01*
X196473000Y-107526250D01*
X196473000Y-105927000D01*
X196727000Y-105927000D01*
X196727000Y-107526250D01*
X196885750Y-107685000D01*
X197850000Y-107688072D01*
X197974482Y-107675812D01*
X198094180Y-107639502D01*
X198204494Y-107580537D01*
X198301185Y-107501185D01*
X198380537Y-107404494D01*
X198439502Y-107294180D01*
X198475812Y-107174482D01*
X198488072Y-107050000D01*
X198485000Y-106085750D01*
X198326250Y-105927000D01*
X196727000Y-105927000D01*
X196473000Y-105927000D01*
X194873750Y-105927000D01*
X194715000Y-106085750D01*
X194711928Y-107050000D01*
X192335000Y-107050000D01*
X192335000Y-104550000D01*
X194711928Y-104550000D01*
X194715000Y-105514250D01*
X194873750Y-105673000D01*
X196473000Y-105673000D01*
X196473000Y-104073750D01*
X196727000Y-104073750D01*
X196727000Y-105673000D01*
X198326250Y-105673000D01*
X198485000Y-105514250D01*
X198488072Y-104550000D01*
X198475812Y-104425518D01*
X198439502Y-104305820D01*
X198380537Y-104195506D01*
X198301185Y-104098815D01*
X198204494Y-104019463D01*
X198094180Y-103960498D01*
X197974482Y-103924188D01*
X197850000Y-103911928D01*
X196885750Y-103915000D01*
X196727000Y-104073750D01*
X196473000Y-104073750D01*
X196314250Y-103915000D01*
X195350000Y-103911928D01*
X195225518Y-103924188D01*
X195105820Y-103960498D01*
X194995506Y-104019463D01*
X194898815Y-104098815D01*
X194819463Y-104195506D01*
X194760498Y-104305820D01*
X194724188Y-104425518D01*
X194711928Y-104550000D01*
X192335000Y-104550000D01*
X192335000Y-103016447D01*
X192338314Y-102982800D01*
X192325088Y-102848517D01*
X192285919Y-102719394D01*
X192222312Y-102600393D01*
X192136711Y-102496089D01*
X192032407Y-102410488D01*
X191913406Y-102346881D01*
X191784283Y-102307712D01*
X191683647Y-102297800D01*
X191650000Y-102294486D01*
X191616353Y-102297800D01*
X180616347Y-102297800D01*
X180582700Y-102294486D01*
X180549053Y-102297800D01*
X180448417Y-102307712D01*
X180319294Y-102346881D01*
X180200293Y-102410488D01*
X180095989Y-102496089D01*
X180010388Y-102600393D01*
X179946781Y-102719394D01*
X179907612Y-102848517D01*
X179894386Y-102982800D01*
X173127000Y-102982800D01*
X173127000Y-102000000D01*
X173124560Y-101975224D01*
X173117333Y-101951399D01*
X173105597Y-101929443D01*
X173089803Y-101910197D01*
X173070557Y-101894403D01*
X173048601Y-101882667D01*
X173024776Y-101875440D01*
X173000000Y-101873000D01*
X135000000Y-101873000D01*
X134975224Y-101875440D01*
X134951399Y-101882667D01*
X134929443Y-101894403D01*
X134910197Y-101910197D01*
X134894403Y-101929443D01*
X134882667Y-101951399D01*
X134875440Y-101975224D01*
X134873000Y-102000000D01*
X52685000Y-102000000D01*
X52685000Y-100885000D01*
X199615000Y-100885000D01*
X199615001Y-137865000D01*
G37*
%TD.AperFunction*%
%TD*%
M02*
