%TF.GenerationSoftware,KiCad,Pcbnew,(5.1.12)-1*%
%TF.CreationDate,2022-01-10T16:23:42+03:00*%
%TF.ProjectId,ADAU1701_backpanel,41444155-3137-4303-915f-6261636b7061,rev?*%
%TF.SameCoordinates,Original*%
%TF.FileFunction,Profile,NP*%
%FSLAX46Y46*%
G04 Gerber Fmt 4.6, Leading zero omitted, Abs format (unit mm)*
G04 Created by KiCad (PCBNEW (5.1.12)-1) date 2022-01-10 16:23:42*
%MOMM*%
%LPD*%
G01*
G04 APERTURE LIST*
%TA.AperFunction,Profile*%
%ADD10C,0.100000*%
%TD*%
G04 APERTURE END LIST*
D10*
X189200000Y-126000000D02*
G75*
G03*
X189200000Y-126000000I-6500000J0D01*
G01*
X125150600Y-138550000D02*
X127700600Y-138550000D01*
X71450000Y-138550000D02*
X52000000Y-138550000D01*
X200300000Y-138550000D02*
X127700600Y-138550000D01*
X200300000Y-100200000D02*
X52000000Y-100200000D01*
X52000000Y-100200000D02*
X52000000Y-138550000D01*
X200300000Y-100200000D02*
X200300000Y-138550000D01*
X108400600Y-109000000D02*
X108400600Y-114200000D01*
X125200600Y-109000000D02*
X125200600Y-114200000D01*
X109900600Y-107500000D02*
X123700600Y-107500000D01*
X123700600Y-107500000D02*
X125200600Y-109000000D01*
X109900600Y-107500000D02*
X108400600Y-109000000D01*
X88350000Y-109000000D02*
X88350000Y-114200000D01*
X105150000Y-109000000D02*
X105150000Y-114200000D01*
X89850000Y-107500000D02*
X103650000Y-107500000D01*
X103650000Y-107500000D02*
X105150000Y-109000000D01*
X89850000Y-107500000D02*
X88350000Y-109000000D01*
X84550000Y-118600000D02*
X84450600Y-118600000D01*
X84550000Y-118500000D02*
X84550000Y-118600000D01*
X72250000Y-118600000D02*
X72401100Y-118600000D01*
X72250000Y-118500000D02*
X72250000Y-118600000D01*
X72250000Y-107400000D02*
X72250000Y-107500000D01*
X72400500Y-107400000D02*
X72250000Y-107400000D01*
X84550000Y-107400000D02*
X84550000Y-107500000D01*
X84450000Y-107400000D02*
X84550000Y-107400000D01*
X180582700Y-115983800D02*
X191650000Y-115983800D01*
X191650000Y-115983800D02*
X191650000Y-102982800D01*
X180582700Y-102982800D02*
X191650000Y-102982800D01*
X180582700Y-115983800D02*
X180582700Y-102982800D01*
X72400500Y-107400000D02*
X84450000Y-107400000D01*
X84550000Y-107500000D02*
X84550000Y-118500000D01*
X84450600Y-118600000D02*
X72401100Y-118600000D01*
X125150600Y-121301300D02*
X125150600Y-138550000D01*
X123450600Y-121301300D02*
X72401100Y-121301300D01*
X71450000Y-121301300D02*
X71450000Y-138550000D01*
X72250000Y-107500000D02*
X72250000Y-118500000D01*
X105150000Y-114200000D02*
X88350000Y-114200000D01*
X125200600Y-114200000D02*
X108400600Y-114200000D01*
X123450600Y-121301300D02*
X125150600Y-121301300D01*
X72401100Y-121301300D02*
X71450000Y-121301300D01*
M02*
