G04 #@! TF.GenerationSoftware,KiCad,Pcbnew,(5.1.5)-3*
G04 #@! TF.CreationDate,2022-02-02T16:58:46+03:00*
G04 #@! TF.ProjectId,Streamer_ADAU1701_MK2,53747265-616d-4657-925f-414441553137,rev?*
G04 #@! TF.SameCoordinates,Original*
G04 #@! TF.FileFunction,Soldermask,Bot*
G04 #@! TF.FilePolarity,Negative*
%FSLAX46Y46*%
G04 Gerber Fmt 4.6, Leading zero omitted, Abs format (unit mm)*
G04 Created by KiCad (PCBNEW (5.1.5)-3) date 2022-02-02 16:58:46*
%MOMM*%
%LPD*%
G04 APERTURE LIST*
%ADD10C,2.000000*%
%ADD11R,2.000000X2.000000*%
%ADD12C,1.800000*%
%ADD13O,1.800000X1.800000*%
%ADD14C,4.000000*%
%ADD15O,2.100000X2.000000*%
%ADD16O,6.000000X8.000000*%
%ADD17C,6.800000*%
%ADD18C,6.400000*%
%ADD19C,2.400000*%
%ADD20C,3.000000*%
%ADD21O,2.200000X3.700000*%
%ADD22O,3.700000X1.900000*%
%ADD23C,2.100000*%
%ADD24R,2.400000X2.400000*%
%ADD25R,2.800000X2.800000*%
%ADD26C,2.800000*%
%ADD27O,2.000000X2.000000*%
%ADD28R,3.400000X2.400000*%
%ADD29O,3.400000X2.400000*%
%ADD30O,2.400000X3.400000*%
%ADD31C,3.200000*%
G04 APERTURE END LIST*
D10*
X143450000Y-109800000D03*
D11*
X143450000Y-112300000D03*
D10*
X159527200Y-143670800D03*
X159527200Y-146210800D03*
X162067200Y-143670800D03*
X162067200Y-146210800D03*
X164607200Y-143670800D03*
X164607200Y-146210800D03*
X167147200Y-143670800D03*
X167147200Y-146210800D03*
X169687200Y-143670800D03*
X169687200Y-146210800D03*
X172227200Y-143670800D03*
X172227200Y-146210800D03*
X174767200Y-143670800D03*
X174767200Y-146210800D03*
X177307200Y-143670800D03*
X177307200Y-146210800D03*
X179847200Y-143670800D03*
X179847200Y-146210800D03*
X182387200Y-143670800D03*
X182387200Y-146210800D03*
X184927200Y-143670800D03*
X184927200Y-146210800D03*
X187467200Y-143670800D03*
X187467200Y-146210800D03*
X190007200Y-143670800D03*
X190007200Y-146210800D03*
X192547200Y-143670800D03*
X192547200Y-146210800D03*
X195087200Y-143670800D03*
X195087200Y-146210800D03*
X197627200Y-143670800D03*
X197627200Y-146210800D03*
X200167200Y-143670800D03*
X200167200Y-146210800D03*
X202707200Y-143670800D03*
X202707200Y-146210800D03*
X205247200Y-143670800D03*
X205247200Y-146210800D03*
X207787200Y-143670800D03*
X207787200Y-146210800D03*
X117190000Y-159100000D03*
D11*
X117190000Y-161600000D03*
D10*
X219700000Y-162000000D03*
X217160000Y-162000000D03*
X214620000Y-162000000D03*
X212080000Y-162000000D03*
X82984000Y-106900000D03*
X82984000Y-104400000D03*
X208900000Y-105700000D03*
X208900000Y-103700000D03*
X77396000Y-106900000D03*
X77396000Y-104400000D03*
D12*
X86900000Y-106600000D03*
D13*
X86900000Y-101520000D03*
D10*
X99664000Y-126200000D03*
X99664000Y-128740000D03*
X99664000Y-133820000D03*
X99664000Y-131280000D03*
D14*
X138348200Y-93469300D03*
X130728200Y-99469300D03*
X144169000Y-77673300D03*
X138169000Y-70053300D03*
X138169000Y-52794000D03*
X144169000Y-60414000D03*
X138348200Y-30731300D03*
X130728200Y-36731300D03*
D10*
X67550500Y-66548000D03*
X70090500Y-66548000D03*
X67550500Y-64008000D03*
X70090500Y-64008000D03*
X67550500Y-61468000D03*
X70090500Y-61468000D03*
X67550500Y-58928000D03*
X70090500Y-58928000D03*
X67550500Y-97028000D03*
X70090500Y-97028000D03*
X67550500Y-94488000D03*
X70090500Y-94488000D03*
X67550500Y-91948000D03*
X70090500Y-91948000D03*
X67550500Y-89408000D03*
X70090500Y-89408000D03*
X67500500Y-127040800D03*
X70040500Y-127040800D03*
X67500500Y-129580800D03*
X70040500Y-129580800D03*
X133700000Y-110452000D03*
X133700000Y-112992000D03*
X131160000Y-110452000D03*
X131160000Y-112992000D03*
X126842000Y-152362000D03*
X126842000Y-154902000D03*
X124302000Y-152362000D03*
X124302000Y-154902000D03*
D15*
X121762000Y-152362000D03*
D10*
X121762000Y-154902000D03*
X77230000Y-149673000D03*
X77230000Y-147133000D03*
X77230000Y-144593000D03*
X77230000Y-142053000D03*
D16*
X101700000Y-33650000D03*
X121700000Y-33650000D03*
X101650000Y-96700000D03*
X121650000Y-96700000D03*
D17*
X211507200Y-153430800D03*
X92207200Y-153430800D03*
X92207200Y-32430800D03*
X151907200Y-32430800D03*
X211507200Y-32430800D03*
D18*
X212657200Y-95940800D03*
X154657200Y-95940800D03*
X212657200Y-144940800D03*
X154657200Y-144940800D03*
D10*
X94584000Y-121120000D03*
X97084000Y-121120000D03*
X94584000Y-115532000D03*
X97084000Y-115532000D03*
D19*
X219100000Y-24150000D03*
X219100000Y-27150000D03*
D20*
X167000000Y-35800000D03*
X167000000Y-40800000D03*
D21*
X234057200Y-36330800D03*
D22*
X228357200Y-33830800D03*
D23*
X231757200Y-33830800D03*
X231707200Y-38830800D03*
D22*
X228257200Y-38830800D03*
X224657200Y-39130800D03*
X224757200Y-33530800D03*
D24*
X85000000Y-27700000D03*
D19*
X85000000Y-22700000D03*
D11*
X219900000Y-151400000D03*
D10*
X219900000Y-153900000D03*
X93024000Y-73624000D03*
X91024000Y-73624000D03*
X93184000Y-79272000D03*
X91184000Y-79272000D03*
X91184000Y-84860000D03*
X93184000Y-84860000D03*
X92992000Y-68036000D03*
X90992000Y-68036000D03*
D25*
X89500000Y-42300000D03*
D26*
X82000000Y-42300000D03*
D10*
X144571200Y-43431300D03*
X144571200Y-38431300D03*
X155393200Y-62800000D03*
X160393200Y-62800000D03*
X155393200Y-67400000D03*
X160393200Y-67400000D03*
X144571200Y-92151300D03*
X144571200Y-87151300D03*
D11*
X196832200Y-25405800D03*
D27*
X204452200Y-27945800D03*
X196832200Y-27945800D03*
X204452200Y-25405800D03*
D23*
X89250000Y-146774000D03*
X91790000Y-146774000D03*
X83916000Y-146774000D03*
X81376000Y-146774000D03*
D20*
X194900000Y-50500000D03*
X194900000Y-57500000D03*
X194900000Y-64100000D03*
X194900000Y-71100000D03*
D28*
X161957200Y-30230800D03*
D29*
X161957200Y-22730800D03*
D30*
X182257200Y-30230800D03*
X187297200Y-22730800D03*
X177217200Y-22730800D03*
X177217200Y-30230800D03*
X182257200Y-22730800D03*
X187297200Y-30230800D03*
D31*
X194632000Y-80330800D03*
X177000000Y-97900000D03*
D23*
X202483200Y-161455200D03*
X205023200Y-161455200D03*
X208706200Y-119519800D03*
X208706200Y-122059800D03*
D24*
X157090000Y-37930000D03*
D19*
X157090000Y-42930000D03*
D24*
X219044000Y-40600000D03*
D19*
X214044000Y-40600000D03*
D13*
X95300000Y-101520000D03*
D12*
X95300000Y-106600000D03*
X82900000Y-93000000D03*
D13*
X82900000Y-87920000D03*
X74600000Y-87920000D03*
D12*
X74600000Y-93000000D03*
D19*
X191500000Y-157150000D03*
D24*
X186500000Y-157150000D03*
X154900000Y-87200000D03*
D19*
X149900000Y-87200000D03*
D10*
X80200000Y-67100000D03*
X82200000Y-67100000D03*
D19*
X87400000Y-55500000D03*
D24*
X87400000Y-60500000D03*
D10*
X82600000Y-113500000D03*
X77600000Y-113500000D03*
X110300000Y-116000000D03*
X110300000Y-121000000D03*
X77700000Y-96500000D03*
X82700000Y-96500000D03*
X88150000Y-110600000D03*
X93150000Y-110600000D03*
M02*
