M48
; DRILL file {KiCad (5.1.5)-3} date 02.02.2022 16:58:50
; FORMAT={-:-/ absolute / metric / decimal}
; #@! TF.CreationDate,2022-02-02T16:58:50+03:00
; #@! TF.GenerationSoftware,Kicad,Pcbnew,(5.1.5)-3
; #@! TF.FileFunction,Plated,1,4,PTH
FMAT,2
METRIC
T1C0.300
T2C0.400
T3C0.500
T4C0.600
T5C0.700
T6C0.800
T7C0.900
T8C1.000
T9C1.200
T10C1.300
T11C1.600
T12C1.800
T13C3.200
T14C3.500
%
G90
G05
T1
X67.056Y-81.216
X67.2Y-86.2
X67.2Y-132.4
X67.2Y-137.9
X67.2Y-142.9
X67.2Y-147.4
X67.2Y-151.9
X67.2Y-155.9
X67.373Y-100.774
X67.437Y-103.188
X67.437Y-105.918
X67.7Y-30.4
X67.7Y-34.985
X67.7Y-39.571
X67.7Y-44.156
X67.7Y-48.741
X67.7Y-53.327
X67.7Y-57.087
X67.7Y-122.4
X68.326Y-71.183
X68.516Y-76.136
X68.9Y-88.5
X69.75Y-80.85
X69.9Y-100.9
X70.802Y-73.533
X70.9Y-111.6
X71.12Y-60.198
X71.4Y-65.3
X71.4Y-67.9
X71.85Y-81.55
X72.2Y-113.8
X72.2Y-117.15
X72.95Y-115.0
X72.95Y-118.55
X73.0Y-122.2
X73.2Y-155.9
X73.469Y-145.859
X74.0Y-78.6
X74.8Y-75.3
X74.9Y-104.6
X75.0Y-124.0
X75.25Y-126.85
X75.6Y-98.3
X75.8Y-112.4
X76.3Y-91.9
X76.4Y-62.6
X76.4Y-64.9
X76.4Y-66.4
X76.95Y-118.25
X77.15Y-129.9
X77.55Y-119.35
X77.55Y-125.55
X77.6Y-132.264
X78.0Y-81.8
X78.1Y-83.3
X78.35Y-134.85
X78.5Y-78.1
X79.3Y-125.0
X80.1Y-126.05
X80.2Y-165.9
X80.729Y-120.471
X80.9Y-91.9
X81.1Y-124.6
X81.6Y-74.7
X81.6Y-78.9
X81.9Y-139.2
X82.0Y-83.6
X83.0Y-117.3
X83.1Y-98.2
X83.12Y-132.72
X83.15Y-118.8
X83.5Y-139.7
X83.9Y-128.45
X84.35Y-138.9
X84.79Y-132.74
X84.8Y-129.15
X84.9Y-106.7
X85.1Y-140.35
X85.3Y-143.8
X85.8Y-83.6
X85.8Y-86.5
X85.8Y-92.0
X85.85Y-128.6
X86.0Y-117.2
X86.4Y-111.7
X86.6Y-121.6
X86.7Y-145.25
X87.35Y-96.6
X87.4Y-80.8
X87.4Y-82.4
X87.7Y-134.0
X87.8Y-94.6
X87.9Y-90.6
X88.2Y-114.7
X88.35Y-137.2
X88.5Y-107.03
X88.6Y-74.7
X88.6Y-79.0
X88.8Y-84.5
X89.5Y-134.0
X89.664Y-131.464
X89.75Y-129.05
X90.0Y-93.3
X90.1Y-137.2
X90.2Y-142.7
X90.7Y-96.0
X90.7Y-117.8
X90.8Y-97.5
X91.7Y-93.3
X91.8Y-129.0
X92.1Y-142.7
X92.63Y-91.61
X92.9Y-120.01
X93.37Y-86.7
X93.5Y-107.03
X93.6Y-100.4
X94.0Y-20.0
X94.19Y-94.08
X94.35Y-139.95
X94.504Y-144.996
X95.448Y-50.648
X95.45Y-114.0
X95.5Y-147.3
X95.62Y-79.03
X96.05Y-109.44
X96.2Y-134.3
X96.3Y-130.3
X96.3Y-132.3
X96.4Y-110.6
X96.7Y-140.7
X97.1Y-127.5
X97.4Y-62.9
X97.4Y-65.25
X97.4Y-67.6
X97.4Y-69.95
X97.4Y-72.3
X97.5Y-53.95
X98.0Y-20.0
X98.0Y-142.9
X98.63Y-122.2
X98.725Y-114.0
X98.79Y-90.35
X99.55Y-153.75
X99.6Y-155.65
X101.7Y-64.2
X101.7Y-66.2
X101.8Y-53.95
X102.0Y-20.0
X102.0Y-114.0
X102.0Y-116.6
X102.2Y-165.9
X102.458Y-82.131
X102.616Y-140.843
X102.806Y-153.924
X102.85Y-78.65
X102.85Y-145.1
X102.85Y-147.5
X102.9Y-156.25
X102.95Y-157.85
X103.05Y-75.25
X103.2Y-72.1
X103.3Y-129.3
X103.4Y-127.2
X104.377Y-79.986
X104.6Y-162.9
X105.0Y-63.8
X105.03Y-54.31
X105.1Y-149.0
X105.2Y-147.3
X105.2Y-157.1
X105.2Y-159.3
X105.283Y-152.781
X105.785Y-57.785
X106.0Y-61.9
X106.0Y-63.8
X106.268Y-152.0
X106.7Y-70.9
X106.87Y-145.923
X107.2Y-141.9
X107.284Y-79.972
X107.5Y-136.4
X107.5Y-138.2
X107.6Y-130.6
X107.6Y-134.4
X108.0Y-125.0
X108.4Y-129.4
X108.427Y-73.368
X108.427Y-76.162
X108.6Y-84.036
X108.6Y-89.0
X108.7Y-151.32
X109.2Y-129.4
X109.2Y-131.4
X110.1Y-82.6
X110.109Y-144.97
X110.229Y-146.671
X110.4Y-159.9
X110.553Y-151.765
X110.7Y-163.0
X111.569Y-90.48
X111.584Y-82.367
X112.0Y-63.182
X112.4Y-148.3
X112.8Y-159.0
X112.975Y-151.425
X113.1Y-131.3
X113.3Y-72.8
X113.4Y-129.2
X113.4Y-154.9
X113.5Y-58.1
X113.5Y-135.4
X113.6Y-70.8
X113.6Y-166.0
X113.85Y-138.5
X114.05Y-122.3
X114.1Y-125.1
X114.2Y-58.1
X114.269Y-131.28
X114.7Y-129.2
X114.8Y-151.0
X115.2Y-162.8
X115.3Y-159.0
X115.65Y-136.8
X116.0Y-77.0
X116.0Y-85.0
X116.3Y-132.45
X116.6Y-147.9
X116.7Y-154.9
X116.8Y-22.7
X116.809Y-138.011
X117.1Y-134.05
X117.25Y-125.25
X117.3Y-52.4
X117.348Y-57.912
X117.399Y-68.428
X117.4Y-70.3
X118.4Y-144.0
X118.46Y-121.628
X119.0Y-117.0
X119.0Y-134.0
X119.1Y-159.0
X119.222Y-125.184
X119.3Y-163.3
X119.716Y-146.153
X120.492Y-121.755
X120.7Y-131.5
X120.9Y-144.0
X121.0Y-117.0
X121.5Y-132.9
X121.55Y-136.15
X121.65Y-130.75
X122.0Y-50.0
X122.0Y-52.0
X122.0Y-55.0
X122.0Y-58.0
X122.3Y-140.8
X122.411Y-148.653
X122.7Y-138.3
X122.8Y-159.8
X123.0Y-70.0
X123.0Y-73.0
X123.0Y-76.0
X123.0Y-79.0
X123.0Y-117.0
X123.25Y-122.45
X123.35Y-143.05
X123.65Y-132.9
X123.888Y-164.592
X124.0Y-85.0
X124.0Y-129.0
X124.841Y-164.592
X124.95Y-129.9
X125.0Y-50.0
X125.0Y-52.0
X125.0Y-117.0
X125.6Y-159.9
X126.0Y-73.0
X126.0Y-76.0
X126.0Y-79.0
X126.0Y-82.0
X126.0Y-143.9
X126.574Y-146.903
X126.7Y-157.6
X127.0Y-117.0
X127.05Y-124.1
X127.1Y-140.85
X128.0Y-60.0
X128.0Y-63.0
X128.0Y-134.0
X128.0Y-138.0
X128.1Y-65.113
X128.2Y-67.2
X128.2Y-88.4
X128.2Y-91.4
X128.3Y-143.0
X128.85Y-130.3
X129.0Y-117.0
X129.25Y-128.85
X129.6Y-159.5
X130.0Y-124.1
X130.0Y-131.0
X130.144Y-149.568
X130.5Y-73.0
X130.5Y-79.0
X130.6Y-137.9
X130.7Y-143.9
X130.9Y-134.0
X131.6Y-122.9
X132.0Y-115.0
X132.0Y-155.7
X132.0Y-157.6
X132.0Y-159.5
X132.28Y-130.23
X132.8Y-63.0
X132.92Y-149.95
X132.97Y-153.08
X133.0Y-117.0
X133.322Y-148.705
X133.325Y-134.325
X134.2Y-135.1
X134.2Y-137.3
X134.5Y-49.6
X134.55Y-65.05
X134.6Y-45.5
X136.2Y-84.9
X136.24Y-130.16
X136.46Y-136.36
X136.54Y-123.16
X136.54Y-125.18
X136.7Y-137.4
X136.8Y-119.7
X136.8Y-143.1
X136.8Y-145.6
X136.8Y-148.28
X137.15Y-139.4
X137.8Y-144.7
X137.99Y-133.28
X138.0Y-135.1
X138.0Y-137.4
X139.0Y-111.0
X139.0Y-152.8
X139.1Y-139.4
X139.1Y-140.5
X139.75Y-127.0
X139.8Y-128.1
X139.9Y-129.1
X140.7Y-98.2
X140.9Y-55.2
X141.05Y-134.5
X141.2Y-80.5
X142.0Y-85.0
X142.0Y-106.0
X142.2Y-22.1
X142.7Y-29.5
X142.7Y-129.95
X143.0Y-149.05
X143.35Y-131.95
X143.5Y-153.0
X143.5Y-155.5
X143.6Y-134.25
X143.6Y-136.4
X143.6Y-138.3
X143.6Y-140.4
X143.6Y-142.533
X143.6Y-144.667
X143.6Y-146.8
X144.3Y-35.8
X144.45Y-127.55
X144.5Y-149.1
X144.6Y-22.1
X144.6Y-102.6
X144.7Y-98.2
X144.7Y-137.1
X145.0Y-151.0
X145.02Y-147.97
X145.4Y-116.0
X146.0Y-106.0
X146.2Y-153.7
X146.3Y-158.1
X146.4Y-70.8
X147.1Y-158.9
X147.35Y-149.2
X148.1Y-155.55
X148.2Y-162.35
X150.146Y-160.046
X150.4Y-71.0
X150.5Y-140.6
X150.5Y-141.7
X150.5Y-143.27
X150.6Y-136.6
X150.8Y-128.85
X150.9Y-22.4
X151.5Y-160.8
X151.8Y-154.1
X151.8Y-156.9
X151.85Y-155.55
X151.9Y-49.6
X151.9Y-159.3
X152.6Y-59.9
X152.85Y-135.6
X153.0Y-133.3
X154.45Y-132.15
X154.5Y-154.15
X154.5Y-156.95
X154.5Y-162.15
X154.6Y-159.9
X155.67Y-22.28
X155.95Y-136.2
X157.125Y-135.175
X157.2Y-54.55
X157.2Y-157.1
X157.3Y-154.2
X157.4Y-160.6
X157.4Y-162.2
X157.65Y-137.5
X160.0Y-157.7
X160.87Y-138.05
X162.5Y-151.6
X162.5Y-157.2
X162.5Y-159.2
X162.5Y-161.2
X162.5Y-163.2
X163.25Y-139.35
X163.4Y-41.6
X163.6Y-149.0
X164.0Y-53.0
X164.0Y-127.0
X166.3Y-23.0
X166.3Y-29.1
X166.9Y-153.4
X168.1Y-151.2
X168.2Y-159.4
X168.62Y-29.09
X169.0Y-133.0
X169.3Y-44.1
X169.3Y-153.4
X169.3Y-162.0
X170.5Y-158.8
X170.9Y-37.4
X171.0Y-20.0
X171.7Y-162.0
X175.0Y-20.0
X175.0Y-30.1
X177.0Y-53.0
X177.0Y-60.0
X177.2Y-159.7
X177.3Y-42.4
X177.6Y-37.4
X178.0Y-67.0
X178.0Y-74.0
X178.8Y-147.7
X179.3Y-30.1
X179.3Y-164.1
X180.1Y-162.0
X180.2Y-155.4
X182.0Y-133.0
X182.45Y-164.1
X183.6Y-147.7
X183.7Y-158.9
X184.0Y-53.0
X184.0Y-60.0
X184.0Y-67.0
X184.0Y-74.0
X184.7Y-150.5
X184.7Y-152.45
X185.8Y-161.5
X185.8Y-163.4
X186.3Y-137.2
X187.6Y-150.5
X188.3Y-41.1
X188.8Y-147.7
X190.0Y-53.0
X190.0Y-60.0
X190.0Y-67.0
X190.0Y-74.0
X190.0Y-133.0
X190.4Y-138.7
X190.5Y-20.25
X190.5Y-150.5
X193.4Y-150.5
X193.5Y-153.3
X194.8Y-136.1
X195.3Y-163.2
X195.4Y-159.0
X197.0Y-34.5
X197.3Y-150.1
X197.8Y-139.8
X197.9Y-85.5
X198.0Y-34.5
X198.0Y-47.5
X198.4Y-159.0
X198.47Y-154.14
X198.95Y-148.3
X199.0Y-34.5
X199.1Y-163.2
X199.2Y-136.1
X199.3Y-140.1
X199.867Y-154.394
X200.0Y-34.5
X200.0Y-61.0
X200.0Y-68.0
X200.0Y-75.0
X200.1Y-39.9
X200.1Y-41.0
X200.1Y-42.1
X201.0Y-34.5
X201.1Y-39.9
X201.1Y-41.0
X201.1Y-42.1
X201.4Y-20.1
X201.4Y-159.0
X201.7Y-165.9
X201.9Y-150.1
X202.0Y-34.5
X202.1Y-39.9
X202.1Y-41.0
X202.1Y-42.1
X203.0Y-34.5
X203.0Y-47.5
X203.0Y-121.0
X203.1Y-113.2
X203.3Y-128.4
X203.6Y-139.0
X204.0Y-34.5
X204.0Y-47.5
X204.0Y-88.0
X205.0Y-34.5
X205.0Y-47.5
X205.3Y-141.9
X205.8Y-153.5
X205.8Y-156.5
X206.0Y-34.5
X206.0Y-47.5
X206.4Y-26.25
X206.7Y-165.8
X207.0Y-150.3
X208.0Y-47.0
X208.0Y-54.0
X208.0Y-61.0
X208.0Y-68.0
X208.0Y-75.0
X208.0Y-139.15
X208.1Y-158.9
X208.7Y-113.2
X209.0Y-85.0
X209.0Y-88.0
X210.05Y-139.15
X210.146Y-127.154
X212.0Y-131.0
X212.6Y-25.8
X213.5Y-75.0
X214.4Y-158.9
X214.95Y-25.75
X214.997Y-81.497
X215.0Y-47.0
X215.0Y-54.0
X215.0Y-61.0
X215.05Y-21.7
X216.0Y-72.0
X216.0Y-77.5
X216.0Y-112.0
X216.0Y-119.0
X217.15Y-25.75
X217.4Y-20.2
X217.5Y-42.9
X217.6Y-32.1
X222.0Y-148.0
X222.2Y-83.2
X223.0Y-47.0
X223.0Y-54.0
X223.0Y-61.0
X223.0Y-68.0
X223.0Y-75.0
X223.3Y-43.5
X223.5Y-77.0
X223.5Y-89.5
X224.0Y-20.2
X224.5Y-77.0
X224.5Y-89.5
X225.5Y-77.0
X225.5Y-89.5
X226.5Y-77.0
X226.5Y-89.5
X227.0Y-82.2
X227.0Y-83.3
X227.0Y-84.4
X227.5Y-77.0
X227.5Y-89.5
X228.0Y-82.2
X228.0Y-83.3
X228.0Y-84.4
X228.5Y-77.0
X228.5Y-89.5
X229.0Y-54.267
X229.0Y-61.178
X229.0Y-68.089
X229.0Y-75.0
X229.0Y-82.2
X229.0Y-83.3
X229.0Y-84.4
X229.0Y-148.0
X229.3Y-46.5
X229.5Y-77.0
X229.5Y-89.5
X230.5Y-77.0
X230.5Y-89.5
X231.5Y-77.0
X231.5Y-89.5
X232.5Y-77.0
X232.5Y-89.5
X234.4Y-41.9
X234.8Y-30.0
X235.0Y-148.0
X235.2Y-156.2
T2
X116.641Y-139.494
X133.333Y-120.471
X133.35Y-121.285
X183.902Y-94.798
X184.832Y-94.798
X185.761Y-94.798
X201.85Y-133.6
X205.0Y-134.7
T3
X112.618Y-64.135
X112.624Y-62.23
X117.6Y-64.135
X118.681Y-64.135
T4
X106.2Y-54.864
X108.585Y-71.247
X111.6Y-65.41
X111.63Y-60.96
X112.65Y-65.405
X112.665Y-60.96
X112.725Y-68.275
X113.7Y-60.96
X113.7Y-65.405
X114.109Y-59.383
X114.109Y-67.005
X115.316Y-47.396
X115.316Y-54.254
X117.317Y-60.96
X117.317Y-65.405
X117.6Y-59.383
X117.6Y-62.23
X117.6Y-67.005
X118.681Y-59.383
X118.681Y-62.23
X118.681Y-67.005
X125.0Y-63.175
X138.9Y-163.9
X182.45Y-157.15
T5
X82.9Y-87.92
X82.9Y-93.0
X95.3Y-101.52
X95.3Y-106.6
X86.9Y-101.52
X86.9Y-106.6
X74.6Y-87.92
X74.6Y-93.0
T6
X91.024Y-73.624
X93.024Y-73.624
X219.9Y-151.4
X219.9Y-153.9
X94.584Y-121.12
X97.084Y-121.12
X77.396Y-104.4
X77.396Y-106.9
X110.3Y-116.0
X110.3Y-121.0
X144.571Y-38.431
X144.571Y-43.431
X90.992Y-68.036
X92.992Y-68.036
X91.184Y-84.86
X93.184Y-84.86
X144.571Y-87.151
X144.571Y-92.151
X88.15Y-110.6
X93.15Y-110.6
X208.9Y-103.7
X208.9Y-105.7
X82.984Y-104.4
X82.984Y-106.9
X155.393Y-62.8
X160.393Y-62.8
X77.6Y-113.5
X82.6Y-113.5
X80.2Y-67.1
X82.2Y-67.1
X117.19Y-159.1
X117.19Y-161.6
X91.184Y-79.272
X93.184Y-79.272
X94.584Y-115.532
X97.084Y-115.532
X196.832Y-25.406
X196.832Y-27.946
X204.452Y-25.406
X204.452Y-27.946
X155.393Y-67.4
X160.393Y-67.4
X77.7Y-96.5
X82.7Y-96.5
X143.45Y-109.8
X143.45Y-112.3
T7
X99.664Y-126.2
X99.664Y-128.74
X212.08Y-162.0
X214.62Y-162.0
X217.16Y-162.0
X219.7Y-162.0
X159.527Y-143.671
X159.527Y-146.211
X162.067Y-143.671
X162.067Y-146.211
X164.607Y-143.671
X164.607Y-146.211
X167.147Y-143.671
X167.147Y-146.211
X169.687Y-143.671
X169.687Y-146.211
X172.227Y-143.671
X172.227Y-146.211
X174.767Y-143.671
X174.767Y-146.211
X177.307Y-143.671
X177.307Y-146.211
X179.847Y-143.671
X179.847Y-146.211
X182.387Y-143.671
X182.387Y-146.211
X184.927Y-143.671
X184.927Y-146.211
X187.467Y-143.671
X187.467Y-146.211
X190.007Y-143.671
X190.007Y-146.211
X192.547Y-143.671
X192.547Y-146.211
X195.087Y-143.671
X195.087Y-146.211
X197.627Y-143.671
X197.627Y-146.211
X200.167Y-143.671
X200.167Y-146.211
X202.707Y-143.671
X202.707Y-146.211
X205.247Y-143.671
X205.247Y-146.211
X207.787Y-143.671
X207.787Y-146.211
X99.664Y-131.28
X99.664Y-133.82
T8
X153.717Y-115.483
X207.0Y-109.0
X218.912Y-69.4
X218.912Y-71.0
X218.912Y-72.6
X121.762Y-152.362
X121.762Y-154.902
X124.302Y-152.362
X124.302Y-154.902
X126.842Y-152.362
X126.842Y-154.902
X131.16Y-110.452
X131.16Y-112.992
X133.7Y-110.452
X133.7Y-112.992
X87.4Y-55.5
X87.4Y-60.5
X214.044Y-40.6
X219.044Y-40.6
X89.25Y-146.774
X91.79Y-146.774
X157.09Y-37.93
X157.09Y-42.93
X67.55Y-58.928
X67.55Y-61.468
X67.55Y-64.008
X67.55Y-66.548
X70.09Y-58.928
X70.09Y-61.468
X70.09Y-64.008
X70.09Y-66.548
X186.5Y-157.15
X191.5Y-157.15
X208.706Y-119.52
X208.706Y-122.06
X67.501Y-127.041
X67.501Y-129.581
X70.04Y-127.041
X70.04Y-129.581
X81.376Y-146.774
X83.916Y-146.774
X85.0Y-22.7
X85.0Y-27.7
X202.483Y-161.455
X205.023Y-161.455
X77.23Y-142.053
X77.23Y-144.593
X77.23Y-147.133
X77.23Y-149.673
X67.55Y-89.408
X67.55Y-91.948
X67.55Y-94.488
X67.55Y-97.028
X70.09Y-89.408
X70.09Y-91.948
X70.09Y-94.488
X70.09Y-97.028
X149.9Y-87.2
X154.9Y-87.2
T9
X82.0Y-42.3
X89.5Y-42.3
T10
X219.1Y-24.15
X219.1Y-27.15
X161.957Y-22.731
X161.957Y-30.231
X177.217Y-22.731
X177.217Y-30.231
X182.257Y-22.731
X182.257Y-30.231
X187.297Y-22.731
X187.297Y-30.231
X167.0Y-35.8
X167.0Y-40.8
T11
X194.632Y-80.331
X177.0Y-97.9
X194.9Y-57.5
T12
X138.169Y-52.794
X144.169Y-60.414
X194.9Y-64.1
X130.728Y-99.469
X138.348Y-93.469
X130.728Y-36.731
X138.348Y-30.731
X194.9Y-50.5
X138.169Y-70.053
X144.169Y-77.673
X194.9Y-71.1
T13
X92.207Y-153.431
X154.657Y-95.941
X151.907Y-32.431
X92.207Y-32.431
X211.507Y-153.431
X154.657Y-144.941
X211.507Y-32.431
X212.657Y-144.941
X212.657Y-95.941
T6
G00X225.557Y-39.131
M15
G01X223.757Y-39.131
M16
G05
G00X225.657Y-33.531
M15
G01X223.857Y-33.531
M16
G05
G00X229.157Y-38.831
M15
G01X227.357Y-38.831
M16
G05
G00X229.257Y-33.831
M15
G01X227.457Y-33.831
M16
G05
T8
G00X234.057Y-35.581
M15
G01X234.057Y-37.081
M16
G05
T14
G00X101.65Y-95.7
M15
G01X101.65Y-97.7
M16
G05
G00X121.65Y-95.7
M15
G01X121.65Y-97.7
M16
G05
G00X101.7Y-32.65
M15
G01X101.7Y-34.65
M16
G05
G00X121.7Y-32.65
M15
G01X121.7Y-34.65
M16
G05
T0
M30
