G04 #@! TF.GenerationSoftware,KiCad,Pcbnew,(5.1.5)-3*
G04 #@! TF.CreationDate,2022-02-02T16:58:46+03:00*
G04 #@! TF.ProjectId,Streamer_ADAU1701_MK2,53747265-616d-4657-925f-414441553137,rev?*
G04 #@! TF.SameCoordinates,Original*
G04 #@! TF.FileFunction,Profile,NP*
%FSLAX46Y46*%
G04 Gerber Fmt 4.6, Leading zero omitted, Abs format (unit mm)*
G04 Created by KiCad (PCBNEW (5.1.5)-3) date 2022-02-02 16:58:46*
%MOMM*%
%LPD*%
G04 APERTURE LIST*
%ADD10C,0.100000*%
G04 APERTURE END LIST*
D10*
X195738800Y-101802200D02*
X196238800Y-101802200D01*
X195738800Y-83702200D02*
X196238800Y-83702200D01*
X174161200Y-94097800D02*
X174761200Y-94097800D01*
X174761200Y-75997800D02*
X174161200Y-75997800D01*
X191338800Y-99800000D02*
X179400000Y-99800000D01*
X192138800Y-99000000D02*
X192138800Y-98822200D01*
X192938800Y-83702200D02*
X195738800Y-83702200D01*
X197038800Y-84502200D02*
G75*
G03X196238800Y-83702200I-800000J0D01*
G01*
X195738800Y-101802200D02*
X192938800Y-101802200D01*
X178600000Y-101002200D02*
G75*
G03X179400000Y-101802200I800000J0D01*
G01*
X197038800Y-84502200D02*
X197038800Y-93302200D01*
X192938800Y-83702200D02*
G75*
G03X192138800Y-84502200I0J-800000D01*
G01*
X192138800Y-93302200D02*
X192138800Y-84502200D01*
X196238800Y-101802200D02*
G75*
G03X197038800Y-101002200I0J800000D01*
G01*
X192138800Y-93302200D02*
X192138800Y-98822200D01*
X191338800Y-99800000D02*
G75*
G03X192138800Y-99000000I0J800000D01*
G01*
X192938800Y-101802200D02*
X179400000Y-101802200D01*
X178600000Y-101002200D02*
X178600000Y-100600000D01*
X179400000Y-99800000D02*
G75*
G03X178600000Y-100600000I0J-800000D01*
G01*
X197038800Y-93302200D02*
X197038800Y-101002200D01*
X179161200Y-78000000D02*
X191100000Y-78000000D01*
X178361200Y-78800000D02*
X178361200Y-78977800D01*
X178361200Y-84497800D02*
X178361200Y-78977800D01*
X179161200Y-78000000D02*
G75*
G03X178361200Y-78800000I0J-800000D01*
G01*
X191900000Y-76797800D02*
X191900000Y-77200000D01*
X191100000Y-78000000D02*
G75*
G03X191900000Y-77200000I0J800000D01*
G01*
X177561200Y-75997800D02*
X191100000Y-75997800D01*
X173361200Y-84497800D02*
X173361200Y-76797800D01*
X236150000Y-28680800D02*
X236150000Y-91940800D01*
X236150000Y-157180800D02*
X230007200Y-157180800D01*
X236150000Y-146690800D02*
X216907200Y-146690800D01*
X236150000Y-91940800D02*
X216907200Y-91940800D01*
X236150000Y-28680800D02*
X230007200Y-28680800D01*
X156407200Y-19200000D02*
X156407200Y-20930800D01*
X147407200Y-19200000D02*
X147407200Y-20930800D01*
X225257200Y-166600000D02*
X225257200Y-161930800D01*
X200407200Y-166600000D02*
X200407200Y-164930800D01*
X191407200Y-166600000D02*
X191407200Y-164930800D01*
X156407200Y-166600000D02*
X156407200Y-164930800D01*
X147407200Y-166600000D02*
X147407200Y-164930800D01*
X112407200Y-166600000D02*
X112407200Y-164930800D01*
X78407200Y-166600000D02*
X78407200Y-161930800D01*
X103407200Y-166600000D02*
X103407200Y-164930800D01*
X78407200Y-19200000D02*
X78407200Y-23930800D01*
X103407200Y-19200000D02*
X103407200Y-20930800D01*
X112407200Y-19200000D02*
X112407200Y-20930800D01*
X225257200Y-19200000D02*
X225257200Y-23930800D01*
X191407200Y-19200000D02*
X191407200Y-20930800D01*
X200407200Y-20930800D02*
X200407200Y-19200000D01*
X66157200Y-157180800D02*
X73657200Y-157180800D01*
X73657200Y-28680800D02*
X66157200Y-28680800D01*
X174161200Y-75997800D02*
G75*
G03X173361200Y-76797800I0J-800000D01*
G01*
X173361200Y-93297800D02*
G75*
G03X174161200Y-94097800I800000J0D01*
G01*
X178361200Y-84497800D02*
X178361200Y-93297800D01*
X183061200Y-93297800D02*
X183061200Y-84497800D01*
X173361200Y-93297800D02*
X173361200Y-84497800D01*
X183861200Y-83697800D02*
X186661200Y-83697800D01*
X183061200Y-93297800D02*
G75*
G03X183861200Y-94097800I800000J0D01*
G01*
X191900000Y-76797800D02*
G75*
G03X191100000Y-75997800I-800000J0D01*
G01*
X177561200Y-94097800D02*
X174761200Y-94097800D01*
X187461200Y-84497800D02*
X187461200Y-93297800D01*
X183861200Y-83697800D02*
G75*
G03X183061200Y-84497800I0J-800000D01*
G01*
X186661200Y-94097800D02*
G75*
G03X187461200Y-93297800I0J800000D01*
G01*
X187461200Y-84497800D02*
G75*
G03X186661200Y-83697800I-800000J0D01*
G01*
X186661200Y-94097800D02*
X183861200Y-94097800D01*
X177561200Y-94097800D02*
G75*
G03X178361200Y-93297800I0J800000D01*
G01*
X174761200Y-75997800D02*
X177561200Y-75997800D01*
X236150000Y-146690800D02*
X236150000Y-157180800D01*
X225257200Y-166600000D02*
X200407200Y-166600000D01*
X225257200Y-19200000D02*
X200407200Y-19200000D01*
X216907200Y-91940800D02*
X216907200Y-146690800D01*
X112407200Y-19200000D02*
X147407200Y-19200000D01*
X225257200Y-23930800D02*
G75*
G03X230007200Y-28680800I4750000J0D01*
G01*
X200407200Y-164930800D02*
X191407200Y-164930800D01*
X103407200Y-20930800D02*
X112407200Y-20930800D01*
X156407200Y-166600000D02*
X191407200Y-166600000D01*
X112407200Y-166600000D02*
X147407200Y-166600000D01*
X66157200Y-28680800D02*
X66157200Y-157180800D01*
X78407200Y-161930800D02*
G75*
G03X73657200Y-157180800I-4750000J0D01*
G01*
X112407200Y-164930800D02*
X103407200Y-164930800D01*
X78407200Y-23930800D02*
G75*
G02X73657200Y-28680800I-4750000J0D01*
G01*
X78407200Y-19200000D02*
X103407200Y-19200000D01*
X78407200Y-166600000D02*
X103407200Y-166600000D01*
X225257200Y-161930800D02*
G75*
G02X230007200Y-157180800I4750000J0D01*
G01*
X156407200Y-164930800D02*
X147407200Y-164930800D01*
X191407200Y-20930800D02*
X200407200Y-20930800D01*
X147407200Y-20930800D02*
X156407200Y-20930800D01*
X156407200Y-19200000D02*
X191407200Y-19200000D01*
X179757200Y-110440800D02*
G75*
G03X179757200Y-110440800I-1600000J0D01*
G01*
X199157200Y-120440800D02*
G75*
G03X199157200Y-120440800I-11000000J0D01*
G01*
X199757200Y-110440800D02*
G75*
G03X199757200Y-110440800I-1600000J0D01*
G01*
X179757200Y-130440800D02*
G75*
G03X179757200Y-130440800I-1600000J0D01*
G01*
X199757200Y-130440800D02*
G75*
G03X199757200Y-130440800I-1600000J0D01*
G01*
M02*
