G04 #@! TF.GenerationSoftware,KiCad,Pcbnew,(5.1.12)-1*
G04 #@! TF.CreationDate,2022-02-09T13:03:28+03:00*
G04 #@! TF.ProjectId,ADAU1701 panel,41444155-3137-4303-9120-70616e656c2e,rev?*
G04 #@! TF.SameCoordinates,Original*
G04 #@! TF.FileFunction,Soldermask,Bot*
G04 #@! TF.FilePolarity,Negative*
%FSLAX46Y46*%
G04 Gerber Fmt 4.6, Leading zero omitted, Abs format (unit mm)*
G04 Created by KiCad (PCBNEW (5.1.12)-1) date 2022-02-09 13:03:28*
%MOMM*%
%LPD*%
G01*
G04 APERTURE LIST*
%ADD10C,3.302000*%
%ADD11C,0.254000*%
%ADD12C,0.100000*%
G04 APERTURE END LIST*
D10*
X213800000Y-101300000D03*
X213800000Y-130200000D03*
X74700000Y-130200000D03*
X74700000Y-101300000D03*
G36*
G01*
X144949000Y-110500000D02*
X144949000Y-106500000D01*
G75*
G02*
X145000000Y-106449000I51000J0D01*
G01*
X149000000Y-106449000D01*
G75*
G02*
X149051000Y-106500000I0J-51000D01*
G01*
X149051000Y-110500000D01*
G75*
G02*
X149000000Y-110551000I-51000J0D01*
G01*
X145000000Y-110551000D01*
G75*
G02*
X144949000Y-110500000I0J51000D01*
G01*
G37*
D11*
X75873000Y-110623000D02*
X73127000Y-110623000D01*
X73127000Y-106127000D01*
X75873000Y-106127000D01*
X75873000Y-110623000D01*
D12*
G36*
X75873000Y-110623000D02*
G01*
X73127000Y-110623000D01*
X73127000Y-106127000D01*
X75873000Y-106127000D01*
X75873000Y-110623000D01*
G37*
D11*
X81873000Y-110623000D02*
X79627000Y-110623000D01*
X79627000Y-106127000D01*
X81873000Y-106127000D01*
X81873000Y-110623000D01*
D12*
G36*
X81873000Y-110623000D02*
G01*
X79627000Y-110623000D01*
X79627000Y-106127000D01*
X81873000Y-106127000D01*
X81873000Y-110623000D01*
G37*
D11*
X185090233Y-108777164D02*
X183723670Y-110584263D01*
X179419489Y-107473037D01*
X180776596Y-105675544D01*
X185090233Y-108777164D01*
D12*
G36*
X185090233Y-108777164D02*
G01*
X183723670Y-110584263D01*
X179419489Y-107473037D01*
X180776596Y-105675544D01*
X185090233Y-108777164D01*
G37*
D11*
X211638631Y-107666839D02*
X207722616Y-110226945D01*
X206579898Y-108623596D01*
X210468730Y-106062657D01*
X211638631Y-107666839D01*
D12*
G36*
X211638631Y-107666839D02*
G01*
X207722616Y-110226945D01*
X206579898Y-108623596D01*
X210468730Y-106062657D01*
X211638631Y-107666839D01*
G37*
M02*
