G04 #@! TF.GenerationSoftware,KiCad,Pcbnew,(5.1.12)-1*
G04 #@! TF.CreationDate,2022-02-09T13:03:28+03:00*
G04 #@! TF.ProjectId,ADAU1701 panel,41444155-3137-4303-9120-70616e656c2e,rev?*
G04 #@! TF.SameCoordinates,Original*
G04 #@! TF.FileFunction,Copper,L1,Top*
G04 #@! TF.FilePolarity,Positive*
%FSLAX46Y46*%
G04 Gerber Fmt 4.6, Leading zero omitted, Abs format (unit mm)*
G04 Created by KiCad (PCBNEW (5.1.12)-1) date 2022-02-09 13:03:28*
%MOMM*%
%LPD*%
G01*
G04 APERTURE LIST*
G04 #@! TA.AperFunction,ViaPad*
%ADD10C,0.800000*%
G04 #@! TD*
G04 #@! TA.AperFunction,Conductor*
%ADD11C,0.200000*%
G04 #@! TD*
G04 #@! TA.AperFunction,Conductor*
%ADD12C,0.100000*%
G04 #@! TD*
G04 APERTURE END LIST*
D10*
X163300000Y-127100000D03*
D11*
X221083310Y-92464142D02*
X221452022Y-92575463D01*
X221792087Y-92756279D01*
X222090557Y-92999705D01*
X222336056Y-93296465D01*
X222519244Y-93635264D01*
X222633133Y-94003180D01*
X222675000Y-94401512D01*
X222675001Y-136784094D01*
X222635858Y-137183310D01*
X222524538Y-137552019D01*
X222343721Y-137892087D01*
X222100297Y-138190555D01*
X221803538Y-138436055D01*
X221464740Y-138619242D01*
X221096819Y-138733134D01*
X220698488Y-138775000D01*
X67815896Y-138775000D01*
X67416690Y-138735858D01*
X67047981Y-138624538D01*
X66707913Y-138443721D01*
X66409445Y-138200297D01*
X66163945Y-137903538D01*
X65980758Y-137564740D01*
X65866866Y-137196819D01*
X65825000Y-136798488D01*
X65825000Y-129889752D01*
X71550000Y-129889752D01*
X71550000Y-130510248D01*
X71671052Y-131118821D01*
X71908506Y-131692085D01*
X72253235Y-132208008D01*
X72691992Y-132646765D01*
X73207915Y-132991494D01*
X73781179Y-133228948D01*
X74389752Y-133350000D01*
X75010248Y-133350000D01*
X75618821Y-133228948D01*
X76192085Y-132991494D01*
X76708008Y-132646765D01*
X77146765Y-132208008D01*
X77491494Y-131692085D01*
X77728948Y-131118821D01*
X77850000Y-130510248D01*
X77850000Y-129889752D01*
X210650000Y-129889752D01*
X210650000Y-130510248D01*
X210771052Y-131118821D01*
X211008506Y-131692085D01*
X211353235Y-132208008D01*
X211791992Y-132646765D01*
X212307915Y-132991494D01*
X212881179Y-133228948D01*
X213489752Y-133350000D01*
X214110248Y-133350000D01*
X214718821Y-133228948D01*
X215292085Y-132991494D01*
X215808008Y-132646765D01*
X216246765Y-132208008D01*
X216591494Y-131692085D01*
X216828948Y-131118821D01*
X216950000Y-130510248D01*
X216950000Y-129889752D01*
X216828948Y-129281179D01*
X216591494Y-128707915D01*
X216246765Y-128191992D01*
X215808008Y-127753235D01*
X215292085Y-127408506D01*
X214718821Y-127171052D01*
X214110248Y-127050000D01*
X213489752Y-127050000D01*
X212881179Y-127171052D01*
X212307915Y-127408506D01*
X211791992Y-127753235D01*
X211353235Y-128191992D01*
X211008506Y-128707915D01*
X210771052Y-129281179D01*
X210650000Y-129889752D01*
X77850000Y-129889752D01*
X77728948Y-129281179D01*
X77491494Y-128707915D01*
X77146765Y-128191992D01*
X76708008Y-127753235D01*
X76192085Y-127408506D01*
X75618821Y-127171052D01*
X75010248Y-127050000D01*
X74389752Y-127050000D01*
X73781179Y-127171052D01*
X73207915Y-127408506D01*
X72691992Y-127753235D01*
X72253235Y-128191992D01*
X71908506Y-128707915D01*
X71671052Y-129281179D01*
X71550000Y-129889752D01*
X65825000Y-129889752D01*
X65825000Y-121170150D01*
X72266292Y-121170150D01*
X72266292Y-121629850D01*
X72355975Y-122080718D01*
X72531895Y-122505425D01*
X72787290Y-122887652D01*
X73112348Y-123212710D01*
X73494575Y-123468105D01*
X73919282Y-123644025D01*
X74370150Y-123733708D01*
X74829850Y-123733708D01*
X75280718Y-123644025D01*
X75705425Y-123468105D01*
X76087652Y-123212710D01*
X76412710Y-122887652D01*
X76668105Y-122505425D01*
X76844025Y-122080718D01*
X76933708Y-121629850D01*
X76933708Y-121170150D01*
X78366292Y-121170150D01*
X78366292Y-121629850D01*
X78455975Y-122080718D01*
X78631895Y-122505425D01*
X78887290Y-122887652D01*
X79212348Y-123212710D01*
X79594575Y-123468105D01*
X80019282Y-123644025D01*
X80470150Y-123733708D01*
X80929850Y-123733708D01*
X81380718Y-123644025D01*
X81805425Y-123468105D01*
X82187652Y-123212710D01*
X82512710Y-122887652D01*
X82768105Y-122505425D01*
X82944025Y-122080718D01*
X83033708Y-121629850D01*
X83033708Y-121170150D01*
X82944025Y-120719282D01*
X82768105Y-120294575D01*
X82512710Y-119912348D01*
X82187652Y-119587290D01*
X81805425Y-119331895D01*
X81380718Y-119155975D01*
X80929850Y-119066292D01*
X80470150Y-119066292D01*
X80019282Y-119155975D01*
X79594575Y-119331895D01*
X79212348Y-119587290D01*
X78887290Y-119912348D01*
X78631895Y-120294575D01*
X78455975Y-120719282D01*
X78366292Y-121170150D01*
X76933708Y-121170150D01*
X76844025Y-120719282D01*
X76668105Y-120294575D01*
X76412710Y-119912348D01*
X76087652Y-119587290D01*
X75705425Y-119331895D01*
X75280718Y-119155975D01*
X74829850Y-119066292D01*
X74370150Y-119066292D01*
X73919282Y-119155975D01*
X73494575Y-119331895D01*
X73112348Y-119587290D01*
X72787290Y-119912348D01*
X72531895Y-120294575D01*
X72355975Y-120719282D01*
X72266292Y-121170150D01*
X65825000Y-121170150D01*
X65825000Y-116500000D01*
X91655000Y-116500000D01*
X91738601Y-117642241D01*
X91987623Y-118760137D01*
X92396759Y-119829863D01*
X92957287Y-120828618D01*
X93657262Y-121735116D01*
X94481765Y-122530037D01*
X95413223Y-123196438D01*
X96431783Y-123720116D01*
X97515738Y-124089910D01*
X98641983Y-124297938D01*
X99786515Y-124339766D01*
X100924941Y-124214504D01*
X102032997Y-123924820D01*
X103087066Y-123476889D01*
X104064683Y-122880258D01*
X104945012Y-122147643D01*
X105709290Y-121294658D01*
X106341228Y-120339483D01*
X106827356Y-119302476D01*
X107157315Y-118205740D01*
X107324072Y-117072648D01*
X107324072Y-116500000D01*
X121321666Y-116500000D01*
X121405267Y-117642241D01*
X121654289Y-118760137D01*
X122063425Y-119829863D01*
X122623953Y-120828618D01*
X123323928Y-121735116D01*
X124148431Y-122530037D01*
X125079889Y-123196438D01*
X126098449Y-123720116D01*
X127182404Y-124089910D01*
X128308649Y-124297938D01*
X129453181Y-124339766D01*
X130591607Y-124214504D01*
X131699663Y-123924820D01*
X132753732Y-123476889D01*
X133731349Y-122880258D01*
X134611678Y-122147643D01*
X135375956Y-121294658D01*
X136007894Y-120339483D01*
X136494022Y-119302476D01*
X136585023Y-119000000D01*
X155488332Y-119000000D01*
X155571933Y-120142241D01*
X155820955Y-121260137D01*
X156230091Y-122329863D01*
X156790619Y-123328618D01*
X157490594Y-124235116D01*
X158315097Y-125030037D01*
X159246555Y-125696438D01*
X160265115Y-126220116D01*
X161349070Y-126589910D01*
X162475315Y-126797938D01*
X163619847Y-126839766D01*
X164758273Y-126714504D01*
X165866329Y-126424820D01*
X166920398Y-125976889D01*
X167898015Y-125380258D01*
X168778344Y-124647643D01*
X169542622Y-123794658D01*
X170174560Y-122839483D01*
X170660688Y-121802476D01*
X170990647Y-120705740D01*
X171157404Y-119572648D01*
X171157404Y-118427352D01*
X170990647Y-117294260D01*
X170751690Y-116500000D01*
X184655000Y-116500000D01*
X184737200Y-117832724D01*
X184982552Y-119145244D01*
X185387339Y-120417666D01*
X185945423Y-121630700D01*
X186648344Y-122765957D01*
X187485448Y-123806229D01*
X188444045Y-124735746D01*
X189509602Y-125540418D01*
X190665968Y-126208046D01*
X191895612Y-126728510D01*
X193179896Y-127093920D01*
X194499350Y-127298737D01*
X195833972Y-127339856D01*
X197163532Y-127216655D01*
X198467875Y-126930999D01*
X199727228Y-126487220D01*
X200922500Y-125892046D01*
X202035573Y-125154497D01*
X203049573Y-124285755D01*
X203949129Y-123298989D01*
X204720605Y-122209157D01*
X205278539Y-121170150D01*
X211566292Y-121170150D01*
X211566292Y-121629850D01*
X211655975Y-122080718D01*
X211831895Y-122505425D01*
X212087290Y-122887652D01*
X212412348Y-123212710D01*
X212794575Y-123468105D01*
X213219282Y-123644025D01*
X213670150Y-123733708D01*
X214129850Y-123733708D01*
X214580718Y-123644025D01*
X215005425Y-123468105D01*
X215387652Y-123212710D01*
X215712710Y-122887652D01*
X215968105Y-122505425D01*
X216144025Y-122080718D01*
X216233708Y-121629850D01*
X216233708Y-121170150D01*
X216144025Y-120719282D01*
X215968105Y-120294575D01*
X215712710Y-119912348D01*
X215387652Y-119587290D01*
X215005425Y-119331895D01*
X214580718Y-119155975D01*
X214129850Y-119066292D01*
X213670150Y-119066292D01*
X213219282Y-119155975D01*
X212794575Y-119331895D01*
X212412348Y-119587290D01*
X212087290Y-119912348D01*
X211831895Y-120294575D01*
X211655975Y-120719282D01*
X211566292Y-121170150D01*
X205278539Y-121170150D01*
X205352306Y-121032780D01*
X205834656Y-119787691D01*
X206160343Y-118492764D01*
X206324431Y-117167628D01*
X206324431Y-115832372D01*
X206160343Y-114507236D01*
X205834656Y-113212309D01*
X205352306Y-111967220D01*
X204720605Y-110790843D01*
X203949129Y-109701011D01*
X203209795Y-108890000D01*
X207020000Y-108890000D01*
X207020000Y-108980000D01*
X207021163Y-108995206D01*
X207041163Y-109125206D01*
X207047152Y-109147139D01*
X207087152Y-109247139D01*
X207096795Y-109265470D01*
X207156795Y-109355470D01*
X207173564Y-109374741D01*
X207263564Y-109454741D01*
X207275461Y-109463818D01*
X207292861Y-109472848D01*
X207392861Y-109512848D01*
X207405746Y-109517014D01*
X207485746Y-109537014D01*
X207498957Y-109539388D01*
X207588957Y-109549388D01*
X207611043Y-109549388D01*
X207701043Y-109539388D01*
X207721623Y-109534868D01*
X207811623Y-109504868D01*
X207834358Y-109493936D01*
X210984358Y-107453936D01*
X210996757Y-107444454D01*
X211010000Y-107430000D01*
X211070000Y-107350000D01*
X211076824Y-107339614D01*
X211116824Y-107269614D01*
X211124868Y-107251623D01*
X211154868Y-107161623D01*
X211159228Y-107142403D01*
X211169228Y-107062403D01*
X211170000Y-107050000D01*
X211170000Y-106970000D01*
X211167014Y-106945746D01*
X211127014Y-106785746D01*
X211122428Y-106771828D01*
X211113205Y-106754530D01*
X211053205Y-106664530D01*
X211040711Y-106649289D01*
X210960711Y-106569289D01*
X210945470Y-106556795D01*
X210885470Y-106516795D01*
X210869392Y-106508085D01*
X210799392Y-106478085D01*
X210781693Y-106472381D01*
X210691693Y-106452381D01*
X210682403Y-106450772D01*
X210602403Y-106440772D01*
X210578957Y-106440612D01*
X210488957Y-106450612D01*
X210478307Y-106452381D01*
X210388307Y-106472381D01*
X210372854Y-106477155D01*
X210355454Y-106486186D01*
X207205454Y-108536186D01*
X207194559Y-108544386D01*
X207181065Y-108558606D01*
X207111065Y-108648606D01*
X207100557Y-108665279D01*
X207060557Y-108745279D01*
X207054217Y-108761265D01*
X207024217Y-108861265D01*
X207020000Y-108890000D01*
X203209795Y-108890000D01*
X203049573Y-108714245D01*
X202035573Y-107845503D01*
X200922500Y-107107954D01*
X199727228Y-106512780D01*
X198467875Y-106069001D01*
X197163532Y-105783345D01*
X195833972Y-105660144D01*
X194499350Y-105701263D01*
X193179896Y-105906080D01*
X191895612Y-106271490D01*
X190665968Y-106791954D01*
X189509602Y-107459582D01*
X188444045Y-108264254D01*
X187485448Y-109193771D01*
X186648344Y-110234043D01*
X185945423Y-111369300D01*
X185387339Y-112582334D01*
X184982552Y-113854756D01*
X184737200Y-115167276D01*
X184655000Y-116500000D01*
X170751690Y-116500000D01*
X170660688Y-116197524D01*
X170174560Y-115160517D01*
X169542622Y-114205342D01*
X168778344Y-113352357D01*
X167898015Y-112619742D01*
X166920398Y-112023111D01*
X165866329Y-111575180D01*
X164758273Y-111285496D01*
X163619847Y-111160234D01*
X162475315Y-111202062D01*
X161349070Y-111410090D01*
X160265115Y-111779884D01*
X159246555Y-112303562D01*
X158315097Y-112969963D01*
X157490594Y-113764884D01*
X156790619Y-114671382D01*
X156230091Y-115670137D01*
X155820955Y-116739863D01*
X155571933Y-117857759D01*
X155488332Y-119000000D01*
X136585023Y-119000000D01*
X136823981Y-118205740D01*
X136990738Y-117072648D01*
X136990738Y-115927352D01*
X136823981Y-114794260D01*
X136494022Y-113697524D01*
X136007894Y-112660517D01*
X135375956Y-111705342D01*
X134611678Y-110852357D01*
X133731349Y-110119742D01*
X132753732Y-109523111D01*
X131699663Y-109075180D01*
X130591607Y-108785496D01*
X129453181Y-108660234D01*
X128308649Y-108702062D01*
X127182404Y-108910090D01*
X126098449Y-109279884D01*
X125079889Y-109803562D01*
X124148431Y-110469963D01*
X123323928Y-111264884D01*
X122623953Y-112171382D01*
X122063425Y-113170137D01*
X121654289Y-114239863D01*
X121405267Y-115357759D01*
X121321666Y-116500000D01*
X107324072Y-116500000D01*
X107324072Y-115927352D01*
X107157315Y-114794260D01*
X106827356Y-113697524D01*
X106341228Y-112660517D01*
X105709290Y-111705342D01*
X104945012Y-110852357D01*
X104064683Y-110119742D01*
X103087066Y-109523111D01*
X102032997Y-109075180D01*
X100924941Y-108785496D01*
X99786515Y-108660234D01*
X98641983Y-108702062D01*
X97515738Y-108910090D01*
X96431783Y-109279884D01*
X95413223Y-109803562D01*
X94481765Y-110469963D01*
X93657262Y-111264884D01*
X92957287Y-112171382D01*
X92396759Y-113170137D01*
X91987623Y-114239863D01*
X91738601Y-115357759D01*
X91655000Y-116500000D01*
X65825000Y-116500000D01*
X65825000Y-106500000D01*
X73925000Y-106500000D01*
X73925000Y-110300000D01*
X73928551Y-110326413D01*
X73935557Y-110344721D01*
X74010557Y-110494721D01*
X74016853Y-110505557D01*
X74029289Y-110520711D01*
X74154289Y-110645711D01*
X74175386Y-110661824D01*
X74350386Y-110761824D01*
X74361732Y-110767388D01*
X74380491Y-110773079D01*
X74400000Y-110775000D01*
X74600000Y-110775000D01*
X74626413Y-110771449D01*
X74644721Y-110764443D01*
X74844721Y-110664443D01*
X74862286Y-110653234D01*
X74876351Y-110639579D01*
X74980457Y-110516495D01*
X74994724Y-110494204D01*
X75065618Y-110342288D01*
X75073079Y-110319509D01*
X75075000Y-110300000D01*
X75075000Y-106525000D01*
X80125000Y-106525000D01*
X80125000Y-110325000D01*
X80128551Y-110351413D01*
X80135557Y-110369721D01*
X80210557Y-110519721D01*
X80216853Y-110530557D01*
X80229289Y-110545711D01*
X80354289Y-110670711D01*
X80375386Y-110686824D01*
X80550386Y-110786824D01*
X80561732Y-110792388D01*
X80580491Y-110798079D01*
X80600000Y-110800000D01*
X80800000Y-110800000D01*
X80826413Y-110796449D01*
X80844721Y-110789443D01*
X81044721Y-110689443D01*
X81062286Y-110678234D01*
X81076351Y-110664579D01*
X81180457Y-110541495D01*
X81194724Y-110519204D01*
X81265618Y-110367288D01*
X81273079Y-110344509D01*
X81275000Y-110325000D01*
X81275000Y-106970000D01*
X180120000Y-106970000D01*
X180120000Y-107050000D01*
X180121613Y-107067889D01*
X180141613Y-107177889D01*
X180150557Y-107204721D01*
X180220557Y-107344721D01*
X180234074Y-107365079D01*
X180294074Y-107435079D01*
X180315333Y-107453735D01*
X183455333Y-109503735D01*
X183464297Y-109508945D01*
X183482528Y-109516152D01*
X183552528Y-109536152D01*
X183574127Y-109539827D01*
X183674369Y-109545724D01*
X183687615Y-109545625D01*
X183767373Y-109539728D01*
X183774142Y-109538995D01*
X183844142Y-109528995D01*
X183869392Y-109521915D01*
X183939392Y-109491915D01*
X183949614Y-109486824D01*
X184019614Y-109446824D01*
X184030000Y-109440000D01*
X184110000Y-109380000D01*
X184130000Y-109360000D01*
X184190000Y-109280000D01*
X184199443Y-109264721D01*
X184239443Y-109184721D01*
X184247619Y-109161693D01*
X184267619Y-109071693D01*
X184269504Y-109059950D01*
X184279504Y-108959950D01*
X184279388Y-108938957D01*
X184269388Y-108848957D01*
X184262848Y-108822861D01*
X184222848Y-108722861D01*
X184214489Y-108706507D01*
X184132181Y-108576507D01*
X184114023Y-108555165D01*
X184046331Y-108495165D01*
X184034225Y-108485978D01*
X180904225Y-106465978D01*
X180894329Y-106460362D01*
X180875990Y-106453436D01*
X180856652Y-106450221D01*
X180706652Y-106440221D01*
X180685858Y-106441005D01*
X180545858Y-106461005D01*
X180521988Y-106467506D01*
X180424658Y-106507506D01*
X180400304Y-106521830D01*
X180337634Y-106571830D01*
X180335982Y-106573178D01*
X180275982Y-106623178D01*
X180258077Y-106642654D01*
X180188077Y-106742654D01*
X180176053Y-106765736D01*
X180146809Y-106845918D01*
X180143324Y-106857666D01*
X180122568Y-106947484D01*
X180120000Y-106970000D01*
X81275000Y-106970000D01*
X81275000Y-106500000D01*
X81271449Y-106473587D01*
X81264443Y-106455279D01*
X81189443Y-106305279D01*
X81183147Y-106294443D01*
X81170711Y-106279289D01*
X81070711Y-106179289D01*
X81055470Y-106166795D01*
X80905470Y-106066795D01*
X80888268Y-106057612D01*
X80869509Y-106051921D01*
X80850000Y-106050000D01*
X80575000Y-106050000D01*
X80562389Y-106050798D01*
X80543278Y-106055165D01*
X80525386Y-106063176D01*
X80350386Y-106163176D01*
X80341104Y-106169183D01*
X80326470Y-106182226D01*
X80231944Y-106284781D01*
X80224847Y-106293400D01*
X80214856Y-106310267D01*
X80134382Y-106482712D01*
X80126921Y-106505491D01*
X80125000Y-106525000D01*
X75075000Y-106525000D01*
X75075000Y-106475000D01*
X75071449Y-106448587D01*
X75064443Y-106430279D01*
X74989443Y-106280279D01*
X74983147Y-106269443D01*
X74970711Y-106254289D01*
X74870711Y-106154289D01*
X74855470Y-106141795D01*
X74705470Y-106041795D01*
X74688268Y-106032612D01*
X74669509Y-106026921D01*
X74650000Y-106025000D01*
X74375000Y-106025000D01*
X74362389Y-106025798D01*
X74343278Y-106030165D01*
X74325386Y-106038176D01*
X74150386Y-106138176D01*
X74141104Y-106144183D01*
X74126470Y-106157226D01*
X74031944Y-106259781D01*
X74024847Y-106268400D01*
X74014856Y-106285267D01*
X73934382Y-106457712D01*
X73926921Y-106480491D01*
X73925000Y-106500000D01*
X65825000Y-106500000D01*
X65825000Y-100989752D01*
X71550000Y-100989752D01*
X71550000Y-101610248D01*
X71671052Y-102218821D01*
X71908506Y-102792085D01*
X72253235Y-103308008D01*
X72691992Y-103746765D01*
X73207915Y-104091494D01*
X73781179Y-104328948D01*
X74389752Y-104450000D01*
X75010248Y-104450000D01*
X75618821Y-104328948D01*
X76192085Y-104091494D01*
X76708008Y-103746765D01*
X77146765Y-103308008D01*
X77491494Y-102792085D01*
X77728948Y-102218821D01*
X77850000Y-101610248D01*
X77850000Y-100989752D01*
X210650000Y-100989752D01*
X210650000Y-101610248D01*
X210771052Y-102218821D01*
X211008506Y-102792085D01*
X211353235Y-103308008D01*
X211791992Y-103746765D01*
X212307915Y-104091494D01*
X212881179Y-104328948D01*
X213489752Y-104450000D01*
X214110248Y-104450000D01*
X214718821Y-104328948D01*
X215292085Y-104091494D01*
X215808008Y-103746765D01*
X216246765Y-103308008D01*
X216591494Y-102792085D01*
X216828948Y-102218821D01*
X216950000Y-101610248D01*
X216950000Y-100989752D01*
X216828948Y-100381179D01*
X216591494Y-99807915D01*
X216246765Y-99291992D01*
X215808008Y-98853235D01*
X215292085Y-98508506D01*
X214718821Y-98271052D01*
X214110248Y-98150000D01*
X213489752Y-98150000D01*
X212881179Y-98271052D01*
X212307915Y-98508506D01*
X211791992Y-98853235D01*
X211353235Y-99291992D01*
X211008506Y-99807915D01*
X210771052Y-100381179D01*
X210650000Y-100989752D01*
X77850000Y-100989752D01*
X77728948Y-100381179D01*
X77491494Y-99807915D01*
X77146765Y-99291992D01*
X76708008Y-98853235D01*
X76192085Y-98508506D01*
X75618821Y-98271052D01*
X75010248Y-98150000D01*
X74389752Y-98150000D01*
X73781179Y-98271052D01*
X73207915Y-98508506D01*
X72691992Y-98853235D01*
X72253235Y-99291992D01*
X71908506Y-99807915D01*
X71671052Y-100381179D01*
X71550000Y-100989752D01*
X65825000Y-100989752D01*
X65825000Y-94415896D01*
X65864142Y-94016690D01*
X65975463Y-93647978D01*
X66156279Y-93307913D01*
X66399705Y-93009443D01*
X66696465Y-92763944D01*
X67035264Y-92580756D01*
X67403180Y-92466867D01*
X67801512Y-92425000D01*
X220684104Y-92425000D01*
X221083310Y-92464142D01*
G04 #@! TA.AperFunction,Conductor*
D12*
G36*
X221083310Y-92464142D02*
G01*
X221452022Y-92575463D01*
X221792087Y-92756279D01*
X222090557Y-92999705D01*
X222336056Y-93296465D01*
X222519244Y-93635264D01*
X222633133Y-94003180D01*
X222675000Y-94401512D01*
X222675001Y-136784094D01*
X222635858Y-137183310D01*
X222524538Y-137552019D01*
X222343721Y-137892087D01*
X222100297Y-138190555D01*
X221803538Y-138436055D01*
X221464740Y-138619242D01*
X221096819Y-138733134D01*
X220698488Y-138775000D01*
X67815896Y-138775000D01*
X67416690Y-138735858D01*
X67047981Y-138624538D01*
X66707913Y-138443721D01*
X66409445Y-138200297D01*
X66163945Y-137903538D01*
X65980758Y-137564740D01*
X65866866Y-137196819D01*
X65825000Y-136798488D01*
X65825000Y-129889752D01*
X71550000Y-129889752D01*
X71550000Y-130510248D01*
X71671052Y-131118821D01*
X71908506Y-131692085D01*
X72253235Y-132208008D01*
X72691992Y-132646765D01*
X73207915Y-132991494D01*
X73781179Y-133228948D01*
X74389752Y-133350000D01*
X75010248Y-133350000D01*
X75618821Y-133228948D01*
X76192085Y-132991494D01*
X76708008Y-132646765D01*
X77146765Y-132208008D01*
X77491494Y-131692085D01*
X77728948Y-131118821D01*
X77850000Y-130510248D01*
X77850000Y-129889752D01*
X210650000Y-129889752D01*
X210650000Y-130510248D01*
X210771052Y-131118821D01*
X211008506Y-131692085D01*
X211353235Y-132208008D01*
X211791992Y-132646765D01*
X212307915Y-132991494D01*
X212881179Y-133228948D01*
X213489752Y-133350000D01*
X214110248Y-133350000D01*
X214718821Y-133228948D01*
X215292085Y-132991494D01*
X215808008Y-132646765D01*
X216246765Y-132208008D01*
X216591494Y-131692085D01*
X216828948Y-131118821D01*
X216950000Y-130510248D01*
X216950000Y-129889752D01*
X216828948Y-129281179D01*
X216591494Y-128707915D01*
X216246765Y-128191992D01*
X215808008Y-127753235D01*
X215292085Y-127408506D01*
X214718821Y-127171052D01*
X214110248Y-127050000D01*
X213489752Y-127050000D01*
X212881179Y-127171052D01*
X212307915Y-127408506D01*
X211791992Y-127753235D01*
X211353235Y-128191992D01*
X211008506Y-128707915D01*
X210771052Y-129281179D01*
X210650000Y-129889752D01*
X77850000Y-129889752D01*
X77728948Y-129281179D01*
X77491494Y-128707915D01*
X77146765Y-128191992D01*
X76708008Y-127753235D01*
X76192085Y-127408506D01*
X75618821Y-127171052D01*
X75010248Y-127050000D01*
X74389752Y-127050000D01*
X73781179Y-127171052D01*
X73207915Y-127408506D01*
X72691992Y-127753235D01*
X72253235Y-128191992D01*
X71908506Y-128707915D01*
X71671052Y-129281179D01*
X71550000Y-129889752D01*
X65825000Y-129889752D01*
X65825000Y-121170150D01*
X72266292Y-121170150D01*
X72266292Y-121629850D01*
X72355975Y-122080718D01*
X72531895Y-122505425D01*
X72787290Y-122887652D01*
X73112348Y-123212710D01*
X73494575Y-123468105D01*
X73919282Y-123644025D01*
X74370150Y-123733708D01*
X74829850Y-123733708D01*
X75280718Y-123644025D01*
X75705425Y-123468105D01*
X76087652Y-123212710D01*
X76412710Y-122887652D01*
X76668105Y-122505425D01*
X76844025Y-122080718D01*
X76933708Y-121629850D01*
X76933708Y-121170150D01*
X78366292Y-121170150D01*
X78366292Y-121629850D01*
X78455975Y-122080718D01*
X78631895Y-122505425D01*
X78887290Y-122887652D01*
X79212348Y-123212710D01*
X79594575Y-123468105D01*
X80019282Y-123644025D01*
X80470150Y-123733708D01*
X80929850Y-123733708D01*
X81380718Y-123644025D01*
X81805425Y-123468105D01*
X82187652Y-123212710D01*
X82512710Y-122887652D01*
X82768105Y-122505425D01*
X82944025Y-122080718D01*
X83033708Y-121629850D01*
X83033708Y-121170150D01*
X82944025Y-120719282D01*
X82768105Y-120294575D01*
X82512710Y-119912348D01*
X82187652Y-119587290D01*
X81805425Y-119331895D01*
X81380718Y-119155975D01*
X80929850Y-119066292D01*
X80470150Y-119066292D01*
X80019282Y-119155975D01*
X79594575Y-119331895D01*
X79212348Y-119587290D01*
X78887290Y-119912348D01*
X78631895Y-120294575D01*
X78455975Y-120719282D01*
X78366292Y-121170150D01*
X76933708Y-121170150D01*
X76844025Y-120719282D01*
X76668105Y-120294575D01*
X76412710Y-119912348D01*
X76087652Y-119587290D01*
X75705425Y-119331895D01*
X75280718Y-119155975D01*
X74829850Y-119066292D01*
X74370150Y-119066292D01*
X73919282Y-119155975D01*
X73494575Y-119331895D01*
X73112348Y-119587290D01*
X72787290Y-119912348D01*
X72531895Y-120294575D01*
X72355975Y-120719282D01*
X72266292Y-121170150D01*
X65825000Y-121170150D01*
X65825000Y-116500000D01*
X91655000Y-116500000D01*
X91738601Y-117642241D01*
X91987623Y-118760137D01*
X92396759Y-119829863D01*
X92957287Y-120828618D01*
X93657262Y-121735116D01*
X94481765Y-122530037D01*
X95413223Y-123196438D01*
X96431783Y-123720116D01*
X97515738Y-124089910D01*
X98641983Y-124297938D01*
X99786515Y-124339766D01*
X100924941Y-124214504D01*
X102032997Y-123924820D01*
X103087066Y-123476889D01*
X104064683Y-122880258D01*
X104945012Y-122147643D01*
X105709290Y-121294658D01*
X106341228Y-120339483D01*
X106827356Y-119302476D01*
X107157315Y-118205740D01*
X107324072Y-117072648D01*
X107324072Y-116500000D01*
X121321666Y-116500000D01*
X121405267Y-117642241D01*
X121654289Y-118760137D01*
X122063425Y-119829863D01*
X122623953Y-120828618D01*
X123323928Y-121735116D01*
X124148431Y-122530037D01*
X125079889Y-123196438D01*
X126098449Y-123720116D01*
X127182404Y-124089910D01*
X128308649Y-124297938D01*
X129453181Y-124339766D01*
X130591607Y-124214504D01*
X131699663Y-123924820D01*
X132753732Y-123476889D01*
X133731349Y-122880258D01*
X134611678Y-122147643D01*
X135375956Y-121294658D01*
X136007894Y-120339483D01*
X136494022Y-119302476D01*
X136585023Y-119000000D01*
X155488332Y-119000000D01*
X155571933Y-120142241D01*
X155820955Y-121260137D01*
X156230091Y-122329863D01*
X156790619Y-123328618D01*
X157490594Y-124235116D01*
X158315097Y-125030037D01*
X159246555Y-125696438D01*
X160265115Y-126220116D01*
X161349070Y-126589910D01*
X162475315Y-126797938D01*
X163619847Y-126839766D01*
X164758273Y-126714504D01*
X165866329Y-126424820D01*
X166920398Y-125976889D01*
X167898015Y-125380258D01*
X168778344Y-124647643D01*
X169542622Y-123794658D01*
X170174560Y-122839483D01*
X170660688Y-121802476D01*
X170990647Y-120705740D01*
X171157404Y-119572648D01*
X171157404Y-118427352D01*
X170990647Y-117294260D01*
X170751690Y-116500000D01*
X184655000Y-116500000D01*
X184737200Y-117832724D01*
X184982552Y-119145244D01*
X185387339Y-120417666D01*
X185945423Y-121630700D01*
X186648344Y-122765957D01*
X187485448Y-123806229D01*
X188444045Y-124735746D01*
X189509602Y-125540418D01*
X190665968Y-126208046D01*
X191895612Y-126728510D01*
X193179896Y-127093920D01*
X194499350Y-127298737D01*
X195833972Y-127339856D01*
X197163532Y-127216655D01*
X198467875Y-126930999D01*
X199727228Y-126487220D01*
X200922500Y-125892046D01*
X202035573Y-125154497D01*
X203049573Y-124285755D01*
X203949129Y-123298989D01*
X204720605Y-122209157D01*
X205278539Y-121170150D01*
X211566292Y-121170150D01*
X211566292Y-121629850D01*
X211655975Y-122080718D01*
X211831895Y-122505425D01*
X212087290Y-122887652D01*
X212412348Y-123212710D01*
X212794575Y-123468105D01*
X213219282Y-123644025D01*
X213670150Y-123733708D01*
X214129850Y-123733708D01*
X214580718Y-123644025D01*
X215005425Y-123468105D01*
X215387652Y-123212710D01*
X215712710Y-122887652D01*
X215968105Y-122505425D01*
X216144025Y-122080718D01*
X216233708Y-121629850D01*
X216233708Y-121170150D01*
X216144025Y-120719282D01*
X215968105Y-120294575D01*
X215712710Y-119912348D01*
X215387652Y-119587290D01*
X215005425Y-119331895D01*
X214580718Y-119155975D01*
X214129850Y-119066292D01*
X213670150Y-119066292D01*
X213219282Y-119155975D01*
X212794575Y-119331895D01*
X212412348Y-119587290D01*
X212087290Y-119912348D01*
X211831895Y-120294575D01*
X211655975Y-120719282D01*
X211566292Y-121170150D01*
X205278539Y-121170150D01*
X205352306Y-121032780D01*
X205834656Y-119787691D01*
X206160343Y-118492764D01*
X206324431Y-117167628D01*
X206324431Y-115832372D01*
X206160343Y-114507236D01*
X205834656Y-113212309D01*
X205352306Y-111967220D01*
X204720605Y-110790843D01*
X203949129Y-109701011D01*
X203209795Y-108890000D01*
X207020000Y-108890000D01*
X207020000Y-108980000D01*
X207021163Y-108995206D01*
X207041163Y-109125206D01*
X207047152Y-109147139D01*
X207087152Y-109247139D01*
X207096795Y-109265470D01*
X207156795Y-109355470D01*
X207173564Y-109374741D01*
X207263564Y-109454741D01*
X207275461Y-109463818D01*
X207292861Y-109472848D01*
X207392861Y-109512848D01*
X207405746Y-109517014D01*
X207485746Y-109537014D01*
X207498957Y-109539388D01*
X207588957Y-109549388D01*
X207611043Y-109549388D01*
X207701043Y-109539388D01*
X207721623Y-109534868D01*
X207811623Y-109504868D01*
X207834358Y-109493936D01*
X210984358Y-107453936D01*
X210996757Y-107444454D01*
X211010000Y-107430000D01*
X211070000Y-107350000D01*
X211076824Y-107339614D01*
X211116824Y-107269614D01*
X211124868Y-107251623D01*
X211154868Y-107161623D01*
X211159228Y-107142403D01*
X211169228Y-107062403D01*
X211170000Y-107050000D01*
X211170000Y-106970000D01*
X211167014Y-106945746D01*
X211127014Y-106785746D01*
X211122428Y-106771828D01*
X211113205Y-106754530D01*
X211053205Y-106664530D01*
X211040711Y-106649289D01*
X210960711Y-106569289D01*
X210945470Y-106556795D01*
X210885470Y-106516795D01*
X210869392Y-106508085D01*
X210799392Y-106478085D01*
X210781693Y-106472381D01*
X210691693Y-106452381D01*
X210682403Y-106450772D01*
X210602403Y-106440772D01*
X210578957Y-106440612D01*
X210488957Y-106450612D01*
X210478307Y-106452381D01*
X210388307Y-106472381D01*
X210372854Y-106477155D01*
X210355454Y-106486186D01*
X207205454Y-108536186D01*
X207194559Y-108544386D01*
X207181065Y-108558606D01*
X207111065Y-108648606D01*
X207100557Y-108665279D01*
X207060557Y-108745279D01*
X207054217Y-108761265D01*
X207024217Y-108861265D01*
X207020000Y-108890000D01*
X203209795Y-108890000D01*
X203049573Y-108714245D01*
X202035573Y-107845503D01*
X200922500Y-107107954D01*
X199727228Y-106512780D01*
X198467875Y-106069001D01*
X197163532Y-105783345D01*
X195833972Y-105660144D01*
X194499350Y-105701263D01*
X193179896Y-105906080D01*
X191895612Y-106271490D01*
X190665968Y-106791954D01*
X189509602Y-107459582D01*
X188444045Y-108264254D01*
X187485448Y-109193771D01*
X186648344Y-110234043D01*
X185945423Y-111369300D01*
X185387339Y-112582334D01*
X184982552Y-113854756D01*
X184737200Y-115167276D01*
X184655000Y-116500000D01*
X170751690Y-116500000D01*
X170660688Y-116197524D01*
X170174560Y-115160517D01*
X169542622Y-114205342D01*
X168778344Y-113352357D01*
X167898015Y-112619742D01*
X166920398Y-112023111D01*
X165866329Y-111575180D01*
X164758273Y-111285496D01*
X163619847Y-111160234D01*
X162475315Y-111202062D01*
X161349070Y-111410090D01*
X160265115Y-111779884D01*
X159246555Y-112303562D01*
X158315097Y-112969963D01*
X157490594Y-113764884D01*
X156790619Y-114671382D01*
X156230091Y-115670137D01*
X155820955Y-116739863D01*
X155571933Y-117857759D01*
X155488332Y-119000000D01*
X136585023Y-119000000D01*
X136823981Y-118205740D01*
X136990738Y-117072648D01*
X136990738Y-115927352D01*
X136823981Y-114794260D01*
X136494022Y-113697524D01*
X136007894Y-112660517D01*
X135375956Y-111705342D01*
X134611678Y-110852357D01*
X133731349Y-110119742D01*
X132753732Y-109523111D01*
X131699663Y-109075180D01*
X130591607Y-108785496D01*
X129453181Y-108660234D01*
X128308649Y-108702062D01*
X127182404Y-108910090D01*
X126098449Y-109279884D01*
X125079889Y-109803562D01*
X124148431Y-110469963D01*
X123323928Y-111264884D01*
X122623953Y-112171382D01*
X122063425Y-113170137D01*
X121654289Y-114239863D01*
X121405267Y-115357759D01*
X121321666Y-116500000D01*
X107324072Y-116500000D01*
X107324072Y-115927352D01*
X107157315Y-114794260D01*
X106827356Y-113697524D01*
X106341228Y-112660517D01*
X105709290Y-111705342D01*
X104945012Y-110852357D01*
X104064683Y-110119742D01*
X103087066Y-109523111D01*
X102032997Y-109075180D01*
X100924941Y-108785496D01*
X99786515Y-108660234D01*
X98641983Y-108702062D01*
X97515738Y-108910090D01*
X96431783Y-109279884D01*
X95413223Y-109803562D01*
X94481765Y-110469963D01*
X93657262Y-111264884D01*
X92957287Y-112171382D01*
X92396759Y-113170137D01*
X91987623Y-114239863D01*
X91738601Y-115357759D01*
X91655000Y-116500000D01*
X65825000Y-116500000D01*
X65825000Y-106500000D01*
X73925000Y-106500000D01*
X73925000Y-110300000D01*
X73928551Y-110326413D01*
X73935557Y-110344721D01*
X74010557Y-110494721D01*
X74016853Y-110505557D01*
X74029289Y-110520711D01*
X74154289Y-110645711D01*
X74175386Y-110661824D01*
X74350386Y-110761824D01*
X74361732Y-110767388D01*
X74380491Y-110773079D01*
X74400000Y-110775000D01*
X74600000Y-110775000D01*
X74626413Y-110771449D01*
X74644721Y-110764443D01*
X74844721Y-110664443D01*
X74862286Y-110653234D01*
X74876351Y-110639579D01*
X74980457Y-110516495D01*
X74994724Y-110494204D01*
X75065618Y-110342288D01*
X75073079Y-110319509D01*
X75075000Y-110300000D01*
X75075000Y-106525000D01*
X80125000Y-106525000D01*
X80125000Y-110325000D01*
X80128551Y-110351413D01*
X80135557Y-110369721D01*
X80210557Y-110519721D01*
X80216853Y-110530557D01*
X80229289Y-110545711D01*
X80354289Y-110670711D01*
X80375386Y-110686824D01*
X80550386Y-110786824D01*
X80561732Y-110792388D01*
X80580491Y-110798079D01*
X80600000Y-110800000D01*
X80800000Y-110800000D01*
X80826413Y-110796449D01*
X80844721Y-110789443D01*
X81044721Y-110689443D01*
X81062286Y-110678234D01*
X81076351Y-110664579D01*
X81180457Y-110541495D01*
X81194724Y-110519204D01*
X81265618Y-110367288D01*
X81273079Y-110344509D01*
X81275000Y-110325000D01*
X81275000Y-106970000D01*
X180120000Y-106970000D01*
X180120000Y-107050000D01*
X180121613Y-107067889D01*
X180141613Y-107177889D01*
X180150557Y-107204721D01*
X180220557Y-107344721D01*
X180234074Y-107365079D01*
X180294074Y-107435079D01*
X180315333Y-107453735D01*
X183455333Y-109503735D01*
X183464297Y-109508945D01*
X183482528Y-109516152D01*
X183552528Y-109536152D01*
X183574127Y-109539827D01*
X183674369Y-109545724D01*
X183687615Y-109545625D01*
X183767373Y-109539728D01*
X183774142Y-109538995D01*
X183844142Y-109528995D01*
X183869392Y-109521915D01*
X183939392Y-109491915D01*
X183949614Y-109486824D01*
X184019614Y-109446824D01*
X184030000Y-109440000D01*
X184110000Y-109380000D01*
X184130000Y-109360000D01*
X184190000Y-109280000D01*
X184199443Y-109264721D01*
X184239443Y-109184721D01*
X184247619Y-109161693D01*
X184267619Y-109071693D01*
X184269504Y-109059950D01*
X184279504Y-108959950D01*
X184279388Y-108938957D01*
X184269388Y-108848957D01*
X184262848Y-108822861D01*
X184222848Y-108722861D01*
X184214489Y-108706507D01*
X184132181Y-108576507D01*
X184114023Y-108555165D01*
X184046331Y-108495165D01*
X184034225Y-108485978D01*
X180904225Y-106465978D01*
X180894329Y-106460362D01*
X180875990Y-106453436D01*
X180856652Y-106450221D01*
X180706652Y-106440221D01*
X180685858Y-106441005D01*
X180545858Y-106461005D01*
X180521988Y-106467506D01*
X180424658Y-106507506D01*
X180400304Y-106521830D01*
X180337634Y-106571830D01*
X180335982Y-106573178D01*
X180275982Y-106623178D01*
X180258077Y-106642654D01*
X180188077Y-106742654D01*
X180176053Y-106765736D01*
X180146809Y-106845918D01*
X180143324Y-106857666D01*
X180122568Y-106947484D01*
X180120000Y-106970000D01*
X81275000Y-106970000D01*
X81275000Y-106500000D01*
X81271449Y-106473587D01*
X81264443Y-106455279D01*
X81189443Y-106305279D01*
X81183147Y-106294443D01*
X81170711Y-106279289D01*
X81070711Y-106179289D01*
X81055470Y-106166795D01*
X80905470Y-106066795D01*
X80888268Y-106057612D01*
X80869509Y-106051921D01*
X80850000Y-106050000D01*
X80575000Y-106050000D01*
X80562389Y-106050798D01*
X80543278Y-106055165D01*
X80525386Y-106063176D01*
X80350386Y-106163176D01*
X80341104Y-106169183D01*
X80326470Y-106182226D01*
X80231944Y-106284781D01*
X80224847Y-106293400D01*
X80214856Y-106310267D01*
X80134382Y-106482712D01*
X80126921Y-106505491D01*
X80125000Y-106525000D01*
X75075000Y-106525000D01*
X75075000Y-106475000D01*
X75071449Y-106448587D01*
X75064443Y-106430279D01*
X74989443Y-106280279D01*
X74983147Y-106269443D01*
X74970711Y-106254289D01*
X74870711Y-106154289D01*
X74855470Y-106141795D01*
X74705470Y-106041795D01*
X74688268Y-106032612D01*
X74669509Y-106026921D01*
X74650000Y-106025000D01*
X74375000Y-106025000D01*
X74362389Y-106025798D01*
X74343278Y-106030165D01*
X74325386Y-106038176D01*
X74150386Y-106138176D01*
X74141104Y-106144183D01*
X74126470Y-106157226D01*
X74031944Y-106259781D01*
X74024847Y-106268400D01*
X74014856Y-106285267D01*
X73934382Y-106457712D01*
X73926921Y-106480491D01*
X73925000Y-106500000D01*
X65825000Y-106500000D01*
X65825000Y-100989752D01*
X71550000Y-100989752D01*
X71550000Y-101610248D01*
X71671052Y-102218821D01*
X71908506Y-102792085D01*
X72253235Y-103308008D01*
X72691992Y-103746765D01*
X73207915Y-104091494D01*
X73781179Y-104328948D01*
X74389752Y-104450000D01*
X75010248Y-104450000D01*
X75618821Y-104328948D01*
X76192085Y-104091494D01*
X76708008Y-103746765D01*
X77146765Y-103308008D01*
X77491494Y-102792085D01*
X77728948Y-102218821D01*
X77850000Y-101610248D01*
X77850000Y-100989752D01*
X210650000Y-100989752D01*
X210650000Y-101610248D01*
X210771052Y-102218821D01*
X211008506Y-102792085D01*
X211353235Y-103308008D01*
X211791992Y-103746765D01*
X212307915Y-104091494D01*
X212881179Y-104328948D01*
X213489752Y-104450000D01*
X214110248Y-104450000D01*
X214718821Y-104328948D01*
X215292085Y-104091494D01*
X215808008Y-103746765D01*
X216246765Y-103308008D01*
X216591494Y-102792085D01*
X216828948Y-102218821D01*
X216950000Y-101610248D01*
X216950000Y-100989752D01*
X216828948Y-100381179D01*
X216591494Y-99807915D01*
X216246765Y-99291992D01*
X215808008Y-98853235D01*
X215292085Y-98508506D01*
X214718821Y-98271052D01*
X214110248Y-98150000D01*
X213489752Y-98150000D01*
X212881179Y-98271052D01*
X212307915Y-98508506D01*
X211791992Y-98853235D01*
X211353235Y-99291992D01*
X211008506Y-99807915D01*
X210771052Y-100381179D01*
X210650000Y-100989752D01*
X77850000Y-100989752D01*
X77728948Y-100381179D01*
X77491494Y-99807915D01*
X77146765Y-99291992D01*
X76708008Y-98853235D01*
X76192085Y-98508506D01*
X75618821Y-98271052D01*
X75010248Y-98150000D01*
X74389752Y-98150000D01*
X73781179Y-98271052D01*
X73207915Y-98508506D01*
X72691992Y-98853235D01*
X72253235Y-99291992D01*
X71908506Y-99807915D01*
X71671052Y-100381179D01*
X71550000Y-100989752D01*
X65825000Y-100989752D01*
X65825000Y-94415896D01*
X65864142Y-94016690D01*
X65975463Y-93647978D01*
X66156279Y-93307913D01*
X66399705Y-93009443D01*
X66696465Y-92763944D01*
X67035264Y-92580756D01*
X67403180Y-92466867D01*
X67801512Y-92425000D01*
X220684104Y-92425000D01*
X221083310Y-92464142D01*
G37*
G04 #@! TD.AperFunction*
M02*
