G04 #@! TF.GenerationSoftware,KiCad,Pcbnew,(5.1.12)-1*
G04 #@! TF.CreationDate,2022-02-09T13:03:28+03:00*
G04 #@! TF.ProjectId,ADAU1701 panel,41444155-3137-4303-9120-70616e656c2e,rev?*
G04 #@! TF.SameCoordinates,Original*
G04 #@! TF.FileFunction,Other,User*
%FSLAX46Y46*%
G04 Gerber Fmt 4.6, Leading zero omitted, Abs format (unit mm)*
G04 Created by KiCad (PCBNEW (5.1.12)-1) date 2022-02-09 13:03:28*
%MOMM*%
%LPD*%
G01*
G04 APERTURE LIST*
%ADD10C,0.050000*%
G04 APERTURE END LIST*
D10*
X207700000Y-110400000D02*
X206400000Y-108600000D01*
X211800000Y-107700000D02*
X207700000Y-110400000D01*
X210500000Y-105900000D02*
X211800000Y-107700000D01*
X206400000Y-108600000D02*
X210500000Y-105900000D01*
X183750000Y-110750000D02*
X179250000Y-107500000D01*
X185250000Y-108750000D02*
X183750000Y-110750000D01*
X180750000Y-105500000D02*
X185250000Y-108750000D01*
X179250000Y-107500000D02*
X180750000Y-105500000D01*
X79500000Y-110750000D02*
X82000000Y-110750000D01*
X79500000Y-106000000D02*
X79500000Y-110750000D01*
X82000000Y-106000000D02*
X79500000Y-106000000D01*
X82000000Y-106000000D02*
X82000000Y-110750000D01*
X73000000Y-110750000D02*
X73000000Y-106000000D01*
X76000000Y-110750000D02*
X73000000Y-110750000D01*
X76000000Y-106000000D02*
X76000000Y-110750000D01*
X73000000Y-106000000D02*
X76000000Y-106000000D01*
X149500000Y-106000000D02*
X144500000Y-106000000D01*
X149500000Y-106000000D02*
X149500000Y-111000000D01*
X144500000Y-111000000D02*
X144500000Y-106000000D01*
X144500000Y-111000000D02*
X149500000Y-111000000D01*
M02*
