G04 #@! TF.GenerationSoftware,KiCad,Pcbnew,(5.1.12)-1*
G04 #@! TF.CreationDate,2022-02-09T14:20:02+03:00*
G04 #@! TF.ProjectId,ADAU1701 panel,41444155-3137-4303-9120-70616e656c2e,rev?*
G04 #@! TF.SameCoordinates,Original*
G04 #@! TF.FileFunction,Copper,L2,Bot*
G04 #@! TF.FilePolarity,Positive*
%FSLAX46Y46*%
G04 Gerber Fmt 4.6, Leading zero omitted, Abs format (unit mm)*
G04 Created by KiCad (PCBNEW (5.1.12)-1) date 2022-02-09 14:20:02*
%MOMM*%
%LPD*%
G01*
G04 APERTURE LIST*
G04 #@! TA.AperFunction,SMDPad,CuDef*
%ADD10R,4.000000X4.000000*%
G04 #@! TD*
G04 #@! TA.AperFunction,ViaPad*
%ADD11C,0.800000*%
G04 #@! TD*
G04 #@! TA.AperFunction,Conductor*
%ADD12C,0.200000*%
G04 #@! TD*
G04 #@! TA.AperFunction,Conductor*
%ADD13C,0.100000*%
G04 #@! TD*
G04 APERTURE END LIST*
D10*
X147000000Y-108500000D03*
D11*
X163300000Y-127100000D03*
D12*
X221083310Y-92464142D02*
X221452022Y-92575463D01*
X221792087Y-92756279D01*
X222090557Y-92999705D01*
X222336056Y-93296465D01*
X222519244Y-93635264D01*
X222633133Y-94003180D01*
X222675000Y-94401512D01*
X222675001Y-136784094D01*
X222635858Y-137183310D01*
X222524538Y-137552019D01*
X222343721Y-137892087D01*
X222100297Y-138190555D01*
X221803538Y-138436055D01*
X221464740Y-138619242D01*
X221096819Y-138733134D01*
X220698488Y-138775000D01*
X67815896Y-138775000D01*
X67416690Y-138735858D01*
X67047981Y-138624538D01*
X66707913Y-138443721D01*
X66409445Y-138200297D01*
X66163945Y-137903538D01*
X65980758Y-137564740D01*
X65866866Y-137196819D01*
X65825000Y-136798488D01*
X65825000Y-129889752D01*
X71550000Y-129889752D01*
X71550000Y-130510248D01*
X71671052Y-131118821D01*
X71908506Y-131692085D01*
X72253235Y-132208008D01*
X72691992Y-132646765D01*
X73207915Y-132991494D01*
X73781179Y-133228948D01*
X74389752Y-133350000D01*
X75010248Y-133350000D01*
X75618821Y-133228948D01*
X76192085Y-132991494D01*
X76708008Y-132646765D01*
X77146765Y-132208008D01*
X77491494Y-131692085D01*
X77728948Y-131118821D01*
X77850000Y-130510248D01*
X77850000Y-129889752D01*
X210650000Y-129889752D01*
X210650000Y-130510248D01*
X210771052Y-131118821D01*
X211008506Y-131692085D01*
X211353235Y-132208008D01*
X211791992Y-132646765D01*
X212307915Y-132991494D01*
X212881179Y-133228948D01*
X213489752Y-133350000D01*
X214110248Y-133350000D01*
X214718821Y-133228948D01*
X215292085Y-132991494D01*
X215808008Y-132646765D01*
X216246765Y-132208008D01*
X216591494Y-131692085D01*
X216828948Y-131118821D01*
X216950000Y-130510248D01*
X216950000Y-129889752D01*
X216828948Y-129281179D01*
X216591494Y-128707915D01*
X216246765Y-128191992D01*
X215808008Y-127753235D01*
X215292085Y-127408506D01*
X214718821Y-127171052D01*
X214110248Y-127050000D01*
X213489752Y-127050000D01*
X212881179Y-127171052D01*
X212307915Y-127408506D01*
X211791992Y-127753235D01*
X211353235Y-128191992D01*
X211008506Y-128707915D01*
X210771052Y-129281179D01*
X210650000Y-129889752D01*
X77850000Y-129889752D01*
X77728948Y-129281179D01*
X77491494Y-128707915D01*
X77146765Y-128191992D01*
X76708008Y-127753235D01*
X76192085Y-127408506D01*
X75618821Y-127171052D01*
X75010248Y-127050000D01*
X74389752Y-127050000D01*
X73781179Y-127171052D01*
X73207915Y-127408506D01*
X72691992Y-127753235D01*
X72253235Y-128191992D01*
X71908506Y-128707915D01*
X71671052Y-129281179D01*
X71550000Y-129889752D01*
X65825000Y-129889752D01*
X65825000Y-121170150D01*
X72266292Y-121170150D01*
X72266292Y-121629850D01*
X72355975Y-122080718D01*
X72531895Y-122505425D01*
X72787290Y-122887652D01*
X73112348Y-123212710D01*
X73494575Y-123468105D01*
X73919282Y-123644025D01*
X74370150Y-123733708D01*
X74829850Y-123733708D01*
X75280718Y-123644025D01*
X75705425Y-123468105D01*
X76087652Y-123212710D01*
X76412710Y-122887652D01*
X76668105Y-122505425D01*
X76844025Y-122080718D01*
X76933708Y-121629850D01*
X76933708Y-121170150D01*
X78366292Y-121170150D01*
X78366292Y-121629850D01*
X78455975Y-122080718D01*
X78631895Y-122505425D01*
X78887290Y-122887652D01*
X79212348Y-123212710D01*
X79594575Y-123468105D01*
X80019282Y-123644025D01*
X80470150Y-123733708D01*
X80929850Y-123733708D01*
X81380718Y-123644025D01*
X81805425Y-123468105D01*
X82187652Y-123212710D01*
X82512710Y-122887652D01*
X82768105Y-122505425D01*
X82944025Y-122080718D01*
X83033708Y-121629850D01*
X83033708Y-121170150D01*
X82944025Y-120719282D01*
X82768105Y-120294575D01*
X82512710Y-119912348D01*
X82187652Y-119587290D01*
X81805425Y-119331895D01*
X81380718Y-119155975D01*
X80929850Y-119066292D01*
X80470150Y-119066292D01*
X80019282Y-119155975D01*
X79594575Y-119331895D01*
X79212348Y-119587290D01*
X78887290Y-119912348D01*
X78631895Y-120294575D01*
X78455975Y-120719282D01*
X78366292Y-121170150D01*
X76933708Y-121170150D01*
X76844025Y-120719282D01*
X76668105Y-120294575D01*
X76412710Y-119912348D01*
X76087652Y-119587290D01*
X75705425Y-119331895D01*
X75280718Y-119155975D01*
X74829850Y-119066292D01*
X74370150Y-119066292D01*
X73919282Y-119155975D01*
X73494575Y-119331895D01*
X73112348Y-119587290D01*
X72787290Y-119912348D01*
X72531895Y-120294575D01*
X72355975Y-120719282D01*
X72266292Y-121170150D01*
X65825000Y-121170150D01*
X65825000Y-116500000D01*
X91655000Y-116500000D01*
X91738601Y-117642241D01*
X91987623Y-118760137D01*
X92396759Y-119829863D01*
X92957287Y-120828618D01*
X93657262Y-121735116D01*
X94481765Y-122530037D01*
X95413223Y-123196438D01*
X96431783Y-123720116D01*
X97515738Y-124089910D01*
X98641983Y-124297938D01*
X99786515Y-124339766D01*
X100924941Y-124214504D01*
X102032997Y-123924820D01*
X103087066Y-123476889D01*
X104064683Y-122880258D01*
X104945012Y-122147643D01*
X105709290Y-121294658D01*
X106341228Y-120339483D01*
X106827356Y-119302476D01*
X107157315Y-118205740D01*
X107324072Y-117072648D01*
X107324072Y-116500000D01*
X121321666Y-116500000D01*
X121405267Y-117642241D01*
X121654289Y-118760137D01*
X122063425Y-119829863D01*
X122623953Y-120828618D01*
X123323928Y-121735116D01*
X124148431Y-122530037D01*
X125079889Y-123196438D01*
X126098449Y-123720116D01*
X127182404Y-124089910D01*
X128308649Y-124297938D01*
X129453181Y-124339766D01*
X130591607Y-124214504D01*
X131699663Y-123924820D01*
X132753732Y-123476889D01*
X133731349Y-122880258D01*
X134611678Y-122147643D01*
X135375956Y-121294658D01*
X136007894Y-120339483D01*
X136494022Y-119302476D01*
X136585023Y-119000000D01*
X155488332Y-119000000D01*
X155571933Y-120142241D01*
X155820955Y-121260137D01*
X156230091Y-122329863D01*
X156790619Y-123328618D01*
X157490594Y-124235116D01*
X158315097Y-125030037D01*
X159246555Y-125696438D01*
X160265115Y-126220116D01*
X161349070Y-126589910D01*
X162475315Y-126797938D01*
X163619847Y-126839766D01*
X164758273Y-126714504D01*
X165866329Y-126424820D01*
X166920398Y-125976889D01*
X167898015Y-125380258D01*
X168778344Y-124647643D01*
X169542622Y-123794658D01*
X170174560Y-122839483D01*
X170660688Y-121802476D01*
X170990647Y-120705740D01*
X171157404Y-119572648D01*
X171157404Y-118427352D01*
X170990647Y-117294260D01*
X170751690Y-116500000D01*
X184655000Y-116500000D01*
X184737200Y-117832724D01*
X184982552Y-119145244D01*
X185387339Y-120417666D01*
X185945423Y-121630700D01*
X186648344Y-122765957D01*
X187485448Y-123806229D01*
X188444045Y-124735746D01*
X189509602Y-125540418D01*
X190665968Y-126208046D01*
X191895612Y-126728510D01*
X193179896Y-127093920D01*
X194499350Y-127298737D01*
X195833972Y-127339856D01*
X197163532Y-127216655D01*
X198467875Y-126930999D01*
X199727228Y-126487220D01*
X200922500Y-125892046D01*
X202035573Y-125154497D01*
X203049573Y-124285755D01*
X203949129Y-123298989D01*
X204720605Y-122209157D01*
X205278539Y-121170150D01*
X211566292Y-121170150D01*
X211566292Y-121629850D01*
X211655975Y-122080718D01*
X211831895Y-122505425D01*
X212087290Y-122887652D01*
X212412348Y-123212710D01*
X212794575Y-123468105D01*
X213219282Y-123644025D01*
X213670150Y-123733708D01*
X214129850Y-123733708D01*
X214580718Y-123644025D01*
X215005425Y-123468105D01*
X215387652Y-123212710D01*
X215712710Y-122887652D01*
X215968105Y-122505425D01*
X216144025Y-122080718D01*
X216233708Y-121629850D01*
X216233708Y-121170150D01*
X216144025Y-120719282D01*
X215968105Y-120294575D01*
X215712710Y-119912348D01*
X215387652Y-119587290D01*
X215005425Y-119331895D01*
X214580718Y-119155975D01*
X214129850Y-119066292D01*
X213670150Y-119066292D01*
X213219282Y-119155975D01*
X212794575Y-119331895D01*
X212412348Y-119587290D01*
X212087290Y-119912348D01*
X211831895Y-120294575D01*
X211655975Y-120719282D01*
X211566292Y-121170150D01*
X205278539Y-121170150D01*
X205352306Y-121032780D01*
X205834656Y-119787691D01*
X206160343Y-118492764D01*
X206324431Y-117167628D01*
X206324431Y-115832372D01*
X206160343Y-114507236D01*
X205834656Y-113212309D01*
X205352306Y-111967220D01*
X204720605Y-110790843D01*
X203949129Y-109701011D01*
X203049573Y-108714245D01*
X202804144Y-108503974D01*
X205900079Y-108503974D01*
X205902774Y-108523391D01*
X205909206Y-108541909D01*
X205919126Y-108558817D01*
X207519126Y-110758817D01*
X207529215Y-110770637D01*
X207544356Y-110783089D01*
X207561635Y-110792348D01*
X207580388Y-110798058D01*
X207599895Y-110800000D01*
X207619406Y-110798099D01*
X207638172Y-110792428D01*
X207655470Y-110783205D01*
X212155470Y-107783205D01*
X212172882Y-107768470D01*
X212184840Y-107752936D01*
X212193537Y-107735368D01*
X212198639Y-107716440D01*
X212199951Y-107696880D01*
X212197422Y-107677441D01*
X212191149Y-107658868D01*
X212181373Y-107641876D01*
X210681373Y-105541876D01*
X210672563Y-105531191D01*
X210657745Y-105518357D01*
X210640708Y-105508661D01*
X210622106Y-105502474D01*
X210602655Y-105500035D01*
X210583102Y-105501438D01*
X210564198Y-105506629D01*
X210546670Y-105515407D01*
X205946670Y-108415407D01*
X205926535Y-108432155D01*
X205914711Y-108447791D01*
X205906164Y-108465433D01*
X205901224Y-108484404D01*
X205900079Y-108503974D01*
X202804144Y-108503974D01*
X202035573Y-107845503D01*
X200922500Y-107107954D01*
X199727228Y-106512780D01*
X198467875Y-106069001D01*
X197163532Y-105783345D01*
X195833972Y-105660144D01*
X194499350Y-105701263D01*
X193179896Y-105906080D01*
X191895612Y-106271490D01*
X190665968Y-106791954D01*
X189509602Y-107459582D01*
X188444045Y-108264254D01*
X187485448Y-109193771D01*
X186648344Y-110234043D01*
X185945423Y-111369300D01*
X185387339Y-112582334D01*
X184982552Y-113854756D01*
X184737200Y-115167276D01*
X184655000Y-116500000D01*
X170751690Y-116500000D01*
X170660688Y-116197524D01*
X170174560Y-115160517D01*
X169542622Y-114205342D01*
X168778344Y-113352357D01*
X167898015Y-112619742D01*
X166920398Y-112023111D01*
X165866329Y-111575180D01*
X164758273Y-111285496D01*
X163619847Y-111160234D01*
X162475315Y-111202062D01*
X161349070Y-111410090D01*
X160265115Y-111779884D01*
X159246555Y-112303562D01*
X158315097Y-112969963D01*
X157490594Y-113764884D01*
X156790619Y-114671382D01*
X156230091Y-115670137D01*
X155820955Y-116739863D01*
X155571933Y-117857759D01*
X155488332Y-119000000D01*
X136585023Y-119000000D01*
X136823981Y-118205740D01*
X136990738Y-117072648D01*
X136990738Y-115927352D01*
X136823981Y-114794260D01*
X136494022Y-113697524D01*
X136007894Y-112660517D01*
X135375956Y-111705342D01*
X134611678Y-110852357D01*
X134188277Y-110500000D01*
X144389058Y-110500000D01*
X144400797Y-110619189D01*
X144435563Y-110733797D01*
X144492020Y-110839421D01*
X144567999Y-110932001D01*
X144660579Y-111007980D01*
X144766203Y-111064437D01*
X144880811Y-111099203D01*
X145000000Y-111110942D01*
X146694000Y-111108000D01*
X146846000Y-110956000D01*
X146846000Y-108654000D01*
X147154000Y-108654000D01*
X147154000Y-110956000D01*
X147306000Y-111108000D01*
X149000000Y-111110942D01*
X149119189Y-111099203D01*
X149233797Y-111064437D01*
X149339421Y-111007980D01*
X149432001Y-110932001D01*
X149507980Y-110839421D01*
X149564437Y-110733797D01*
X149599203Y-110619189D01*
X149610942Y-110500000D01*
X149608000Y-108806000D01*
X149456000Y-108654000D01*
X147154000Y-108654000D01*
X146846000Y-108654000D01*
X144544000Y-108654000D01*
X144392000Y-108806000D01*
X144389058Y-110500000D01*
X134188277Y-110500000D01*
X133731349Y-110119742D01*
X132753732Y-109523111D01*
X131699663Y-109075180D01*
X130591607Y-108785496D01*
X129453181Y-108660234D01*
X128308649Y-108702062D01*
X127182404Y-108910090D01*
X126098449Y-109279884D01*
X125079889Y-109803562D01*
X124148431Y-110469963D01*
X123323928Y-111264884D01*
X122623953Y-112171382D01*
X122063425Y-113170137D01*
X121654289Y-114239863D01*
X121405267Y-115357759D01*
X121321666Y-116500000D01*
X107324072Y-116500000D01*
X107324072Y-115927352D01*
X107157315Y-114794260D01*
X106827356Y-113697524D01*
X106341228Y-112660517D01*
X105709290Y-111705342D01*
X104945012Y-110852357D01*
X104064683Y-110119742D01*
X103087066Y-109523111D01*
X102032997Y-109075180D01*
X100924941Y-108785496D01*
X99786515Y-108660234D01*
X98641983Y-108702062D01*
X97515738Y-108910090D01*
X96431783Y-109279884D01*
X95413223Y-109803562D01*
X94481765Y-110469963D01*
X93657262Y-111264884D01*
X92957287Y-112171382D01*
X92396759Y-113170137D01*
X91987623Y-114239863D01*
X91738601Y-115357759D01*
X91655000Y-116500000D01*
X65825000Y-116500000D01*
X65825000Y-105500000D01*
X72400000Y-105500000D01*
X72400000Y-111250000D01*
X72401921Y-111269509D01*
X72407612Y-111288268D01*
X72416853Y-111305557D01*
X72429289Y-111320711D01*
X72444443Y-111333147D01*
X72461732Y-111342388D01*
X72480491Y-111348079D01*
X72500000Y-111350000D01*
X82500000Y-111350000D01*
X82519509Y-111348079D01*
X82538268Y-111342388D01*
X82555557Y-111333147D01*
X82570711Y-111320711D01*
X82583147Y-111305557D01*
X82592388Y-111288268D01*
X82598079Y-111269509D01*
X82600000Y-111250000D01*
X82600000Y-106500000D01*
X144389058Y-106500000D01*
X144392000Y-108194000D01*
X144544000Y-108346000D01*
X146846000Y-108346000D01*
X146846000Y-106044000D01*
X147154000Y-106044000D01*
X147154000Y-108346000D01*
X149456000Y-108346000D01*
X149608000Y-108194000D01*
X149609034Y-107598244D01*
X178800015Y-107598244D01*
X178801594Y-107617784D01*
X178806954Y-107636641D01*
X178815891Y-107654089D01*
X178828059Y-107669458D01*
X178842992Y-107682159D01*
X183742992Y-111082159D01*
X183756760Y-111090168D01*
X183775182Y-111096871D01*
X183794557Y-111099852D01*
X183814142Y-111098995D01*
X183833183Y-111094334D01*
X183850949Y-111086047D01*
X183866757Y-111074454D01*
X183880000Y-111060000D01*
X185680000Y-108660000D01*
X185691702Y-108639884D01*
X185697721Y-108621228D01*
X185699985Y-108601756D01*
X185698406Y-108582216D01*
X185693046Y-108563359D01*
X185684109Y-108545911D01*
X185671941Y-108530542D01*
X185657008Y-108517841D01*
X180757008Y-105117841D01*
X180743240Y-105109832D01*
X180724818Y-105103129D01*
X180705443Y-105100148D01*
X180685858Y-105101005D01*
X180666817Y-105105666D01*
X180649051Y-105113953D01*
X180633243Y-105125546D01*
X180620000Y-105140000D01*
X178820000Y-107540000D01*
X178808298Y-107560116D01*
X178802279Y-107578772D01*
X178800015Y-107598244D01*
X149609034Y-107598244D01*
X149610942Y-106500000D01*
X149599203Y-106380811D01*
X149564437Y-106266203D01*
X149507980Y-106160579D01*
X149432001Y-106067999D01*
X149339421Y-105992020D01*
X149233797Y-105935563D01*
X149119189Y-105900797D01*
X149000000Y-105889058D01*
X147306000Y-105892000D01*
X147154000Y-106044000D01*
X146846000Y-106044000D01*
X146694000Y-105892000D01*
X145000000Y-105889058D01*
X144880811Y-105900797D01*
X144766203Y-105935563D01*
X144660579Y-105992020D01*
X144567999Y-106067999D01*
X144492020Y-106160579D01*
X144435563Y-106266203D01*
X144400797Y-106380811D01*
X144389058Y-106500000D01*
X82600000Y-106500000D01*
X82600000Y-105500000D01*
X82598079Y-105480491D01*
X82592388Y-105461732D01*
X82583147Y-105444443D01*
X82570711Y-105429289D01*
X82555557Y-105416853D01*
X82538268Y-105407612D01*
X82519509Y-105401921D01*
X82500000Y-105400000D01*
X72500000Y-105400000D01*
X72480491Y-105401921D01*
X72461732Y-105407612D01*
X72444443Y-105416853D01*
X72429289Y-105429289D01*
X72416853Y-105444443D01*
X72407612Y-105461732D01*
X72401921Y-105480491D01*
X72400000Y-105500000D01*
X65825000Y-105500000D01*
X65825000Y-100989752D01*
X71550000Y-100989752D01*
X71550000Y-101610248D01*
X71671052Y-102218821D01*
X71908506Y-102792085D01*
X72253235Y-103308008D01*
X72691992Y-103746765D01*
X73207915Y-104091494D01*
X73781179Y-104328948D01*
X74389752Y-104450000D01*
X75010248Y-104450000D01*
X75618821Y-104328948D01*
X76192085Y-104091494D01*
X76708008Y-103746765D01*
X77146765Y-103308008D01*
X77491494Y-102792085D01*
X77728948Y-102218821D01*
X77850000Y-101610248D01*
X77850000Y-100989752D01*
X210650000Y-100989752D01*
X210650000Y-101610248D01*
X210771052Y-102218821D01*
X211008506Y-102792085D01*
X211353235Y-103308008D01*
X211791992Y-103746765D01*
X212307915Y-104091494D01*
X212881179Y-104328948D01*
X213489752Y-104450000D01*
X214110248Y-104450000D01*
X214718821Y-104328948D01*
X215292085Y-104091494D01*
X215808008Y-103746765D01*
X216246765Y-103308008D01*
X216591494Y-102792085D01*
X216828948Y-102218821D01*
X216950000Y-101610248D01*
X216950000Y-100989752D01*
X216828948Y-100381179D01*
X216591494Y-99807915D01*
X216246765Y-99291992D01*
X215808008Y-98853235D01*
X215292085Y-98508506D01*
X214718821Y-98271052D01*
X214110248Y-98150000D01*
X213489752Y-98150000D01*
X212881179Y-98271052D01*
X212307915Y-98508506D01*
X211791992Y-98853235D01*
X211353235Y-99291992D01*
X211008506Y-99807915D01*
X210771052Y-100381179D01*
X210650000Y-100989752D01*
X77850000Y-100989752D01*
X77728948Y-100381179D01*
X77491494Y-99807915D01*
X77146765Y-99291992D01*
X76708008Y-98853235D01*
X76192085Y-98508506D01*
X75618821Y-98271052D01*
X75010248Y-98150000D01*
X74389752Y-98150000D01*
X73781179Y-98271052D01*
X73207915Y-98508506D01*
X72691992Y-98853235D01*
X72253235Y-99291992D01*
X71908506Y-99807915D01*
X71671052Y-100381179D01*
X71550000Y-100989752D01*
X65825000Y-100989752D01*
X65825000Y-94415896D01*
X65864142Y-94016690D01*
X65975463Y-93647978D01*
X66156279Y-93307913D01*
X66399705Y-93009443D01*
X66696465Y-92763944D01*
X67035264Y-92580756D01*
X67403180Y-92466867D01*
X67801512Y-92425000D01*
X220684104Y-92425000D01*
X221083310Y-92464142D01*
G04 #@! TA.AperFunction,Conductor*
D13*
G36*
X221083310Y-92464142D02*
G01*
X221452022Y-92575463D01*
X221792087Y-92756279D01*
X222090557Y-92999705D01*
X222336056Y-93296465D01*
X222519244Y-93635264D01*
X222633133Y-94003180D01*
X222675000Y-94401512D01*
X222675001Y-136784094D01*
X222635858Y-137183310D01*
X222524538Y-137552019D01*
X222343721Y-137892087D01*
X222100297Y-138190555D01*
X221803538Y-138436055D01*
X221464740Y-138619242D01*
X221096819Y-138733134D01*
X220698488Y-138775000D01*
X67815896Y-138775000D01*
X67416690Y-138735858D01*
X67047981Y-138624538D01*
X66707913Y-138443721D01*
X66409445Y-138200297D01*
X66163945Y-137903538D01*
X65980758Y-137564740D01*
X65866866Y-137196819D01*
X65825000Y-136798488D01*
X65825000Y-129889752D01*
X71550000Y-129889752D01*
X71550000Y-130510248D01*
X71671052Y-131118821D01*
X71908506Y-131692085D01*
X72253235Y-132208008D01*
X72691992Y-132646765D01*
X73207915Y-132991494D01*
X73781179Y-133228948D01*
X74389752Y-133350000D01*
X75010248Y-133350000D01*
X75618821Y-133228948D01*
X76192085Y-132991494D01*
X76708008Y-132646765D01*
X77146765Y-132208008D01*
X77491494Y-131692085D01*
X77728948Y-131118821D01*
X77850000Y-130510248D01*
X77850000Y-129889752D01*
X210650000Y-129889752D01*
X210650000Y-130510248D01*
X210771052Y-131118821D01*
X211008506Y-131692085D01*
X211353235Y-132208008D01*
X211791992Y-132646765D01*
X212307915Y-132991494D01*
X212881179Y-133228948D01*
X213489752Y-133350000D01*
X214110248Y-133350000D01*
X214718821Y-133228948D01*
X215292085Y-132991494D01*
X215808008Y-132646765D01*
X216246765Y-132208008D01*
X216591494Y-131692085D01*
X216828948Y-131118821D01*
X216950000Y-130510248D01*
X216950000Y-129889752D01*
X216828948Y-129281179D01*
X216591494Y-128707915D01*
X216246765Y-128191992D01*
X215808008Y-127753235D01*
X215292085Y-127408506D01*
X214718821Y-127171052D01*
X214110248Y-127050000D01*
X213489752Y-127050000D01*
X212881179Y-127171052D01*
X212307915Y-127408506D01*
X211791992Y-127753235D01*
X211353235Y-128191992D01*
X211008506Y-128707915D01*
X210771052Y-129281179D01*
X210650000Y-129889752D01*
X77850000Y-129889752D01*
X77728948Y-129281179D01*
X77491494Y-128707915D01*
X77146765Y-128191992D01*
X76708008Y-127753235D01*
X76192085Y-127408506D01*
X75618821Y-127171052D01*
X75010248Y-127050000D01*
X74389752Y-127050000D01*
X73781179Y-127171052D01*
X73207915Y-127408506D01*
X72691992Y-127753235D01*
X72253235Y-128191992D01*
X71908506Y-128707915D01*
X71671052Y-129281179D01*
X71550000Y-129889752D01*
X65825000Y-129889752D01*
X65825000Y-121170150D01*
X72266292Y-121170150D01*
X72266292Y-121629850D01*
X72355975Y-122080718D01*
X72531895Y-122505425D01*
X72787290Y-122887652D01*
X73112348Y-123212710D01*
X73494575Y-123468105D01*
X73919282Y-123644025D01*
X74370150Y-123733708D01*
X74829850Y-123733708D01*
X75280718Y-123644025D01*
X75705425Y-123468105D01*
X76087652Y-123212710D01*
X76412710Y-122887652D01*
X76668105Y-122505425D01*
X76844025Y-122080718D01*
X76933708Y-121629850D01*
X76933708Y-121170150D01*
X78366292Y-121170150D01*
X78366292Y-121629850D01*
X78455975Y-122080718D01*
X78631895Y-122505425D01*
X78887290Y-122887652D01*
X79212348Y-123212710D01*
X79594575Y-123468105D01*
X80019282Y-123644025D01*
X80470150Y-123733708D01*
X80929850Y-123733708D01*
X81380718Y-123644025D01*
X81805425Y-123468105D01*
X82187652Y-123212710D01*
X82512710Y-122887652D01*
X82768105Y-122505425D01*
X82944025Y-122080718D01*
X83033708Y-121629850D01*
X83033708Y-121170150D01*
X82944025Y-120719282D01*
X82768105Y-120294575D01*
X82512710Y-119912348D01*
X82187652Y-119587290D01*
X81805425Y-119331895D01*
X81380718Y-119155975D01*
X80929850Y-119066292D01*
X80470150Y-119066292D01*
X80019282Y-119155975D01*
X79594575Y-119331895D01*
X79212348Y-119587290D01*
X78887290Y-119912348D01*
X78631895Y-120294575D01*
X78455975Y-120719282D01*
X78366292Y-121170150D01*
X76933708Y-121170150D01*
X76844025Y-120719282D01*
X76668105Y-120294575D01*
X76412710Y-119912348D01*
X76087652Y-119587290D01*
X75705425Y-119331895D01*
X75280718Y-119155975D01*
X74829850Y-119066292D01*
X74370150Y-119066292D01*
X73919282Y-119155975D01*
X73494575Y-119331895D01*
X73112348Y-119587290D01*
X72787290Y-119912348D01*
X72531895Y-120294575D01*
X72355975Y-120719282D01*
X72266292Y-121170150D01*
X65825000Y-121170150D01*
X65825000Y-116500000D01*
X91655000Y-116500000D01*
X91738601Y-117642241D01*
X91987623Y-118760137D01*
X92396759Y-119829863D01*
X92957287Y-120828618D01*
X93657262Y-121735116D01*
X94481765Y-122530037D01*
X95413223Y-123196438D01*
X96431783Y-123720116D01*
X97515738Y-124089910D01*
X98641983Y-124297938D01*
X99786515Y-124339766D01*
X100924941Y-124214504D01*
X102032997Y-123924820D01*
X103087066Y-123476889D01*
X104064683Y-122880258D01*
X104945012Y-122147643D01*
X105709290Y-121294658D01*
X106341228Y-120339483D01*
X106827356Y-119302476D01*
X107157315Y-118205740D01*
X107324072Y-117072648D01*
X107324072Y-116500000D01*
X121321666Y-116500000D01*
X121405267Y-117642241D01*
X121654289Y-118760137D01*
X122063425Y-119829863D01*
X122623953Y-120828618D01*
X123323928Y-121735116D01*
X124148431Y-122530037D01*
X125079889Y-123196438D01*
X126098449Y-123720116D01*
X127182404Y-124089910D01*
X128308649Y-124297938D01*
X129453181Y-124339766D01*
X130591607Y-124214504D01*
X131699663Y-123924820D01*
X132753732Y-123476889D01*
X133731349Y-122880258D01*
X134611678Y-122147643D01*
X135375956Y-121294658D01*
X136007894Y-120339483D01*
X136494022Y-119302476D01*
X136585023Y-119000000D01*
X155488332Y-119000000D01*
X155571933Y-120142241D01*
X155820955Y-121260137D01*
X156230091Y-122329863D01*
X156790619Y-123328618D01*
X157490594Y-124235116D01*
X158315097Y-125030037D01*
X159246555Y-125696438D01*
X160265115Y-126220116D01*
X161349070Y-126589910D01*
X162475315Y-126797938D01*
X163619847Y-126839766D01*
X164758273Y-126714504D01*
X165866329Y-126424820D01*
X166920398Y-125976889D01*
X167898015Y-125380258D01*
X168778344Y-124647643D01*
X169542622Y-123794658D01*
X170174560Y-122839483D01*
X170660688Y-121802476D01*
X170990647Y-120705740D01*
X171157404Y-119572648D01*
X171157404Y-118427352D01*
X170990647Y-117294260D01*
X170751690Y-116500000D01*
X184655000Y-116500000D01*
X184737200Y-117832724D01*
X184982552Y-119145244D01*
X185387339Y-120417666D01*
X185945423Y-121630700D01*
X186648344Y-122765957D01*
X187485448Y-123806229D01*
X188444045Y-124735746D01*
X189509602Y-125540418D01*
X190665968Y-126208046D01*
X191895612Y-126728510D01*
X193179896Y-127093920D01*
X194499350Y-127298737D01*
X195833972Y-127339856D01*
X197163532Y-127216655D01*
X198467875Y-126930999D01*
X199727228Y-126487220D01*
X200922500Y-125892046D01*
X202035573Y-125154497D01*
X203049573Y-124285755D01*
X203949129Y-123298989D01*
X204720605Y-122209157D01*
X205278539Y-121170150D01*
X211566292Y-121170150D01*
X211566292Y-121629850D01*
X211655975Y-122080718D01*
X211831895Y-122505425D01*
X212087290Y-122887652D01*
X212412348Y-123212710D01*
X212794575Y-123468105D01*
X213219282Y-123644025D01*
X213670150Y-123733708D01*
X214129850Y-123733708D01*
X214580718Y-123644025D01*
X215005425Y-123468105D01*
X215387652Y-123212710D01*
X215712710Y-122887652D01*
X215968105Y-122505425D01*
X216144025Y-122080718D01*
X216233708Y-121629850D01*
X216233708Y-121170150D01*
X216144025Y-120719282D01*
X215968105Y-120294575D01*
X215712710Y-119912348D01*
X215387652Y-119587290D01*
X215005425Y-119331895D01*
X214580718Y-119155975D01*
X214129850Y-119066292D01*
X213670150Y-119066292D01*
X213219282Y-119155975D01*
X212794575Y-119331895D01*
X212412348Y-119587290D01*
X212087290Y-119912348D01*
X211831895Y-120294575D01*
X211655975Y-120719282D01*
X211566292Y-121170150D01*
X205278539Y-121170150D01*
X205352306Y-121032780D01*
X205834656Y-119787691D01*
X206160343Y-118492764D01*
X206324431Y-117167628D01*
X206324431Y-115832372D01*
X206160343Y-114507236D01*
X205834656Y-113212309D01*
X205352306Y-111967220D01*
X204720605Y-110790843D01*
X203949129Y-109701011D01*
X203049573Y-108714245D01*
X202804144Y-108503974D01*
X205900079Y-108503974D01*
X205902774Y-108523391D01*
X205909206Y-108541909D01*
X205919126Y-108558817D01*
X207519126Y-110758817D01*
X207529215Y-110770637D01*
X207544356Y-110783089D01*
X207561635Y-110792348D01*
X207580388Y-110798058D01*
X207599895Y-110800000D01*
X207619406Y-110798099D01*
X207638172Y-110792428D01*
X207655470Y-110783205D01*
X212155470Y-107783205D01*
X212172882Y-107768470D01*
X212184840Y-107752936D01*
X212193537Y-107735368D01*
X212198639Y-107716440D01*
X212199951Y-107696880D01*
X212197422Y-107677441D01*
X212191149Y-107658868D01*
X212181373Y-107641876D01*
X210681373Y-105541876D01*
X210672563Y-105531191D01*
X210657745Y-105518357D01*
X210640708Y-105508661D01*
X210622106Y-105502474D01*
X210602655Y-105500035D01*
X210583102Y-105501438D01*
X210564198Y-105506629D01*
X210546670Y-105515407D01*
X205946670Y-108415407D01*
X205926535Y-108432155D01*
X205914711Y-108447791D01*
X205906164Y-108465433D01*
X205901224Y-108484404D01*
X205900079Y-108503974D01*
X202804144Y-108503974D01*
X202035573Y-107845503D01*
X200922500Y-107107954D01*
X199727228Y-106512780D01*
X198467875Y-106069001D01*
X197163532Y-105783345D01*
X195833972Y-105660144D01*
X194499350Y-105701263D01*
X193179896Y-105906080D01*
X191895612Y-106271490D01*
X190665968Y-106791954D01*
X189509602Y-107459582D01*
X188444045Y-108264254D01*
X187485448Y-109193771D01*
X186648344Y-110234043D01*
X185945423Y-111369300D01*
X185387339Y-112582334D01*
X184982552Y-113854756D01*
X184737200Y-115167276D01*
X184655000Y-116500000D01*
X170751690Y-116500000D01*
X170660688Y-116197524D01*
X170174560Y-115160517D01*
X169542622Y-114205342D01*
X168778344Y-113352357D01*
X167898015Y-112619742D01*
X166920398Y-112023111D01*
X165866329Y-111575180D01*
X164758273Y-111285496D01*
X163619847Y-111160234D01*
X162475315Y-111202062D01*
X161349070Y-111410090D01*
X160265115Y-111779884D01*
X159246555Y-112303562D01*
X158315097Y-112969963D01*
X157490594Y-113764884D01*
X156790619Y-114671382D01*
X156230091Y-115670137D01*
X155820955Y-116739863D01*
X155571933Y-117857759D01*
X155488332Y-119000000D01*
X136585023Y-119000000D01*
X136823981Y-118205740D01*
X136990738Y-117072648D01*
X136990738Y-115927352D01*
X136823981Y-114794260D01*
X136494022Y-113697524D01*
X136007894Y-112660517D01*
X135375956Y-111705342D01*
X134611678Y-110852357D01*
X134188277Y-110500000D01*
X144389058Y-110500000D01*
X144400797Y-110619189D01*
X144435563Y-110733797D01*
X144492020Y-110839421D01*
X144567999Y-110932001D01*
X144660579Y-111007980D01*
X144766203Y-111064437D01*
X144880811Y-111099203D01*
X145000000Y-111110942D01*
X146694000Y-111108000D01*
X146846000Y-110956000D01*
X146846000Y-108654000D01*
X147154000Y-108654000D01*
X147154000Y-110956000D01*
X147306000Y-111108000D01*
X149000000Y-111110942D01*
X149119189Y-111099203D01*
X149233797Y-111064437D01*
X149339421Y-111007980D01*
X149432001Y-110932001D01*
X149507980Y-110839421D01*
X149564437Y-110733797D01*
X149599203Y-110619189D01*
X149610942Y-110500000D01*
X149608000Y-108806000D01*
X149456000Y-108654000D01*
X147154000Y-108654000D01*
X146846000Y-108654000D01*
X144544000Y-108654000D01*
X144392000Y-108806000D01*
X144389058Y-110500000D01*
X134188277Y-110500000D01*
X133731349Y-110119742D01*
X132753732Y-109523111D01*
X131699663Y-109075180D01*
X130591607Y-108785496D01*
X129453181Y-108660234D01*
X128308649Y-108702062D01*
X127182404Y-108910090D01*
X126098449Y-109279884D01*
X125079889Y-109803562D01*
X124148431Y-110469963D01*
X123323928Y-111264884D01*
X122623953Y-112171382D01*
X122063425Y-113170137D01*
X121654289Y-114239863D01*
X121405267Y-115357759D01*
X121321666Y-116500000D01*
X107324072Y-116500000D01*
X107324072Y-115927352D01*
X107157315Y-114794260D01*
X106827356Y-113697524D01*
X106341228Y-112660517D01*
X105709290Y-111705342D01*
X104945012Y-110852357D01*
X104064683Y-110119742D01*
X103087066Y-109523111D01*
X102032997Y-109075180D01*
X100924941Y-108785496D01*
X99786515Y-108660234D01*
X98641983Y-108702062D01*
X97515738Y-108910090D01*
X96431783Y-109279884D01*
X95413223Y-109803562D01*
X94481765Y-110469963D01*
X93657262Y-111264884D01*
X92957287Y-112171382D01*
X92396759Y-113170137D01*
X91987623Y-114239863D01*
X91738601Y-115357759D01*
X91655000Y-116500000D01*
X65825000Y-116500000D01*
X65825000Y-105500000D01*
X72400000Y-105500000D01*
X72400000Y-111250000D01*
X72401921Y-111269509D01*
X72407612Y-111288268D01*
X72416853Y-111305557D01*
X72429289Y-111320711D01*
X72444443Y-111333147D01*
X72461732Y-111342388D01*
X72480491Y-111348079D01*
X72500000Y-111350000D01*
X82500000Y-111350000D01*
X82519509Y-111348079D01*
X82538268Y-111342388D01*
X82555557Y-111333147D01*
X82570711Y-111320711D01*
X82583147Y-111305557D01*
X82592388Y-111288268D01*
X82598079Y-111269509D01*
X82600000Y-111250000D01*
X82600000Y-106500000D01*
X144389058Y-106500000D01*
X144392000Y-108194000D01*
X144544000Y-108346000D01*
X146846000Y-108346000D01*
X146846000Y-106044000D01*
X147154000Y-106044000D01*
X147154000Y-108346000D01*
X149456000Y-108346000D01*
X149608000Y-108194000D01*
X149609034Y-107598244D01*
X178800015Y-107598244D01*
X178801594Y-107617784D01*
X178806954Y-107636641D01*
X178815891Y-107654089D01*
X178828059Y-107669458D01*
X178842992Y-107682159D01*
X183742992Y-111082159D01*
X183756760Y-111090168D01*
X183775182Y-111096871D01*
X183794557Y-111099852D01*
X183814142Y-111098995D01*
X183833183Y-111094334D01*
X183850949Y-111086047D01*
X183866757Y-111074454D01*
X183880000Y-111060000D01*
X185680000Y-108660000D01*
X185691702Y-108639884D01*
X185697721Y-108621228D01*
X185699985Y-108601756D01*
X185698406Y-108582216D01*
X185693046Y-108563359D01*
X185684109Y-108545911D01*
X185671941Y-108530542D01*
X185657008Y-108517841D01*
X180757008Y-105117841D01*
X180743240Y-105109832D01*
X180724818Y-105103129D01*
X180705443Y-105100148D01*
X180685858Y-105101005D01*
X180666817Y-105105666D01*
X180649051Y-105113953D01*
X180633243Y-105125546D01*
X180620000Y-105140000D01*
X178820000Y-107540000D01*
X178808298Y-107560116D01*
X178802279Y-107578772D01*
X178800015Y-107598244D01*
X149609034Y-107598244D01*
X149610942Y-106500000D01*
X149599203Y-106380811D01*
X149564437Y-106266203D01*
X149507980Y-106160579D01*
X149432001Y-106067999D01*
X149339421Y-105992020D01*
X149233797Y-105935563D01*
X149119189Y-105900797D01*
X149000000Y-105889058D01*
X147306000Y-105892000D01*
X147154000Y-106044000D01*
X146846000Y-106044000D01*
X146694000Y-105892000D01*
X145000000Y-105889058D01*
X144880811Y-105900797D01*
X144766203Y-105935563D01*
X144660579Y-105992020D01*
X144567999Y-106067999D01*
X144492020Y-106160579D01*
X144435563Y-106266203D01*
X144400797Y-106380811D01*
X144389058Y-106500000D01*
X82600000Y-106500000D01*
X82600000Y-105500000D01*
X82598079Y-105480491D01*
X82592388Y-105461732D01*
X82583147Y-105444443D01*
X82570711Y-105429289D01*
X82555557Y-105416853D01*
X82538268Y-105407612D01*
X82519509Y-105401921D01*
X82500000Y-105400000D01*
X72500000Y-105400000D01*
X72480491Y-105401921D01*
X72461732Y-105407612D01*
X72444443Y-105416853D01*
X72429289Y-105429289D01*
X72416853Y-105444443D01*
X72407612Y-105461732D01*
X72401921Y-105480491D01*
X72400000Y-105500000D01*
X65825000Y-105500000D01*
X65825000Y-100989752D01*
X71550000Y-100989752D01*
X71550000Y-101610248D01*
X71671052Y-102218821D01*
X71908506Y-102792085D01*
X72253235Y-103308008D01*
X72691992Y-103746765D01*
X73207915Y-104091494D01*
X73781179Y-104328948D01*
X74389752Y-104450000D01*
X75010248Y-104450000D01*
X75618821Y-104328948D01*
X76192085Y-104091494D01*
X76708008Y-103746765D01*
X77146765Y-103308008D01*
X77491494Y-102792085D01*
X77728948Y-102218821D01*
X77850000Y-101610248D01*
X77850000Y-100989752D01*
X210650000Y-100989752D01*
X210650000Y-101610248D01*
X210771052Y-102218821D01*
X211008506Y-102792085D01*
X211353235Y-103308008D01*
X211791992Y-103746765D01*
X212307915Y-104091494D01*
X212881179Y-104328948D01*
X213489752Y-104450000D01*
X214110248Y-104450000D01*
X214718821Y-104328948D01*
X215292085Y-104091494D01*
X215808008Y-103746765D01*
X216246765Y-103308008D01*
X216591494Y-102792085D01*
X216828948Y-102218821D01*
X216950000Y-101610248D01*
X216950000Y-100989752D01*
X216828948Y-100381179D01*
X216591494Y-99807915D01*
X216246765Y-99291992D01*
X215808008Y-98853235D01*
X215292085Y-98508506D01*
X214718821Y-98271052D01*
X214110248Y-98150000D01*
X213489752Y-98150000D01*
X212881179Y-98271052D01*
X212307915Y-98508506D01*
X211791992Y-98853235D01*
X211353235Y-99291992D01*
X211008506Y-99807915D01*
X210771052Y-100381179D01*
X210650000Y-100989752D01*
X77850000Y-100989752D01*
X77728948Y-100381179D01*
X77491494Y-99807915D01*
X77146765Y-99291992D01*
X76708008Y-98853235D01*
X76192085Y-98508506D01*
X75618821Y-98271052D01*
X75010248Y-98150000D01*
X74389752Y-98150000D01*
X73781179Y-98271052D01*
X73207915Y-98508506D01*
X72691992Y-98853235D01*
X72253235Y-99291992D01*
X71908506Y-99807915D01*
X71671052Y-100381179D01*
X71550000Y-100989752D01*
X65825000Y-100989752D01*
X65825000Y-94415896D01*
X65864142Y-94016690D01*
X65975463Y-93647978D01*
X66156279Y-93307913D01*
X66399705Y-93009443D01*
X66696465Y-92763944D01*
X67035264Y-92580756D01*
X67403180Y-92466867D01*
X67801512Y-92425000D01*
X220684104Y-92425000D01*
X221083310Y-92464142D01*
G37*
G04 #@! TD.AperFunction*
M02*
