G04 #@! TF.GenerationSoftware,KiCad,Pcbnew,(5.1.12)-1*
G04 #@! TF.CreationDate,2022-02-09T13:03:28+03:00*
G04 #@! TF.ProjectId,ADAU1701 panel,41444155-3137-4303-9120-70616e656c2e,rev?*
G04 #@! TF.SameCoordinates,Original*
G04 #@! TF.FileFunction,Soldermask,Top*
G04 #@! TF.FilePolarity,Negative*
%FSLAX46Y46*%
G04 Gerber Fmt 4.6, Leading zero omitted, Abs format (unit mm)*
G04 Created by KiCad (PCBNEW (5.1.12)-1) date 2022-02-09 13:03:28*
%MOMM*%
%LPD*%
G01*
G04 APERTURE LIST*
%ADD10C,0.010000*%
%ADD11C,3.302000*%
G04 APERTURE END LIST*
D10*
G36*
X74024641Y-108174991D02*
G01*
X74024814Y-108020284D01*
X74025079Y-107867901D01*
X74025435Y-107718804D01*
X74025880Y-107573957D01*
X74026418Y-107434323D01*
X74027046Y-107300864D01*
X74027766Y-107174543D01*
X74028576Y-107056322D01*
X74029477Y-106947166D01*
X74030469Y-106848036D01*
X74031551Y-106759896D01*
X74032725Y-106683708D01*
X74033990Y-106620435D01*
X74035345Y-106571040D01*
X74036791Y-106536487D01*
X74038329Y-106517736D01*
X74038604Y-106516167D01*
X74064716Y-106431569D01*
X74105139Y-106354420D01*
X74158304Y-106286291D01*
X74222645Y-106228748D01*
X74296592Y-106183359D01*
X74378579Y-106151693D01*
X74411100Y-106143671D01*
X74463727Y-106134547D01*
X74508989Y-106131975D01*
X74555137Y-106135954D01*
X74597367Y-106143671D01*
X74681965Y-106169783D01*
X74759113Y-106210206D01*
X74827243Y-106263372D01*
X74884786Y-106327712D01*
X74930174Y-106401660D01*
X74961841Y-106483646D01*
X74969863Y-106516167D01*
X74971368Y-106531854D01*
X74972784Y-106563503D01*
X74974109Y-106610153D01*
X74975345Y-106670846D01*
X74976491Y-106744620D01*
X74977548Y-106830514D01*
X74978515Y-106927570D01*
X74979393Y-107034825D01*
X74980182Y-107151320D01*
X74980881Y-107276095D01*
X74981492Y-107408189D01*
X74982014Y-107546641D01*
X74982447Y-107690492D01*
X74982792Y-107838781D01*
X74983048Y-107990548D01*
X74983216Y-108144832D01*
X74983295Y-108300673D01*
X74983287Y-108457110D01*
X74983190Y-108613184D01*
X74983006Y-108767934D01*
X74982734Y-108920399D01*
X74982375Y-109069619D01*
X74981927Y-109214634D01*
X74981393Y-109354483D01*
X74980771Y-109488207D01*
X74980062Y-109614844D01*
X74979267Y-109733435D01*
X74978384Y-109843018D01*
X74977414Y-109942634D01*
X74976358Y-110031323D01*
X74975215Y-110108123D01*
X74973986Y-110172075D01*
X74972671Y-110222218D01*
X74971269Y-110257592D01*
X74969782Y-110277236D01*
X74969391Y-110279600D01*
X74943954Y-110359972D01*
X74904381Y-110435225D01*
X74852731Y-110502686D01*
X74791061Y-110559678D01*
X74721430Y-110603525D01*
X74719508Y-110604477D01*
X74663496Y-110627851D01*
X74603046Y-110646036D01*
X74544669Y-110657345D01*
X74504233Y-110660306D01*
X74452112Y-110655637D01*
X74392765Y-110642754D01*
X74332703Y-110623347D01*
X74288958Y-110604477D01*
X74218452Y-110560613D01*
X74156362Y-110503574D01*
X74104540Y-110435796D01*
X74064840Y-110359713D01*
X74039113Y-110277760D01*
X74038604Y-110275367D01*
X74037051Y-110259448D01*
X74035589Y-110227559D01*
X74034218Y-110180662D01*
X74032937Y-110119720D01*
X74031748Y-110045697D01*
X74030649Y-109959556D01*
X74029642Y-109862258D01*
X74028725Y-109754767D01*
X74027899Y-109638045D01*
X74027164Y-109513056D01*
X74026520Y-109380763D01*
X74025967Y-109242128D01*
X74025506Y-109098113D01*
X74025134Y-108949683D01*
X74024854Y-108797800D01*
X74024664Y-108643426D01*
X74024565Y-108487525D01*
X74024557Y-108331058D01*
X74024641Y-108174991D01*
G37*
X74024641Y-108174991D02*
X74024814Y-108020284D01*
X74025079Y-107867901D01*
X74025435Y-107718804D01*
X74025880Y-107573957D01*
X74026418Y-107434323D01*
X74027046Y-107300864D01*
X74027766Y-107174543D01*
X74028576Y-107056322D01*
X74029477Y-106947166D01*
X74030469Y-106848036D01*
X74031551Y-106759896D01*
X74032725Y-106683708D01*
X74033990Y-106620435D01*
X74035345Y-106571040D01*
X74036791Y-106536487D01*
X74038329Y-106517736D01*
X74038604Y-106516167D01*
X74064716Y-106431569D01*
X74105139Y-106354420D01*
X74158304Y-106286291D01*
X74222645Y-106228748D01*
X74296592Y-106183359D01*
X74378579Y-106151693D01*
X74411100Y-106143671D01*
X74463727Y-106134547D01*
X74508989Y-106131975D01*
X74555137Y-106135954D01*
X74597367Y-106143671D01*
X74681965Y-106169783D01*
X74759113Y-106210206D01*
X74827243Y-106263372D01*
X74884786Y-106327712D01*
X74930174Y-106401660D01*
X74961841Y-106483646D01*
X74969863Y-106516167D01*
X74971368Y-106531854D01*
X74972784Y-106563503D01*
X74974109Y-106610153D01*
X74975345Y-106670846D01*
X74976491Y-106744620D01*
X74977548Y-106830514D01*
X74978515Y-106927570D01*
X74979393Y-107034825D01*
X74980182Y-107151320D01*
X74980881Y-107276095D01*
X74981492Y-107408189D01*
X74982014Y-107546641D01*
X74982447Y-107690492D01*
X74982792Y-107838781D01*
X74983048Y-107990548D01*
X74983216Y-108144832D01*
X74983295Y-108300673D01*
X74983287Y-108457110D01*
X74983190Y-108613184D01*
X74983006Y-108767934D01*
X74982734Y-108920399D01*
X74982375Y-109069619D01*
X74981927Y-109214634D01*
X74981393Y-109354483D01*
X74980771Y-109488207D01*
X74980062Y-109614844D01*
X74979267Y-109733435D01*
X74978384Y-109843018D01*
X74977414Y-109942634D01*
X74976358Y-110031323D01*
X74975215Y-110108123D01*
X74973986Y-110172075D01*
X74972671Y-110222218D01*
X74971269Y-110257592D01*
X74969782Y-110277236D01*
X74969391Y-110279600D01*
X74943954Y-110359972D01*
X74904381Y-110435225D01*
X74852731Y-110502686D01*
X74791061Y-110559678D01*
X74721430Y-110603525D01*
X74719508Y-110604477D01*
X74663496Y-110627851D01*
X74603046Y-110646036D01*
X74544669Y-110657345D01*
X74504233Y-110660306D01*
X74452112Y-110655637D01*
X74392765Y-110642754D01*
X74332703Y-110623347D01*
X74288958Y-110604477D01*
X74218452Y-110560613D01*
X74156362Y-110503574D01*
X74104540Y-110435796D01*
X74064840Y-110359713D01*
X74039113Y-110277760D01*
X74038604Y-110275367D01*
X74037051Y-110259448D01*
X74035589Y-110227559D01*
X74034218Y-110180662D01*
X74032937Y-110119720D01*
X74031748Y-110045697D01*
X74030649Y-109959556D01*
X74029642Y-109862258D01*
X74028725Y-109754767D01*
X74027899Y-109638045D01*
X74027164Y-109513056D01*
X74026520Y-109380763D01*
X74025967Y-109242128D01*
X74025506Y-109098113D01*
X74025134Y-108949683D01*
X74024854Y-108797800D01*
X74024664Y-108643426D01*
X74024565Y-108487525D01*
X74024557Y-108331058D01*
X74024641Y-108174991D01*
G36*
X80224641Y-108174991D02*
G01*
X80224814Y-108020284D01*
X80225079Y-107867901D01*
X80225435Y-107718804D01*
X80225880Y-107573957D01*
X80226418Y-107434323D01*
X80227046Y-107300864D01*
X80227766Y-107174543D01*
X80228576Y-107056322D01*
X80229477Y-106947166D01*
X80230469Y-106848036D01*
X80231551Y-106759896D01*
X80232725Y-106683708D01*
X80233990Y-106620435D01*
X80235345Y-106571040D01*
X80236791Y-106536487D01*
X80238329Y-106517736D01*
X80238604Y-106516167D01*
X80264716Y-106431569D01*
X80305139Y-106354420D01*
X80358304Y-106286291D01*
X80422645Y-106228748D01*
X80496592Y-106183359D01*
X80578579Y-106151693D01*
X80611100Y-106143671D01*
X80663727Y-106134547D01*
X80708989Y-106131975D01*
X80755137Y-106135954D01*
X80797367Y-106143671D01*
X80881965Y-106169783D01*
X80959113Y-106210206D01*
X81027243Y-106263372D01*
X81084786Y-106327712D01*
X81130174Y-106401660D01*
X81161841Y-106483646D01*
X81169863Y-106516167D01*
X81171368Y-106531854D01*
X81172784Y-106563503D01*
X81174109Y-106610153D01*
X81175345Y-106670846D01*
X81176491Y-106744620D01*
X81177548Y-106830514D01*
X81178515Y-106927570D01*
X81179393Y-107034825D01*
X81180182Y-107151320D01*
X81180881Y-107276095D01*
X81181492Y-107408189D01*
X81182014Y-107546641D01*
X81182447Y-107690492D01*
X81182792Y-107838781D01*
X81183048Y-107990548D01*
X81183216Y-108144832D01*
X81183295Y-108300673D01*
X81183287Y-108457110D01*
X81183190Y-108613184D01*
X81183006Y-108767934D01*
X81182734Y-108920399D01*
X81182375Y-109069619D01*
X81181927Y-109214634D01*
X81181393Y-109354483D01*
X81180771Y-109488207D01*
X81180062Y-109614844D01*
X81179267Y-109733435D01*
X81178384Y-109843018D01*
X81177414Y-109942634D01*
X81176358Y-110031323D01*
X81175215Y-110108123D01*
X81173986Y-110172075D01*
X81172671Y-110222218D01*
X81171269Y-110257592D01*
X81169782Y-110277236D01*
X81169391Y-110279600D01*
X81143954Y-110359972D01*
X81104381Y-110435225D01*
X81052731Y-110502686D01*
X80991061Y-110559678D01*
X80921430Y-110603525D01*
X80919508Y-110604477D01*
X80863496Y-110627851D01*
X80803046Y-110646036D01*
X80744669Y-110657345D01*
X80704233Y-110660306D01*
X80652112Y-110655637D01*
X80592765Y-110642754D01*
X80532703Y-110623347D01*
X80488958Y-110604477D01*
X80418452Y-110560613D01*
X80356362Y-110503574D01*
X80304540Y-110435796D01*
X80264840Y-110359713D01*
X80239113Y-110277760D01*
X80238604Y-110275367D01*
X80237051Y-110259448D01*
X80235589Y-110227559D01*
X80234218Y-110180662D01*
X80232937Y-110119720D01*
X80231748Y-110045697D01*
X80230649Y-109959556D01*
X80229642Y-109862258D01*
X80228725Y-109754767D01*
X80227899Y-109638045D01*
X80227164Y-109513056D01*
X80226520Y-109380763D01*
X80225967Y-109242128D01*
X80225506Y-109098113D01*
X80225134Y-108949683D01*
X80224854Y-108797800D01*
X80224664Y-108643426D01*
X80224565Y-108487525D01*
X80224557Y-108331058D01*
X80224641Y-108174991D01*
G37*
X80224641Y-108174991D02*
X80224814Y-108020284D01*
X80225079Y-107867901D01*
X80225435Y-107718804D01*
X80225880Y-107573957D01*
X80226418Y-107434323D01*
X80227046Y-107300864D01*
X80227766Y-107174543D01*
X80228576Y-107056322D01*
X80229477Y-106947166D01*
X80230469Y-106848036D01*
X80231551Y-106759896D01*
X80232725Y-106683708D01*
X80233990Y-106620435D01*
X80235345Y-106571040D01*
X80236791Y-106536487D01*
X80238329Y-106517736D01*
X80238604Y-106516167D01*
X80264716Y-106431569D01*
X80305139Y-106354420D01*
X80358304Y-106286291D01*
X80422645Y-106228748D01*
X80496592Y-106183359D01*
X80578579Y-106151693D01*
X80611100Y-106143671D01*
X80663727Y-106134547D01*
X80708989Y-106131975D01*
X80755137Y-106135954D01*
X80797367Y-106143671D01*
X80881965Y-106169783D01*
X80959113Y-106210206D01*
X81027243Y-106263372D01*
X81084786Y-106327712D01*
X81130174Y-106401660D01*
X81161841Y-106483646D01*
X81169863Y-106516167D01*
X81171368Y-106531854D01*
X81172784Y-106563503D01*
X81174109Y-106610153D01*
X81175345Y-106670846D01*
X81176491Y-106744620D01*
X81177548Y-106830514D01*
X81178515Y-106927570D01*
X81179393Y-107034825D01*
X81180182Y-107151320D01*
X81180881Y-107276095D01*
X81181492Y-107408189D01*
X81182014Y-107546641D01*
X81182447Y-107690492D01*
X81182792Y-107838781D01*
X81183048Y-107990548D01*
X81183216Y-108144832D01*
X81183295Y-108300673D01*
X81183287Y-108457110D01*
X81183190Y-108613184D01*
X81183006Y-108767934D01*
X81182734Y-108920399D01*
X81182375Y-109069619D01*
X81181927Y-109214634D01*
X81181393Y-109354483D01*
X81180771Y-109488207D01*
X81180062Y-109614844D01*
X81179267Y-109733435D01*
X81178384Y-109843018D01*
X81177414Y-109942634D01*
X81176358Y-110031323D01*
X81175215Y-110108123D01*
X81173986Y-110172075D01*
X81172671Y-110222218D01*
X81171269Y-110257592D01*
X81169782Y-110277236D01*
X81169391Y-110279600D01*
X81143954Y-110359972D01*
X81104381Y-110435225D01*
X81052731Y-110502686D01*
X80991061Y-110559678D01*
X80921430Y-110603525D01*
X80919508Y-110604477D01*
X80863496Y-110627851D01*
X80803046Y-110646036D01*
X80744669Y-110657345D01*
X80704233Y-110660306D01*
X80652112Y-110655637D01*
X80592765Y-110642754D01*
X80532703Y-110623347D01*
X80488958Y-110604477D01*
X80418452Y-110560613D01*
X80356362Y-110503574D01*
X80304540Y-110435796D01*
X80264840Y-110359713D01*
X80239113Y-110277760D01*
X80238604Y-110275367D01*
X80237051Y-110259448D01*
X80235589Y-110227559D01*
X80234218Y-110180662D01*
X80232937Y-110119720D01*
X80231748Y-110045697D01*
X80230649Y-109959556D01*
X80229642Y-109862258D01*
X80228725Y-109754767D01*
X80227899Y-109638045D01*
X80227164Y-109513056D01*
X80226520Y-109380763D01*
X80225967Y-109242128D01*
X80225506Y-109098113D01*
X80225134Y-108949683D01*
X80224854Y-108797800D01*
X80224664Y-108643426D01*
X80224565Y-108487525D01*
X80224557Y-108331058D01*
X80224641Y-108174991D01*
G36*
X209170191Y-108515424D02*
G01*
X209040348Y-108599539D01*
X208912405Y-108682310D01*
X208787168Y-108763216D01*
X208665446Y-108841732D01*
X208548046Y-108917331D01*
X208435776Y-108989491D01*
X208329442Y-109057686D01*
X208229853Y-109121395D01*
X208137816Y-109180090D01*
X208054138Y-109233248D01*
X207979629Y-109280345D01*
X207915093Y-109320855D01*
X207861338Y-109354255D01*
X207819174Y-109380021D01*
X207789408Y-109397628D01*
X207772845Y-109406550D01*
X207771379Y-109407174D01*
X207686208Y-109431350D01*
X207599489Y-109439467D01*
X207513395Y-109431985D01*
X207430093Y-109409364D01*
X207351752Y-109372068D01*
X207280542Y-109320554D01*
X207256102Y-109297649D01*
X207219787Y-109258481D01*
X207192978Y-109221922D01*
X207171181Y-109181052D01*
X207154653Y-109141432D01*
X207130477Y-109056261D01*
X207122361Y-108969543D01*
X207129844Y-108883448D01*
X207152464Y-108800146D01*
X207189762Y-108721806D01*
X207241274Y-108650595D01*
X207264179Y-108626155D01*
X207276516Y-108616349D01*
X207302287Y-108597924D01*
X207340690Y-108571405D01*
X207390918Y-108537313D01*
X207452166Y-108496172D01*
X207523627Y-108448504D01*
X207604498Y-108394832D01*
X207693972Y-108335681D01*
X207791243Y-108271571D01*
X207895507Y-108203028D01*
X208005958Y-108130572D01*
X208121789Y-108054728D01*
X208242197Y-107976018D01*
X208366375Y-107894964D01*
X208493518Y-107812091D01*
X208622820Y-107727921D01*
X208753476Y-107642978D01*
X208884680Y-107557783D01*
X209015627Y-107472860D01*
X209145511Y-107388732D01*
X209273528Y-107305922D01*
X209398869Y-107224952D01*
X209520733Y-107146347D01*
X209638311Y-107070627D01*
X209750801Y-106998318D01*
X209857393Y-106929941D01*
X209957285Y-106866018D01*
X210049670Y-106807075D01*
X210133743Y-106753634D01*
X210208699Y-106706216D01*
X210273732Y-106665347D01*
X210328036Y-106631547D01*
X210370806Y-106605340D01*
X210401236Y-106587249D01*
X210418521Y-106577798D01*
X210420717Y-106576838D01*
X210501976Y-106554398D01*
X210586642Y-106546601D01*
X210671350Y-106553176D01*
X210752735Y-106573857D01*
X210827432Y-106608373D01*
X210829277Y-106609467D01*
X210879387Y-106643712D01*
X210927561Y-106684505D01*
X210968840Y-106727305D01*
X210993347Y-106759605D01*
X211017818Y-106805860D01*
X211039336Y-106862649D01*
X211055772Y-106923592D01*
X211063772Y-106970556D01*
X211065385Y-107053578D01*
X211051364Y-107136717D01*
X211022745Y-107217093D01*
X210980559Y-107291826D01*
X210925839Y-107358037D01*
X210924109Y-107359767D01*
X210911604Y-107369740D01*
X210885656Y-107388334D01*
X210847072Y-107415026D01*
X210796659Y-107449291D01*
X210735226Y-107490604D01*
X210663581Y-107538442D01*
X210582528Y-107592279D01*
X210492878Y-107651591D01*
X210395437Y-107715856D01*
X210291012Y-107784546D01*
X210180413Y-107857138D01*
X210064445Y-107933108D01*
X209943915Y-108011931D01*
X209819634Y-108093083D01*
X209692406Y-108176040D01*
X209563041Y-108260277D01*
X209432345Y-108345270D01*
X209301125Y-108430495D01*
X209170191Y-108515424D01*
G37*
X209170191Y-108515424D02*
X209040348Y-108599539D01*
X208912405Y-108682310D01*
X208787168Y-108763216D01*
X208665446Y-108841732D01*
X208548046Y-108917331D01*
X208435776Y-108989491D01*
X208329442Y-109057686D01*
X208229853Y-109121395D01*
X208137816Y-109180090D01*
X208054138Y-109233248D01*
X207979629Y-109280345D01*
X207915093Y-109320855D01*
X207861338Y-109354255D01*
X207819174Y-109380021D01*
X207789408Y-109397628D01*
X207772845Y-109406550D01*
X207771379Y-109407174D01*
X207686208Y-109431350D01*
X207599489Y-109439467D01*
X207513395Y-109431985D01*
X207430093Y-109409364D01*
X207351752Y-109372068D01*
X207280542Y-109320554D01*
X207256102Y-109297649D01*
X207219787Y-109258481D01*
X207192978Y-109221922D01*
X207171181Y-109181052D01*
X207154653Y-109141432D01*
X207130477Y-109056261D01*
X207122361Y-108969543D01*
X207129844Y-108883448D01*
X207152464Y-108800146D01*
X207189762Y-108721806D01*
X207241274Y-108650595D01*
X207264179Y-108626155D01*
X207276516Y-108616349D01*
X207302287Y-108597924D01*
X207340690Y-108571405D01*
X207390918Y-108537313D01*
X207452166Y-108496172D01*
X207523627Y-108448504D01*
X207604498Y-108394832D01*
X207693972Y-108335681D01*
X207791243Y-108271571D01*
X207895507Y-108203028D01*
X208005958Y-108130572D01*
X208121789Y-108054728D01*
X208242197Y-107976018D01*
X208366375Y-107894964D01*
X208493518Y-107812091D01*
X208622820Y-107727921D01*
X208753476Y-107642978D01*
X208884680Y-107557783D01*
X209015627Y-107472860D01*
X209145511Y-107388732D01*
X209273528Y-107305922D01*
X209398869Y-107224952D01*
X209520733Y-107146347D01*
X209638311Y-107070627D01*
X209750801Y-106998318D01*
X209857393Y-106929941D01*
X209957285Y-106866018D01*
X210049670Y-106807075D01*
X210133743Y-106753634D01*
X210208699Y-106706216D01*
X210273732Y-106665347D01*
X210328036Y-106631547D01*
X210370806Y-106605340D01*
X210401236Y-106587249D01*
X210418521Y-106577798D01*
X210420717Y-106576838D01*
X210501976Y-106554398D01*
X210586642Y-106546601D01*
X210671350Y-106553176D01*
X210752735Y-106573857D01*
X210827432Y-106608373D01*
X210829277Y-106609467D01*
X210879387Y-106643712D01*
X210927561Y-106684505D01*
X210968840Y-106727305D01*
X210993347Y-106759605D01*
X211017818Y-106805860D01*
X211039336Y-106862649D01*
X211055772Y-106923592D01*
X211063772Y-106970556D01*
X211065385Y-107053578D01*
X211051364Y-107136717D01*
X211022745Y-107217093D01*
X210980559Y-107291826D01*
X210925839Y-107358037D01*
X210924109Y-107359767D01*
X210911604Y-107369740D01*
X210885656Y-107388334D01*
X210847072Y-107415026D01*
X210796659Y-107449291D01*
X210735226Y-107490604D01*
X210663581Y-107538442D01*
X210582528Y-107592279D01*
X210492878Y-107651591D01*
X210395437Y-107715856D01*
X210291012Y-107784546D01*
X210180413Y-107857138D01*
X210064445Y-107933108D01*
X209943915Y-108011931D01*
X209819634Y-108093083D01*
X209692406Y-108176040D01*
X209563041Y-108260277D01*
X209432345Y-108345270D01*
X209301125Y-108430495D01*
X209170191Y-108515424D01*
G36*
X181752393Y-108276121D02*
G01*
X181622739Y-108191716D01*
X181495084Y-108108500D01*
X181370234Y-108026998D01*
X181248998Y-107947735D01*
X181132184Y-107871234D01*
X181020598Y-107798020D01*
X180915048Y-107728617D01*
X180816341Y-107663550D01*
X180725286Y-107603344D01*
X180642689Y-107548522D01*
X180569357Y-107499610D01*
X180506100Y-107457130D01*
X180453724Y-107421608D01*
X180413036Y-107393569D01*
X180384845Y-107373538D01*
X180369957Y-107362035D01*
X180368790Y-107360950D01*
X180312062Y-107292976D01*
X180269376Y-107217056D01*
X180241193Y-107135362D01*
X180227976Y-107050061D01*
X180230184Y-106963323D01*
X180248280Y-106877316D01*
X180259265Y-106845673D01*
X180280276Y-106796567D01*
X180302770Y-106757206D01*
X180331241Y-106720670D01*
X180360713Y-106689456D01*
X180428688Y-106632728D01*
X180504607Y-106590042D01*
X180586302Y-106561860D01*
X180671603Y-106548642D01*
X180758341Y-106550852D01*
X180844347Y-106568946D01*
X180875990Y-106579931D01*
X180889966Y-106587212D01*
X180917281Y-106603262D01*
X180957126Y-106627558D01*
X181008701Y-106659577D01*
X181071197Y-106698796D01*
X181143810Y-106744691D01*
X181225734Y-106796741D01*
X181316164Y-106854420D01*
X181414295Y-106917206D01*
X181519321Y-106984577D01*
X181630437Y-107056008D01*
X181746837Y-107130976D01*
X181867716Y-107208960D01*
X181992270Y-107289435D01*
X182119691Y-107371878D01*
X182249176Y-107455767D01*
X182379919Y-107540577D01*
X182511113Y-107625786D01*
X182641955Y-107710871D01*
X182771639Y-107795308D01*
X182899359Y-107878575D01*
X183024310Y-107960147D01*
X183145686Y-108039503D01*
X183262682Y-108116119D01*
X183374494Y-108189472D01*
X183480314Y-108259038D01*
X183579340Y-108324294D01*
X183670763Y-108384717D01*
X183753780Y-108439786D01*
X183827586Y-108488975D01*
X183891373Y-108531762D01*
X183944338Y-108567623D01*
X183985676Y-108596036D01*
X184014579Y-108616478D01*
X184030244Y-108628424D01*
X184032014Y-108630039D01*
X184085566Y-108695146D01*
X184127125Y-108769321D01*
X184155572Y-108849380D01*
X184169782Y-108932141D01*
X184168631Y-109014419D01*
X184168383Y-109016549D01*
X184157479Y-109076255D01*
X184139807Y-109136857D01*
X184117497Y-109191976D01*
X184097958Y-109227501D01*
X184065655Y-109268670D01*
X184022527Y-109311426D01*
X183973539Y-109351229D01*
X183933888Y-109377639D01*
X183858701Y-109412880D01*
X183777047Y-109433888D01*
X183691979Y-109440435D01*
X183606548Y-109432292D01*
X183523805Y-109409234D01*
X183521521Y-109408357D01*
X183507324Y-109400990D01*
X183479784Y-109384848D01*
X183439706Y-109360456D01*
X183387898Y-109328339D01*
X183325169Y-109289020D01*
X183252327Y-109243026D01*
X183170177Y-109190878D01*
X183079528Y-109133103D01*
X182981187Y-109070225D01*
X182875962Y-109002767D01*
X182764661Y-108931256D01*
X182648091Y-108856213D01*
X182527059Y-108778164D01*
X182402372Y-108697635D01*
X182274840Y-108615148D01*
X182145268Y-108531230D01*
X182014464Y-108446403D01*
X181883236Y-108361192D01*
X181752393Y-108276121D01*
G37*
X181752393Y-108276121D02*
X181622739Y-108191716D01*
X181495084Y-108108500D01*
X181370234Y-108026998D01*
X181248998Y-107947735D01*
X181132184Y-107871234D01*
X181020598Y-107798020D01*
X180915048Y-107728617D01*
X180816341Y-107663550D01*
X180725286Y-107603344D01*
X180642689Y-107548522D01*
X180569357Y-107499610D01*
X180506100Y-107457130D01*
X180453724Y-107421608D01*
X180413036Y-107393569D01*
X180384845Y-107373538D01*
X180369957Y-107362035D01*
X180368790Y-107360950D01*
X180312062Y-107292976D01*
X180269376Y-107217056D01*
X180241193Y-107135362D01*
X180227976Y-107050061D01*
X180230184Y-106963323D01*
X180248280Y-106877316D01*
X180259265Y-106845673D01*
X180280276Y-106796567D01*
X180302770Y-106757206D01*
X180331241Y-106720670D01*
X180360713Y-106689456D01*
X180428688Y-106632728D01*
X180504607Y-106590042D01*
X180586302Y-106561860D01*
X180671603Y-106548642D01*
X180758341Y-106550852D01*
X180844347Y-106568946D01*
X180875990Y-106579931D01*
X180889966Y-106587212D01*
X180917281Y-106603262D01*
X180957126Y-106627558D01*
X181008701Y-106659577D01*
X181071197Y-106698796D01*
X181143810Y-106744691D01*
X181225734Y-106796741D01*
X181316164Y-106854420D01*
X181414295Y-106917206D01*
X181519321Y-106984577D01*
X181630437Y-107056008D01*
X181746837Y-107130976D01*
X181867716Y-107208960D01*
X181992270Y-107289435D01*
X182119691Y-107371878D01*
X182249176Y-107455767D01*
X182379919Y-107540577D01*
X182511113Y-107625786D01*
X182641955Y-107710871D01*
X182771639Y-107795308D01*
X182899359Y-107878575D01*
X183024310Y-107960147D01*
X183145686Y-108039503D01*
X183262682Y-108116119D01*
X183374494Y-108189472D01*
X183480314Y-108259038D01*
X183579340Y-108324294D01*
X183670763Y-108384717D01*
X183753780Y-108439786D01*
X183827586Y-108488975D01*
X183891373Y-108531762D01*
X183944338Y-108567623D01*
X183985676Y-108596036D01*
X184014579Y-108616478D01*
X184030244Y-108628424D01*
X184032014Y-108630039D01*
X184085566Y-108695146D01*
X184127125Y-108769321D01*
X184155572Y-108849380D01*
X184169782Y-108932141D01*
X184168631Y-109014419D01*
X184168383Y-109016549D01*
X184157479Y-109076255D01*
X184139807Y-109136857D01*
X184117497Y-109191976D01*
X184097958Y-109227501D01*
X184065655Y-109268670D01*
X184022527Y-109311426D01*
X183973539Y-109351229D01*
X183933888Y-109377639D01*
X183858701Y-109412880D01*
X183777047Y-109433888D01*
X183691979Y-109440435D01*
X183606548Y-109432292D01*
X183523805Y-109409234D01*
X183521521Y-109408357D01*
X183507324Y-109400990D01*
X183479784Y-109384848D01*
X183439706Y-109360456D01*
X183387898Y-109328339D01*
X183325169Y-109289020D01*
X183252327Y-109243026D01*
X183170177Y-109190878D01*
X183079528Y-109133103D01*
X182981187Y-109070225D01*
X182875962Y-109002767D01*
X182764661Y-108931256D01*
X182648091Y-108856213D01*
X182527059Y-108778164D01*
X182402372Y-108697635D01*
X182274840Y-108615148D01*
X182145268Y-108531230D01*
X182014464Y-108446403D01*
X181883236Y-108361192D01*
X181752393Y-108276121D01*
G36*
X74024641Y-108174991D02*
G01*
X74024814Y-108020284D01*
X74025079Y-107867901D01*
X74025435Y-107718804D01*
X74025880Y-107573957D01*
X74026418Y-107434323D01*
X74027046Y-107300864D01*
X74027766Y-107174543D01*
X74028576Y-107056322D01*
X74029477Y-106947166D01*
X74030469Y-106848036D01*
X74031551Y-106759896D01*
X74032725Y-106683708D01*
X74033990Y-106620435D01*
X74035345Y-106571040D01*
X74036791Y-106536487D01*
X74038329Y-106517736D01*
X74038604Y-106516167D01*
X74064716Y-106431569D01*
X74105139Y-106354420D01*
X74158304Y-106286291D01*
X74222645Y-106228748D01*
X74296592Y-106183359D01*
X74378579Y-106151693D01*
X74411100Y-106143671D01*
X74463727Y-106134547D01*
X74508989Y-106131975D01*
X74555137Y-106135954D01*
X74597367Y-106143671D01*
X74681965Y-106169783D01*
X74759113Y-106210206D01*
X74827243Y-106263372D01*
X74884786Y-106327712D01*
X74930174Y-106401660D01*
X74961841Y-106483646D01*
X74969863Y-106516167D01*
X74971368Y-106531854D01*
X74972784Y-106563503D01*
X74974109Y-106610153D01*
X74975345Y-106670846D01*
X74976491Y-106744620D01*
X74977548Y-106830514D01*
X74978515Y-106927570D01*
X74979393Y-107034825D01*
X74980182Y-107151320D01*
X74980881Y-107276095D01*
X74981492Y-107408189D01*
X74982014Y-107546641D01*
X74982447Y-107690492D01*
X74982792Y-107838781D01*
X74983048Y-107990548D01*
X74983216Y-108144832D01*
X74983295Y-108300673D01*
X74983287Y-108457110D01*
X74983190Y-108613184D01*
X74983006Y-108767934D01*
X74982734Y-108920399D01*
X74982375Y-109069619D01*
X74981927Y-109214634D01*
X74981393Y-109354483D01*
X74980771Y-109488207D01*
X74980062Y-109614844D01*
X74979267Y-109733435D01*
X74978384Y-109843018D01*
X74977414Y-109942634D01*
X74976358Y-110031323D01*
X74975215Y-110108123D01*
X74973986Y-110172075D01*
X74972671Y-110222218D01*
X74971269Y-110257592D01*
X74969782Y-110277236D01*
X74969391Y-110279600D01*
X74943954Y-110359972D01*
X74904381Y-110435225D01*
X74852731Y-110502686D01*
X74791061Y-110559678D01*
X74721430Y-110603525D01*
X74719508Y-110604477D01*
X74663496Y-110627851D01*
X74603046Y-110646036D01*
X74544669Y-110657345D01*
X74504233Y-110660306D01*
X74452112Y-110655637D01*
X74392765Y-110642754D01*
X74332703Y-110623347D01*
X74288958Y-110604477D01*
X74218452Y-110560613D01*
X74156362Y-110503574D01*
X74104540Y-110435796D01*
X74064840Y-110359713D01*
X74039113Y-110277760D01*
X74038604Y-110275367D01*
X74037051Y-110259448D01*
X74035589Y-110227559D01*
X74034218Y-110180662D01*
X74032937Y-110119720D01*
X74031748Y-110045697D01*
X74030649Y-109959556D01*
X74029642Y-109862258D01*
X74028725Y-109754767D01*
X74027899Y-109638045D01*
X74027164Y-109513056D01*
X74026520Y-109380763D01*
X74025967Y-109242128D01*
X74025506Y-109098113D01*
X74025134Y-108949683D01*
X74024854Y-108797800D01*
X74024664Y-108643426D01*
X74024565Y-108487525D01*
X74024557Y-108331058D01*
X74024641Y-108174991D01*
G37*
X74024641Y-108174991D02*
X74024814Y-108020284D01*
X74025079Y-107867901D01*
X74025435Y-107718804D01*
X74025880Y-107573957D01*
X74026418Y-107434323D01*
X74027046Y-107300864D01*
X74027766Y-107174543D01*
X74028576Y-107056322D01*
X74029477Y-106947166D01*
X74030469Y-106848036D01*
X74031551Y-106759896D01*
X74032725Y-106683708D01*
X74033990Y-106620435D01*
X74035345Y-106571040D01*
X74036791Y-106536487D01*
X74038329Y-106517736D01*
X74038604Y-106516167D01*
X74064716Y-106431569D01*
X74105139Y-106354420D01*
X74158304Y-106286291D01*
X74222645Y-106228748D01*
X74296592Y-106183359D01*
X74378579Y-106151693D01*
X74411100Y-106143671D01*
X74463727Y-106134547D01*
X74508989Y-106131975D01*
X74555137Y-106135954D01*
X74597367Y-106143671D01*
X74681965Y-106169783D01*
X74759113Y-106210206D01*
X74827243Y-106263372D01*
X74884786Y-106327712D01*
X74930174Y-106401660D01*
X74961841Y-106483646D01*
X74969863Y-106516167D01*
X74971368Y-106531854D01*
X74972784Y-106563503D01*
X74974109Y-106610153D01*
X74975345Y-106670846D01*
X74976491Y-106744620D01*
X74977548Y-106830514D01*
X74978515Y-106927570D01*
X74979393Y-107034825D01*
X74980182Y-107151320D01*
X74980881Y-107276095D01*
X74981492Y-107408189D01*
X74982014Y-107546641D01*
X74982447Y-107690492D01*
X74982792Y-107838781D01*
X74983048Y-107990548D01*
X74983216Y-108144832D01*
X74983295Y-108300673D01*
X74983287Y-108457110D01*
X74983190Y-108613184D01*
X74983006Y-108767934D01*
X74982734Y-108920399D01*
X74982375Y-109069619D01*
X74981927Y-109214634D01*
X74981393Y-109354483D01*
X74980771Y-109488207D01*
X74980062Y-109614844D01*
X74979267Y-109733435D01*
X74978384Y-109843018D01*
X74977414Y-109942634D01*
X74976358Y-110031323D01*
X74975215Y-110108123D01*
X74973986Y-110172075D01*
X74972671Y-110222218D01*
X74971269Y-110257592D01*
X74969782Y-110277236D01*
X74969391Y-110279600D01*
X74943954Y-110359972D01*
X74904381Y-110435225D01*
X74852731Y-110502686D01*
X74791061Y-110559678D01*
X74721430Y-110603525D01*
X74719508Y-110604477D01*
X74663496Y-110627851D01*
X74603046Y-110646036D01*
X74544669Y-110657345D01*
X74504233Y-110660306D01*
X74452112Y-110655637D01*
X74392765Y-110642754D01*
X74332703Y-110623347D01*
X74288958Y-110604477D01*
X74218452Y-110560613D01*
X74156362Y-110503574D01*
X74104540Y-110435796D01*
X74064840Y-110359713D01*
X74039113Y-110277760D01*
X74038604Y-110275367D01*
X74037051Y-110259448D01*
X74035589Y-110227559D01*
X74034218Y-110180662D01*
X74032937Y-110119720D01*
X74031748Y-110045697D01*
X74030649Y-109959556D01*
X74029642Y-109862258D01*
X74028725Y-109754767D01*
X74027899Y-109638045D01*
X74027164Y-109513056D01*
X74026520Y-109380763D01*
X74025967Y-109242128D01*
X74025506Y-109098113D01*
X74025134Y-108949683D01*
X74024854Y-108797800D01*
X74024664Y-108643426D01*
X74024565Y-108487525D01*
X74024557Y-108331058D01*
X74024641Y-108174991D01*
G36*
X80224641Y-108174991D02*
G01*
X80224814Y-108020284D01*
X80225079Y-107867901D01*
X80225435Y-107718804D01*
X80225880Y-107573957D01*
X80226418Y-107434323D01*
X80227046Y-107300864D01*
X80227766Y-107174543D01*
X80228576Y-107056322D01*
X80229477Y-106947166D01*
X80230469Y-106848036D01*
X80231551Y-106759896D01*
X80232725Y-106683708D01*
X80233990Y-106620435D01*
X80235345Y-106571040D01*
X80236791Y-106536487D01*
X80238329Y-106517736D01*
X80238604Y-106516167D01*
X80264716Y-106431569D01*
X80305139Y-106354420D01*
X80358304Y-106286291D01*
X80422645Y-106228748D01*
X80496592Y-106183359D01*
X80578579Y-106151693D01*
X80611100Y-106143671D01*
X80663727Y-106134547D01*
X80708989Y-106131975D01*
X80755137Y-106135954D01*
X80797367Y-106143671D01*
X80881965Y-106169783D01*
X80959113Y-106210206D01*
X81027243Y-106263372D01*
X81084786Y-106327712D01*
X81130174Y-106401660D01*
X81161841Y-106483646D01*
X81169863Y-106516167D01*
X81171368Y-106531854D01*
X81172784Y-106563503D01*
X81174109Y-106610153D01*
X81175345Y-106670846D01*
X81176491Y-106744620D01*
X81177548Y-106830514D01*
X81178515Y-106927570D01*
X81179393Y-107034825D01*
X81180182Y-107151320D01*
X81180881Y-107276095D01*
X81181492Y-107408189D01*
X81182014Y-107546641D01*
X81182447Y-107690492D01*
X81182792Y-107838781D01*
X81183048Y-107990548D01*
X81183216Y-108144832D01*
X81183295Y-108300673D01*
X81183287Y-108457110D01*
X81183190Y-108613184D01*
X81183006Y-108767934D01*
X81182734Y-108920399D01*
X81182375Y-109069619D01*
X81181927Y-109214634D01*
X81181393Y-109354483D01*
X81180771Y-109488207D01*
X81180062Y-109614844D01*
X81179267Y-109733435D01*
X81178384Y-109843018D01*
X81177414Y-109942634D01*
X81176358Y-110031323D01*
X81175215Y-110108123D01*
X81173986Y-110172075D01*
X81172671Y-110222218D01*
X81171269Y-110257592D01*
X81169782Y-110277236D01*
X81169391Y-110279600D01*
X81143954Y-110359972D01*
X81104381Y-110435225D01*
X81052731Y-110502686D01*
X80991061Y-110559678D01*
X80921430Y-110603525D01*
X80919508Y-110604477D01*
X80863496Y-110627851D01*
X80803046Y-110646036D01*
X80744669Y-110657345D01*
X80704233Y-110660306D01*
X80652112Y-110655637D01*
X80592765Y-110642754D01*
X80532703Y-110623347D01*
X80488958Y-110604477D01*
X80418452Y-110560613D01*
X80356362Y-110503574D01*
X80304540Y-110435796D01*
X80264840Y-110359713D01*
X80239113Y-110277760D01*
X80238604Y-110275367D01*
X80237051Y-110259448D01*
X80235589Y-110227559D01*
X80234218Y-110180662D01*
X80232937Y-110119720D01*
X80231748Y-110045697D01*
X80230649Y-109959556D01*
X80229642Y-109862258D01*
X80228725Y-109754767D01*
X80227899Y-109638045D01*
X80227164Y-109513056D01*
X80226520Y-109380763D01*
X80225967Y-109242128D01*
X80225506Y-109098113D01*
X80225134Y-108949683D01*
X80224854Y-108797800D01*
X80224664Y-108643426D01*
X80224565Y-108487525D01*
X80224557Y-108331058D01*
X80224641Y-108174991D01*
G37*
X80224641Y-108174991D02*
X80224814Y-108020284D01*
X80225079Y-107867901D01*
X80225435Y-107718804D01*
X80225880Y-107573957D01*
X80226418Y-107434323D01*
X80227046Y-107300864D01*
X80227766Y-107174543D01*
X80228576Y-107056322D01*
X80229477Y-106947166D01*
X80230469Y-106848036D01*
X80231551Y-106759896D01*
X80232725Y-106683708D01*
X80233990Y-106620435D01*
X80235345Y-106571040D01*
X80236791Y-106536487D01*
X80238329Y-106517736D01*
X80238604Y-106516167D01*
X80264716Y-106431569D01*
X80305139Y-106354420D01*
X80358304Y-106286291D01*
X80422645Y-106228748D01*
X80496592Y-106183359D01*
X80578579Y-106151693D01*
X80611100Y-106143671D01*
X80663727Y-106134547D01*
X80708989Y-106131975D01*
X80755137Y-106135954D01*
X80797367Y-106143671D01*
X80881965Y-106169783D01*
X80959113Y-106210206D01*
X81027243Y-106263372D01*
X81084786Y-106327712D01*
X81130174Y-106401660D01*
X81161841Y-106483646D01*
X81169863Y-106516167D01*
X81171368Y-106531854D01*
X81172784Y-106563503D01*
X81174109Y-106610153D01*
X81175345Y-106670846D01*
X81176491Y-106744620D01*
X81177548Y-106830514D01*
X81178515Y-106927570D01*
X81179393Y-107034825D01*
X81180182Y-107151320D01*
X81180881Y-107276095D01*
X81181492Y-107408189D01*
X81182014Y-107546641D01*
X81182447Y-107690492D01*
X81182792Y-107838781D01*
X81183048Y-107990548D01*
X81183216Y-108144832D01*
X81183295Y-108300673D01*
X81183287Y-108457110D01*
X81183190Y-108613184D01*
X81183006Y-108767934D01*
X81182734Y-108920399D01*
X81182375Y-109069619D01*
X81181927Y-109214634D01*
X81181393Y-109354483D01*
X81180771Y-109488207D01*
X81180062Y-109614844D01*
X81179267Y-109733435D01*
X81178384Y-109843018D01*
X81177414Y-109942634D01*
X81176358Y-110031323D01*
X81175215Y-110108123D01*
X81173986Y-110172075D01*
X81172671Y-110222218D01*
X81171269Y-110257592D01*
X81169782Y-110277236D01*
X81169391Y-110279600D01*
X81143954Y-110359972D01*
X81104381Y-110435225D01*
X81052731Y-110502686D01*
X80991061Y-110559678D01*
X80921430Y-110603525D01*
X80919508Y-110604477D01*
X80863496Y-110627851D01*
X80803046Y-110646036D01*
X80744669Y-110657345D01*
X80704233Y-110660306D01*
X80652112Y-110655637D01*
X80592765Y-110642754D01*
X80532703Y-110623347D01*
X80488958Y-110604477D01*
X80418452Y-110560613D01*
X80356362Y-110503574D01*
X80304540Y-110435796D01*
X80264840Y-110359713D01*
X80239113Y-110277760D01*
X80238604Y-110275367D01*
X80237051Y-110259448D01*
X80235589Y-110227559D01*
X80234218Y-110180662D01*
X80232937Y-110119720D01*
X80231748Y-110045697D01*
X80230649Y-109959556D01*
X80229642Y-109862258D01*
X80228725Y-109754767D01*
X80227899Y-109638045D01*
X80227164Y-109513056D01*
X80226520Y-109380763D01*
X80225967Y-109242128D01*
X80225506Y-109098113D01*
X80225134Y-108949683D01*
X80224854Y-108797800D01*
X80224664Y-108643426D01*
X80224565Y-108487525D01*
X80224557Y-108331058D01*
X80224641Y-108174991D01*
G36*
X209170191Y-108515424D02*
G01*
X209040348Y-108599539D01*
X208912405Y-108682310D01*
X208787168Y-108763216D01*
X208665446Y-108841732D01*
X208548046Y-108917331D01*
X208435776Y-108989491D01*
X208329442Y-109057686D01*
X208229853Y-109121395D01*
X208137816Y-109180090D01*
X208054138Y-109233248D01*
X207979629Y-109280345D01*
X207915093Y-109320855D01*
X207861338Y-109354255D01*
X207819174Y-109380021D01*
X207789408Y-109397628D01*
X207772845Y-109406550D01*
X207771379Y-109407174D01*
X207686208Y-109431350D01*
X207599489Y-109439467D01*
X207513395Y-109431985D01*
X207430093Y-109409364D01*
X207351752Y-109372068D01*
X207280542Y-109320554D01*
X207256102Y-109297649D01*
X207219787Y-109258481D01*
X207192978Y-109221922D01*
X207171181Y-109181052D01*
X207154653Y-109141432D01*
X207130477Y-109056261D01*
X207122361Y-108969543D01*
X207129844Y-108883448D01*
X207152464Y-108800146D01*
X207189762Y-108721806D01*
X207241274Y-108650595D01*
X207264179Y-108626155D01*
X207276516Y-108616349D01*
X207302287Y-108597924D01*
X207340690Y-108571405D01*
X207390918Y-108537313D01*
X207452166Y-108496172D01*
X207523627Y-108448504D01*
X207604498Y-108394832D01*
X207693972Y-108335681D01*
X207791243Y-108271571D01*
X207895507Y-108203028D01*
X208005958Y-108130572D01*
X208121789Y-108054728D01*
X208242197Y-107976018D01*
X208366375Y-107894964D01*
X208493518Y-107812091D01*
X208622820Y-107727921D01*
X208753476Y-107642978D01*
X208884680Y-107557783D01*
X209015627Y-107472860D01*
X209145511Y-107388732D01*
X209273528Y-107305922D01*
X209398869Y-107224952D01*
X209520733Y-107146347D01*
X209638311Y-107070627D01*
X209750801Y-106998318D01*
X209857393Y-106929941D01*
X209957285Y-106866018D01*
X210049670Y-106807075D01*
X210133743Y-106753634D01*
X210208699Y-106706216D01*
X210273732Y-106665347D01*
X210328036Y-106631547D01*
X210370806Y-106605340D01*
X210401236Y-106587249D01*
X210418521Y-106577798D01*
X210420717Y-106576838D01*
X210501976Y-106554398D01*
X210586642Y-106546601D01*
X210671350Y-106553176D01*
X210752735Y-106573857D01*
X210827432Y-106608373D01*
X210829277Y-106609467D01*
X210879387Y-106643712D01*
X210927561Y-106684505D01*
X210968840Y-106727305D01*
X210993347Y-106759605D01*
X211017818Y-106805860D01*
X211039336Y-106862649D01*
X211055772Y-106923592D01*
X211063772Y-106970556D01*
X211065385Y-107053578D01*
X211051364Y-107136717D01*
X211022745Y-107217093D01*
X210980559Y-107291826D01*
X210925839Y-107358037D01*
X210924109Y-107359767D01*
X210911604Y-107369740D01*
X210885656Y-107388334D01*
X210847072Y-107415026D01*
X210796659Y-107449291D01*
X210735226Y-107490604D01*
X210663581Y-107538442D01*
X210582528Y-107592279D01*
X210492878Y-107651591D01*
X210395437Y-107715856D01*
X210291012Y-107784546D01*
X210180413Y-107857138D01*
X210064445Y-107933108D01*
X209943915Y-108011931D01*
X209819634Y-108093083D01*
X209692406Y-108176040D01*
X209563041Y-108260277D01*
X209432345Y-108345270D01*
X209301125Y-108430495D01*
X209170191Y-108515424D01*
G37*
X209170191Y-108515424D02*
X209040348Y-108599539D01*
X208912405Y-108682310D01*
X208787168Y-108763216D01*
X208665446Y-108841732D01*
X208548046Y-108917331D01*
X208435776Y-108989491D01*
X208329442Y-109057686D01*
X208229853Y-109121395D01*
X208137816Y-109180090D01*
X208054138Y-109233248D01*
X207979629Y-109280345D01*
X207915093Y-109320855D01*
X207861338Y-109354255D01*
X207819174Y-109380021D01*
X207789408Y-109397628D01*
X207772845Y-109406550D01*
X207771379Y-109407174D01*
X207686208Y-109431350D01*
X207599489Y-109439467D01*
X207513395Y-109431985D01*
X207430093Y-109409364D01*
X207351752Y-109372068D01*
X207280542Y-109320554D01*
X207256102Y-109297649D01*
X207219787Y-109258481D01*
X207192978Y-109221922D01*
X207171181Y-109181052D01*
X207154653Y-109141432D01*
X207130477Y-109056261D01*
X207122361Y-108969543D01*
X207129844Y-108883448D01*
X207152464Y-108800146D01*
X207189762Y-108721806D01*
X207241274Y-108650595D01*
X207264179Y-108626155D01*
X207276516Y-108616349D01*
X207302287Y-108597924D01*
X207340690Y-108571405D01*
X207390918Y-108537313D01*
X207452166Y-108496172D01*
X207523627Y-108448504D01*
X207604498Y-108394832D01*
X207693972Y-108335681D01*
X207791243Y-108271571D01*
X207895507Y-108203028D01*
X208005958Y-108130572D01*
X208121789Y-108054728D01*
X208242197Y-107976018D01*
X208366375Y-107894964D01*
X208493518Y-107812091D01*
X208622820Y-107727921D01*
X208753476Y-107642978D01*
X208884680Y-107557783D01*
X209015627Y-107472860D01*
X209145511Y-107388732D01*
X209273528Y-107305922D01*
X209398869Y-107224952D01*
X209520733Y-107146347D01*
X209638311Y-107070627D01*
X209750801Y-106998318D01*
X209857393Y-106929941D01*
X209957285Y-106866018D01*
X210049670Y-106807075D01*
X210133743Y-106753634D01*
X210208699Y-106706216D01*
X210273732Y-106665347D01*
X210328036Y-106631547D01*
X210370806Y-106605340D01*
X210401236Y-106587249D01*
X210418521Y-106577798D01*
X210420717Y-106576838D01*
X210501976Y-106554398D01*
X210586642Y-106546601D01*
X210671350Y-106553176D01*
X210752735Y-106573857D01*
X210827432Y-106608373D01*
X210829277Y-106609467D01*
X210879387Y-106643712D01*
X210927561Y-106684505D01*
X210968840Y-106727305D01*
X210993347Y-106759605D01*
X211017818Y-106805860D01*
X211039336Y-106862649D01*
X211055772Y-106923592D01*
X211063772Y-106970556D01*
X211065385Y-107053578D01*
X211051364Y-107136717D01*
X211022745Y-107217093D01*
X210980559Y-107291826D01*
X210925839Y-107358037D01*
X210924109Y-107359767D01*
X210911604Y-107369740D01*
X210885656Y-107388334D01*
X210847072Y-107415026D01*
X210796659Y-107449291D01*
X210735226Y-107490604D01*
X210663581Y-107538442D01*
X210582528Y-107592279D01*
X210492878Y-107651591D01*
X210395437Y-107715856D01*
X210291012Y-107784546D01*
X210180413Y-107857138D01*
X210064445Y-107933108D01*
X209943915Y-108011931D01*
X209819634Y-108093083D01*
X209692406Y-108176040D01*
X209563041Y-108260277D01*
X209432345Y-108345270D01*
X209301125Y-108430495D01*
X209170191Y-108515424D01*
G36*
X181752393Y-108276121D02*
G01*
X181622739Y-108191716D01*
X181495084Y-108108500D01*
X181370234Y-108026998D01*
X181248998Y-107947735D01*
X181132184Y-107871234D01*
X181020598Y-107798020D01*
X180915048Y-107728617D01*
X180816341Y-107663550D01*
X180725286Y-107603344D01*
X180642689Y-107548522D01*
X180569357Y-107499610D01*
X180506100Y-107457130D01*
X180453724Y-107421608D01*
X180413036Y-107393569D01*
X180384845Y-107373538D01*
X180369957Y-107362035D01*
X180368790Y-107360950D01*
X180312062Y-107292976D01*
X180269376Y-107217056D01*
X180241193Y-107135362D01*
X180227976Y-107050061D01*
X180230184Y-106963323D01*
X180248280Y-106877316D01*
X180259265Y-106845673D01*
X180280276Y-106796567D01*
X180302770Y-106757206D01*
X180331241Y-106720670D01*
X180360713Y-106689456D01*
X180428688Y-106632728D01*
X180504607Y-106590042D01*
X180586302Y-106561860D01*
X180671603Y-106548642D01*
X180758341Y-106550852D01*
X180844347Y-106568946D01*
X180875990Y-106579931D01*
X180889966Y-106587212D01*
X180917281Y-106603262D01*
X180957126Y-106627558D01*
X181008701Y-106659577D01*
X181071197Y-106698796D01*
X181143810Y-106744691D01*
X181225734Y-106796741D01*
X181316164Y-106854420D01*
X181414295Y-106917206D01*
X181519321Y-106984577D01*
X181630437Y-107056008D01*
X181746837Y-107130976D01*
X181867716Y-107208960D01*
X181992270Y-107289435D01*
X182119691Y-107371878D01*
X182249176Y-107455767D01*
X182379919Y-107540577D01*
X182511113Y-107625786D01*
X182641955Y-107710871D01*
X182771639Y-107795308D01*
X182899359Y-107878575D01*
X183024310Y-107960147D01*
X183145686Y-108039503D01*
X183262682Y-108116119D01*
X183374494Y-108189472D01*
X183480314Y-108259038D01*
X183579340Y-108324294D01*
X183670763Y-108384717D01*
X183753780Y-108439786D01*
X183827586Y-108488975D01*
X183891373Y-108531762D01*
X183944338Y-108567623D01*
X183985676Y-108596036D01*
X184014579Y-108616478D01*
X184030244Y-108628424D01*
X184032014Y-108630039D01*
X184085566Y-108695146D01*
X184127125Y-108769321D01*
X184155572Y-108849380D01*
X184169782Y-108932141D01*
X184168631Y-109014419D01*
X184168383Y-109016549D01*
X184157479Y-109076255D01*
X184139807Y-109136857D01*
X184117497Y-109191976D01*
X184097958Y-109227501D01*
X184065655Y-109268670D01*
X184022527Y-109311426D01*
X183973539Y-109351229D01*
X183933888Y-109377639D01*
X183858701Y-109412880D01*
X183777047Y-109433888D01*
X183691979Y-109440435D01*
X183606548Y-109432292D01*
X183523805Y-109409234D01*
X183521521Y-109408357D01*
X183507324Y-109400990D01*
X183479784Y-109384848D01*
X183439706Y-109360456D01*
X183387898Y-109328339D01*
X183325169Y-109289020D01*
X183252327Y-109243026D01*
X183170177Y-109190878D01*
X183079528Y-109133103D01*
X182981187Y-109070225D01*
X182875962Y-109002767D01*
X182764661Y-108931256D01*
X182648091Y-108856213D01*
X182527059Y-108778164D01*
X182402372Y-108697635D01*
X182274840Y-108615148D01*
X182145268Y-108531230D01*
X182014464Y-108446403D01*
X181883236Y-108361192D01*
X181752393Y-108276121D01*
G37*
X181752393Y-108276121D02*
X181622739Y-108191716D01*
X181495084Y-108108500D01*
X181370234Y-108026998D01*
X181248998Y-107947735D01*
X181132184Y-107871234D01*
X181020598Y-107798020D01*
X180915048Y-107728617D01*
X180816341Y-107663550D01*
X180725286Y-107603344D01*
X180642689Y-107548522D01*
X180569357Y-107499610D01*
X180506100Y-107457130D01*
X180453724Y-107421608D01*
X180413036Y-107393569D01*
X180384845Y-107373538D01*
X180369957Y-107362035D01*
X180368790Y-107360950D01*
X180312062Y-107292976D01*
X180269376Y-107217056D01*
X180241193Y-107135362D01*
X180227976Y-107050061D01*
X180230184Y-106963323D01*
X180248280Y-106877316D01*
X180259265Y-106845673D01*
X180280276Y-106796567D01*
X180302770Y-106757206D01*
X180331241Y-106720670D01*
X180360713Y-106689456D01*
X180428688Y-106632728D01*
X180504607Y-106590042D01*
X180586302Y-106561860D01*
X180671603Y-106548642D01*
X180758341Y-106550852D01*
X180844347Y-106568946D01*
X180875990Y-106579931D01*
X180889966Y-106587212D01*
X180917281Y-106603262D01*
X180957126Y-106627558D01*
X181008701Y-106659577D01*
X181071197Y-106698796D01*
X181143810Y-106744691D01*
X181225734Y-106796741D01*
X181316164Y-106854420D01*
X181414295Y-106917206D01*
X181519321Y-106984577D01*
X181630437Y-107056008D01*
X181746837Y-107130976D01*
X181867716Y-107208960D01*
X181992270Y-107289435D01*
X182119691Y-107371878D01*
X182249176Y-107455767D01*
X182379919Y-107540577D01*
X182511113Y-107625786D01*
X182641955Y-107710871D01*
X182771639Y-107795308D01*
X182899359Y-107878575D01*
X183024310Y-107960147D01*
X183145686Y-108039503D01*
X183262682Y-108116119D01*
X183374494Y-108189472D01*
X183480314Y-108259038D01*
X183579340Y-108324294D01*
X183670763Y-108384717D01*
X183753780Y-108439786D01*
X183827586Y-108488975D01*
X183891373Y-108531762D01*
X183944338Y-108567623D01*
X183985676Y-108596036D01*
X184014579Y-108616478D01*
X184030244Y-108628424D01*
X184032014Y-108630039D01*
X184085566Y-108695146D01*
X184127125Y-108769321D01*
X184155572Y-108849380D01*
X184169782Y-108932141D01*
X184168631Y-109014419D01*
X184168383Y-109016549D01*
X184157479Y-109076255D01*
X184139807Y-109136857D01*
X184117497Y-109191976D01*
X184097958Y-109227501D01*
X184065655Y-109268670D01*
X184022527Y-109311426D01*
X183973539Y-109351229D01*
X183933888Y-109377639D01*
X183858701Y-109412880D01*
X183777047Y-109433888D01*
X183691979Y-109440435D01*
X183606548Y-109432292D01*
X183523805Y-109409234D01*
X183521521Y-109408357D01*
X183507324Y-109400990D01*
X183479784Y-109384848D01*
X183439706Y-109360456D01*
X183387898Y-109328339D01*
X183325169Y-109289020D01*
X183252327Y-109243026D01*
X183170177Y-109190878D01*
X183079528Y-109133103D01*
X182981187Y-109070225D01*
X182875962Y-109002767D01*
X182764661Y-108931256D01*
X182648091Y-108856213D01*
X182527059Y-108778164D01*
X182402372Y-108697635D01*
X182274840Y-108615148D01*
X182145268Y-108531230D01*
X182014464Y-108446403D01*
X181883236Y-108361192D01*
X181752393Y-108276121D01*
D11*
X213800000Y-101300000D03*
X213800000Y-130200000D03*
X74700000Y-130200000D03*
X74700000Y-101300000D03*
M02*
